<svg xmlns="http://www.w3.org/2000/svg" xmlns:xlink="http://www.w3.org/1999/xlink" viewBox="0 0 185.79 181.35"><defs><style>.cls-1{fill:#d29e08;}.cls-2{fill:#fdd875;}.cls-3{fill:#fdc20b;}.cls-4{fill:#303b45;}.cls-5{fill:#f6bbc6;}.cls-6{fill:#5b5b5a;}.cls-7{fill:#6773b6;}.cls-8{fill:#ebebeb;}.cls-9{fill:url(#Sfumatura_senza_nome_9);}.cls-10{fill:#353430;}.cls-11{fill:#eebcc5;}.cls-12{fill:#4e4c7f;}.cls-13{fill:#eaeaea;}.cls-14{fill:url(#Sfumatura_senza_nome_9-2);}</style><linearGradient id="Sfumatura_senza_nome_9" x1="168.68" y1="112.34" x2="139.55" y2="101.73" gradientUnits="userSpaceOnUse"><stop offset="0" stop-color="#424241" stop-opacity="0"/><stop offset="1" stop-color="#3c3c3b"/></linearGradient><linearGradient id="Sfumatura_senza_nome_9-2" x1="43.6" y1="42.21" x2="68.29" y2="42.21" xlink:href="#Sfumatura_senza_nome_9"/></defs><title>G14_05_02</title><g id="Livello_1" data-name="Livello 1"><polygon class="cls-1" points="185.79 123.83 185.79 128.58 96.32 181.35 96.32 176.6 185.79 123.83"/><polygon class="cls-2" points="96.32 176.6 96.32 181.35 0.22 125.62 0.22 120.87 96.32 176.6"/><polygon class="cls-3" points="96.1 176.62 0 120.89 0 120.62 90.31 68.72 185.79 123.84 96.25 176.71 96.1 176.62"/></g><g id="Livello_3" data-name="Livello 3"><path class="cls-4" d="M138.68,134.48s-.14,3.05-.18,3.32-1.32.93-3.21.55-7.2-2.15-8.13-3.06,2-.72,3.81-.55a27.73,27.73,0,0,0,4.16-.14c.66-.06-.92-9.92-.92-9.92l4.69.36Z" transform="translate(-3.82 -9.69)"/><circle class="cls-5" cx="136.38" cy="26.87" r="7.37"/><path class="cls-6" d="M151.12,78.41l-5.93,6.15s-4.8,16.45-5.29,20.38c-.3,2.46-.07,11.78-.33,19.42a.88.88,0,0,1-.67.68,7.18,7.18,0,0,1-4.69-.36c-.27-.11-1-.46-1.08-.76A208.91,208.91,0,0,1,132,101.15c0-7,1.8-28.88,1.8-28.88l17.44-2.83Z" transform="translate(-3.82 -9.69)"/><path class="cls-6" d="M146.78,43.93s5.9-2.79,8.11,0,8.59,15.82,9.33,19.75-1.36,12.74-2.09,15.2-2-.42-2-.42-.09-11.89-.33-12.87a90.65,90.65,0,0,0-4.85-9c-.67-1.09-2.26-3.2-2.26-3.2a77.22,77.22,0,0,1-2.46,8.11c-1,2.21,3.48,13.48,4,15.2s-6.63,2.44-10.31,2.68-10.11-6.59-10.11-6.59a5,5,0,0,0,1.39-3.83c-.46-6-2.61-16.93.57-18.52C140.15,48.2,146.78,43.93,146.78,43.93Z" transform="translate(-3.82 -9.69)"/><path class="cls-5" d="M160.58,54.38a52.31,52.31,0,0,1,3.64,9.3c.74,3.93-1.36,14.5-2.09,16.95s-2.76.09-2.76.09,0-13.73-.25-14.71c-.16-.61-2.38-5.56-4.05-9.23C158,57.08,159.3,55.75,160.58,54.38Z" transform="translate(-3.82 -9.69)"/><path class="cls-6" d="M135.73,50.41c1.18-.59,2.52-1.33,3.85-2.09,1.1.43,2,.82,2,.82l.74,7.4s-1.42,17.52-2.23,24.34c-9.21-1-8.61-3-8.61-3s3.41-7.1,2.84-9.89-2.84-6.45-2.84-9.29C131.47,53.65,133.65,51.45,135.73,50.41Z" transform="translate(-3.82 -9.69)"/><path class="cls-5" d="M105.62,18.8a3.16,3.16,0,1,0,3.16-3.16A3.17,3.17,0,0,0,105.62,18.8Z" transform="translate(-3.82 -9.69)"/><path class="cls-6" d="M144.92,55.43a30,30,0,0,0-1.36-9.33l-5.44,2.16s-2.36.79-3.61,1.1S121,40.25,118.64,38.21s-8-17.6-8-17.6-3-.63-3.46,1.1,5.18,18.23,5.81,20,15.24,16.49,22.63,16.81S144.92,55.43,144.92,55.43Z" transform="translate(-3.82 -9.69)"/><path class="cls-5" d="M157.83,81.7a2.35,2.35,0,1,0,2.35-2.35A2.35,2.35,0,0,0,157.83,81.7Z" transform="translate(-3.82 -9.69)"/><path class="cls-6" d="M150.68,71.55a25.48,25.48,0,0,1,3.6,10.2c.16,1.45-1.8,5.65-1.64,7.22.53,5.29,1.09,8.34,1.18,12.48.24,10.26,3.94,10.47,6.81,17.09,1.18,2.73,2.56,4.17,3.34,6.46.1.31-.5,1.5-.5,1.5l1.89,5.42-1.54.87L159.87,128l-.64.23c-4.14-5.05-9.61-12.7-10.64-13.73-1.63-1.63-7-29.59-7-29.59Z" transform="translate(-3.82 -9.69)"/><path class="cls-5" d="M144.91,38.43,146,46.34h0a4.72,4.72,0,0,1-4.5,2.83l-.91,0-1.76-8.32Z" transform="translate(-3.82 -9.69)"/><path class="cls-7" d="M135.35,38.71a1.53,1.53,0,0,1,2.33-1.2,2,2,0,0,1,.53,2.13,6,6,0,0,1-1.22,2,34.42,34.42,0,0,0,7.49,3.78l3.3-4.78a7.75,7.75,0,0,0,1.23-2.3,9.2,9.2,0,0,0-1.53-6.83,9.76,9.76,0,0,0-7-3.32c-2.16-.17-4.77,1.32-6.17,3C132.43,33.38,134.48,36.33,135.35,38.71Z" transform="translate(-3.82 -9.69)"/><path class="cls-5" d="M110.63,20.61s5.65,15.56,8,17.6c1.34,1.16,5.89,4.72,9.79,7.51-2,1.07-4.87,2.85-5.87,5.55-5-4.14-9.25-8.69-9.58-9.6-.63-1.73-6.28-18.23-5.81-20S110.63,20.61,110.63,20.61Z" transform="translate(-3.82 -9.69)"/><path class="cls-4" d="M163.82,132.79s.64,1.9,1.17,3.38,0,4.76.84,6.13,3.17.21,3.07-1a49.79,49.79,0,0,0-1.06-6.34,24,24,0,0,0-2.48-3.09l-1.89-5.42s.3-.11-1,.63a5.89,5.89,0,0,1-2.62.82Z" transform="translate(-3.82 -9.69)"/><path class="cls-8" d="M152.84,72.28l.92,3.09S143.44,81,136.67,78.94c-3.93-1.16-4.46-3.11-4.46-3.11l1-3.15s1.25,1.8,5.57,2.4C143.7,75.77,152.84,72.28,152.84,72.28Z" transform="translate(-3.82 -9.69)"/><path class="cls-8" d="M150.33,74.19l1.16-.34s-6.65-18.75-13-24.43a3.1,3.1,0,0,0-1.82-.68l-1.88.56s.83-.3,3.82,2.87C142.59,56.43,150.33,74.19,150.33,74.19Z" transform="translate(-3.82 -9.69)"/><path class="cls-7" d="M151,47.83c-.41,1.49-1.66,2.72-1.69,4.26a11.63,11.63,0,0,0,.34,2.1,5.16,5.16,0,1,1-10.26.92,4,4,0,0,0-.19-1.69c-.26-.54-.82-.87-1.2-1.33-1.47-1.77,0-4.46-.39-6.71-.16-.86-1-2.14-.92-3,.18-1.46,2.1-1.58,2.71-2.77,1-1.89-.1-3.43.11-5.37a3.88,3.88,0,0,1,5.19-3.46,8.06,8.06,0,0,1,5.05,5.55c.47,1.78.15,3.68.45,5.49C150.48,43.79,151.52,45.79,151,47.83Z" transform="translate(-3.82 -9.69)"/><path class="cls-9" d="M143,92.14s3.2,16.67,4.92,21c.64,1.62,2.72,3.91,4.64,6.43l6.63,8.63.59-.26a7.31,7.31,0,0,0,2.67-.79A2.61,2.61,0,0,0,164,125s-2-4.43-4.61-8.93c-1.61-2.75-2.92-3.87-4.45-7.5-.87-2-1-6.29-1.28-9.93-.29-3.45-.85-7.64-1-9.84a2.82,2.82,0,0,1,.22-1.5s-3.66,2.37-4.88,3S143,92.14,143,92.14Z" transform="translate(-3.82 -9.69)"/></g><g id="Livello_4" data-name="Livello 4"><path class="cls-4" d="M66.07,124.13a29.78,29.78,0,0,0-.38,4.24,2.76,2.76,0,0,0,.83,2.14,35,35,0,0,0,3.79.83c.87,0,3.74,2.33,5.83,2.47s4.77.78,5.06-.87-10.31-8.22-10.31-8.22l-.82-9.42-6.29,1.25Z" transform="translate(-3.82 -9.69)"/><path class="cls-10" d="M65.56,58.61s-5.75,15.8-7.47,20.11-15.52,26.72-15.52,26.72l-4.88-1.15s9.76-22.13,11.49-27.87,2.87-17.24,2.87-17.24Z" transform="translate(-3.82 -9.69)"/><path class="cls-6" d="M43.05,59.65s-1,7-.48,9.3,14.37,19.82,15.8,23.84,2.69,24.43,5,25.58,7.39-.87,7.39-.87L68.57,87.78a9,9,0,0,0-1-3.55L56.36,62.91Z" transform="translate(-3.82 -9.69)"/><path class="cls-10" d="M65.61,24.27c-.29,0-25.94,3.23-29.24,5.43s-5.78,8.81-5.78,8.81.82,1.92,3.85,1.65,8.53-5,11.29-5.23l21.74-2.2S69,23.79,65.61,24.27Z" transform="translate(-3.82 -9.69)"/><path class="cls-6" d="M55.4,25.86S63,23.38,66,24.12A4.88,4.88,0,0,1,69.81,28c.25,1-4.25,30.63-4.25,30.63s-13,9-18.39,6.32c-3.93-2-4.25-4.19-4.12-5.28a14.37,14.37,0,0,0,.12-2l2.65-25.25Z" transform="translate(-3.82 -9.69)"/><path class="cls-11" d="M66.51,14.14a7.21,7.21,0,1,1-9.43-3.89A7.21,7.21,0,0,1,66.51,14.14Z" transform="translate(-3.82 -9.69)"/><path class="cls-11" d="M64.63,20.06l-2.45,7.42h0L62,33S58.1,28.6,57,28h0a1.12,1.12,0,0,1-.57-1.28l1.83-7.2Z" transform="translate(-3.82 -9.69)"/><path class="cls-12" d="M64.62,13.1a1.79,1.79,0,0,0,.61-.93.11.11,0,0,0,0-.05,7.21,7.21,0,0,0-12,7.56,7.46,7.46,0,0,0,.42.85,2.48,2.48,0,0,0,.89-.4c.59-.44,1.75-2.79.92-3.39l1.22.88A1.75,1.75,0,0,0,56.59,16,10.71,10.71,0,0,0,64.62,13.1Z" transform="translate(-3.82 -9.69)"/><path class="cls-11" d="M56.14,18.71a2.2,2.2,0,1,1-2.88-1.18A2.2,2.2,0,0,1,56.14,18.71Z" transform="translate(-3.82 -9.69)"/><path class="cls-11" d="M32.27,38.9a2.67,2.67,0,1,1-3.71.65A2.67,2.67,0,0,1,32.27,38.9Z" transform="translate(-3.82 -9.69)"/><path class="cls-4" d="M40.24,104.89s-1.58,3-2.09,4.2-.26,10.79-2.06,11-1.93-3.6-1.93-7.58,3.53-8.27,3.53-8.27Z" transform="translate(-3.82 -9.69)"/><path class="cls-6" d="M59.9,28l-1,2.32-3.13.43-1.68-3.17S55.31,25.39,56,25a2.56,2.56,0,0,1,.84,0l-.15.75Z" transform="translate(-3.82 -9.69)"/><polygon class="cls-10" points="56.44 21.11 55.74 21.2 54.97 20.97 56.08 18.35 56.44 21.11"/><circle class="cls-13" cx="54.32" cy="19.02" r="0.86"/><path class="cls-8" d="M66.17,54.52l-.61,4.09s-10.86,6-18.43,3.71c-4.4-1.3-4.44-4.37-4.3-5.51a7.83,7.83,0,0,1,.4-1.5s1.41,2,6.23,2.69C55,58.77,66.17,54.52,66.17,54.52Z" transform="translate(-3.82 -9.69)"/><path class="cls-8" d="M62.41,57l1.29-.38s-6.15-19-13.29-25.39a3.25,3.25,0,0,0-1.87-.78c-.54.44-1.3.88-1.58,1.2,0,0,1-.23,4.34,3.31C55.79,39.72,62.41,57,62.41,57Z" transform="translate(-3.82 -9.69)"/><path class="cls-14" d="M53.43,52.82c3-1.38,14.86-17.89,14.86-17.89V30.8s-20.64,1.1-22.47,1.63L43.6,53.52C46.5,53.67,51.37,53.75,53.43,52.82Z" transform="translate(-3.82 -9.69)"/><path class="cls-6" d="M45.82,32.43S63.16,31,69.19,29,92.27,15.22,92.27,15.22l4.19,1.25S76.94,34.1,72.63,36.11,46,41.65,46,41.65,42.18,35.84,45.82,32.43Z" transform="translate(-3.82 -9.69)"/><path class="cls-11" d="M96.61,12.45a3,3,0,1,1-4.24.73A3,3,0,0,1,96.61,12.45Z" transform="translate(-3.82 -9.69)"/></g></svg>