<svg xmlns="http://www.w3.org/2000/svg" viewBox="0 0 196 160.97"><defs><style>.cls-1{isolation:isolate;}.cls-2{fill:#d29e08;}.cls-3{fill:#fdd875;}.cls-4{fill:#fdc20b;}.cls-5{fill:#e6e9f3;}.cls-6{fill:#ced2e3;}.cls-7{fill:#fff;}.cls-8{fill:#6786a0;}.cls-9{fill:#ded5bd;}.cls-10{fill:#fff8e7;}.cls-11{fill:#3a4169;}.cls-12{fill:#f08cb8;}.cls-12,.cls-15{mix-blend-mode:multiply;}.cls-13{fill:#d9d0d8;}.cls-14{fill:#454544;}.cls-15{fill:#dcc2b2;}.cls-16{fill:none;stroke:#454544;stroke-linecap:round;stroke-linejoin:round;stroke-width:2.13px;}.cls-17{fill:#d19e07;}</style></defs><title>G14_02</title><g class="cls-1"><g id="Criminal"><polygon class="cls-2" points="185.79 103.45 185.79 108.2 96.32 160.97 96.32 156.22 185.79 103.45"/><polygon class="cls-3" points="96.32 156.22 96.32 160.97 0.22 105.24 0.22 100.49 96.32 156.22"/><polygon class="cls-4" points="96.1 156.24 0 100.51 0 100.24 90.31 48.34 185.79 103.46 96.25 156.33 96.1 156.24"/><polygon class="cls-2" points="88.37 61.58 38.47 90.58 110.45 132.14 160.36 103.14 88.37 61.58"/><polyline class="cls-5" points="109.76 122.91 42.31 83.97 42.31 90.96 109.76 129.9 109.76 122.91"/><polygon class="cls-6" points="109.76 122.91 109.76 129.9 156.51 102.73 156.51 95.74 109.76 122.91"/><polygon class="cls-7" points="89.07 56.8 42.31 83.97 109.76 122.91 156.51 95.74 89.07 56.8"/><polygon class="cls-8" points="108.95 71.01 70.14 93.56 70.99 94.06 109.81 71.5 108.95 71.01"/><polygon class="cls-8" points="91.34 95.08 111.64 83.28 110.79 82.79 90.49 94.59 91.34 95.08"/><polygon class="cls-8" points="113.79 73.8 74.97 96.35 75.82 96.84 114.64 74.29 113.79 73.8"/><polygon class="cls-8" points="116.2 75.19 77.39 97.75 78.24 98.24 117.05 75.68 116.2 75.19"/><polygon class="cls-8" points="122.91 79.06 84.09 101.62 84.95 102.11 123.76 79.56 122.91 79.06"/><polygon class="cls-8" points="125.33 80.46 86.51 103.02 87.36 103.51 126.18 80.95 125.33 80.46"/><polygon class="cls-8" points="127.74 81.85 88.93 104.41 89.78 104.9 128.59 82.35 127.74 81.85"/><polygon class="cls-8" points="130.16 83.25 91.34 105.81 92.19 106.3 131.01 83.74 130.16 83.25"/><polygon class="cls-8" points="132.57 84.64 93.76 107.2 94.61 107.69 133.43 85.14 132.57 84.64"/><polygon class="cls-8" points="134.99 86.04 96.17 108.59 97.03 109.09 135.84 86.53 134.99 86.04"/><polygon class="cls-8" points="111.37 72.4 72.56 94.96 73.41 95.45 112.22 72.89 111.37 72.4"/><polygon class="cls-8" points="106.54 69.61 67.72 92.17 68.58 92.66 107.39 70.1 106.54 69.61"/><polygon class="cls-8" points="104.12 68.22 65.31 90.77 66.16 91.27 104.97 68.71 104.12 68.22"/><polygon class="cls-8" points="72.56 84.23 92.86 72.44 92 71.95 71.7 83.74 72.56 84.23"/><polygon class="cls-8" points="89.25 63.93 57.86 82.18 60.05 83.44 91.44 65.19 89.25 63.93"/><path class="cls-9" d="M150,95.42l-.1-.06-.11-.06a2.06,2.06,0,0,1-1.24-.24c-.35-.2-.49-.47-.41-.71l-.21-.13-.21-.12a2.11,2.11,0,0,1-1.24-.23c-.35-.21-.49-.48-.41-.72l-.21-.12-.22-.13a2,2,0,0,1-1.23-.23c-.36-.2-.49-.48-.41-.71l-.21-.13-.22-.12a2.08,2.08,0,0,1-1.23-.23c-.36-.21-.5-.48-.41-.72l-.11-.06-.1-.06L140.55,90l-1.15.67-.08,0-.13.08c.09.23,0,.5-.38.7a2,2,0,0,1-1.2.21l-.21.12-.21.12c.1.24,0,.51-.37.7a1.93,1.93,0,0,1-1.21.22l-.2.12-.21.12c.09.24,0,.51-.37.7a1.94,1.94,0,0,1-1.21.22l-.21.12-.2.12c.09.24,0,.5-.38.7a2,2,0,0,1-1.21.22l-.2.12-.21.12c.1.24,0,.5-.37.7a2,2,0,0,1-1.21.22l-.21.12-.2.12c.09.23,0,.5-.37.7a2,2,0,0,1-1.21.22l-.13.07-.08,0-1.15.67,1.16.67.1.06.11.06a2,2,0,0,1,1.24.24c.35.2.49.47.41.71l.21.12.22.13a2.1,2.1,0,0,1,1.23.23c.35.2.49.48.41.72l.21.12.22.12a2,2,0,0,1,1.23.24c.35.2.49.47.41.71l.21.13.22.12a2.08,2.08,0,0,1,1.23.23c.36.21.5.48.41.72l.11.06.11.06,1.15.67,1.16-.67.07,0,.13-.08c-.09-.23,0-.5.38-.7a2.06,2.06,0,0,1,1.2-.22l.21-.12.21-.12c-.1-.23,0-.5.37-.7a2.07,2.07,0,0,1,1.21-.22l.2-.12.21-.12c-.09-.23,0-.5.38-.7a2,2,0,0,1,1.2-.22l.21-.11.2-.13c-.09-.23,0-.5.38-.69a1.91,1.91,0,0,1,1.2-.22l.21-.12.21-.12c-.09-.24,0-.51.37-.7A2,2,0,0,1,147.8,98l.21-.12.2-.12c-.09-.24,0-.5.38-.7a2,2,0,0,1,1.2-.22l.13-.08.08,0,1.15-.67Z" transform="translate(-2.87 -1.72)"/><polygon class="cls-10" points="137.69 89.64 125.81 96.54 133.99 101.26 145.87 94.36 137.69 89.64"/><path class="cls-11" d="M112.85,115.72a1.12,1.12,0,0,1-.95.83,3,3,0,0,1-1.59-.48l-.16-.09a9.79,9.79,0,0,1-3-2.56c-.87-1.15-1.33-2.52-.25-3.68a3.4,3.4,0,0,1,1.82-1.09,4.38,4.38,0,0,1,2.19.12,6.78,6.78,0,0,1,1.19.52l.19.12a1.66,1.66,0,0,1,1.07.06.61.61,0,0,1,.15.12.41.41,0,0,1,.09.19,4,4,0,0,1,1.54-.16c.08,0-.15.25-.17.27a11.64,11.64,0,0,0-1.31,1,2.17,2.17,0,0,1,.07.24.12.12,0,0,1,0,.08c.43-.24.89-.48,1.35-.7a19.18,19.18,0,0,0,2.08-1c.48-.3.92-.62,1.41-.92a2.9,2.9,0,0,1,1.1-.46c.07,0-.1.32-.27.34a3.06,3.06,0,0,0-1.29.63c-.38.25-.74.52-1.15.75-1.34.78-2.95,1.36-4.2,2.2-.07,0-.13.06-.16,0s0,0,0-.1a4.07,4.07,0,0,1,.68-.91,2.73,2.73,0,0,0-.23-.4l-.14.08a3.48,3.48,0,0,1-.61.22s-.1.06-.12,0l-.57.12a1.44,1.44,0,0,0,.54.59c.09,0-.05.23-.19.3l.21.36a7.48,7.48,0,0,1,.58,1.64c1.16-.88,2.31-1.76,3.57-2.58.88-.58,1.79-1.14,2.7-1.71.37-.23.72-.48,1.09-.71a1.78,1.78,0,0,1,.77-.3h.06c.06,0,0,.15-.12.16a2.38,2.38,0,0,0-1.1.55l-1.08.68c-.89.55-1.79,1.1-2.63,1.69-1.11.77-2.17,1.56-3.23,2.36A3,3,0,0,1,112.85,115.72Zm-.68.49c.37,0,.35-.37.37-.55a4.15,4.15,0,0,0-.12-1.21l-1.11.82a.12.12,0,0,1-.12,0s0-.08,0-.12l1.17-.87-.06-.26a5.31,5.31,0,0,0-.75-1.74.18.18,0,0,1-.07,0,1.62,1.62,0,0,1,.25,1,.84.84,0,0,1-1,.71,1.77,1.77,0,0,1-.45-.18,3.49,3.49,0,0,1-1-.92c-.29-.39-.64-.81-.43-1.24a1.36,1.36,0,0,1,.86-.66.41.41,0,0,1,0-.16c0-.49.77-.74,1.47-.73a1.39,1.39,0,0,1,.47-.5l.1-.06a6.09,6.09,0,0,0-.63-.3,3.81,3.81,0,0,0-3.62.15c-2.14,1.72.09,4.2,2.08,5.64a8.75,8.75,0,0,0,.9.59,5,5,0,0,0,.84.4,1.73,1.73,0,0,0,.83.14M111,111.67l-.14-.1-.09,0c-.34-.17-1.29-.4-1.48,0s.31,1,.68,1.43a3.2,3.2,0,0,0,.7.6l.11.06c.22.11.61.24.62,0a2.56,2.56,0,0,0-.7-1.59c-.06-.07.19-.29.3-.32m3.67-1.73a3.72,3.72,0,0,0-1,.1,1,1,0,0,1-.22.34,3.48,3.48,0,0,1,.22.36,12,12,0,0,1,1-.8m-2.64-.2a.63.63,0,0,0-.5.37s0,0,0,.07a1.75,1.75,0,0,1,.7.22.89.89,0,0,1,.22.16,2.47,2.47,0,0,1,.28-.28,4.86,4.86,0,0,0-.69-.54m-.94,1.2a1.29,1.29,0,0,1,0-.44H111a2.41,2.41,0,0,0-.71,0c-.21,0-.28.22-.11.31l0,0a1.84,1.84,0,0,0,.84.09m.44-.06a3.58,3.58,0,0,0,.45-.09l-.09-.06a2.19,2.19,0,0,0-.41-.16,1.12,1.12,0,0,0,.05.31m1.89.52c0-.05,0-.1,0-.14a2.54,2.54,0,0,0-.29.36,3.79,3.79,0,0,1,.34-.2v0m-.45-1.64-.18,0a3.11,3.11,0,0,1,.33.29l.16-.09a.53.53,0,0,0-.11-.09l-.2-.08m0,.74-.09-.1a1.29,1.29,0,0,0-.2.21h0l.24-.1m.36-.35,0,0,0,0v0m-2.12,1.09v0h0l0,0h0" transform="translate(-2.87 -1.72)"/><path class="cls-12" d="M143.62,91.7a6.5,6.5,0,0,0-5.89,0c-1.62.94-1.61,2.47,0,3.41a6.5,6.5,0,0,0,5.89,0C145.26,94.17,145.25,92.64,143.62,91.7Zm-.59,3a5.13,5.13,0,0,1-4.67,0c-1.29-.74-1.3-2,0-2.7a5.17,5.17,0,0,1,4.66,0C144.3,92.8,144.31,94,143,94.75Zm2.67-4.26a11.11,11.11,0,0,0-10.06,0c-2.76,1.61-2.75,4.22,0,5.83a11.12,11.12,0,0,0,10,0C148.5,94.71,148.48,92.1,145.7,90.49Zm-1,5.23a8.86,8.86,0,0,1-8,0c-2.21-1.28-2.22-3.36,0-4.64a8.83,8.83,0,0,1,8,0C146.9,92.36,146.91,94.44,144.71,95.72Z" transform="translate(-2.87 -1.72)"/><path class="cls-2" d="M91.66,146.66l.42.29.2.13c.14.1.28.18.41.26l.15.1.39.22.12.06.44.21a7,7,0,0,0-.26-.76c-.21-.47-.33-.76-.7-1.45a1.51,1.51,0,0,0-.09-.18h0c-.32-.6-.85-1.51-1.67-2.78l-.22-.34-.07-.1c-.1-.15-.2-.31-.33-.49l-.06-.08-.22-.33h0a55,55,0,0,0-3.74-4.84l-1.32-1.5-2-2.26-1.31-1.5-.27-.3h0l-.71-.81h0l-.19-.21c-.89-1-1.83-2.07-2.78-3.16l-2.91-3.3-2.83-3.22-2.59-2.94-2.16-2.44-.19-.22h0l-.37-.42h0l-.79-.9-.11-.12-.18-.21h0l-.63-.72a1,1,0,0,0-1-.22l-.09,0-.43-.48-.36-.41a8.27,8.27,0,0,0-1.15-1.19,3.55,3.55,0,0,0-.87-.52,1.58,1.58,0,0,0-.94-.11.64.64,0,0,0-.48.45.29.29,0,0,0,0,.09,2,2,0,0,0,.14,1.19,4.79,4.79,0,0,0,.89,1.35c.4.47.81.93,1.22,1.39l0,0a1,1,0,0,0,.1,1l.64.73h0l.17.19.23.26h0c.23.27.47.53.7.79l.36.42,0,0q3.85,4.38,7.72,8.77l5.69,6.45c.28.32.6.69.92,1h0l.37.43,0,0h0l1.15,1.31,1.07,1.22,2.25,2.55c.6.67,1.38,1.52,2.64,2.74.6.59,1.18,1.13,1.68,1.57h0l.27.25.12.11.22.19.11.09.18.16.09.08.2.17c1,.81,1.83,1.49,2.6,2h0Z" transform="translate(-2.87 -1.72)"/><path class="cls-13" d="M65.71,111.87l-.28-.32-.17-.2-.51-.59-.36-.41a8.87,8.87,0,0,0-1.15-1.19,3.45,3.45,0,0,0-.87-.53,1.58,1.58,0,0,0-.94-.1A.62.62,0,0,0,61,109a.29.29,0,0,0,0,.09,1.91,1.91,0,0,0,.14,1.19,4.64,4.64,0,0,0,.88,1.36l1.77,2a.68.68,0,0,1-.06-.68,2.08,2.08,0,0,1,1.42-1.23.66.66,0,0,1,.64.16Z" transform="translate(-2.87 -1.72)"/><path class="cls-14" d="M94.54,146.35c-.2-.47-.32-.76-.68-1.45s-.86-1.57-1.76-3a57.47,57.47,0,0,0-4.62-6.19l-1.32-1.5-2-2.27-2.47-2.83L78.92,126,76,122.67l-2.83-3.23-2.58-3L68.47,114l-2.26-2.59a1,1,0,0,0-.95-.23,3.09,3.09,0,0,0-2.12,1.83,1,1,0,0,0,.09,1q4.92,5.61,9.83,11.21l5.66,6.48L80,133.22l1.19,1.35,1.06,1.22,2.24,2.56c.6.67,1.38,1.53,2.63,2.75s2.45,2.26,2.89,2.64a22.6,22.6,0,0,0,4.78,3.37A5.82,5.82,0,0,0,94.54,146.35Z" transform="translate(-2.87 -1.72)"/><path class="cls-5" d="M94.8,147.11a5.82,5.82,0,0,0-.26-.76c-.2-.47-.32-.76-.68-1.45s-.86-1.57-1.76-3l-.89-1.34-.23,0a3.08,3.08,0,0,0-2.12,1.82c0,.08,0,.16,0,.23.54.49,1,.87,1.21,1.07A22.6,22.6,0,0,0,94.8,147.11Z" transform="translate(-2.87 -1.72)"/><path class="cls-11" d="M92.61,145.79c.89.64,2,1.49,2.19,1.32s-.58-1.52-.94-2.21l-.1-.18A3.19,3.19,0,0,0,92.61,145.79Z" transform="translate(-2.87 -1.72)"/><path class="cls-5" d="M83,130.59l-.36-.42a1.38,1.38,0,0,0-.4,0,3.55,3.55,0,0,0-2.46,2.12,2.12,2.12,0,0,0-.11.47l.38.43,0,0a1,1,0,0,1,0-.83,3.21,3.21,0,0,1,2.21-1.91A1.06,1.06,0,0,1,83,130.59Z" transform="translate(-2.87 -1.72)"/><path class="cls-5" d="M79,131.2a3.2,3.2,0,0,1,2.2-1.91,1.11,1.11,0,0,1,.72.07l-.19-.22-.18-.21a2,2,0,0,0-.41,0,3.56,3.56,0,0,0-2.46,2.12,2.12,2.12,0,0,0-.1.46c.06.07.12.13.17.2L79,132A1,1,0,0,1,79,131.2Z" transform="translate(-2.87 -1.72)"/><path class="cls-5" d="M68.28,113.82l-.37-.42a1.4,1.4,0,0,0-.4,0,3.57,3.57,0,0,0-2.45,2.12A1.76,1.76,0,0,0,65,116l.38.43,0,0a1,1,0,0,1,0-.83,3.24,3.24,0,0,1,2.2-1.91A1.15,1.15,0,0,1,68.28,113.82Z" transform="translate(-2.87 -1.72)"/><path class="cls-5" d="M64.28,114.43a3.23,3.23,0,0,1,2.21-1.91,1.18,1.18,0,0,1,.72.07l-.19-.21-.18-.21a1.44,1.44,0,0,0-.41,0A3.61,3.61,0,0,0,64,114.32a1.65,1.65,0,0,0-.1.47L64,115l.23.26A1.08,1.08,0,0,1,64.28,114.43Z" transform="translate(-2.87 -1.72)"/><path class="cls-15" d="M73.28,122.84c-.06-.15-.1-.23-.2-.44s-.26-.47-.53-.89a18.71,18.71,0,0,0-1.38-1.85l-.4-.45c-.17-.2-.37-.43-.6-.68s-.47-.55-.74-.85l-.83-1-.87-1-.84-1c-.24-.26-.54-.62-.78-.88l-.64-.74-.68-.77a.28.28,0,0,0-.28-.07.93.93,0,0,0-.64.55.3.3,0,0,0,0,.3l2.94,3.36c.57.65,1.14,1.29,1.7,1.94l.39.44.35.41.32.36.67.77c.18.2.42.46.79.82a11.32,11.32,0,0,0,.87.79,6.08,6.08,0,0,0,1.43,1A2.32,2.32,0,0,0,73.28,122.84Z" transform="translate(-2.87 -1.72)"/><path class="cls-13" d="M73.29,122.38l-.2-.44c-.1-.17-.26-.47-.53-.89a17.71,17.71,0,0,0-1.39-1.85l-.39-.45-.6-.68-.74-.85-.83-1-.87-1-.84-1-.78-.89-.64-.73-.68-.78a.32.32,0,0,0-.28-.07.93.93,0,0,0-.64.55.3.3,0,0,0,0,.3l2.94,3.36c.57.65,1.13,1.3,1.7,1.94l.39.44c.1.13.24.29.35.41l.32.37c.23.25.45.51.67.76s.41.46.79.83.73.67.87.79a6.77,6.77,0,0,0,1.43,1C73.33,122.49,73.32,122.45,73.29,122.38Z" transform="translate(-2.87 -1.72)"/><circle class="cls-2" cx="160.54" cy="35.45" r="35.45"/><polygon class="cls-2" points="123.9 71.4 142.58 61.39 133.71 52.14 123.9 71.4"/><rect class="cls-16" x="140.78" y="16.28" width="39.16" height="27.33" rx="2" ry="2"/><line class="cls-16" x1="140.78" y1="47.28" x2="179.94" y2="47.28"/><line class="cls-16" x1="147.78" y1="57.53" x2="157.48" y2="47.82"/><line class="cls-16" x1="172.94" y1="57.53" x2="163.23" y2="47.82"/><polygon class="cls-16" points="160.71 23.84 153.66 36.05 167.76 36.05 160.71 23.84"/><circle class="cls-8" cx="160.71" cy="23.84" r="4.75"/><path class="cls-17" d="M163.58,21.31a4.26,4.26,0,1,1-4.25,4.25,4.26,4.26,0,0,1,4.25-4.25m0-1a5.26,5.26,0,1,0,5.26,5.25,5.26,5.26,0,0,0-5.26-5.25Z" transform="translate(-2.87 -1.72)"/><circle class="cls-8" cx="153.66" cy="36.05" r="4.75"/><path class="cls-17" d="M156.54,33.52a4.25,4.25,0,1,1-4.25,4.25,4.25,4.25,0,0,1,4.25-4.25m0-1a5.25,5.25,0,1,0,5.25,5.25,5.25,5.25,0,0,0-5.25-5.25Z" transform="translate(-2.87 -1.72)"/><circle class="cls-8" cx="167.76" cy="36.05" r="4.75"/><path class="cls-17" d="M170.63,33.52a4.25,4.25,0,1,1-4.25,4.25,4.25,4.25,0,0,1,4.25-4.25m0-1a5.25,5.25,0,1,0,5.25,5.25,5.25,5.25,0,0,0-5.25-5.25Z" transform="translate(-2.87 -1.72)"/></g></g></svg>