<svg xmlns="http://www.w3.org/2000/svg" xmlns:xlink="http://www.w3.org/1999/xlink" viewBox="0 0 393.45 218.63"><defs><style>.cls-1{fill:#d29e08;}.cls-2{fill:#fdd875;}.cls-3{fill:#fdc20b;}.cls-4{fill:#464545;}.cls-5{fill:#251f12;}.cls-6{fill:#c7c9cd;}.cls-7{fill:#5d5d5d;}.cls-8{fill:#424241;}.cls-22,.cls-27,.cls-29,.cls-9{fill:#6786a0;}.cls-21,.cls-27,.cls-29,.cls-9{opacity:0.9;}.cls-10{fill:#323232;}.cls-11{fill:#010101;}.cls-12{fill:#fcbd0b;}.cls-13{fill:#262529;}.cls-14{fill:url(#linear-gradient);}.cls-15{fill:#da2715;}.cls-16{fill:url(#linear-gradient-2);}.cls-17{fill:#b8b8b8;}.cls-18{fill:#878787;}.cls-19{fill:#fff;}.cls-20{fill:#e7e6e6;}.cls-23{fill:#202121;}.cls-24{fill:#e6332a;}.cls-25{fill:none;stroke:#fdc20b;stroke-linecap:round;stroke-linejoin:round;stroke-width:5px;stroke-dasharray:12;}.cls-26{fill:#3c3c3b;}.cls-27,.cls-29{stroke:#473763;stroke-miterlimit:10;}.cls-27{stroke-width:1.12px;}.cls-28{fill:#d9d0d8;}.cls-29{stroke-width:0.74px;}.cls-30{fill:#eaeaea;}.cls-31{fill:url(#linear-gradient-3);}.cls-32{fill:url(#linear-gradient-4);}.cls-33{fill:#473763;}.cls-34{fill:#1d71b8;}.cls-35{fill:#be1622;}.cls-36{fill:#36a9e1;}</style><linearGradient id="linear-gradient" x1="-428.24" y1="163.65" x2="-405.95" y2="184.14" gradientTransform="matrix(-1, 0, 0, 1, -74.05, 0)" gradientUnits="userSpaceOnUse"><stop offset="0" stop-color="#d9d9d9"/><stop offset="0.08" stop-color="#bfbebf"/><stop offset="0.83" stop-color="#a3a5a5"/><stop offset="1" stop-color="#6f7171"/></linearGradient><linearGradient id="linear-gradient-2" x1="-440.12" y1="186.93" x2="-411.64" y2="186.93" xlink:href="#linear-gradient"/><linearGradient id="linear-gradient-3" x1="39.93" y1="58.61" x2="62.22" y2="79.1" gradientTransform="matrix(-1, 0, 0, 1, 182.29, 0)" xlink:href="#linear-gradient"/><linearGradient id="linear-gradient-4" x1="28.06" y1="81.89" x2="56.53" y2="81.89" gradientTransform="matrix(-1, 0, 0, 1, 182.29, 0)" xlink:href="#linear-gradient"/></defs><title>G14_06_04</title><g id="Livello_1" data-name="Livello 1"><polygon class="cls-1" points="185.79 55.11 185.79 59.86 96.32 112.64 96.32 107.89 185.79 55.11"/><polygon class="cls-2" points="96.32 107.89 96.32 112.64 0.22 56.9 0.22 52.16 96.32 107.89"/><polygon class="cls-3" points="96.1 107.9 0 52.17 0 51.91 90.31 0 185.79 55.13 96.25 107.99 96.1 107.9"/><polygon class="cls-1" points="393.45 161.11 393.45 165.86 303.99 218.63 303.99 213.89 393.45 161.11"/><polygon class="cls-2" points="303.99 213.89 303.99 218.63 207.89 162.9 207.89 158.16 303.99 213.89"/><polygon class="cls-3" points="303.76 213.9 207.67 158.17 207.67 157.91 297.97 106 393.45 161.13 303.91 213.99 303.76 213.9"/><path class="cls-1" d="M318.55,198.24c-16.68-4.5-54-31.69-66.94-41.35-2.49-1.86-2.29-4.63.43-6.14l15-8.34,8.12,13.06,62.6,42.13S323.18,199.48,318.55,198.24Z" transform="translate(-4.52 -8.55)"/><polygon class="cls-4" points="321.57 188.49 326.42 185.69 321.57 183.19 321.57 188.49"/><polygon class="cls-5" points="256.29 141.98 256.28 145.21 263.47 150.22 261.5 145.31 256.29 141.98"/><path class="cls-6" d="M275.12,159.28c-1.83-1.05-3.32-.2-3.33,1.9a7.29,7.29,0,0,0,3.31,5.73c1.82,1.06,3.32.2,3.33-1.89A7.36,7.36,0,0,0,275.12,159.28Z" transform="translate(-4.52 -8.55)"/><path class="cls-4" d="M280.8,166.53v-.15a9,9,0,0,0-.18-1.68,4.2,4.2,0,0,0,.51.05,3.87,3.87,0,0,0,2-.54,8.2,8.2,0,0,0,1.27,2.77L279.14,170A3.91,3.91,0,0,0,280.8,166.53Z" transform="translate(-4.52 -8.55)"/><path class="cls-7" d="M280.8,166.38v.15c-.08,3.5-2.61,4.89-5.71,3.1a12.48,12.48,0,0,1-5.67-9.81c0-3.62,2.56-5.07,5.71-3.26A12.51,12.51,0,0,1,280.8,166.38Zm-5.7.53c1.82,1.06,3.32.2,3.33-1.89a7.36,7.36,0,0,0-3.31-5.74c-1.83-1.05-3.32-.2-3.33,1.9a7.29,7.29,0,0,0,3.31,5.73Z" transform="translate(-4.52 -8.55)"/><path class="cls-8" d="M291.61,124.7a4.76,4.76,0,0,0-3.79.23l-25.49,14.54c-.28.17-1.05,1.08-1,1.27s.82-.42,1.06-.32l7.85,3.37,28.24-16.14Z" transform="translate(-4.52 -8.55)"/><path class="cls-9" d="M302.24,157.47c-1.41-1.08-2.76-2.06-4.08-3v5.31l14.57,8.82,1.52.78A71.76,71.76,0,0,0,302.24,157.47Z" transform="translate(-4.52 -8.55)"/><path class="cls-10" d="M260.82,148.67v1.86l5.21,3.33,2,4.91.48.33c.09-4.08,3-5.72,6.66-3.63a14.72,14.72,0,0,1,6,7.87l.54,2.41a9.61,9.61,0,0,1,.08,1.18l-.95-.55c9.34,5.55,23.61,13.79,34.43,20,0-4.2,3-5.9,6.65-3.79a14.66,14.66,0,0,1,6,7.87l.52,2.28,3.49,2,.69-.85,5.2,2.83c.22,0,0-4.63,0-4.63a8.18,8.18,0,0,0-1-3.39c-4-6.39-12.11-12.26-15.85-15.07l-.16-.09a.53.53,0,0,1-.1-.06c-2.12-2.35-4.71-5.33-7.59-8.9-1.94-2.42-5.62-5.89-7.27-7.85-1.43-1.34-2.51-1.55-4.23-2.88a83.45,83.45,0,0,0-9.37-6.27c-1.49-.86-3-1.68-4.57-2.46-.53-.26-1.05-.49-1.58-.7a25.43,25.43,0,0,0-15.82-.67l-7.85-3.37a.82.82,0,0,0-1.18.63l-.38,1.9v.49c1.93,1.11,0,3.12,0,3.12Zm53.42,20.75L276.89,147c.22-.23,5.88-2,16.2,4.14a40.81,40.81,0,0,1,5.07,3.36A106.28,106.28,0,0,1,312,166.71Zm5.17,3.06c.3.26.75.6,1.3,1h0C320.16,173.08,319.71,172.74,319.41,172.48Z" transform="translate(-4.52 -8.55)"/><path class="cls-11" d="M268.47,159.1c.09-4.08,3-5.72,6.66-3.63a14.72,14.72,0,0,1,6,7.87l.54,2.41a9.61,9.61,0,0,1,.08,1.18l-.95-.55a12.51,12.51,0,0,0-5.67-9.82c-3.15-1.81-5.7-.36-5.71,3.26l-.95-.55Z" transform="translate(-4.52 -8.55)"/><path class="cls-9" d="M280.83,146.63a7.34,7.34,0,0,0-3.94.38l3.87,2.33C280.79,148.71,280.83,147.66,280.83,146.63Z" transform="translate(-4.52 -8.55)"/><path class="cls-12" d="M366.08,177.29c0,.06,0,.11,0,.16h0C366.07,177.4,366.08,177.35,366.08,177.29Z" transform="translate(-4.52 -8.55)"/><path class="cls-13" d="M366.07,176V176h0Z" transform="translate(-4.52 -8.55)"/><path class="cls-9" d="M298.16,154.51c-1.53-1.61-12.26-8.34-17.33-7.88l-.07,2.71,17.39,10.48C298.26,159,298.14,156.32,298.16,154.51Z" transform="translate(-4.52 -8.55)"/><path class="cls-8" d="M298.48,127.65a25.47,25.47,0,0,1,15.83.67h0c.52.21,1.05.44,1.57.7,1.55.78,3.08,1.6,4.57,2.46a83.86,83.86,0,0,1,9.37,6.26c1.73,1.34,3.67,3,5.1,4.36a277.38,277.38,0,0,1-27.95,16c-1.42-1.34-3.67-2.84-5.39-4.17a83.45,83.45,0,0,0-9.37-6.27c-1.49-.86-3-1.68-4.57-2.46-.3-.15-1.58-.7-1.58-.7a25.43,25.43,0,0,0-15.82-.67Z" transform="translate(-4.52 -8.55)"/><path class="cls-6" d="M321.87,186.43c-1.83-1.05-3.32-.2-3.32,1.91a7.27,7.27,0,0,0,3.3,5.72c1.83,1.06,3.32.2,3.33-1.9A7.3,7.3,0,0,0,321.87,186.43Z" transform="translate(-4.52 -8.55)"/><path class="cls-12" d="M308.52,160.09c-.63-.66-1.31-1.34-2-2C307.21,158.75,307.89,159.42,308.52,160.09Z" transform="translate(-4.52 -8.55)"/><path class="cls-7" d="M327.56,193.54c0,3.61-2.58,5.06-5.72,3.24a12.48,12.48,0,0,1-5.67-9.82c0-3.61,2.57-5.06,5.71-3.25A12.52,12.52,0,0,1,327.56,193.54Zm-5.71.52c1.83,1.06,3.32.2,3.33-1.9a7.3,7.3,0,0,0-3.31-5.73c-1.83-1.05-3.32-.2-3.32,1.91a7.27,7.27,0,0,0,3.3,5.72Z" transform="translate(-4.52 -8.55)"/><path class="cls-11" d="M321.88,182.62c-3.65-2.11-6.64-.41-6.65,3.79l.94.55c0-3.61,2.57-5.06,5.71-3.25a12.52,12.52,0,0,1,5.68,9.83l.94.54a9.45,9.45,0,0,0-.07-1.18l0-.13-.52-2.28A14.66,14.66,0,0,0,321.88,182.62Z" transform="translate(-4.52 -8.55)"/><path class="cls-12" d="M336.21,196.74c-.13.83-.34,1.4-4.4-.79C335.87,198.15,336.08,197.57,336.21,196.74Z" transform="translate(-4.52 -8.55)"/><path class="cls-5" d="M337.78,196.76l-5.2-2.83-.69.85-3.49-2,0,.13a9.41,9.41,0,0,1,.07,1.17l1.45.84.19.11,0,0,.13.08.07,0,.12.07,0,0,.13.07.07,0,.08,0,.09.05.08,0,.09.05.08,0,.08,0,.57.31c4.06,2.19,5.8,2.47,5.92,1.65a2,2,0,0,1,.19-.75Z" transform="translate(-4.52 -8.55)"/><path class="cls-13" d="M336.4,196h0a2.17,2.17,0,0,0-.18.75A1.88,1.88,0,0,1,336.4,196Z" transform="translate(-4.52 -8.55)"/><path class="cls-14" d="M347.65,156.34c1.17,1,4.48,3.28,8.05,6.26a45,45,0,0,1,9.32,10,8.34,8.34,0,0,1,1.05,3.38l-28.25,16.15a8.18,8.18,0,0,0-1-3.39c-2.27-3.66-5.92-7.15-9.32-10-3.58-3-7.13-5.13-8.3-6.14Z" transform="translate(-4.52 -8.55)"/><path class="cls-8" d="M347.65,156.34c1.17,1,4.48,3.28,8.05,6.26a45,45,0,0,1,9.32,10,8.34,8.34,0,0,1,1.05,3.38l-28.25,16.15a8.18,8.18,0,0,0-1-3.39c-2.27-3.66-5.92-7.15-9.32-10-3.58-3-7.13-5.13-8.3-6.14Z" transform="translate(-4.52 -8.55)"/><path class="cls-15" d="M260.91,143.48l-.08,0,.08,4.28,2.41,1.07,1.46-2.26A24.05,24.05,0,0,0,260.91,143.48Z" transform="translate(-4.52 -8.55)"/><path class="cls-16" d="M366.07,178.62a5.16,5.16,0,0,1-2.31,4l-26.17,15.25.23-5.74L366.07,176Z" transform="translate(-4.52 -8.55)"/><polygon class="cls-17" points="351.51 175.56 343.76 180.51 343.27 176.54 352.04 172.19 351.51 175.56"/><path class="cls-5" d="M348.84,186.5c-.7.4-1,1.93-1,2.64s.57,1,1.26.56l8.94-5.16a2.63,2.63,0,0,0,1.25-2c0-.71-.77-1.59-1.46-1.19Z" transform="translate(-4.52 -8.55)"/><path class="cls-18" d="M358.66,181.43a1.29,1.29,0,0,1,.17.16L348,187.83c0-.1.07-.21.12-.32Z" transform="translate(-4.52 -8.55)"/><path class="cls-18" d="M359.13,183.12a3.7,3.7,0,0,1-.17.35l-10.91,6.3a.61.61,0,0,1-.15-.17Z" transform="translate(-4.52 -8.55)"/><path class="cls-18" d="M359.16,182.12a1,1,0,0,1,.06.22l-11.42,6.6a1.41,1.41,0,0,1,0-.28Z" transform="translate(-4.52 -8.55)"/><path class="cls-19" d="M355.68,182l10.39-6v2.62a4.08,4.08,0,0,1-.26,1.34L355.7,185.8Z" transform="translate(-4.52 -8.55)"/><path class="cls-20" d="M358.22,181a6.32,6.32,0,0,0,2.35-1.07c1.23-.72,2.16-1.4,2.09-1.53a6.53,6.53,0,0,0-2.35,1.07A6.83,6.83,0,0,0,358.22,181Z" transform="translate(-4.52 -8.55)"/><polygon class="cls-19" points="333.4 183.8 333.06 187.81 345.17 180.82 345.15 177.01 333.4 183.8"/><path class="cls-20" d="M340.45,191.41a6.75,6.75,0,0,0,2.36-1.08c1.22-.72,2.16-1.4,2.09-1.53a6.67,6.67,0,0,0-2.36,1.08C341.31,190.6,340.38,191.28,340.45,191.41Z" transform="translate(-4.52 -8.55)"/><path class="cls-11" d="M296.85,163.79c-.22-.13-.41,0-.41.24a.93.93,0,0,0,.41.72l3.25,1.88c.23.13.42,0,.42-.24a.92.92,0,0,0-.41-.72Z" transform="translate(-4.52 -8.55)"/><path class="cls-11" d="M281.86,154.87c-.22-.13-.41,0-.41.24a.94.94,0,0,0,.41.72l3.25,1.88c.23.13.42,0,.42-.24a.9.9,0,0,0-.41-.72Z" transform="translate(-4.52 -8.55)"/><g class="cls-21"><path class="cls-22" d="M320.93,173.67l28.24-16.14c-.66-.5-1.18-.9-1.52-1.19-2.27-2-8-9.32-10.89-12.39l-.25-.26-.05-.06-.2-.2-.07-.07-.19-.2a.6.6,0,0,1-.08-.08c-.06-.06-.13-.12-.19-.19l-.09-.08-.18-.18a.38.38,0,0,0-.09-.09l-.18-.18a.94.94,0,0,1-.1-.1l-.17-.16-.12-.12-28.24,16.15a1.14,1.14,0,0,1,.11.11l.18.16.1.1.18.18.09.09.18.18.09.08.19.19.07.08.19.2a.23.23,0,0,1,.07.07,1.89,1.89,0,0,1,.2.2l.06.06.25.26c2.88,3.07,8.62,10.42,10.89,12.39C319.75,172.77,320.27,173.17,320.93,173.67Z" transform="translate(-4.52 -8.55)"/></g><polygon class="cls-23" points="327.76 156.66 328.27 155.8 334.2 152.25 334.68 152.7 327.76 156.66"/><path class="cls-23" d="M332.79,164.62a.26.26,0,0,0,.18-.07c.06-.06,6.49-5.81,12.28-7a.25.25,0,0,0,.21-.31.28.28,0,0,0-.31-.21c-5.94,1.18-12.27,6.84-12.54,7.09a.28.28,0,0,0,0,.37A.28.28,0,0,0,332.79,164.62Z" transform="translate(-4.52 -8.55)"/><polygon class="cls-23" points="317.64 162.33 318.15 161.47 324.08 157.93 324.56 158.38 317.64 162.33"/><path class="cls-23" d="M322.67,170.29a.26.26,0,0,0,.18-.07c.06-.05,6.49-5.8,12.28-6.95a.27.27,0,0,0,.21-.31.26.26,0,0,0-.31-.21c-5.94,1.18-12.27,6.84-12.54,7.08a.26.26,0,0,0,0,.37A.27.27,0,0,0,322.67,170.29Z" transform="translate(-4.52 -8.55)"/><circle class="cls-24" cx="303.2" cy="89.94" r="21.52"/><polygon class="cls-24" points="317.08 105.07 289.33 105.07 303.2 129.1 317.08 105.07"/><circle class="cls-19" cx="303.2" cy="89.94" r="11.34"/><line class="cls-25" x1="241.9" y1="133.43" x2="158.22" y2="84.9"/></g><g id="Livello_3" data-name="Livello 3"><path class="cls-1" d="M106.72,93.2C90,88.71,52.7,61.51,39.78,51.85c-2.49-1.86-2.29-4.62.43-6.13l15-8.34L63.3,50.44l62.6,42.12S111.35,94.45,106.72,93.2Z" transform="translate(-4.52 -8.55)"/><path class="cls-10" d="M49,43.63V45.5l5.22,3.33,2,4.91.47.33c.09-4.09,3-5.72,6.66-3.63a14.72,14.72,0,0,1,6,7.87l.54,2.4a9.77,9.77,0,0,1,.08,1.19l-1-.55c9.34,5.54,23.61,13.78,34.43,20,0-4.2,3-5.9,6.65-3.79a14.63,14.63,0,0,1,6,7.86l.52,2.29,3.49,2,.69-.85,5.2,2.83c.22-.06,0-4.64,0-4.64a8.13,8.13,0,0,0-1-3.38c-4-6.4-12.11-12.26-15.85-15.08l-.16-.08a.53.53,0,0,1-.1-.06c-2.12-2.35-4.71-5.33-7.58-8.91-2-2.42-5.63-5.88-7.28-7.85-1.43-1.34-2.51-1.55-4.23-2.88a84.79,84.79,0,0,0-9.37-6.26c-1.49-.86-3-1.69-4.57-2.46-.52-.26-1-.5-1.58-.71a25.48,25.48,0,0,0-15.82-.66l-7.85-3.37a.82.82,0,0,0-1.18.63L49,37.92v.49c1.93,1.11,0,3.12,0,3.12ZM104.26,66.7,63.32,41.92c.23-.22,4.43-4.5,18.2,3.44a81.35,81.35,0,0,1,7.64,5.07l1.38,1a59.31,59.31,0,0,1,10.55,10.67s1.79,2.23,1.85,2.46c.45.69.9,1.39,1.32,2.12Zm3.32.74c.3.26.75.61,1.3,1h0C108.33,68.05,107.88,67.7,107.58,67.44Z" transform="translate(-4.52 -8.55)"/><polygon class="cls-4" points="109.74 83.46 114.59 80.66 109.74 78.16 109.74 83.46"/><polygon class="cls-5" points="44.46 36.95 44.45 40.17 51.64 45.19 49.67 40.28 44.46 36.95"/><path class="cls-6" d="M63.29,54.25C61.46,53.2,60,54,60,56.15a7.3,7.3,0,0,0,3.31,5.73c1.82,1,3.32.2,3.33-1.9A7.29,7.29,0,0,0,63.29,54.25Z" transform="translate(-4.52 -8.55)"/><path class="cls-4" d="M69,61.5v-.15a9.08,9.08,0,0,0-.18-1.69,4.2,4.2,0,0,0,.51.05,3.75,3.75,0,0,0,2-.54A8.36,8.36,0,0,0,72.56,62l-5.25,3A3.93,3.93,0,0,0,69,61.5Z" transform="translate(-4.52 -8.55)"/><path class="cls-7" d="M69,61.35v.15c-.08,3.5-2.61,4.89-5.71,3.1a12.49,12.49,0,0,1-5.67-9.82c0-3.61,2.57-5.07,5.71-3.25A12.49,12.49,0,0,1,69,61.35Zm-5.7.53c1.82,1,3.32.2,3.33-1.9a7.29,7.29,0,0,0-3.31-5.73C61.46,53.2,60,54,60,56.15a7.3,7.3,0,0,0,3.31,5.73Z" transform="translate(-4.52 -8.55)"/><path class="cls-26" d="M79.78,19.67A4.76,4.76,0,0,0,76,19.9L50.5,34.44c-.28.16-1,1.08-1,1.27s.82-.42,1.06-.32l7.85,3.37L86.65,22.62Z" transform="translate(-4.52 -8.55)"/><path class="cls-27" d="M90.41,52.43c-1.41-1.07-2.76-2.06-4.08-3v5.31l14.58,8.83,1.51.78A72,72,0,0,0,90.41,52.43Z" transform="translate(-4.52 -8.55)"/><path class="cls-28" d="M56.64,54.07c.09-4.09,3-5.72,6.66-3.63a14.72,14.72,0,0,1,6,7.87l.54,2.4a9.77,9.77,0,0,1,.08,1.19l-1-.55c9.34,5.54,23.61,13.78,34.43,20V71.73c0-4.28,5.44-3.24,5.44-3.24-2.12-2.35-4.71-5.33-7.58-8.91-2-2.42-5.63-5.88-7.28-7.85-1.43-1.34-2.51-1.55-4.23-2.88a84.79,84.79,0,0,0-9.37-6.26c-1.49-.86-3-1.69-4.57-2.46-.52-.26-1-.5-1.58-.71a25.48,25.48,0,0,0-15.82-.66ZM104.26,66.7,63.32,41.92c.23-.22,4.43-4.5,18.2,3.44a81.35,81.35,0,0,1,7.64,5.07l1.38,1a59.31,59.31,0,0,1,10.55,10.67s1.79,2.23,1.85,2.46c.45.69.9,1.39,1.32,2.12Zm3.32.74c.3.26.75.61,1.3,1h0C108.33,68.05,107.88,67.7,107.58,67.44Z" transform="translate(-4.52 -8.55)"/><path class="cls-11" d="M56.64,54.07c.09-4.09,3-5.72,6.66-3.63a14.72,14.72,0,0,1,6,7.87l.54,2.4a9.77,9.77,0,0,1,.08,1.19l-1-.55a12.49,12.49,0,0,0-5.67-9.82c-3.14-1.82-5.7-.36-5.71,3.25l-1-.55Z" transform="translate(-4.52 -8.55)"/><path class="cls-27" d="M69,41.6a7.37,7.37,0,0,0-3.94.37l3.88,2.34C69,43.67,69,42.63,69,41.6Z" transform="translate(-4.52 -8.55)"/><path class="cls-12" d="M154.26,72.26a.78.78,0,0,0,0,.16h0A.88.88,0,0,1,154.26,72.26Z" transform="translate(-4.52 -8.55)"/><path class="cls-13" d="M154.24,71V71h0Z" transform="translate(-4.52 -8.55)"/><path class="cls-29" d="M84.59,48.12c-1.61-1-9.68-6.06-13.93-6.69v4.24L84.59,54C84.7,53.21,84.57,49.93,84.59,48.12Z" transform="translate(-4.52 -8.55)"/><path class="cls-30" d="M86.65,22.62a25.51,25.51,0,0,1,15.83.66h0c.52.21,1,.45,1.57.71,1.55.77,3.08,1.59,4.57,2.45A83.9,83.9,0,0,1,118,32.71c1.73,1.33,3.67,3,5.1,4.35A277.4,277.4,0,0,1,95.14,53c-1.42-1.34-3.67-2.85-5.39-4.18a84.79,84.79,0,0,0-9.37-6.26c-1.49-.86-3-1.69-4.57-2.46-.3-.15-1.58-.71-1.58-.71a25.48,25.48,0,0,0-15.82-.66Z" transform="translate(-4.52 -8.55)"/><path class="cls-6" d="M110,81.4c-1.83-1.05-3.32-.21-3.32,1.9A7.29,7.29,0,0,0,110,89c1.83,1.06,3.33.2,3.33-1.9A7.29,7.29,0,0,0,110,81.4Z" transform="translate(-4.52 -8.55)"/><path class="cls-12" d="M96.69,55.06c-.63-.67-1.31-1.35-2-2C95.38,53.71,96.06,54.39,96.69,55.06Z" transform="translate(-4.52 -8.55)"/><path class="cls-7" d="M115.73,88.5c0,3.61-2.57,5.06-5.72,3.25a12.52,12.52,0,0,1-5.67-9.82c0-3.61,2.57-5.06,5.71-3.25A12.5,12.5,0,0,1,115.73,88.5ZM110,89c1.83,1.06,3.33.2,3.33-1.9A7.29,7.29,0,0,0,110,81.4c-1.83-1.05-3.32-.21-3.32,1.9A7.29,7.29,0,0,0,110,89Z" transform="translate(-4.52 -8.55)"/><path class="cls-11" d="M110.05,77.59c-3.65-2.11-6.64-.41-6.65,3.79l.94.55c0-3.61,2.57-5.06,5.71-3.25a12.5,12.5,0,0,1,5.68,9.82l.94.55a9.45,9.45,0,0,0-.07-1.18l0-.13-.52-2.29A14.63,14.63,0,0,0,110.05,77.59Z" transform="translate(-4.52 -8.55)"/><path class="cls-12" d="M124.38,91.71c-.13.82-.33,1.4-4.4-.79C124.05,93.11,124.25,92.53,124.38,91.71Z" transform="translate(-4.52 -8.55)"/><path class="cls-5" d="M126,91.73l-5.2-2.83-.69.85-3.49-2,0,.13a9.41,9.41,0,0,1,.07,1.17l1.45.84.19.1,0,0,.13.08.07,0,.12.08,0,0,.12.07.07,0,.09,0,.09.05.07,0,.09,0,.08,0,.08,0,.57.31c4.07,2.19,5.8,2.47,5.92,1.64a1.93,1.93,0,0,1,.19-.74Z" transform="translate(-4.52 -8.55)"/><path class="cls-13" d="M124.57,91h0a1.93,1.93,0,0,0-.19.75A1.93,1.93,0,0,1,124.57,91Z" transform="translate(-4.52 -8.55)"/><path class="cls-31" d="M135.82,51.3c1.17,1,4.48,3.28,8.05,6.27,3.41,2.84,7,6.33,9.32,10A8.29,8.29,0,0,1,154.24,71L126,87.09a8.13,8.13,0,0,0-1-3.38c-2.27-3.67-5.92-7.16-9.32-10-3.57-3-7.13-5.14-8.3-6.15Z" transform="translate(-4.52 -8.55)"/><path class="cls-26" d="M135.82,51.3c1.17,1,4.48,3.28,8.05,6.27,3.41,2.84,7,6.33,9.32,10A8.29,8.29,0,0,1,154.24,71L126,87.09a8.13,8.13,0,0,0-1-3.38c-2.27-3.67-5.92-7.16-9.32-10-3.57-3-7.13-5.14-8.3-6.15Z" transform="translate(-4.52 -8.55)"/><path class="cls-15" d="M49.08,38.45l-.08,0,.08,4.28,2.41,1.06L53,41.5A24.05,24.05,0,0,0,49.08,38.45Z" transform="translate(-4.52 -8.55)"/><path class="cls-32" d="M154.24,73.59a5.16,5.16,0,0,1-2.31,4L125.76,92.83l.23-5.74L154.24,71Z" transform="translate(-4.52 -8.55)"/><polygon class="cls-17" points="139.68 70.53 131.93 75.47 131.44 71.5 140.21 67.16 139.68 70.53"/><path class="cls-5" d="M137,81.46c-.69.4-1,1.94-1,2.64s.57,1,1.26.57l8.94-5.16a2.65,2.65,0,0,0,1.25-2c0-.71-.77-1.59-1.46-1.19Z" transform="translate(-4.52 -8.55)"/><path class="cls-18" d="M146.83,76.4a1.29,1.29,0,0,1,.17.16L136.19,82.8a3,3,0,0,1,.11-.32Z" transform="translate(-4.52 -8.55)"/><path class="cls-18" d="M147.3,78.08a2.21,2.21,0,0,1-.16.35l-10.92,6.3a.57.57,0,0,1-.15-.16Z" transform="translate(-4.52 -8.55)"/><path class="cls-18" d="M147.33,77.09a.9.9,0,0,1,.06.22L136,83.9q0-.12,0-.27Z" transform="translate(-4.52 -8.55)"/><path class="cls-19" d="M143.86,77l10.38-6v2.62a4.08,4.08,0,0,1-.26,1.34l-10.11,5.83Z" transform="translate(-4.52 -8.55)"/><path class="cls-20" d="M146.39,76a6.33,6.33,0,0,0,2.36-1.07c1.22-.72,2.16-1.41,2.08-1.53a6.4,6.4,0,0,0-2.35,1.07C147.25,75.2,146.32,75.88,146.39,76Z" transform="translate(-4.52 -8.55)"/><polygon class="cls-19" points="121.57 78.77 121.24 82.78 133.34 75.79 133.32 71.98 121.57 78.77"/><path class="cls-20" d="M128.62,86.37A6.33,6.33,0,0,0,131,85.3a6.65,6.65,0,0,0,2.09-1.53,6.33,6.33,0,0,0-2.36,1.07A6.65,6.65,0,0,0,128.62,86.37Z" transform="translate(-4.52 -8.55)"/><path class="cls-11" d="M85,58.76c-.22-.13-.41,0-.41.24a.93.93,0,0,0,.41.72l3.25,1.87c.24.14.42,0,.43-.23a.91.91,0,0,0-.42-.72Z" transform="translate(-4.52 -8.55)"/><path class="cls-11" d="M70,49.83c-.23-.12-.42,0-.42.25a.92.92,0,0,0,.41.71l3.26,1.88c.23.13.41,0,.41-.24a.93.93,0,0,0-.41-.72Z" transform="translate(-4.52 -8.55)"/><g class="cls-21"><path class="cls-22" d="M109.14,68c-.46-.35-.9-.69-1.19-.94a85.63,85.63,0,0,1-6.3-7.07c-1.73-2.06-3.36-4-4.55-5.27l-.51-.54-.94-.93,27.23-15.57.55.54.6.61.5.51c1.16,1.25,2.79,3.19,4.52,5.24a86,86,0,0,0,6.41,7.19c.22.19.51.42.87.7Z" transform="translate(-4.52 -8.55)"/><path class="cls-33" d="M122.79,38.34l0,0,0,0,0,0,.07.07.08.08.06.06,0,0h0l.06.05.13.14h0l0,0,0,0,.13.13,0,0,0,0h0l.21.21,0,0h0l0,0,.24.24c1.16,1.24,2.78,3.17,4.5,5.22a86.87,86.87,0,0,0,6.48,7.25l.24.2L109.18,67.3c-.34-.27-.65-.51-.87-.7a91.78,91.78,0,0,1-6.22-7c-1.74-2.07-3.38-4-4.58-5.31l-.14-.14L97.24,54l0,0,0,0L97,53.73l0,0-.11-.11-.08-.09,0,0h0l0,0,0,0,0,0,26.22-15M123,37,94.73,53.09a1.14,1.14,0,0,1,.11.11l.18.17.1.1.18.17.09.09.18.18.09.09.19.19.07.08.2.19.07.07.19.21.06.06.25.26c2.88,3.07,8.62,10.41,10.89,12.38.34.29.86.7,1.52,1.19l28.24-16.14c-.66-.49-1.18-.9-1.52-1.19-2.27-2-8-9.31-10.89-12.38l-.25-.26-.05-.06-.2-.21-.07-.07-.19-.19-.08-.08-.19-.19-.08-.09-.19-.18-.09-.09-.18-.18-.1-.09-.17-.17L123,37Z" transform="translate(-4.52 -8.55)"/></g><polygon class="cls-23" points="115.93 51.63 116.44 50.77 122.38 47.22 122.86 47.67 115.93 51.63"/><path class="cls-23" d="M121,59.58a.28.28,0,0,0,.18-.06c.06-.06,6.49-5.81,12.28-7a.26.26,0,0,0,.21-.31.27.27,0,0,0-.31-.21c-5.94,1.18-12.27,6.84-12.53,7.08a.27.27,0,0,0,0,.38A.27.27,0,0,0,121,59.58Z" transform="translate(-4.52 -8.55)"/><polygon class="cls-23" points="105.81 57.3 106.32 56.44 112.25 52.89 112.73 53.34 105.81 57.3"/><path class="cls-23" d="M110.84,65.26a.31.31,0,0,0,.18-.07c.06-.06,6.49-5.81,12.28-7a.26.26,0,0,0,.21-.31.27.27,0,0,0-.31-.21c-5.94,1.18-12.27,6.84-12.54,7.09a.26.26,0,0,0,0,.37A.27.27,0,0,0,110.84,65.26Z" transform="translate(-4.52 -8.55)"/><polygon class="cls-28" points="79.57 36.41 107.64 20.1 102.63 17.06 74.39 33.24 79.57 36.41"/><polygon class="cls-30" points="81.86 31.79 105.87 17.74 100.86 14.71 76.68 28.63 81.86 31.79"/><polygon class="cls-34" points="107.64 20.1 105.87 17.74 100.86 14.71 92.02 19.79 97.09 22.88 96.99 26.29 107.64 20.1"/><polygon class="cls-35" points="90.83 29.86 90.83 26.54 85.58 23.5 76.68 28.63 74.39 33.24 79.57 36.41 90.83 29.86"/><polygon class="cls-36" points="97.09 22.88 105.87 17.74 100.86 14.71 92.02 19.79 97.09 22.88"/><polygon class="cls-24" points="81.86 31.79 90.83 26.54 85.58 23.5 76.68 28.63 81.86 31.79"/></g></svg>