<svg xmlns="http://www.w3.org/2000/svg" viewBox="0 0 185.79 166.3"><defs><style>.cls-1{fill:#d29e08;}.cls-2{fill:#fdd875;}.cls-3{fill:#fdc20b;}.cls-20,.cls-4{fill:#5b5b5a;}.cls-5,.cls-9{fill:#303b45;}.cls-6{fill:#f6bbc6;}.cls-7{fill:#4d4471;}.cls-8{fill:#ebebeb;}.cls-9{opacity:0.5;}.cls-10,.cls-27{fill:#353430;}.cls-11{fill:#eaeaea;}.cls-12,.cls-13{fill:none;stroke-miterlimit:10;stroke-width:1.03px;}.cls-12{stroke:#fbc01f;}.cls-13{stroke:#4294ce;}.cls-14{fill:#368784;}.cls-15{fill:#be1622;}.cls-16{fill:#e6332a;}.cls-17{fill:#234f5e;}.cls-18{fill:#2a3134;}.cls-19,.cls-26{fill:#f6bcc6;}.cls-19,.cls-20,.cls-22,.cls-23,.cls-24,.cls-27{fill-rule:evenodd;}.cls-21{fill:#f39200;}.cls-22{fill:#8a8b8c;}.cls-23{fill:#afafb1;}.cls-24{fill:#48aab4;}.cls-25{fill:#1d71b8;}.cls-28{fill:#e51349;}.cls-29{fill:#323c3f;}.cls-30{fill:#455358;}.cls-31{fill:#adbfcf;}.cls-32{fill:#f9fafd;}.cls-33{fill:#114369;}.cls-34{fill:#edf1f4;}.cls-35{fill:#efedee;}.cls-36{fill:#0f2d43;}.cls-37{fill:#144269;}</style></defs><title>G14_04_05</title><g id="Livello_1" data-name="Livello 1"><polygon class="cls-1" points="185.79 108.77 185.79 113.52 96.32 166.3 96.32 161.55 185.79 108.77"/><polygon class="cls-2" points="96.32 161.55 96.32 166.3 0.22 110.57 0.22 105.82 96.32 161.55"/><polygon class="cls-3" points="96.1 161.57 0 105.84 0 105.57 90.31 53.66 185.79 108.79 96.25 161.66 96.1 161.57"/></g><g id="Livello_3" data-name="Livello 3"><path class="cls-4" d="M182.59,37.35l1.93,2.17s4.67,16.91,4.89,19.59a21.19,21.19,0,0,1,1.78,3.4c1.31,3.28,2.68,7.8,2.68,7.83-.16,1.55-2.17,1.86-3.41,1.4a81.37,81.37,0,0,1-4-8,20.48,20.48,0,0,1-1-3.6C184,57.73,181.35,49,181.35,49Z" transform="translate(-101.19 -24.89)"/><path class="cls-5" d="M172.12,113.71l.33-4.42,4.34-2.51-1.12,7.43s9.25,5.73,9,7.17-2.59.89-4.41.76-4.33-2.12-5.09-2.16a29.86,29.86,0,0,1-3.31-.72,2.41,2.41,0,0,1-.72-1.87,11.92,11.92,0,0,1,.93-3.69Z" transform="translate(-101.19 -24.89)"/><path class="cls-5" d="M160.84,117.49v0l.79-4.85h3.52l-.86,4.75L164,122s-.65,6.9-2.66,7.62-2.35-2.11-2.45-3.09C158.52,122.85,160.84,117.49,160.84,117.49Z" transform="translate(-101.19 -24.89)"/><path class="cls-4" d="M164.68,66s.38,7.23.76,8.57-.76,19-.76,19-4,17.94-3.85,19.08,4.1,1.45,4.86.31,4.89-16.34,5.65-21.29,3-16.36,3-16.36.19,13.89.19,15-2.74,18.72-2.74,18.72a5.58,5.58,0,0,0,2.64.89,2.35,2.35,0,0,0,2.19-.87,6.56,6.56,0,0,0,1.15-2.76s5.51-23.59,5.13-26.07.76-19,.76-19l-3-1.14Z" transform="translate(-101.19 -24.89)"/><path class="cls-4" d="M171.92,37.94s6.32-2,8.91-1.39a4.68,4.68,0,0,1,3.67,3.24c.22.86-.86,21.8-.86,21.8s-11.23,9.29-16,6.91c-3.44-1.71-3.71-3.65-3.6-4.6a11,11,0,0,0,.1-1.72l-.61-18.51Z" transform="translate(-101.19 -24.89)"/><path class="cls-4" d="M173.78,37.93s-2.31.65-2.53,1.18,1.51,3,3.34,4.36a11.62,11.62,0,0,0,3,1.72,10,10,0,0,0,2-6C179.59,35.67,173.78,37.93,173.78,37.93Z" transform="translate(-101.19 -24.89)"/><path class="cls-6" d="M184.56,33.24a6.29,6.29,0,1,1-3.9-8A6.29,6.29,0,0,1,184.56,33.24Z" transform="translate(-101.19 -24.89)"/><path class="cls-6" d="M180,32.88l-2.14,6.47h0a4,4,0,0,1-4.51.47h0a1,1,0,0,1-.5-1.12l1.6-6.28Z" transform="translate(-101.19 -24.89)"/><path class="cls-7" d="M183.93,31.46a1.53,1.53,0,0,0,.94-.25l0,0a6.28,6.28,0,0,0-12.45-1.25,2.2,2.2,0,0,0,.81.26c.64,0,2.41-.56,1.86-1.28.37.47-1.07,2.59-.05,3.3.47-.18,1.87-3,2-3.54A9.35,9.35,0,0,0,183.93,31.46Z" transform="translate(-101.19 -24.89)"/><path class="cls-6" d="M175.14,30.2A1.91,1.91,0,1,1,171.52,29a1.91,1.91,0,0,1,3.62,1.25Z" transform="translate(-101.19 -24.89)"/><path class="cls-6" d="M195.11,72.31A2.33,2.33,0,1,1,192.78,70,2.32,2.32,0,0,1,195.11,72.31Z" transform="translate(-101.19 -24.89)"/><path class="cls-8" d="M183.62,62.51l-.19,3.06S174,70,167.91,68.24c-3.52-1-3.55-3.49-3.44-4.4a5.93,5.93,0,0,1,.32-1.2s1.12,1.61,5,2.15C174.2,65.4,183.62,62.51,183.62,62.51Z" transform="translate(-101.19 -24.89)"/><path class="cls-8" d="M180.12,64l1-.3s-4.92-15.22-10.63-20.3c-.68-.61-2.65-2.76-3.36-2.19-.43.35-.81.46-1,.71a32.93,32.93,0,0,1,5.1,4.46C174.83,50.17,180.12,64,180.12,64Z" transform="translate(-101.19 -24.89)"/><path class="cls-9" d="M182.54,53.67l-13.1,2.62-2.25-11.42-1-.48-1.79.8-.27,17a11,11,0,0,1-.1,1.72c-.09.79.09,2.28,2.16,3.74,4.35-2.23,13.1-7.06,16.61-10.64C184.86,54.94,182.54,53.67,182.54,53.67Z" transform="translate(-101.19 -24.89)"/><path class="cls-4" d="M169.82,49.94s.92-3.11-.59-3.76c0,0-4.79-4-5.67-2.51a26.16,26.16,0,0,0-3.33,7.72s-2.26,7.88-1.94,9.94,2.48,3.13,7.56,1.07,17.7-7,17.7-7l-.11-2.27-14.89,1.62Z" transform="translate(-101.19 -24.89)"/><path class="cls-6" d="M187.4,53.93a2.33,2.33,0,1,1-2.33-2.32A2.33,2.33,0,0,1,187.4,53.93Z" transform="translate(-101.19 -24.89)"/><path class="cls-6" d="M188.81,56l-1.68-2.56a.65.65,0,1,0-1.09.72l1.68,2.56a.65.65,0,0,0,.9.19A.66.66,0,0,0,188.81,56Z" transform="translate(-101.19 -24.89)"/><polygon class="cls-4" points="75.42 14.07 74.45 16.41 71.3 16.84 69.47 13.92 71.72 11.36 72.27 11.21 72.2 11.92 75.42 14.07"/><polygon class="cls-10" points="75.81 17.17 74.3 16.71 75.42 14.07 75.81 17.17"/><circle class="cls-11" cx="73.64" cy="14.75" r="0.87"/><line class="cls-12" x1="80.76" y1="18.99" x2="77.93" y2="20.01"/><line class="cls-13" x1="80.76" y1="18.99" x2="79.83" y2="19.32"/><path class="cls-14" d="M164.83,68.12l-1.65-1,.13.07,1.64,1-.12-.07" transform="translate(-101.19 -24.89)"/><path class="cls-15" d="M163.18,67.17a4.58,4.58,0,0,0-3.09-.31,9.2,9.2,0,0,0-2.54,1,15.47,15.47,0,0,0-4.05,3.55,17.57,17.57,0,0,0-2.42,3.89,10.7,10.7,0,0,0-1,3.53l-1,12c-.14,1.79.42,3,1.44,3.63l1.64.95c-1-.59-1.57-1.83-1.43-3.62l.95-12a10.86,10.86,0,0,1,1-3.53,17.68,17.68,0,0,1,2.43-3.9,15.45,15.45,0,0,1,4-3.54,9,9,0,0,1,2.53-1,4.6,4.6,0,0,1,3.1.3Z" transform="translate(-101.19 -24.89)"/><path class="cls-16" d="M159.2,68.83c3.79-2.19,7.16-1.13,7.48,2.35l1,10.83c.32,3.48-2.56,8.14-6.41,10.36l-4,2.34c-3.85,2.22-6.74.89-6.44-2.95l.95-12c.3-3.85,3.64-8.78,7.44-11" transform="translate(-101.19 -24.89)"/><path class="cls-17" d="M180.1,102.45c3.42,2,3.44,5.18,0,7.16l-5.45,3.17a13.66,13.66,0,0,1-12.36,0l-5.48-3.17c-3.43-2-3.44-5.18,0-7.16l5.44-3.16a13.6,13.6,0,0,1,12.36,0Z" transform="translate(-101.19 -24.89)"/><path class="cls-15" d="M182.43,105.45a5.24,5.24,0,0,1-2.29,2.36L174.69,111a13.64,13.64,0,0,1-12.36,0l-5.48-3.16c-1.72-1-2.59-2.3-2.58-3.61v2.19c0,1.31.86,2.62,2.58,3.61l5.49,3.17a13.62,13.62,0,0,0,12.35,0l5.45-3.17a5.19,5.19,0,0,0,2.29-2.36,3,3,0,0,0,.25-1.19v-2.19a3.14,3.14,0,0,1-.25,1.19" transform="translate(-101.19 -24.89)"/><path class="cls-16" d="M180.1,100.65c3.42,2,3.44,5.18,0,7.16L174.69,111a13.6,13.6,0,0,1-12.36,0l-5.48-3.16c-3.43-2-3.44-5.18,0-7.16l5.44-3.17a13.66,13.66,0,0,1,12.36,0Z" transform="translate(-101.19 -24.89)"/><path class="cls-18" d="M182.43,107.25a5.14,5.14,0,0,1-2.29,2.36l-5.45,3.17a13.64,13.64,0,0,1-12.36,0l-5.48-3.17c-1.72-1-2.59-2.3-2.58-3.61v2.2c0,1.3.86,2.61,2.58,3.6l5.49,3.17a13.62,13.62,0,0,0,12.35,0l5.45-3.17a5.09,5.09,0,0,0,2.29-2.36,3,3,0,0,0,.25-1.19v-2.19a3.14,3.14,0,0,1-.25,1.19" transform="translate(-101.19 -24.89)"/><path class="cls-19" d="M167.29,74.91c3,2.28,5.14,10.51,6.4,14.39l-2.41,2c-.09-.18-.83-.28-.94-.46-2.11-3.63-5.44-8.89-6.57-12.52-.46-1.5-.13-3.06.9-3.56a2.79,2.79,0,0,1,2.62.2" transform="translate(-101.19 -24.89)"/><path class="cls-19" d="M181.07,93.94a2.83,2.83,0,1,0,4-.33,2.83,2.83,0,0,0-4,.33" transform="translate(-101.19 -24.89)"/><path class="cls-19" d="M173.34,88.4c3.16,1.66,5.79,3.18,9.12,5a26.22,26.22,0,0,1-1.68,2c-3.12-1.1-6-1.92-9.15-3.34-1.69-.76-1.86-2-1.49-2.91s1.57-1.66,3.2-.81" transform="translate(-101.19 -24.89)"/><path class="cls-20" d="M159.22,74.38c1.88,1.12,3.61,1.59,5.44,2.81l.05,2.43c-2-1.76-3.55-2.17-5.8-3.61Z" transform="translate(-101.19 -24.89)"/><path class="cls-20" d="M164.48,73.71a12.85,12.85,0,0,1,.12,3.53c.64.39,1.26,1,1.91,1.31a31.88,31.88,0,0,0-.84-4.46Z" transform="translate(-101.19 -24.89)"/><path class="cls-21" d="M168.6,69c0,.72-.51,1.36-.48,2.07.06,1.32.63,10.52-.52,10.41s-1,1.41-2,2c-.83.44-1.34,1.33-2.16,1.76a3.11,3.11,0,0,1-2.71-.06c-.07.08-.12.17-.19.24a3.37,3.37,0,0,1-3.2,1.19c-.9-.24-1.6-1-2.5-1.24-1.12-.3-2.26.23-3.36.6s-2.47.5-3.25-.36a2.89,2.89,0,0,1-.37-2.59,8.81,8.81,0,0,0,.5-2.66c-.07-1-.67-2-.45-3,.29-1.28,1.9-2.18,1.66-3.47-.12-.71-.79-1.22-.92-1.92-.17-.9.56-1.7,1.3-2.24,2.12-1.56,1.62-2.57,1.83-4.94a9.48,9.48,0,0,1,1.4-4.07c.94-1.51,5.44-4.14,8.54-1.64A7.89,7.89,0,0,1,164,62.68c.73,2.27.46,3.36,2.88,4.41.84.36,1.74,1,1.77,1.89" transform="translate(-101.19 -24.89)"/><polygon class="cls-22" points="81.56 80.54 81.23 87.38 81.58 105.64 83.39 104.6 83.36 79.5 81.56 80.54"/><polygon class="cls-23" points="81.56 80.54 79.78 79.51 79.81 104.61 81.58 105.64 81.56 80.54"/><path class="cls-22" d="M165.69,94.79a4.84,4.84,0,0,1,0-.53l1.44-.83a4.3,4.3,0,0,0,.05.61s0,.06,0,.1.08.38.14.58l0,0a5.33,5.33,0,0,0,.23.63v0c.1.21.2.42.32.62a0,0,0,0,1,0,0c.11.2.24.38.37.57l0,.05c.12.16.26.32.39.47l.09.09a3.4,3.4,0,0,0,.34.32l.15.13a4.1,4.1,0,0,0,.5.35l-1.44.84a5.05,5.05,0,0,1-.5-.35l-.15-.14-.24-.2-.1-.11-.09-.1a.94.94,0,0,1-.1-.1l-.22-.27-.07-.1s0,0,0,0a.36.36,0,0,0-.07-.1l-.15-.23-.14-.23v0h0c0-.07-.07-.13-.1-.19l-.12-.23a2,2,0,0,0-.1-.21h0A2.44,2.44,0,0,0,166,96l-.09-.26,0-.12s0,0,0-.06l0-.09a2.82,2.82,0,0,1-.07-.31c0-.06,0-.12,0-.18s0-.06,0-.1,0-.06,0-.08" transform="translate(-101.19 -24.89)"/><polygon class="cls-22" points="64.47 69.38 65.91 68.54 65.95 53.56 64.51 54.39 64.47 69.38"/><polygon class="cls-24" points="64.51 54.39 65.95 53.55 64.99 53 63.55 53.83 64.51 54.39"/><polygon class="cls-24" points="68.57 73.16 82.47 81.18 81.03 82.01 67.13 73.99 68.57 73.16"/><path class="cls-23" d="M164.74,78.72l1,.56,0,15a5.87,5.87,0,0,0,2.66,4.62l13.9,8V108l-13.89-8a8,8,0,0,1-3.63-6.28Z" transform="translate(-101.19 -24.89)"/><path class="cls-20" d="M158.5,76.17c-3.35,1.93-5.18,4-4.1,4.64s4.69-.42,8-2.36,5.21-3.6,4.12-4.23-4.71,0-8.06,2" transform="translate(-101.19 -24.89)"/><path class="cls-19" d="M158.49,68.64c.28,1,1.48,3.33.65,6.09l6.16,3.16-.51-2.57A11.66,11.66,0,0,1,164,69.7Z" transform="translate(-101.19 -24.89)"/><path class="cls-20" d="M159.1,74c-.2.56.12,1.3-.11,1.75-.6,1.11-1.9,1.68-3,2.5-2.84,2.12-.11,7.45,1.75,11a12.91,12.91,0,0,1,1.5,4.86,4.55,4.55,0,0,1-.13,2.4c-4.73,12.38,10.12,20,12.58,11.16.7-2.5.31-6.07-2.06-11.45-.82-1.86-.31-3.23-.33-4.16s.66-2.24,1.16-4.3a7,7,0,0,0,.9-4.43c-.24-1.76-1.51-3.8-2.58-6a11.88,11.88,0,0,0-1.72-3c-.49-.49-1.64-.4-2.59-.64a9,9,0,0,1-.07,3.18c-.69-.45-3.83-1.86-5.3-2.89" transform="translate(-101.19 -24.89)"/><path class="cls-20" d="M157.66,103c.18,2.39.86,5.19,2.77,6.72,3.37,2.71,9.83,1.87,14.81,5.58,4.5-2,9.88-4.94,12.14-6.71-.61-1.48-1.11-2.94-2.61-3.83-2.54-1.51-12-7.1-14.43-7.36a8.63,8.63,0,0,1-.58-1l.07-.06c-1.18-2.68,0-5.9.65-8.49a7.72,7.72,0,0,0,1-4.64,6.6,6.6,0,0,0-.84-2.2c0-.13.72-.38.66-.51-.4-.84-1.78-3.48-2.31-4.3-.67-1-.76-1.35-1.6-1.87a5.81,5.81,0,0,0-2.15-.72c.92.87,2.06,4.47,2.18,7-2.87-1.14-6.69-3.23-8-4.63-.32-.34-.41,0-.63-.23-1.37,1.05-1.61,1.49-2.79,2.37a3,3,0,0,0-.73.79,1.84,1.84,0,0,1,2.3-.41c2.24.81,2.6,4.31,2.46,7.34-.09,2.09-.72,3.55-2.46,3.64.85,2,1.52,3.83,1.32,5-.39,2.39-1.57,4.7-1.27,8.39l0,0" transform="translate(-101.19 -24.89)"/><path class="cls-25" d="M165.11,63.93a4.87,4.87,0,1,1-5.7-3.89,4.88,4.88,0,0,1,5.7,3.89" transform="translate(-101.19 -24.89)"/><path class="cls-26" d="M168.29,65.81a6,6,0,1,1-7-4.77,6,6,0,0,1,7,4.77" transform="translate(-101.19 -24.89)"/><path class="cls-21" d="M167,65a1.21,1.21,0,0,0,.65-1,6,6,0,0,0-11.09,4.1,6.57,6.57,0,0,0,.21.76,2.07,2.07,0,0,0,.79-.17c.55-.26,1.8-1,1.23-1.63.28.31.39.81.41,2.19,1.53-3.7,5.73-2.93,7.8-4.2" transform="translate(-101.19 -24.89)"/><path class="cls-26" d="M157.82,69.88a1.43,1.43,0,0,1-1.62-1.37,1.74,1.74,0,0,1,1.1-2,1.37,1.37,0,0,1,1.62,1.37C158.92,69.32,158.57,69.71,157.82,69.88Z" transform="translate(-101.19 -24.89)"/><path class="cls-5" d="M180,129.77a11.55,11.55,0,0,0-.89,3.51c0,1.29.51,1.65.51,1.65a28.59,28.59,0,0,0,3.33.81c.73,0,1.93,1.2,3.67,1.32s4,.64,4.2-.73c.15-.83-2-1.62-4.51-3.32a13.54,13.54,0,0,1-2.88-2.76Z" transform="translate(-101.19 -24.89)"/><path class="cls-5" d="M180.69,124.07l-.67,6.24s-.1,1.12,1.42,1.2a2,2,0,0,0,2-1.26s.62-2.54,1.49-6.2Z" transform="translate(-101.19 -24.89)"/><path class="cls-5" d="M175.79,126.31c-.38,3.54-.77,6.27-.77,6.27s0,1.09,1.51,1.16a1.74,1.74,0,0,0,1.8-1.43s.82-2.37,1.68-6Z" transform="translate(-101.19 -24.89)"/><path class="cls-5" d="M175,132.38s.14,1.23,1.23,1.17a3.56,3.56,0,0,0,2.06-1.24s-.41,1,.54,4.21c.53,1.78,1.57,6.75-.35,7.44-1.37.49-3.28-1.11-3.51-2.13-.09-.42-.49-4.89-.43-5.31.21-1.44.46-4.14.46-4.14" transform="translate(-101.19 -24.89)"/><path class="cls-27" d="M159.4,74.64c1.89,1.12,3.1,1,4.93,2.18l.57,3.06c-2.08-1.44-4-2.44-6.12-4Z" transform="translate(-101.19 -24.89)"/><path class="cls-27" d="M164.67,74c.12.6-.19,1.15-.34,2.85.64.4,1.72,1.64,2.37,2a18.32,18.32,0,0,0-1.31-5.13Z" transform="translate(-101.19 -24.89)"/><path class="cls-20" d="M158.94,74c1.89,1.11,3.62,1.59,5.45,2.81l.05,2.42c-2-1.75-3.55-2.17-5.8-3.6Z" transform="translate(-101.19 -24.89)"/><path class="cls-20" d="M164.21,73.29a13.33,13.33,0,0,1,.12,3.53c.64.4,1.25,1,1.91,1.32a30.27,30.27,0,0,0-.85-4.46Z" transform="translate(-101.19 -24.89)"/><path class="cls-11" d="M162.71,77.34a.68.68,0,1,0,1.35,0,.68.68,0,1,0-1.35,0" transform="translate(-101.19 -24.89)"/><path class="cls-11" d="M164.92,76.93a.62.62,0,0,0,.84.16.61.61,0,0,0-.06-.85.62.62,0,0,0-.84-.16.61.61,0,0,0,.06.85" transform="translate(-101.19 -24.89)"/><path class="cls-8" d="M168.78,98.28l1-.3s-4.89-15.15-10.58-20.21c-.67-.6-1.83-1.16-2.53-.59a7.58,7.58,0,0,0-.9.77s1.49,0,4.14,2.79c3.57,3.79,8.84,17.54,8.84,17.54" transform="translate(-101.19 -24.89)"/><path class="cls-8" d="M157.78,98.54S159,98.2,160,98c2.65-.41,10.47-.58,10.47-.58l-.88-3.23s-7,1-9.39,1a7.29,7.29,0,0,1-1.63-.15Z" transform="translate(-101.19 -24.89)"/><path class="cls-19" d="M158.29,80.11c1.59,3.4-.27,11.7-.95,15.73l-3,.62c0-.2-.62-.63-.63-.84-.2-4.19-.74-10.4-.07-14.14.28-1.55,1.29-2.78,2.44-2.75a2.82,2.82,0,0,1,2.23,1.38" transform="translate(-101.19 -24.89)"/><path class="cls-19" d="M164.82,100.05a2.83,2.83,0,1,0,4-.18,2.82,2.82,0,0,0-4,.18" transform="translate(-101.19 -24.89)"/><path class="cls-19" d="M157.31,94.23c3.09,1.77,5.66,3.4,8.92,5.35-.63.74-1,1.21-1.75,2-3.09-1.21-5.89-2.14-9-3.68-1.67-.82-1.79-2.07-1.39-3s1.64-1.6,3.24-.69" transform="translate(-101.19 -24.89)"/><path class="cls-20" d="M158.49,80c.77,1.63.83,5.13.53,8l-6.11-.34a39.37,39.37,0,0,1,.56-6.15c.29-1.59,1.4-3.14,2.58-3.11A3.32,3.32,0,0,1,158.49,80" transform="translate(-101.19 -24.89)"/><polygon class="cls-18" points="70.66 102.95 70.76 138.11 43.04 122.03 42.94 86.88 70.66 102.95"/><polygon class="cls-18" points="132.28 102.32 105.32 86.66 105.23 54.74 132.19 70.41 132.28 102.32"/><path class="cls-28" d="M186.34,48.82s0,0,0,0l0,0h0s0,0,0,0" transform="translate(-101.19 -24.89)"/><polygon class="cls-29" points="70.66 102.95 42.81 86.79 106.98 49.81 134.72 65.77 70.66 102.95"/><polygon class="cls-30" points="73.32 104.48 73.37 136.58 70.77 138.09 70.67 102.93 134.72 65.77 134.81 100.92 132.2 102.43 132.11 70.52 73.32 104.48"/><path class="cls-31" d="M194.51,97.05a.62.62,0,0,1-.37.52l-.65.38v-.83l-1.31-.76-1.28.74.73.43.55-.32.57.33-.55.32-1.3-.76v.05l-.63-.37a2.2,2.2,0,0,0-.22-.52l.41-.24v-.85l-1.31-.76-.29.17v-.34l-1.31-.76-.29.17v-.34L186,92.55l-1.28.74v.21l-.18-.11-1.28.74v.21l-.18-.1-1.28.74v.2l-.18-.1-1.29.74V96l-.18-.11-1.29.75v.2l-.18-.1-1.29.74v.2l-.17-.1-1.29.74v.21l-.18-.1-1.29.73v.21l-.17-.1L173,100v.2l-.19-.1-1.28.74v.21l-.18-.11-1.28.75v.2l-.18-.1-1.28.74v.2l-.18-.1-1.28.74v.21l-.18-.11-1.28.75V105l-.66-.39-1.28.75v.77l-.61-.35a.62.62,0,0,1-.37-.52v.85a.63.63,0,0,0,.36.52l7.46,4.34a2,2,0,0,0,1.79,0l21.76-12.57a.6.6,0,0,0,.37-.52v-.85" transform="translate(-101.19 -24.89)"/><path class="cls-32" d="M194.15,96.54l-7.46-4.34a2,2,0,0,0-1.8,0l-21.76,12.56a.55.55,0,0,0,0,1l7.46,4.34a2,2,0,0,0,1.79,0l21.76-12.57a.54.54,0,0,0,0-1" transform="translate(-101.19 -24.89)"/><polygon class="cls-33" points="84.9 69.44 86.21 70.19 84.92 70.94 83.62 70.18 84.9 69.44"/><polygon class="cls-33" points="87.96 69.52 89.27 70.28 87.99 71.02 86.68 70.27 87.96 69.52"/><polygon class="cls-33" points="86.5 70.37 87.81 71.13 86.52 71.87 85.22 71.11 86.5 70.37"/><polygon class="cls-33" points="85.04 71.21 86.35 71.97 85.06 72.71 83.76 71.95 85.04 71.21"/><polygon class="cls-33" points="81.36 71.48 82.66 72.24 79.08 74.31 77.77 73.55 81.36 71.48"/><polygon class="cls-33" points="77.6 73.65 78.9 74.41 77.62 75.15 76.32 74.39 77.6 73.65"/><polygon class="cls-33" points="83.07 72.48 84.58 73.36 85.46 73.86 85.89 74.12 83.73 75.37 82.42 74.61 83.09 74.22 81.58 73.34 83.07 72.48"/><polygon class="cls-33" points="76.14 74.5 77.44 75.25 76.16 76 74.85 75.24 76.14 74.5"/><polygon class="cls-33" points="78.22 75.15 79.52 75.91 78.24 76.65 76.93 75.89 78.22 75.15"/><polygon class="cls-33" points="74.67 75.34 75.98 76.1 74.7 76.84 73.39 76.08 74.67 75.34"/><polygon class="cls-33" points="76.77 75.98 78.08 76.74 76.79 77.48 75.49 76.73 76.77 75.98"/><polygon class="cls-33" points="73.22 76.18 74.52 76.94 73.24 77.68 71.93 76.92 73.22 76.18"/><polygon class="cls-33" points="75.33 76.82 76.63 77.58 75.35 78.32 74.04 77.56 75.33 76.82"/><polygon class="cls-33" points="71.76 77.03 73.06 77.78 71.78 78.53 70.47 77.77 71.76 77.03"/><polygon class="cls-33" points="73.88 77.65 75.19 78.41 73.9 79.15 72.6 78.39 73.88 77.65"/><polygon class="cls-33" points="70.29 77.87 71.6 78.63 70.32 79.37 69.01 78.61 70.29 77.87"/><polygon class="cls-33" points="72.44 78.48 73.75 79.24 72.46 79.98 71.16 79.23 72.44 78.48"/><polygon class="cls-33" points="68.83 78.71 70.14 79.47 68.86 80.21 67.55 79.45 68.83 78.71"/><polygon class="cls-33" points="70.99 79.32 72.3 80.08 71.02 80.82 69.71 80.06 70.99 79.32"/><polygon class="cls-33" points="69.55 80.15 70.86 80.91 69.57 81.65 68.27 80.89 69.55 80.15"/><polygon class="cls-33" points="67.31 79.59 68.62 80.35 65.45 82.18 64.15 81.42 67.31 79.59"/><polygon class="cls-33" points="68.1 80.99 69.41 81.75 67.06 83.11 65.75 82.35 68.1 80.99"/><polygon class="cls-33" points="86.36 68.59 87.67 69.35 86.39 70.09 85.08 69.33 86.36 68.59"/><polygon class="cls-33" points="83.44 70.28 84.75 71.04 83.46 71.78 82.16 71.02 83.44 70.28"/><polygon class="cls-33" points="88.12 71.47 88.3 71.58 89.43 72.23 88.14 72.97 86.84 72.21 86.97 72.14 88.12 71.47"/><polygon class="cls-33" points="91.01 71.47 92.32 72.23 91.03 72.97 89.73 72.21 91.01 71.47"/><polygon class="cls-33" points="89.55 72.31 90.86 73.08 89.57 73.82 88.27 73.06 89.55 72.31"/><polygon class="cls-33" points="88.09 73.16 89.4 73.92 88.11 74.66 86.81 73.9 88.09 73.16"/><polygon class="cls-33" points="86.63 74 87.94 74.76 86.65 75.5 85.34 74.74 86.63 74"/><polygon class="cls-33" points="85.17 74.84 86.48 75.6 85.19 76.35 83.89 75.58 85.17 74.84"/><polygon class="cls-33" points="83.71 75.69 85.02 76.45 83.73 77.19 82.42 76.43 83.71 75.69"/><polygon class="cls-33" points="80.78 77.38 82.09 78.14 80.81 78.88 79.5 78.12 80.78 77.38"/><polygon class="cls-33" points="79.33 78.22 80.64 78.98 79.35 79.72 78.04 78.96 79.33 78.22"/><polygon class="cls-33" points="77.86 79.06 79.17 79.82 77.89 80.56 76.58 79.8 77.86 79.06"/><polygon class="cls-33" points="76.4 79.91 77.71 80.67 76.43 81.41 75.12 80.64 76.4 79.91"/><polygon class="cls-33" points="74.94 80.75 76.25 81.51 74.97 82.25 73.66 81.49 74.94 80.75"/><polygon class="cls-33" points="73.48 81.59 74.79 82.35 73.51 83.09 72.2 82.33 73.48 81.59"/><polygon class="cls-33" points="72.02 82.44 73.33 83.2 72.05 83.94 70.74 83.18 72.02 82.44"/><polygon class="cls-33" points="70.08 83.56 71.39 84.32 70.1 85.06 68.8 84.3 70.08 83.56"/><polygon class="cls-33" points="82.24 76.53 83.55 77.29 82.27 78.03 80.96 77.27 82.24 76.53"/><polygon class="cls-33" points="81.1 73.48 82.41 74.24 81.12 74.98 79.82 74.22 81.1 73.48"/><polygon class="cls-33" points="79.66 74.32 80.96 75.08 79.68 75.82 78.38 75.06 79.66 74.32"/><polygon class="cls-33" points="76.63 72.31 77.94 73.07 75.39 74.54 74.08 73.78 76.63 72.31"/><polygon class="cls-33" points="73.92 73.87 75.23 74.63 68.95 78.25 67.65 77.5 73.92 73.87"/><polygon class="cls-33" points="67.45 77.61 68.76 78.37 66.59 79.62 65.28 78.86 67.45 77.61"/><polygon class="cls-33" points="65.02 79.01 66.33 79.77 63.77 81.24 62.47 80.49 65.02 79.01"/><polygon class="cls-33" points="84.5 67.75 85.81 68.5 84.52 69.25 83.22 68.49 84.5 67.75"/><polygon class="cls-33" points="83.05 68.59 83.22 68.69 84.35 69.35 83.07 70.09 81.76 69.33 81.89 69.25 83.05 68.59"/><polygon class="cls-33" points="81.64 69.4 82.94 70.16 81.66 70.9 80.35 70.14 81.64 69.4"/><polygon class="cls-33" points="79.54 70.63 80.85 71.39 78.2 72.91 76.9 72.15 79.54 70.63"/><polygon class="cls-33" points="71.97 80.61 73.28 81.37 71.99 82.11 70.68 81.35 71.97 80.61"/><polygon class="cls-33" points="72.11 80.53 73.39 79.78 74.7 80.54 73.42 81.28 72.11 80.53"/><polygon class="cls-33" points="73.56 79.69 74.84 78.95 76.15 79.71 74.86 80.45 73.56 79.69"/><polygon class="cls-33" points="74.98 78.87 76.27 78.13 77.58 78.89 76.29 79.63 74.98 78.87"/><polygon class="cls-33" points="76.47 78.01 77.75 77.27 79.07 78.03 77.78 78.77 76.47 78.01"/><polygon class="cls-33" points="77.9 77.18 79.19 76.44 80.49 77.2 79.21 77.94 77.9 77.18"/><polygon class="cls-33" points="79.35 76.35 80.63 75.61 81.94 76.37 80.66 77.11 79.35 76.35"/><polygon class="cls-33" points="80.78 75.53 82.06 74.78 83.37 75.54 82.08 76.28 80.78 75.53"/><polygon class="cls-33" points="67.35 83.28 70.51 81.45 71.81 82.21 68.65 84.04 67.35 83.28"/><path class="cls-32" d="M192.89,103.29l4.26,2.47a.44.44,0,0,0-.46,0l-4.27-2.48a.48.48,0,0,1,.47,0" transform="translate(-101.19 -24.89)"/><polygon class="cls-34" points="81.32 89.1 77.05 86.63 91.23 78.44 95.5 80.92 81.32 89.1"/><path class="cls-31" d="M182.51,114l-4.27-2.48a1.46,1.46,0,0,0-.65,1.14V113a.48.48,0,0,0,.19.42l4.27,2.48a.46.46,0,0,1-.19-.42v-.38a1.47,1.47,0,0,1,.66-1.14" transform="translate(-101.19 -24.89)"/><path class="cls-31" d="M196.69,105.81c.36-.21.65,0,.65.37v.38a1.43,1.43,0,0,1-.65,1.14l-14.18,8.18c-.36.21-.65,0-.65-.37v-.39a1.46,1.46,0,0,1,.66-1.13Z" transform="translate(-101.19 -24.89)"/><path class="cls-31" d="M174.32,110.7V110l.24.15,27.64-16-.77-.44-.05-16.56a.81.81,0,0,0,0-.16v0h0a.29.29,0,0,0,0-.09v0a.44.44,0,0,0-.18-.22c-.33-.19-.66-.38-1-.58l.44-.25a1.08,1.08,0,0,1,.29-.13,2.64,2.64,0,0,1,0,.29l1.22.71a1,1,0,0,0-.45-1l-.87-.51.3-.17A.89.89,0,0,1,202,75l-.48-.28s0,0-.06,0l-.49-.28-.18-.1a.88.88,0,0,0-.9.08l-25.6,14.78a2.81,2.81,0,0,0-1.26,2.19l0,16.09V110a.9.9,0,0,0,.37.82l1.22.7a.86.86,0,0,1-.37-.8" transform="translate(-101.19 -24.89)"/><path class="cls-31" d="M218.36,65v0Z" transform="translate(-101.19 -24.89)"/><path class="cls-31" d="M218.38,65.11v0h0v0" transform="translate(-101.19 -24.89)"/><path class="cls-35" d="M200.62,76.76c.42-.24.76-.05.76.43l.05,16.56-26.1,15.07-.05-16.56A1.67,1.67,0,0,1,176,91Z" transform="translate(-101.19 -24.89)"/><polygon class="cls-36" points="80.95 88.02 79.74 87.31 79.72 82.04 80.94 82.75 80.95 88.02"/><polygon class="cls-37" points="80.94 82.75 79.72 82.04 92.24 74.82 93.46 75.52 80.94 82.75"/><polygon class="cls-37" points="93.46 75.52 93.47 80.79 80.95 88.02 80.94 82.75 93.46 75.52"/><path class="cls-35" d="M202.15,76.75c0-1-.69-1.36-1.53-.87L176,90.07a3.38,3.38,0,0,0-1.52,2.64l0,17.44,27.64-16ZM175.28,92.26A1.67,1.67,0,0,1,176,91l24.58-14.19c.42-.24.76-.05.76.43l.05,16.57-26.1,15.06Z" transform="translate(-101.19 -24.89)"/><path class="cls-35" d="M202.44,92.85v-.93l-.05-16.1c0-.79-.57-1.12-1.26-.72L175.52,89.88a2.79,2.79,0,0,0-1.25,2.18l0,16.1v2.54c0,.79.57,1.12,1.27.72l6.54-3.78,12.52-7.23,6.54-3.77a2.83,2.83,0,0,0,1.26-2.19Zm-27.88,17.3,0-17.44a3.19,3.19,0,0,1,.55-1.68l.12-.17.12-.16a2.69,2.69,0,0,1,.73-.63l24.58-14.19a1,1,0,0,1,1.27,0l.07.1,0,.06a1.44,1.44,0,0,1,.15.67l0,8.72,0,8.72h0Z" transform="translate(-101.19 -24.89)"/></g></svg>