<svg xmlns="http://www.w3.org/2000/svg" viewBox="0 0 150 150"><defs><style>.cls-1{fill:#d5d5d4;}.cls-2{fill:#9f9f9f;}.cls-3{fill:#5d5d5d;}.cls-4{fill:#ac8a5a;}.cls-5{fill:#3f7ec1;}.cls-6{fill:#36170e;}.cls-7{fill:#124780;}.cls-8{fill:#17365d;}.cls-9{fill:#2563a3;}.cls-10{fill:#f5ad1f;opacity:0.8;}.cls-11,.cls-18{fill:none;}.cls-11{stroke:#eaeaea;stroke-miterlimit:10;stroke-width:4.4px;}.cls-12{fill:#3a3762;}.cls-13{fill:#e38868;}.cls-14{fill:#009fe3;}.cls-15{fill:#ece0d3;}.cls-16{fill:#49488c;}.cls-17{fill:#0782ae;}</style></defs><title>G14_05_06_04</title><g id="Marine"><path class="cls-1" d="M77.51,150.6a72.78,72.78,0,0,0,63.87-37.84H13.64A72.78,72.78,0,0,0,77.51,150.6Z" transform="translate(-2.51 -2.8)"/><path class="cls-2" d="M112.07,141.89H43a72.92,72.92,0,0,0,69.12,0Z" transform="translate(-2.51 -2.8)"/><path class="cls-1" d="M147.66,97.24a72.68,72.68,0,0,0-8.74-58.51v33.1H108.09v-60h.18A72.54,72.54,0,0,0,89.33,6V97.24Z" transform="translate(-2.51 -2.8)"/><path class="cls-2" d="M89.33,97.24v17.33h51a72.24,72.24,0,0,0,7.33-17.33Z" transform="translate(-2.51 -2.8)"/><path class="cls-3" d="M108.09,71.83h30.83V38.73a73.11,73.11,0,0,0-30.65-26.91h-.18Z" transform="translate(-2.51 -2.8)"/><path class="cls-4" d="M15,40.53H58.13V87H89V10.53H49.68A73.06,73.06,0,0,0,15,40.53Z" transform="translate(-2.51 -2.8)"/><path class="cls-5" d="M49.68,10.53H95.17V7.17a72.85,72.85,0,0,0-45.49,3.36Z" transform="translate(-2.51 -2.8)"/><polygon class="cls-6" points="55.63 88.96 55.63 94.65 55.63 100.34 55.63 106.04 55.63 111.73 86.53 111.73 86.53 84.19 55.63 84.19 55.63 88.96"/><path class="cls-7" d="M5.19,86.07H58.13V80.38H4.77Q4.88,83.26,5.19,86.07Z" transform="translate(-2.51 -2.8)"/><path class="cls-7" d="M9.46,51.92H58.13V46.23H11.89C11,48.08,10.2,50,9.46,51.92Z" transform="translate(-2.51 -2.8)"/><path class="cls-7" d="M6.16,63.31h52v-5.7H7.57C7,59.48,6.55,61.38,6.16,63.31Z" transform="translate(-2.51 -2.8)"/><path class="cls-7" d="M4.79,74.69H58.13V69H5.26Q4.92,71.81,4.79,74.69Z" transform="translate(-2.51 -2.8)"/><path class="cls-7" d="M9.25,103.15c.72,1.94,1.52,3.83,2.4,5.69H58.13v-5.69Z" transform="translate(-2.51 -2.8)"/><path class="cls-7" d="M7.42,97.46H58.13v-5.7H6.06C6.43,93.69,6.89,95.59,7.42,97.46Z" transform="translate(-2.51 -2.8)"/><path class="cls-8" d="M58.13,44V40.53H15C14.3,41.67,13.65,42.82,13,44Z" transform="translate(-2.51 -2.8)"/><path class="cls-8" d="M11.89,46.23H58.13V44H13C12.65,44.74,12.26,45.47,11.89,46.23Z" transform="translate(-2.51 -2.8)"/><path class="cls-9" d="M7.57,57.61H58.13V51.92H9.46Q8.4,54.71,7.57,57.61Z" transform="translate(-2.51 -2.8)"/><path class="cls-9" d="M5.26,69H58.13V63.31h-52C5.78,65.18,5.49,67.08,5.26,69Z" transform="translate(-2.51 -2.8)"/><path class="cls-9" d="M4.71,77.8c0,.87,0,1.72.06,2.58H58.13V74.69H4.79C4.74,75.72,4.71,76.76,4.71,77.8Z" transform="translate(-2.51 -2.8)"/><path class="cls-9" d="M5.31,87H58.13v-.92H5.19C5.22,86.38,5.27,86.69,5.31,87Z" transform="translate(-2.51 -2.8)"/><path class="cls-9" d="M6.06,91.76H58.13V87H5.31C5.51,88.6,5.75,90.19,6.06,91.76Z" transform="translate(-2.51 -2.8)"/><path class="cls-9" d="M9.25,103.15H58.13V97.46H7.42Q8.22,100.36,9.25,103.15Z" transform="translate(-2.51 -2.8)"/><path class="cls-9" d="M58.13,108.84H11.65c.92,2,1.93,3.84,3,5.69H58.13Z" transform="translate(-2.51 -2.8)"/><circle class="cls-10" cx="75" cy="75" r="72.8"/><circle class="cls-11" cx="75" cy="75" r="72.8"/><path class="cls-12" d="M82.48,44.11c3.46-1.27,6.13-4.17,5.84-7.93a9.68,9.68,0,0,0-5.39-8.07,8.92,8.92,0,0,0-3.55-.87C74.22,27.13,71.5,33,71,37.44c-.28,2.35,1.55,3.41,3.22,4.66C76.61,43.94,79.42,45.24,82.48,44.11Z" transform="translate(-2.51 -2.8)"/><path class="cls-13" d="M80.65,43.72,82.38,40a5.4,5.4,0,0,0,2.07-.48c2-1.14,2.41-3.64,1.91-6A6.39,6.39,0,0,0,84.23,30c-1.6-1.62-7.31-1.94-8.13.82a8,8,0,0,0,2.12,8.09l-1.61,3.9Z" transform="translate(-2.51 -2.8)"/><path class="cls-12" d="M86.09,31.12c-3,3.12-4.88,7.44-9,8.68-.41-1.55-2.65-5.11-2.6-6.72a5.58,5.58,0,0,1,1.93-4.24,5.62,5.62,0,0,1,3.41-1A7.28,7.28,0,0,1,86.09,31.12Z" transform="translate(-2.51 -2.8)"/><circle class="cls-13" cx="90.95" cy="50.78" r="2.6"/><path class="cls-12" d="M96.54,115.58l1.5,4.53s4.63.27,4.76.59l-6.66,1.83-1.74-6.36Z" transform="translate(-2.51 -2.8)"/><polygon class="cls-12" points="58.92 120.11 55.1 120.11 52.34 117.97 55.77 112.34 57.66 113.5 55.4 117.69 56.1 119.37 58.92 120.11"/><polygon class="cls-12" points="84.48 94.04 92.77 116.56 95.13 116.09 91.05 92.22 91.05 92.22 84.28 71.06 67.01 71.06 63.95 92.58 63.95 92.58 54.16 114.98 56.14 116.31 69.09 96.44 70.08 94.1 76.19 80.49 84.48 94.04"/><path class="cls-14" d="M76.4,39.71s3.54,1.11,5.31,3.15a37.91,37.91,0,0,1,4.72,8.62c.06.67-2.09,7.86-2.09,7.86l4.38,16.73s-13.64,2.11-20.46,0l3.57-13.26s-.88-5.43-1.09-6.29c-.61-2.46.45-6.24.9-8.84a13.74,13.74,0,0,1,3.18-6.15A13.84,13.84,0,0,0,76.4,39.71Z" transform="translate(-2.51 -2.8)"/><polygon class="cls-15" points="63.41 64.82 87.03 60.63 89.07 73.73 65.1 77.35 63.41 64.82"/><path class="cls-14" d="M83.23,57l.88,3.5,8.22-3.07S93.71,56.3,94,56.1a14.43,14.43,0,0,0,1.21-2.56c.07-.21-1.59-.32-1.59-.32a12.34,12.34,0,0,0-.13-1.35c0-.18-.43-1-.6-.44L92.5,53l-.53.53a8.9,8.9,0,0,0-.58,2Z" transform="translate(-2.51 -2.8)"/><polygon class="cls-14" points="90.53 52.48 91.58 48.62 92.44 45.54 93.55 45.96 91.5 52.58 90.53 52.48"/><path class="cls-14" d="M82.54,56.86s.94-2.65,2.7-1.57A2.66,2.66,0,0,0,88.41,55l3,.48.94,1.88-9,3.81Z" transform="translate(-2.51 -2.8)"/><path class="cls-14" d="M77.56,40.14c-1.65-1.09-7.39-1.29-8.07-.85s.91,1.83.74,2.76-3.52,2.12-2.38,4.13,4.48,4.4,4.48,4.4Z" transform="translate(-2.51 -2.8)"/><path class="cls-16" d="M79.21,81.6a.16.16,0,0,1-.09,0,.16.16,0,0,1-.05-.23l1.91-3a.17.17,0,0,1,.28.18l-1.91,3A.16.16,0,0,1,79.21,81.6Z" transform="translate(-2.51 -2.8)"/><g id="_Gruppo_" data-name="&lt;Gruppo&gt;"><path class="cls-13" d="M85.3,74c-.48-.1-.79-1.18-.88-1.84-.63-.14-1.52-1-2.14-1.17,1,3.43,1.11,5.23,1.32,5.62.45.87.74,1.33,1.3.82s1,.51,1.41,0,1.08.57,1.26-.13-.95-1.67-.95-1.67S87.13,74.33,85.3,74Z" transform="translate(-2.51 -2.8)"/></g><path class="cls-14" d="M74.08,48c-.7,2.51,8.38,26.4,8.38,26.4l3.9-1S84.87,68,85.11,66s.21-2.75-1.39-4.48-.77-8.39-1.86-11S74.57,46.3,74.08,48Z" transform="translate(-2.51 -2.8)"/><path class="cls-17" d="M82.54,61.85a.16.16,0,0,1-.15-.11A12.72,12.72,0,0,1,82,56.28c0-.48.06-1,.08-1.45a23.32,23.32,0,0,0-.86-7.1,3.91,3.91,0,0,0-.75-1.58,1.34,1.34,0,0,0-1.47-.4.17.17,0,0,1-.23-.08.17.17,0,0,1,.08-.23,1.67,1.67,0,0,1,1.87.48,4.23,4.23,0,0,1,.83,1.72,23.62,23.62,0,0,1,.87,7.2c0,.48,0,1-.08,1.46a12.83,12.83,0,0,0,.4,5.32.17.17,0,0,1-.09.22Z" transform="translate(-2.51 -2.8)"/><path class="cls-17" d="M79.66,65.9a.17.17,0,0,1-.16-.11c-.55-1.47-1.06-2.68-1.56-3.85a40.23,40.23,0,0,1-2.76-8.37.19.19,0,0,1,.14-.2.17.17,0,0,1,.2.13,38.56,38.56,0,0,0,2.74,8.31c.49,1.17,1,2.38,1.56,3.86a.16.16,0,0,1-.1.22Z" transform="translate(-2.51 -2.8)"/><path class="cls-17" d="M71.33,48.71h0a.17.17,0,0,1-.13-.2,12.66,12.66,0,0,1,4.21-7.13.17.17,0,1,1,.22.26,12.35,12.35,0,0,0-4.1,6.94A.16.16,0,0,1,71.33,48.71Z" transform="translate(-2.51 -2.8)"/><circle class="cls-13" cx="83.06" cy="73.66" r="2.6"/><circle class="cls-18" cx="75.45" cy="75.15" r="74.41"/><circle class="cls-18" cx="75.45" cy="75.15" r="74.41"/></g></svg>