<svg xmlns="http://www.w3.org/2000/svg" viewBox="0 0 185.79 163.6"><defs><style>.cls-1{fill:#d29e08;}.cls-2{fill:#fdd875;}.cls-3{fill:#fdc20b;}.cls-4{fill:#4d4a81;}.cls-5{fill:#f9b233;}.cls-6{fill:#f6bbc6;}.cls-7{fill:#303b45;}.cls-8{fill:#5b5b5a;}.cls-10,.cls-11,.cls-9{fill:none;stroke-width:1.12px;}.cls-9{stroke:#fbc01f;}.cls-10,.cls-11,.cls-17,.cls-9{stroke-miterlimit:10;}.cls-10{stroke:#4294ce;}.cls-11{stroke:#fff;}.cls-12{fill:#ebebeb;}.cls-13,.cls-14{fill:#353430;}.cls-13{opacity:0.3;}.cls-15{fill:#eaeaea;}.cls-16,.cls-17{fill:#d9d9d9;}.cls-17{stroke:#353330;}</style></defs><title>G14_01</title><g id="Livello_2" data-name="Livello 2"><polygon class="cls-1" points="185.79 106.08 185.79 110.83 96.32 163.6 96.32 158.85 185.79 106.08"/><polygon class="cls-2" points="96.32 158.85 96.32 163.6 0.22 107.87 0.22 103.12 96.32 158.85"/><polygon class="cls-3" points="96.1 158.87 0 103.14 0 102.87 90.31 50.97 185.79 106.09 96.25 158.96 96.1 158.87"/><ellipse class="cls-1" cx="90.23" cy="103.38" rx="65.41" ry="34.02"/><path class="cls-4" d="M99.35,15.25c-2.17-1.48-1.71-2.51-2-4.87a7.88,7.88,0,0,0-1.55-4c-2.58-3-7.49-1.28-8.7,0A9.54,9.54,0,0,0,85,10.13c-.64,2.29-.34,3.37-2.71,4.51-.82.4-1.7,1-1.7,2,0,.72.56,1.34.56,2,0,1.32-1.76,1.9-2.28,3.11-.41.93,0,2-.12,3a8.85,8.85,0,0,1-1,2.52,2.9,2.9,0,0,0-.12,2.62c.6,1,2,1.11,3.12.95s2.37-.46,3.41,0c.84.41,1.39,1.28,2.23,1.68A3.37,3.37,0,0,0,89.73,32l.23-.2a3.1,3.1,0,0,0,2.64.57c.9-.28,1.56-1.06,2.46-1.33,1.1-.35,1.26-1.86,2.37-1.54s2.27-8.82,2.46-10.12c.1-.71.74-1.24.85-1.95C100.88,16.54,100.11,15.76,99.35,15.25Z" transform="translate(-1.97 -4.27)"/><circle class="cls-5" cx="91.41" cy="7.56" r="4.88"/><path class="cls-6" d="M120.64,35.07c.43,0-2.25,1.32-7,3.75-3.92,2-6.73,2.66-8.78,1.84S96.06,25,96.06,25l.14-4a5.33,5.33,0,0,1,4.79,2.2c1.92,2.6,5.91,13.53,5.91,13.53l11.55-2.4Z" transform="translate(-1.97 -4.27)"/><path class="cls-7" d="M90,94.07a11.55,11.55,0,0,0-.89,3.52c0,1.29.51,1.65.51,1.65a28.59,28.59,0,0,0,3.33.81c.73,0,1.94,1.19,3.67,1.31s4,.65,4.2-.72c.15-.83-2-1.62-4.51-3.33a13.73,13.73,0,0,1-2.87-2.75Z" transform="translate(-1.97 -4.27)"/><path class="cls-7" d="M79.36,97.68s.13,1.24,1.23,1.17a3.56,3.56,0,0,0,2.06-1.23L82.37,102s-.62,6.58-2.53,7.26c-1.38.49-2-1.23-2.21-2.25a3,3,0,0,1,0-1.26Z" transform="translate(-1.97 -4.27)"/><path class="cls-7" d="M83,74.93s1.08-16.84.72-18.11S83,48.67,83,48.67l15.21-5.61,1.91,1.88s-.1,15,.26,17.32-6.92,32.3-6.92,32.3a2,2,0,0,1-2,1.25c-1.52-.07-1.42-1.2-1.42-1.2s2.37-21.67,2.37-22.76-.18-14.3-.18-14.3-2.17,10.86-2.89,15.57-6.7,24.5-6.7,24.5-.42,1.84-1.79,2-1.64-1.3-1.64-1.3Z" transform="translate(-1.97 -4.27)"/><path class="cls-8" d="M100.52,65.45,95.6,88.35l-5.44,0,1.47-13.64.53-16L89.25,75.39,84,94.07l-4.7-.87,3.07-19.42s.77-26,.77-27.14,1,.18,1,.18l15-2.74L101,48.21Z" transform="translate(-1.97 -4.27)"/><path class="cls-7" d="M90.52,94.14l3,.42a13.73,13.73,0,0,0,2.87,2.75c.6.4,1.17.75,1.69,1.07a.26.26,0,0,1,0,.15c0,.38-.51.53-.9.56a13.56,13.56,0,0,1-5.46-1.19,2.82,2.82,0,0,1-1.22-.71A2.22,2.22,0,0,1,90,95.94,2.61,2.61,0,0,1,90.52,94.14Z" transform="translate(-1.97 -4.27)"/><path class="cls-7" d="M81.8,100.82a22.6,22.6,0,0,1-.82,2.57c-.13.32-.32.67-.66.75a.81.81,0,0,1-.78-.32,2.52,2.52,0,0,1-.48-1.37,13.69,13.69,0,0,1,.17-4.38c.13-.66.4-1.41,1-1.63a2.15,2.15,0,0,1,1.65.41,1.74,1.74,0,0,1,.67.56c.15.31,0,.62-.11.94C82.26,99.17,82,100,81.8,100.82Z" transform="translate(-1.97 -4.27)"/><path class="cls-8" d="M89.9,22s5.1-1.24,7.57-.62A4.43,4.43,0,0,1,101,24.42a52.23,52.23,0,0,1,.86,5.28c.09,3.39-3.26,7.4-3.26,7.4l2.85,10.68s-12.5,4.8-15.56,3.27c-3.27-1.63-3.53-3.48-3.42-4.38.06-.54,2.14-7,2.12-7.52l-1.66-9.26a5.88,5.88,0,0,1,2.44-4.62Z" transform="translate(-1.97 -4.27)"/><path class="cls-6" d="M122.06,34.58a2.22,2.22,0,1,1-2.21-2.22A2.21,2.21,0,0,1,122.06,34.58Z" transform="translate(-1.97 -4.27)"/><path class="cls-6" d="M79.1,62a2.22,2.22,0,1,1-2.22-2.22A2.22,2.22,0,0,1,79.1,62Z" transform="translate(-1.97 -4.27)"/><path class="cls-8" d="M96.2,21.06a5.33,5.33,0,0,1,4.79,2.2,9.72,9.72,0,0,1,1.07,1.87c1.2,2.68,2.92,7.34,2.92,7.34l-4.25,2.11-.19-.38C98.27,29.9,96.06,25,96.06,25Z" transform="translate(-1.97 -4.27)"/><path class="cls-6" d="M91.67,22s-2.2.61-2.41,1.13,1.44-.5,3.18.78a15.88,15.88,0,0,1,3.24,3.64s1.62-1,1.57-4.37S91.67,22,91.67,22Z" transform="translate(-1.97 -4.27)"/><path class="cls-6" d="M97.58,17.14l-2,6.17h0a3.85,3.85,0,0,1-4.3.44h0a1,1,0,0,1-.47-1.07l1.52-6Z" transform="translate(-1.97 -4.27)"/><polygon class="cls-8" points="93.63 24.2 96.85 19.84 94.57 16 94.22 17.06 93.63 24.2"/><line class="cls-9" x1="95.28" y1="25.53" x2="98.23" y2="24.98"/><line class="cls-10" x1="95.28" y1="25.53" x2="96.25" y2="25.35"/><line class="cls-11" x1="97.26" y1="25.16" x2="98.23" y2="24.98"/><path class="cls-12" d="M100.67,45l.74,2.76s-9.53,5-15.56,3.27c-3.5-1-3.53-3.48-3.42-4.38a5.93,5.93,0,0,1,.32-1.2s1.12,1.61,5,2.14C92.11,48.22,100.67,45,100.67,45Z" transform="translate(-1.97 -4.27)"/><path class="cls-13" d="M85.34,48.21c.47-2.31,1.88-4.33,2.23-6.67.41-2.79-.62-6-.76-8.82A57.85,57.85,0,0,1,87,24.5a4.51,4.51,0,0,1,.08-.53l-1.79,1.3a5.88,5.88,0,0,0-2.44,4.62l1.66,9.26c0,.55-2.12,7-2.12,7.52a3.82,3.82,0,0,0,2.69,4.12A20.26,20.26,0,0,1,85.34,48.21Z" transform="translate(-1.97 -4.27)"/><path class="cls-6" d="M75.37,60.8s.68-12.31.38-12.89,4-13.34,4.85-16.26A9.58,9.58,0,0,1,81,30.49l.89.33a7.06,7.06,0,0,1,1.84.81,5,5,0,0,1,1.81,2.66,9,9,0,0,1,.4,2.12c-1.75,2.51-4.47,6.49-4.83,8.49-1,5.35-2.6,13.57-3.7,16.44C76.91,62.7,75.37,60.8,75.37,60.8Z" transform="translate(-1.97 -4.27)"/><path class="cls-8" d="M80.79,31.07c-.07.2-.14.39-.19.58C80.65,31.46,80.72,31.27,80.79,31.07Z" transform="translate(-1.97 -4.27)"/><path class="cls-8" d="M84.31,38.82a4.11,4.11,0,0,0-1.9-2.21,7.28,7.28,0,0,0-3.19-.75c-.08.19,1.87-5.56,1.8-5.37a14.26,14.26,0,0,1,6.53-6.83c2.31-.91,6.92,3,6.92,3,.61,1.44-7,7.6-7,7.6s-.65.87-1.52,2.12S84.31,38.82,84.31,38.82Z" transform="translate(-1.97 -4.27)"/><path class="cls-8" d="M75.53,61l-.16-.17Z" transform="translate(-1.97 -4.27)"/><path class="cls-12" d="M98,46.81l1-.29S94.15,31.36,88.46,26.31c-.67-.6-3.32-1.56-4-1a5.88,5.88,0,0,0-.84.91,9.37,9.37,0,0,1,5.58,3C92.74,33.06,98,46.81,98,46.81Z" transform="translate(-1.97 -4.27)"/><polygon class="cls-8" points="92.54 19.14 91.58 21.47 88.44 21.9 86.77 18.73 88.86 16.44 89.33 16.31 89.23 16.93 92.54 19.14"/><polygon class="cls-14" points="92.94 22.23 91.42 21.77 92.54 19.14 92.94 22.23"/><circle class="cls-15" cx="90.77" cy="19.82" r="0.86"/><path class="cls-6" d="M101,14.27a6,6,0,1,1-6-6A6,6,0,0,1,101,14.27Z" transform="translate(-1.97 -4.27)"/><path class="cls-4" d="M99.86,13.22a1.21,1.21,0,0,0,.83-.91,6,6,0,0,0-11.65,2,6.83,6.83,0,0,0,.06.79,2,2,0,0,0,.81,0c.59-.15,2-.64,1.51-1.37.22.36.23.87,0,2.24C93.61,12.54,97.59,14.08,99.86,13.22Z" transform="translate(-1.97 -4.27)"/><path class="cls-6" d="M91.61,14.46a1.83,1.83,0,1,1-1.83-1.82A1.83,1.83,0,0,1,91.61,14.46Z" transform="translate(-1.97 -4.27)"/><circle class="cls-14" cx="50.41" cy="19.56" r="19.56"/><polygon class="cls-14" points="76.99 29.38 65.32 28.56 67.69 21.9 76.99 29.38"/><polygon class="cls-16" points="53.88 19.56 59.79 13.15 59.79 25.97 53.88 19.56"/><rect class="cls-17" x="41.04" y="12.19" width="14.75" height="14.75" rx="2" ry="2"/></g></svg>