<svg id="Livello_1" data-name="Livello 1" xmlns="http://www.w3.org/2000/svg" xmlns:xlink="http://www.w3.org/1999/xlink" viewBox="0 0 186.24 207.31"><defs><style>.cls-1{fill:url(#Sfumatura_senza_nome_15);}.cls-2{fill:url(#Sfumatura_senza_nome_22);}.cls-3{fill:url(#Sfumatura_senza_nome_4);}.cls-4{fill:#d29e08;}.cls-5{fill:#fdd875;}.cls-6{fill:#fdc20b;}.cls-7{fill:#4d4a81;}.cls-31,.cls-8{fill:#f6bcc6;}.cls-21,.cls-9{fill:#303b45;}.cls-10,.cls-32{fill:#5b5b5a;}.cls-11,.cls-19{fill:#353430;}.cls-12{fill:#eaeaea;}.cls-13,.cls-14,.cls-15,.cls-18{fill:none;}.cls-13{stroke:#fbc01f;}.cls-13,.cls-14,.cls-15{stroke-miterlimit:10;stroke-width:1.06px;}.cls-14{stroke:#4194ce;}.cls-15{stroke:#fff;}.cls-16{fill:#ebebeb;}.cls-17{fill:#fbc01f;}.cls-19,.cls-20,.cls-21,.cls-22,.cls-23,.cls-24,.cls-25,.cls-26,.cls-27,.cls-28,.cls-29,.cls-30,.cls-31,.cls-32{fill-rule:evenodd;}.cls-20{fill:#262d33;}.cls-22{fill:#afafb1;}.cls-23{fill:#8a8b8c;}.cls-24{fill:#36393b;}.cls-25{fill:#808081;}.cls-26{fill:#6a6766;}.cls-27{fill:#353230;}.cls-28{fill:#ababab;}.cls-29{fill:#969696;}.cls-30{fill:#cdcbcb;}.cls-33{fill:#ef7966;}.cls-34{fill:#323232;}</style><linearGradient id="Sfumatura_senza_nome_15" x1="201.84" y1="120.01" x2="201.84" y2="13.88" gradientTransform="translate(-55.64)" gradientUnits="userSpaceOnUse"><stop offset="0" stop-color="#5b5b5a"/><stop offset="0.19" stop-color="#5f605f"/><stop offset="0.43" stop-color="#6b6d6f"/><stop offset="0.69" stop-color="#7f8388"/><stop offset="0.96" stop-color="#9aa1ab"/><stop offset="1" stop-color="#9ea6b0"/></linearGradient><linearGradient id="Sfumatura_senza_nome_22" x1="112" y1="86.03" x2="176.61" y2="48.73" gradientTransform="matrix(-1, 0, 0, 1, 291.55, 0)" gradientUnits="userSpaceOnUse"><stop offset="0" stop-color="#fff"/><stop offset="0.33" stop-color="#f7f7f7"/><stop offset="0.83" stop-color="#e3e3e3"/><stop offset="1" stop-color="#dadada"/></linearGradient><linearGradient id="Sfumatura_senza_nome_4" x1="104.07" y1="40.65" x2="184.54" y2="40.65" gradientTransform="matrix(-1, 0, 0, 1, 291.55, 0)" gradientUnits="userSpaceOnUse"><stop offset="0" stop-color="#9ea6b0"/><stop offset="0.24" stop-color="#a8b1bb"/><stop offset="0.66" stop-color="#c3cdd9"/><stop offset="1" stop-color="#dce7f5"/></linearGradient></defs><title>G14_05_03</title><path class="cls-1" d="M186.77,15.62l-2.71-1.57h0a1.62,1.62,0,0,0-1.72.16l-76,43.9a4.59,4.59,0,0,0-2.22,3.5v55.63a2.14,2.14,0,0,0,.69,1.2l2.72,1.56h1.13L186.1,75.8a4.58,4.58,0,0,0,2.21-3.5V16.69Z" transform="translate(-104.07 -13.88)"/><path class="cls-2" d="M107,63.29v54.63a1.25,1.25,0,0,0,.51,1.12,1.64,1.64,0,0,0,1.7-.18L185.27,75a4.57,4.57,0,0,0,2.21-3.49V16.83c0-1.3-1.1-1.6-2.21-.94L124.34,51.07,109.22,59.8A4.6,4.6,0,0,0,107,63.29Z" transform="translate(-104.07 -13.88)"/><path class="cls-3" d="M107,63.29v2.46h0l80.45-46.45V16.83c0-1.32-1.12-1.59-2.21-.94L124.34,51.07,109.22,59.8A4.6,4.6,0,0,0,107,63.29Z" transform="translate(-104.07 -13.88)"/><polygon class="cls-4" points="186.24 149.78 186.24 154.53 96.77 207.31 96.77 202.56 186.24 149.78"/><polygon class="cls-5" points="96.77 202.56 96.77 207.31 0.67 151.57 0.67 146.83 96.77 202.56"/><polygon class="cls-6" points="96.55 202.57 0.45 146.84 0.45 146.57 90.76 94.67 186.24 149.8 96.7 202.66 96.55 202.57"/><path class="cls-7" d="M157.13,80.35c-2.18-1.49-1.71-2.51-2-4.87a8,8,0,0,0-1.55-4c-2.59-3-7.5-1.29-8.71,0a9.71,9.71,0,0,0-2.13,3.73c-.65,2.29-.34,3.38-2.72,4.52-.82.39-1.69,1-1.69,2,0,.71.56,1.34.55,2,0,1.32-1.75,1.9-2.28,3.1-.4.93,0,2-.11,3a8.82,8.82,0,0,1-1,2.53,2.88,2.88,0,0,0-.12,2.61c.6,1,2,1.12,3.13,1s2.37-.47,3.41,0c.84.4,1.39,1.27,2.23,1.68a3.35,3.35,0,0,0,3.36-.57c.08-.06.15-.14.23-.21a3.08,3.08,0,0,0,2.65.57c.89-.27,1.56-1,2.45-1.33,1.11-.34,1.27-1.86,2.38-1.53s2.26-8.82,2.45-10.13c.11-.7.75-1.24.86-1.94.13-.91-.63-1.68-1.39-2.19" transform="translate(-104.07 -13.88)"/><path class="cls-8" d="M133.67,122.85s.65-11.7.36-12.25,3.83-12.67,4.61-15.45a8.63,8.63,0,0,1,.4-1.1l.85.31a6.85,6.85,0,0,1,1.75.77,4.83,4.83,0,0,1,1.72,2.53,8.58,8.58,0,0,1,.37,2c-1.66,2.39-4.25,6.17-4.59,8.08-.91,5.07-2.47,12.89-3.51,15.62-.5,1.29-2-.52-2-.52" transform="translate(-104.07 -13.88)"/><path class="cls-8" d="M168.31,91.27s-1.88,7.7-4.08,11.25a3.31,3.31,0,0,1-2.56,1.19c-2-.62-8.33-14.85-8.33-14.85l.13-3.77A5.07,5.07,0,0,1,158,87.17c1.83,2.48,4.3,10.29,4.3,10.29l3.4-6.54Z" transform="translate(-104.07 -13.88)"/><path class="cls-9" d="M147.61,154.48a10.88,10.88,0,0,0-.85,3.34c0,1.23.48,1.57.48,1.57a25.91,25.91,0,0,0,3.17.77c.69,0,1.84,1.14,3.49,1.25s3.76.62,4-.69c.14-.79-1.89-1.54-4.29-3.16a12.86,12.86,0,0,1-2.73-2.62Z" transform="translate(-104.07 -13.88)"/><path class="cls-9" d="M137.46,157.91s.13,1.18,1.17,1.11a3.34,3.34,0,0,0,2-1.17l-.26,4.17s-.58,6.25-2.41,6.9c-1.3.46-1.87-1.17-2.09-2.14a2.7,2.7,0,0,1,0-1.2Z" transform="translate(-104.07 -13.88)"/><path class="cls-9" d="M140.93,136.29s1-16,.68-17.21-.68-7.75-.68-7.75L155.39,106s.79,22,1.14,24.21-5.66,24.74-5.66,24.74a1.91,1.91,0,0,1-1.9,1.19c-1.44-.07-1.35-1.13-1.35-1.13s3.52-22.27,3.52-23.3-1.43-11.94-1.43-11.94-2.07,10.33-2.76,14.81-6.37,23.28-6.37,23.28-.39,1.76-1.69,2-1.56-1.23-1.56-1.23Z" transform="translate(-104.07 -13.88)"/><path class="cls-10" d="M156.9,130.72l-4.2,19.22-5-.87,2.67-15.6-1-11.2-2.52,14.45-5,17.76-4.47-.83,3.29-18.46.75-16a12.06,12.06,0,0,1-.39-9.76c0-1,.92.17.92.17l14.24-2.6.7,4Z" transform="translate(-104.07 -13.88)"/><path class="cls-9" d="M148.07,154.55l2.8.39a12.86,12.86,0,0,0,2.73,2.62c.57.38,1.11.72,1.61,1a.76.76,0,0,1,0,.15c0,.36-.49.5-.86.53a12.94,12.94,0,0,1-5.19-1.13,2.67,2.67,0,0,1-1.16-.68,2,2,0,0,1-.4-1.18,2.36,2.36,0,0,1,.46-1.71" transform="translate(-104.07 -13.88)"/><path class="cls-9" d="M139.78,160.89a20.53,20.53,0,0,1-.78,2.45,1.05,1.05,0,0,1-.62.72.83.83,0,0,1-.75-.31,2.4,2.4,0,0,1-.45-1.31,12.64,12.64,0,0,1,.16-4.16c.12-.63.38-1.34,1-1.54a2,2,0,0,1,1.56.38,1.6,1.6,0,0,1,.64.54c.14.29,0,.58-.1.89-.22.78-.43,1.56-.65,2.34" transform="translate(-104.07 -13.88)"/><path class="cls-10" d="M147.48,85.94s4.85-1.18,7.19-.59.44,4.3.64,5.09c0,.12,3.73,4.73,3.76,5.92.08,3.22-3.07,4.48-3.07,4.48l2.42,9.64s-11.88,4.56-14.79,3.11c-3.1-1.55-3.36-3.31-3.25-4.16.06-.52,2.22-4.66,2.21-5.18l-1.77-10.77a5.57,5.57,0,0,1,2.31-4.4Z" transform="translate(-104.07 -13.88)"/><path class="cls-8" d="M169.33,89.74a2.1,2.1,0,1,1-2.1-2.1,2.1,2.1,0,0,1,2.1,2.1" transform="translate(-104.07 -13.88)"/><path class="cls-8" d="M137.21,124a2.11,2.11,0,1,1-2.11-2.1,2.1,2.1,0,0,1,2.11,2.1" transform="translate(-104.07 -13.88)"/><path class="cls-10" d="M138.82,94.6c-.07.19-.13.37-.18.55.05-.18.11-.36.18-.55" transform="translate(-104.07 -13.88)"/><path class="cls-10" d="M142.17,102a4,4,0,0,0-1.81-2.1,6.31,6.31,0,0,0-1.72-.62c-.28-.09-1,0-1.31-.09-.08.18,1.78-5.28,1.71-5.1a10.14,10.14,0,0,1,5.29-5.63c2.19-.86,7.5,2,7.5,2,.57,1.38-6.65,7.23-6.65,7.23s-.62.82-1.45,2c0-.68-1.56,2.29-1.56,2.29" transform="translate(-104.07 -13.88)"/><path class="cls-10" d="M133.82,123a1.52,1.52,0,0,1-.15-.17l.15.17" transform="translate(-104.07 -13.88)"/><path class="cls-10" d="M153.47,85.09A5.07,5.07,0,0,1,158,87.17,9.4,9.4,0,0,1,159,89c1.15,2.55,2.78,7,2.78,7l-4,2-.19-.36c-2.16-4.09-4.25-8.71-4.25-8.71Z" transform="translate(-104.07 -13.88)"/><path class="cls-8" d="M149.16,85.93s-2.09.58-2.28,1.07,1.36-.47,3,.75A15.05,15.05,0,0,1,153,91.2s1.55-1,1.5-4.15-5.31-1.12-5.31-1.12" transform="translate(-104.07 -13.88)"/><path class="cls-8" d="M153.11,82.3l.2,4.84-.47.08a3.67,3.67,0,0,1-4.09.42c-.36-.2.47-1.89,0-1.31l.43-4.41Z" transform="translate(-104.07 -13.88)"/><polygon class="cls-10" points="47.78 73.44 46.87 75.64 43.89 76.05 42.3 73.04 44.29 70.87 44.81 70.72 44.74 71.4 47.78 73.44"/><polygon class="cls-11" points="48.16 76.37 46.73 75.93 47.78 73.44 48.16 76.37"/><polygon class="cls-10" points="48.82 78.24 51.88 74.1 49.73 70.16 49.12 70.38 48.82 78.24"/><path class="cls-12" d="M151,88a.82.82,0,1,1-1.64,0A.82.82,0,1,1,151,88" transform="translate(-104.07 -13.88)"/><line class="cls-13" x1="50.39" y1="79.51" x2="53.2" y2="78.98"/><line class="cls-14" x1="50.39" y1="79.51" x2="51.32" y2="79.34"/><line class="cls-15" x1="52.27" y1="79.16" x2="53.2" y2="78.98"/><path class="cls-16" d="M157.72,107.86l.7,2.62s-9.06,4.8-14.79,3.11c-3.33-1-3.35-3.31-3.25-4.16a5.37,5.37,0,0,1,.3-1.14s1.07,1.52,4.72,2c4.18.58,12.32-2.46,12.32-2.46" transform="translate(-104.07 -13.88)"/><path class="cls-16" d="M155.19,109.56l1-.28s-4.65-14.4-10.06-19.21c-.64-.57-3.16-1.48-3.83-.94a5.82,5.82,0,0,0-.8.87,9,9,0,0,1,5.31,2.89c3.39,3.6,8.4,16.67,8.4,16.67" transform="translate(-104.07 -13.88)"/><path class="cls-8" d="M158.06,78.63a5.7,5.7,0,1,1-5.7-5.7,5.7,5.7,0,0,1,5.7,5.7" transform="translate(-104.07 -13.88)"/><path class="cls-7" d="M157,77.3a1.44,1.44,0,0,0,.73-.49s0,0,0,0c1.1-2.75-2.62-4.33-6.17-4-3.14.25-4.91,2.76-4.91,5.91,0,1.4,2.1.24,2,.75-.16.78,0,3,1.37,3-.82-.94.61-2.34,1-2.63,2.52-2,3.85-1.6,6-2.42" transform="translate(-104.07 -13.88)"/><path class="cls-8" d="M148.72,78.81a1.37,1.37,0,1,1-1.32-1.73,1.57,1.57,0,0,1,1.32,1.73" transform="translate(-104.07 -13.88)"/><path class="cls-17" d="M151.57,72.72a3.91,3.91,0,0,1,1,.13,3.12,3.12,0,0,0-1.55-.41,3.2,3.2,0,0,0-3.17,2.84,4,4,0,0,1,3.75-2.56" transform="translate(-104.07 -13.88)"/><rect class="cls-18" x="28.93" y="55.91" width="34.54" height="99.21"/><path class="cls-19" d="M243.8,142.3c-3.48-.8-6.15-4.49-10.2-7.37L230,133.09c-.24-3.7,0-4.9,1.75-5.49,3.24-1.11,8.79,1.79,13,3.87Z" transform="translate(-104.07 -13.88)"/><path class="cls-20" d="M232.41,143.84l5.23,2.22c0,2.39.61,9.5-.31,10.12-1.13.76-3,.15-4.17-.38l-.31-.92c-1.1-.16-.86.17-2-.49-2-1.11-4.94-2.82-5.33-4.8-.1-.51.29-1.43.8-1.34l5.79,1Z" transform="translate(-104.07 -13.88)"/><path class="cls-19" d="M239.41,134.59l-.95,13.23h0a.32.32,0,0,1-.17.35c-.61.36-2.63-.24-4.52-1.32a10.36,10.36,0,0,1-1.84-1.33l-.69-.48L230.19,130Z" transform="translate(-104.07 -13.88)"/><path class="cls-21" d="M226.69,146.69l4.47,2c.07,2.38,1,10.38.15,11-1.09.81-3,.28-4.19-.2l-.34-.91a4.23,4.23,0,0,1-2.74-.74c-1.94-1-4.29-2.41-4.71-4.17-.13-.5.23-1.43.74-1.36l5.69.69Z" transform="translate(-104.07 -13.88)"/><path class="cls-19" d="M233.23,133.58c-.12,1.64-.22,3.29-.27,4.93l-.55,12,0,0a.32.32,0,0,1-.18.26c-.61.35-2.63-.24-4.51-1.33s-2.83-2.16-2.37-2.56l-.1-13.64c-.09-4.05,7.93-3.2,8,.39" transform="translate(-104.07 -13.88)"/><polygon class="cls-22" points="138.99 106.33 137.05 105.2 137.1 131.31 139.04 132.44 138.99 106.33"/><polygon class="cls-23" points="138.99 106.33 139.04 132.44 140.94 131.35 140.88 105.23 138.99 106.33"/><polygon class="cls-24" points="148.63 125.66 148.36 131.45 148.65 146.88 150.18 146 150.16 124.78 148.63 125.66"/><polygon class="cls-25" points="148.63 125.66 147.13 124.79 147.15 146.01 148.65 146.88 148.63 125.66"/><polygon class="cls-24" points="136.15 132.9 135.88 138.68 136.17 154.12 137.7 153.24 137.68 132.01 136.15 132.9"/><polygon class="cls-25" points="136.15 132.9 134.65 132.03 134.67 153.25 136.17 154.12 136.15 132.9"/><path class="cls-25" d="M231.85,141.42l12.59,7.27a3,3,0,0,0,.45.21l.08,0a2,2,0,0,0,.4.08h0a1.59,1.59,0,0,0,.38,0h0a1.26,1.26,0,0,0,.34-.13h0l-1.31.76h0a.31.31,0,0,1-.13.06l-.12,0-.09,0h0l-.15,0H244l-.21,0-.09,0-.09,0-.11,0a2.59,2.59,0,0,1-.33-.17l-12.6-7.27Z" transform="translate(-104.07 -13.88)"/><path class="cls-25" d="M230.54,142.18l12.6,7.27c1.33.77,2.42.15,2.43-1.39l0-13.58.87.5,0,13.59c0,2.09-1.49,2.93-3.31,1.88l-12.59-7.27Z" transform="translate(-104.07 -13.88)"/><path class="cls-25" d="M240,136.6l12.59,7.27a2.22,2.22,0,0,0,.45.2l.08,0a1.53,1.53,0,0,0,.4.09h0a1.25,1.25,0,0,0,.39,0h0a1,1,0,0,0,.35-.14h0l-1.3.76h0l-.13.06-.12,0h-.63l-.21-.05-.09,0-.09,0-.11,0a2.49,2.49,0,0,1-.33-.16l-12.6-7.28Z" transform="translate(-104.07 -13.88)"/><path class="cls-25" d="M238.71,137.35l12.6,7.28c1.33.77,2.42.15,2.43-1.39l0-13.58.87.5,0,13.59c0,2.09-1.49,2.93-3.31,1.88l-12.59-7.27Z" transform="translate(-104.07 -13.88)"/><polygon class="cls-26" points="139.19 120.14 138.92 125.92 139.21 133.96 140.74 133.08 140.72 119.26 139.19 120.14"/><polygon class="cls-27" points="139.19 120.14 137.69 119.27 137.71 133.09 139.21 133.96 139.19 120.14"/><polygon class="cls-24" points="126.72 127.37 126.44 133.16 126.73 148.6 128.26 147.71 128.24 126.49 126.72 127.37"/><polygon class="cls-25" points="126.72 127.37 125.22 126.5 125.24 147.72 126.73 148.6 126.72 127.37"/><path class="cls-28" d="M228.18,140.62a.4.4,0,0,0,0,.15h0a.91.91,0,0,0,.07.14l0,0,.11.13.1.07.09.07L240,147.82v1.83L228.61,143h0l-.08-.06a.31.31,0,0,1-.09-.07h0l-.09-.09,0,0v0l0,0a.3.3,0,0,1,0-.08h0v0s0,0,0-.05a.28.28,0,0,1,0-.09h0Z" transform="translate(-104.07 -13.88)"/><path class="cls-29" d="M240.43,148l.07,0a2.07,2.07,0,0,0,.5.06h0a2.31,2.31,0,0,0,.52-.06h0a1.76,1.76,0,0,0,.47-.18l13.21-7.62a.72.72,0,0,0,.42-.6v1.83a.72.72,0,0,1-.42.59L242,149.65l-.21.1-.18.06-.08,0h-.07l-.14,0h-.59a1.25,1.25,0,0,1-.19,0l-.08,0h-.06l-.13,0-.32-.14v-1.83a1.55,1.55,0,0,0,.44.17" transform="translate(-104.07 -13.88)"/><path class="cls-30" d="M228.61,140a.63.63,0,0,0,0,1.19L240,147.82a2.23,2.23,0,0,0,2,0l13.2-7.62a.62.62,0,0,0,0-1.18l-11.39-6.62a2.29,2.29,0,0,0-2,0Z" transform="translate(-104.07 -13.88)"/><path class="cls-19" d="M250.29,132.49l2.25,1.22c.8,3.66.35,6.26-1.34,8a13.67,13.67,0,0,1-12.15,3.36c-3.48-.8-6.15-4.48-10.21-7.37l-3.58-1.83c-.24-3.71,0-4.9,1.75-5.49,3.24-1.12,8.78,1.79,13,3.86Z" transform="translate(-104.07 -13.88)"/><path class="cls-31" d="M236.48,103.7c-.35-.46-.91-.59-1.87-1.42-.64-.7-1.15-.85-1.44-.73s-.42.27,0,.9l1.07,1.34-1.32-.1-.75-.27-1.61-1.67c-.49-.57-.74-.2-1.3.4-.79.74.29,1.87,1.27,3.24,1,1.09.79,1.29,2.22,1.45l2.23.23.82,1.29,2.36-1.6a8.25,8.25,0,0,1-.93-1.12c-.4-.76-.3-1.34-.76-1.94" transform="translate(-104.07 -13.88)"/><path class="cls-32" d="M242.3,116l-4.38-10.22c-1.09-.49-3.07,1.06-3.31,1.86a115.77,115.77,0,0,0,4,14.5c.66,1.6,1.42,1.68,3,1.13,2.79-1,1.7-4.51.66-7.27" transform="translate(-104.07 -13.88)"/><path class="cls-32" d="M241.85,108.23c-4.06,2.34-6.27,4.86-5,5.62s5.67-.51,9.72-2.85,6.27-4.86,5-5.62-5.67.51-9.72,2.85" transform="translate(-104.07 -13.88)"/><path class="cls-31" d="M248.42,100.13c-.52,4.4-.59,3.49.48,7.93l-5.73,2.68c.48-6.25-.19-6.86-1.95-12.82Z" transform="translate(-104.07 -13.88)"/><path class="cls-8" d="M237.09,100a6.15,6.15,0,1,0,6.14-6.14,6.14,6.14,0,0,0-6.14,6.14" transform="translate(-104.07 -13.88)"/><path class="cls-7" d="M239.19,101.78a1.28,1.28,0,0,1,1.94-1,1.65,1.65,0,0,1,.45,1.77,5,5,0,0,1-1,1.64,28,28,0,0,0,6.25,3.16l2.74-4a6.26,6.26,0,0,0,1-1.92,7.68,7.68,0,0,0-1.28-5.69A8.12,8.12,0,0,0,243.44,93a6.86,6.86,0,0,0-5.15,2.5c-1.53,1.85.18,4.3.9,6.29" transform="translate(-104.07 -13.88)"/><path class="cls-32" d="M248.45,105.62a6.16,6.16,0,0,1-5.19.68l-.48,1.41c1.41,2,6.21,1.83,6.09-.56Z" transform="translate(-104.07 -13.88)"/><path class="cls-32" d="M248.91,107c1.06-.49,1.31-1.79,2.34-1.74a3,3,0,0,1,1,.44c1.21.64,2.13,2.57,2.39,4.65.93,7.24-2.34,8.23-2,17.1.07,1.65.54,6.32,1,9.41-.27,1.28-1.58,2.47-3,3.42l-.56-6.05-.67,6.86a9.37,9.37,0,0,1-3.32,2.09c-2.41,1.1-8.94,2.56-8.89-.3.07-4,.84-8.12.51-13-.49-7.13-2.2-13.89-1.55-15.45a8.61,8.61,0,0,1,3-4.14c1.63-1.13,2.13-1.66,3.68-2.8,3,1.46,5.71.46,6-.51" transform="translate(-104.07 -13.88)"/><path class="cls-31" d="M228.35,121.33a9.63,9.63,0,0,1-2.62-2.87A4.12,4.12,0,0,0,224.2,117c-.83-.51-2.9-.17-4.63-.47A1.28,1.28,0,0,0,218,117.8c-.09,1.06,1.19,1.69,2.1,2.5a9.18,9.18,0,0,0,2.3,1.71c.72.38,1.68.61,2.41,1l1.8,1.31,1.62-2.83-.06,0Z" transform="translate(-104.07 -13.88)"/><path class="cls-32" d="M236.38,125.66,227.32,120a8.3,8.3,0,0,0-2.86,3.24,130.48,130.48,0,0,0,12.72,9.53c1.5.87,2.15.46,3.1-.95,1.6-2.49-1.4-4.62-3.9-6.17" transform="translate(-104.07 -13.88)"/><path class="cls-32" d="M237.74,111.56c-1.38,1.2-1.49,1.51-1.78,2.37-.89,2.6-.49,8-.55,12.44.19,3.66-.62,5.86,3,6.15,1.71.24,2.17-.39,2.5-2.06l2.17-10.77c.53-6.3-3.45-9-5.32-8.13" transform="translate(-104.07 -13.88)"/><path class="cls-28" d="M242,132.74l0,7.1a.78.78,0,0,0,0,.22h0a.48.48,0,0,0,.06.18h0a.47.47,0,0,0,.06.09.39.39,0,0,0,.16.15l-1.58-.91a.61.61,0,0,1-.16-.16l0,0a.43.43,0,0,1,0-.07h0a.14.14,0,0,1,0-.06s0,0,0-.05,0,0,0-.05v0h0v-.07a.09.09,0,0,0,0,0v-.1h0l0-7.09Z" transform="translate(-104.07 -13.88)"/><path class="cls-30" d="M242.64,131.3h0l-.18.21h0l-.14.22v0a1,1,0,0,0-.12.23h0a1.06,1.06,0,0,0-.09.25h0c0,.09,0,.17-.05.25h0a.72.72,0,0,0,0,.25l-1.58-.91v-.2s0,0,0,0h0a.09.09,0,0,1,0-.05.07.07,0,0,1,0-.05s0,0,0-.06l0,0a.09.09,0,0,1,0-.05h0s0,0,0-.05l0,0a183157854256.17,183157854256.17,0,0,0,0-.1s0,0,0,0h0s0,0,0-.05l0,0,0-.07,0-.06h0v0l.07-.12.07-.09h0l0-.06,0-.05s0,0,0,0l0-.05h0l0,0,0,0,0,0,0,0s0,0,0,0h0l0,0,0,0,0,0,0,0h0l13.2-7.62,0,0,0,0,.05,0,0,0h.42l.07,0,.08,0,1.57.91a.53.53,0,0,0-.15,0h0a.32.32,0,0,0-.17,0h0a.65.65,0,0,0-.19,0h0l-.2.09L243,131a1.28,1.28,0,0,0-.21.14h0a1.07,1.07,0,0,0-.19.18" transform="translate(-104.07 -13.88)"/><path class="cls-29" d="M243,131l13.2-7.63c.56-.32,1-.06,1,.59l0,7.09a2.22,2.22,0,0,1-1,1.77l-13.2,7.62c-.56.33-1,.06-1-.58l0-7.1a2.21,2.21,0,0,1,1-1.76" transform="translate(-104.07 -13.88)"/><path class="cls-24" d="M246.44,148.57l0-13.59,1.31-.76,0,13.59a2.89,2.89,0,0,1-.4,1.57,1.6,1.6,0,0,1-.56.54l-1.31.76a2.29,2.29,0,0,0,1-2.11" transform="translate(-104.07 -13.88)"/><polygon class="cls-30" points="142.41 121.1 143.71 120.34 142.84 119.84 141.53 120.6 142.41 121.1"/><path class="cls-25" d="M243.14,149.45c1.33.77,2.42.15,2.43-1.39l0-13.58.87.5,0,13.59c0,2.09-1.49,2.93-3.31,1.89Z" transform="translate(-104.07 -13.88)"/><path class="cls-24" d="M254.61,143.75l0-13.59,1.31-.76,0,13.59a2.89,2.89,0,0,1-.4,1.57,1.63,1.63,0,0,1-.57.54l-1.3.76a2.3,2.3,0,0,0,1-2.11" transform="translate(-104.07 -13.88)"/><polygon class="cls-30" points="150.58 116.28 151.88 115.52 151.01 115.01 149.7 115.77 150.58 116.28"/><path class="cls-25" d="M251.31,144.63c1.33.77,2.42.15,2.43-1.39l0-13.58.87.5,0,13.59c0,2.09-1.49,2.93-3.31,1.88Z" transform="translate(-104.07 -13.88)"/><path class="cls-19" d="M217.8,156.3c-3.48-.8-6.15-4.49-10.2-7.37L204,147.09c-.24-3.7,0-4.9,1.75-5.49,3.24-1.11,8.79,1.79,13,3.87Z" transform="translate(-104.07 -13.88)"/><path class="cls-20" d="M205.81,155.06l5.42,1.82c0,2.38,1,12.68.1,13.3-1.13.76-3,.15-4.17-.38l-.31-.92c-1.1-.16-.86.17-2-.49-2-1.11-4.94-2.82-5.33-4.8-.1-.51.29-1.43.8-1.34l5.79,1Z" transform="translate(-104.07 -13.88)"/><path class="cls-19" d="M213.41,148.59l-.95,12.23h0a.32.32,0,0,1-.17.35c-.61.36-2.63-.24-4.52-1.32a10.36,10.36,0,0,1-1.84-1.33l-.69-.48L204.19,144Z" transform="translate(-104.07 -13.88)"/><path class="cls-21" d="M200.65,159.4l5,2.08c.07,2.38.51,11.56-.38,12.22-1.09.81-3,.28-4.19-.2l-.34-.91a4.23,4.23,0,0,1-2.74-.74c-1.94-1-4.29-2.41-4.71-4.17-.13-.5.23-1.43.74-1.36l6.66.91Z" transform="translate(-104.07 -13.88)"/><path class="cls-19" d="M207.23,147.58c-.12,1.64-.22,3.29-.27,4.93l-.55,10,0,0a.32.32,0,0,1-.18.26c-.61.35-2.63-.24-4.51-1.33s-2.83-2.16-2.37-2.56l-.1-11.64c-.09-4.05,7.93-3.2,8,.39" transform="translate(-104.07 -13.88)"/><polygon class="cls-22" points="112.99 120.33 111.05 119.2 111.1 145.31 113.04 146.44 112.99 120.33"/><polygon class="cls-23" points="112.99 120.33 113.04 146.44 114.94 145.35 114.89 119.23 112.99 120.33"/><polygon class="cls-24" points="122.63 139.66 122.36 145.45 122.65 160.88 124.18 160 124.16 138.78 122.63 139.66"/><polygon class="cls-25" points="122.63 139.66 121.13 138.79 121.15 160.01 122.65 160.88 122.63 139.66"/><polygon class="cls-24" points="110.15 146.9 109.88 152.68 110.17 168.12 111.7 167.24 111.68 146.01 110.15 146.9"/><polygon class="cls-25" points="110.15 146.9 108.65 146.03 108.67 167.25 110.17 168.12 110.15 146.9"/><path class="cls-25" d="M205.85,155.42l12.59,7.27a3,3,0,0,0,.45.21l.08,0a2,2,0,0,0,.4.08h0a1.59,1.59,0,0,0,.38,0h0a1.26,1.26,0,0,0,.34-.13h0l-1.31.76h0a.31.31,0,0,1-.13.06l-.12,0-.09,0h0l-.15,0H218l-.21,0-.09,0-.09,0-.11,0a2.59,2.59,0,0,1-.33-.17l-12.6-7.27Z" transform="translate(-104.07 -13.88)"/><path class="cls-25" d="M204.54,156.18l12.6,7.27c1.33.77,2.42.15,2.43-1.39l0-13.58.87.5,0,13.59c0,2.09-1.49,2.93-3.31,1.88l-12.59-7.27Z" transform="translate(-104.07 -13.88)"/><path class="cls-25" d="M214,150.6l12.59,7.27a2.22,2.22,0,0,0,.45.2l.08,0a1.53,1.53,0,0,0,.4.09h0a1.25,1.25,0,0,0,.39,0h0a1,1,0,0,0,.35-.14h0l-1.3.76h0l-.13.06-.12,0h-.63l-.21-.05-.09,0-.09,0-.11,0a2.49,2.49,0,0,1-.33-.16l-12.6-7.28Z" transform="translate(-104.07 -13.88)"/><path class="cls-25" d="M212.71,151.35l12.6,7.28c1.33.77,2.42.15,2.43-1.39l0-13.58.87.5,0,13.59c0,2.09-1.49,2.93-3.31,1.88l-12.59-7.27Z" transform="translate(-104.07 -13.88)"/><polygon class="cls-26" points="113.19 134.14 112.92 139.92 113.21 147.96 114.74 147.08 114.72 133.26 113.19 134.14"/><polygon class="cls-27" points="113.19 134.14 111.69 133.27 111.71 147.09 113.21 147.96 113.19 134.14"/><polygon class="cls-24" points="100.72 141.37 100.44 147.16 100.73 162.6 102.26 161.71 102.24 140.49 100.72 141.37"/><polygon class="cls-25" points="100.72 141.37 99.22 140.5 99.24 161.72 100.73 162.6 100.72 141.37"/><path class="cls-28" d="M202.18,154.62a.4.4,0,0,0,0,.15h0a.91.91,0,0,0,.07.14l0,0,.11.13.1.07.09.07L214,161.82v1.83L202.61,157h0l-.08-.06a.31.31,0,0,1-.09-.07h0l-.09-.09,0,0v0l0,0a.3.3,0,0,1,0-.08h0v0s0,0,0-.05a.28.28,0,0,1,0-.09h0Z" transform="translate(-104.07 -13.88)"/><path class="cls-29" d="M214.43,162l.07,0a2.07,2.07,0,0,0,.5.06h0a2.31,2.31,0,0,0,.52-.06h0a1.76,1.76,0,0,0,.47-.18l13.21-7.62a.72.72,0,0,0,.42-.6v1.83a.72.72,0,0,1-.42.59L216,163.65l-.21.1-.18.06-.08,0h-.07l-.14,0h-.59a1.25,1.25,0,0,1-.19,0l-.08,0h-.06l-.13,0-.32-.14v-1.83a1.55,1.55,0,0,0,.44.17" transform="translate(-104.07 -13.88)"/><path class="cls-30" d="M202.61,154a.63.63,0,0,0,0,1.19L214,161.82a2.23,2.23,0,0,0,2,0l13.2-7.62a.62.62,0,0,0,0-1.18l-11.39-6.62a2.29,2.29,0,0,0-2,0Z" transform="translate(-104.07 -13.88)"/><path class="cls-19" d="M224.29,146.49l2.25,1.22c.8,3.66.35,6.26-1.34,8a13.67,13.67,0,0,1-12.15,3.36c-3.48-.8-6.15-4.48-10.21-7.37l-3.58-1.83c-.24-3.71,0-4.9,1.75-5.49,3.24-1.12,8.78,1.79,13,3.86Z" transform="translate(-104.07 -13.88)"/><path class="cls-32" d="M215.85,122.23c-4.06,2.34-6.27,4.86-5,5.62s5.67-.51,9.72-2.85,6.27-4.86,5-5.62-5.67.51-9.72,2.85" transform="translate(-104.07 -13.88)"/><path class="cls-31" d="M222.42,114.13c-.52,4.4-.59,3.49.48,7.93l-5.73,2.68c.48-6.25-.19-6.86-1.95-12.82Z" transform="translate(-104.07 -13.88)"/><path class="cls-8" d="M211.09,114a6.15,6.15,0,1,0,6.14-6.14,6.14,6.14,0,0,0-6.14,6.14" transform="translate(-104.07 -13.88)"/><path class="cls-33" d="M213.19,115.78a1.28,1.28,0,0,1,1.94-1,1.65,1.65,0,0,1,.45,1.77,5,5,0,0,1-1,1.64,28,28,0,0,0,6.25,3.16l2.74-4a6.26,6.26,0,0,0,1-1.92,7.68,7.68,0,0,0-1.28-5.69,8.12,8.12,0,0,0-5.86-2.76,6.86,6.86,0,0,0-5.15,2.5c-1.53,1.85.18,4.3.9,6.29" transform="translate(-104.07 -13.88)"/><path class="cls-32" d="M222.45,119.62a6.16,6.16,0,0,1-5.19.68l-.48,1.41c1.41,2,6.21,1.83,6.09-.56Z" transform="translate(-104.07 -13.88)"/><path class="cls-32" d="M222.91,121c1.06-.49,1.31-1.79,2.34-1.74a3,3,0,0,1,1,.44c1.21.64,2.13,2.57,2.39,4.65.93,7.24-2.34,8.23-2,17.1.07,1.65.54,6.32,1,9.41-.27,1.28-1.58,2.47-3,3.42l-.56-6.05-.67,6.86a9.37,9.37,0,0,1-3.32,2.09c-2.41,1.1-8.94,2.56-8.89-.3.07-4,.84-8.12.51-13-.49-7.13-2.2-13.89-1.55-15.45a8.61,8.61,0,0,1,3-4.14c1.63-1.13,2.13-1.66,3.68-2.8,3,1.46,5.71.46,6-.51" transform="translate(-104.07 -13.88)"/><path class="cls-31" d="M205.16,144.38a9.37,9.37,0,0,1-3.82.68,4.27,4.27,0,0,0-2,.53c-.87.44-1.68,2.36-2.86,3.67a1.27,1.27,0,0,0,.23,2c.84.64,2.06-.1,3.23-.44a9.2,9.2,0,0,0,2.67-1c.71-.41,1.41-1.11,2.12-1.51l2.07-.83-1.53-2.88-.07,0Z" transform="translate(-104.07 -13.88)"/><path class="cls-32" d="M207.42,142.83l-3.92,1.72a8.28,8.28,0,0,0,1.22,4.14c1.21-.26,5.81-1,9.15-2.75,1.53-.8,1.54-1.57.85-3.13-1.25-2.68-4.66-1.27-7.3,0" transform="translate(-104.07 -13.88)"/><path class="cls-32" d="M211.74,125.56c-1.38,1.2-1.49,1.51-1.78,2.37-.89,2.6-.49,8-.55,12.44.19,3.66-.62,5.86,3,6.15,1.71.24,2.17-.39,2.5-2.06l2.17-10.77c.53-6.3-3.45-9-5.32-8.13" transform="translate(-104.07 -13.88)"/><path class="cls-28" d="M216,146.74l0,7.1a.78.78,0,0,0,0,.22h0a.48.48,0,0,0,.06.18h0a.47.47,0,0,0,.06.09.39.39,0,0,0,.16.15l-1.58-.91a.61.61,0,0,1-.16-.16l0,0a.43.43,0,0,1,0-.07h0a.14.14,0,0,1,0-.06s0,0,0-.05,0,0,0-.05v0h0v-.07a.09.09,0,0,0,0,0v-.1h0l0-7.09Z" transform="translate(-104.07 -13.88)"/><path class="cls-30" d="M216.64,145.3h0l-.18.21h0l-.14.22v0a1,1,0,0,0-.12.23h0a1.06,1.06,0,0,0-.09.25h0c0,.09,0,.17-.05.25h0a.72.72,0,0,0,0,.25l-1.58-.91v-.2s0,0,0,0h0a.09.09,0,0,1,0-.05.07.07,0,0,1,0-.05s0,0,0-.06l0,0a.09.09,0,0,1,0-.05h0s0,0,0-.05l0,0a183157854256.17,183157854256.17,0,0,0,0-.1s0,0,0,0h0s0,0,0-.05l0,0,0-.07,0-.06h0v0l.07-.12.07-.09h0l0-.06,0-.05s0,0,0,0l0-.05h0l0,0,0,0,0,0,0,0s0,0,0,0h0l0,0,0,0,0,0,0,0h0l13.2-7.62,0,0,0,0,.05,0,0,0h.42l.07,0,.08,0,1.57.91-.15-.05h0a.32.32,0,0,0-.17,0h0a.65.65,0,0,0-.19,0h0l-.2.09L217,145a1.28,1.28,0,0,0-.21.14h0a1.07,1.07,0,0,0-.19.18" transform="translate(-104.07 -13.88)"/><path class="cls-29" d="M217,145l13.2-7.63c.56-.32,1-.06,1,.59l0,7.09a2.22,2.22,0,0,1-1,1.77l-13.2,7.62c-.56.33-1,.06-1-.58l0-7.1a2.21,2.21,0,0,1,1-1.76" transform="translate(-104.07 -13.88)"/><path class="cls-24" d="M220.44,162.57l0-13.59,1.31-.76,0,13.59a2.89,2.89,0,0,1-.4,1.57,1.6,1.6,0,0,1-.56.54l-1.31.76a2.29,2.29,0,0,0,1-2.11" transform="translate(-104.07 -13.88)"/><polygon class="cls-30" points="116.41 135.1 117.71 134.34 116.84 133.84 115.53 134.6 116.41 135.1"/><path class="cls-25" d="M217.14,163.45c1.33.77,2.42.15,2.43-1.39l0-13.58.87.5,0,13.59c0,2.09-1.49,2.93-3.31,1.89Z" transform="translate(-104.07 -13.88)"/><path class="cls-24" d="M228.61,157.75l0-13.59,1.31-.76,0,13.59a2.89,2.89,0,0,1-.4,1.57,1.63,1.63,0,0,1-.57.54l-1.3.76a2.3,2.3,0,0,0,1-2.11" transform="translate(-104.07 -13.88)"/><polygon class="cls-30" points="124.58 130.28 125.88 129.52 125.01 129.01 123.7 129.77 124.58 130.28"/><path class="cls-25" d="M225.31,158.63c1.33.77,2.42.15,2.43-1.39l0-13.58.87.5,0,13.59c0,2.09-1.49,2.93-3.31,1.88Z" transform="translate(-104.07 -13.88)"/><path class="cls-19" d="M189.8,172.3c-3.48-.8-6.15-4.49-10.2-7.37L176,163.09c-.24-3.7,0-4.9,1.75-5.49,3.24-1.11,8.79,1.79,13,3.87Z" transform="translate(-104.07 -13.88)"/><path class="cls-20" d="M177.81,171.06l5.42,1.82c0,2.38,1,12.68.1,13.3-1.13.76-3,.15-4.17-.38l-.31-.92c-1.1-.16-.86.17-2-.49-2-1.11-4.94-2.82-5.33-4.8-.1-.51.29-1.43.8-1.34l5.79,1Z" transform="translate(-104.07 -13.88)"/><path class="cls-19" d="M185.41,164.59l-.95,12.23h0a.32.32,0,0,1-.17.35c-.61.36-2.63-.24-4.52-1.32a10.36,10.36,0,0,1-1.84-1.33l-.69-.48L176.19,160Z" transform="translate(-104.07 -13.88)"/><path class="cls-21" d="M172.65,175.4l5,2.08c.07,2.38.51,11.56-.38,12.22-1.09.81-3,.28-4.19-.2l-.34-.91a4.23,4.23,0,0,1-2.74-.74c-1.94-1-4.29-2.41-4.71-4.17-.13-.5.23-1.43.74-1.36l6.66.91Z" transform="translate(-104.07 -13.88)"/><path class="cls-19" d="M179.23,163.58c-.12,1.64-.22,3.29-.27,4.93l-.55,10,0,0a.32.32,0,0,1-.18.26c-.61.35-2.63-.24-4.51-1.33s-2.83-2.16-2.37-2.56l-.1-11.64c-.09-4.05,7.93-3.2,8,.39" transform="translate(-104.07 -13.88)"/><polygon class="cls-22" points="84.99 136.33 83.05 135.2 83.1 161.31 85.04 162.44 84.99 136.33"/><polygon class="cls-23" points="84.99 136.33 85.04 162.44 86.94 161.35 86.89 135.23 84.99 136.33"/><polygon class="cls-24" points="94.63 155.66 94.36 161.45 94.65 176.88 96.18 176 96.16 154.78 94.63 155.66"/><polygon class="cls-25" points="94.63 155.66 93.13 154.79 93.15 176.01 94.65 176.88 94.63 155.66"/><polygon class="cls-24" points="82.15 162.9 81.88 168.68 82.17 184.12 83.7 183.24 83.68 162.01 82.15 162.9"/><polygon class="cls-25" points="82.15 162.9 80.65 162.03 80.67 183.25 82.17 184.12 82.15 162.9"/><path class="cls-25" d="M177.85,171.42l12.59,7.27a3,3,0,0,0,.45.21l.08,0a2,2,0,0,0,.4.08h0a1.59,1.59,0,0,0,.38,0h0a1.26,1.26,0,0,0,.34-.13h0l-1.31.76h0a.31.31,0,0,1-.13.06l-.12,0-.09,0h0l-.15,0H190l-.21,0-.09,0-.09,0-.11,0a2.59,2.59,0,0,1-.33-.17l-12.6-7.27Z" transform="translate(-104.07 -13.88)"/><path class="cls-25" d="M176.54,172.18l12.6,7.27c1.33.77,2.42.15,2.43-1.39l0-13.58.87.5,0,13.59c0,2.09-1.49,2.93-3.31,1.88l-12.59-7.27Z" transform="translate(-104.07 -13.88)"/><path class="cls-25" d="M186,166.6l12.59,7.27a2.22,2.22,0,0,0,.45.2l.08,0a1.53,1.53,0,0,0,.4.09h0a1.25,1.25,0,0,0,.39,0h0a1,1,0,0,0,.35-.14h0l-1.3.76h0l-.13.06-.12,0h-.63l-.21-.05-.09,0-.09,0-.11,0a2.49,2.49,0,0,1-.33-.16l-12.6-7.28Z" transform="translate(-104.07 -13.88)"/><path class="cls-25" d="M184.71,167.35l12.6,7.28c1.33.77,2.42.15,2.43-1.39l0-13.58.87.5,0,13.59c0,2.09-1.49,2.93-3.31,1.88l-12.59-7.27Z" transform="translate(-104.07 -13.88)"/><polygon class="cls-26" points="85.19 150.14 84.92 155.92 85.21 163.96 86.74 163.08 86.72 149.26 85.19 150.14"/><polygon class="cls-27" points="85.19 150.14 83.69 149.27 83.71 163.09 85.21 163.96 85.19 150.14"/><polygon class="cls-24" points="72.72 157.37 72.44 163.16 72.73 178.6 74.26 177.71 74.24 156.49 72.72 157.37"/><polygon class="cls-25" points="72.72 157.37 71.22 156.5 71.24 177.72 72.73 178.6 72.72 157.37"/><path class="cls-28" d="M174.18,170.62a.4.4,0,0,0,0,.15h0a.91.91,0,0,0,.07.14l0,0,.11.13.1.07.09.07L186,177.82v1.83L174.61,173h0l-.08-.06a.31.31,0,0,1-.09-.07h0l-.09-.09,0,0v0l0,0a.3.3,0,0,1,0-.08h0v0s0,0,0-.05a.28.28,0,0,1,0-.09h0Z" transform="translate(-104.07 -13.88)"/><path class="cls-29" d="M186.43,178l.07,0a2.07,2.07,0,0,0,.5.06h0a2.31,2.31,0,0,0,.52-.06h0a1.76,1.76,0,0,0,.47-.18l13.21-7.62a.72.72,0,0,0,.42-.6v1.83a.72.72,0,0,1-.42.59L188,179.65l-.21.1-.18.06-.08,0h-.07l-.14,0h-.59a1.25,1.25,0,0,1-.19,0l-.08,0h-.06l-.13,0-.32-.14v-1.83a1.55,1.55,0,0,0,.44.17" transform="translate(-104.07 -13.88)"/><path class="cls-30" d="M174.61,170a.63.63,0,0,0,0,1.19L186,177.82a2.23,2.23,0,0,0,2,0l13.2-7.62a.62.62,0,0,0,0-1.18l-11.39-6.62a2.29,2.29,0,0,0-2,0Z" transform="translate(-104.07 -13.88)"/><path class="cls-19" d="M196.29,162.49l2.25,1.22c.8,3.66.35,6.26-1.34,8a13.67,13.67,0,0,1-12.15,3.36c-3.48-.8-6.15-4.48-10.21-7.37l-3.58-1.83c-.24-3.71,0-4.9,1.75-5.49,3.24-1.12,8.78,1.79,13,3.86Z" transform="translate(-104.07 -13.88)"/><path class="cls-32" d="M187.85,138.23c-4.06,2.34-6.27,4.86-5,5.62s5.67-.51,9.72-2.85,6.27-4.86,5-5.62-5.67.51-9.72,2.85" transform="translate(-104.07 -13.88)"/><path class="cls-31" d="M194.42,130.13c-.52,4.4-.59,3.49.48,7.93l-5.73,2.68c.48-6.25-.19-6.86-1.95-12.82Z" transform="translate(-104.07 -13.88)"/><path class="cls-8" d="M183.09,130a6.15,6.15,0,1,0,6.14-6.14,6.14,6.14,0,0,0-6.14,6.14" transform="translate(-104.07 -13.88)"/><path class="cls-34" d="M185.19,131.78a1.28,1.28,0,0,1,1.94-1,1.65,1.65,0,0,1,.45,1.77,5,5,0,0,1-1,1.64,28,28,0,0,0,6.25,3.16l2.74-4a6.26,6.26,0,0,0,1-1.92,7.68,7.68,0,0,0-1.28-5.69,8.12,8.12,0,0,0-5.86-2.76,6.86,6.86,0,0,0-5.15,2.5c-1.53,1.85.18,4.3.9,6.29" transform="translate(-104.07 -13.88)"/><path class="cls-32" d="M194.45,135.62a6.16,6.16,0,0,1-5.19.68l-.48,1.41c1.41,1.95,6.21,1.83,6.09-.56Z" transform="translate(-104.07 -13.88)"/><path class="cls-32" d="M194.91,137c1.06-.49,1.31-1.79,2.34-1.74a3,3,0,0,1,1,.44c1.21.64,2.13,2.57,2.39,4.65.93,7.24-2.34,8.23-2,17.1.07,1.65.54,6.32,1,9.41-.27,1.28-1.58,2.47-3,3.42l-.56-6.05-.67,6.86a9.37,9.37,0,0,1-3.32,2.09c-2.41,1.1-8.94,2.56-8.89-.3.07-4,.84-8.12.51-13-.49-7.13-2.2-13.89-1.55-15.45a8.61,8.61,0,0,1,3-4.14c1.63-1.13,2.13-1.66,3.68-2.8,3,1.46,5.71.46,6-.51" transform="translate(-104.07 -13.88)"/><path class="cls-31" d="M177.16,160.38a9.37,9.37,0,0,1-3.82.68,4.27,4.27,0,0,0-2,.53c-.87.44-1.68,2.36-2.86,3.67a1.27,1.27,0,0,0,.23,2c.84.64,2.06-.1,3.23-.44a9.2,9.2,0,0,0,2.67-1c.71-.41,1.41-1.11,2.12-1.51l2.07-.83-1.53-2.88-.07,0Z" transform="translate(-104.07 -13.88)"/><path class="cls-32" d="M179.42,158.83l-3.92,1.72a8.28,8.28,0,0,0,1.22,4.14c1.21-.26,5.81-1,9.15-2.75,1.53-.8,1.54-1.57.85-3.13-1.25-2.68-4.66-1.27-7.3,0" transform="translate(-104.07 -13.88)"/><path class="cls-32" d="M183.74,141.56c-1.38,1.2-1.49,1.51-1.78,2.37-.89,2.6-.49,8-.55,12.44.19,3.66-.62,5.86,3,6.15,1.71.24,2.17-.39,2.5-2.06l2.17-10.77c.53-6.3-3.45-9-5.32-8.13" transform="translate(-104.07 -13.88)"/><path class="cls-28" d="M188,162.74l0,7.1a.78.78,0,0,0,0,.22h0a.48.48,0,0,0,.06.18h0a.47.47,0,0,0,.06.09.39.39,0,0,0,.16.15l-1.58-.91a.61.61,0,0,1-.16-.16l0,0a.43.43,0,0,1,0-.07h0a.14.14,0,0,1,0-.06s0,0,0-.05,0,0,0-.05v0h0v-.07a.09.09,0,0,0,0,0v-.1h0l0-7.09Z" transform="translate(-104.07 -13.88)"/><path class="cls-30" d="M188.64,161.3h0l-.18.21h0l-.14.22v0a1,1,0,0,0-.12.23h0a1.06,1.06,0,0,0-.09.25h0c0,.09,0,.17-.05.25h0a.72.72,0,0,0,0,.25l-1.58-.91v-.2s0,0,0,0h0a.09.09,0,0,1,0-.05.07.07,0,0,1,0-.05s0,0,0-.06l0,0a.09.09,0,0,1,0-.05h0s0,0,0-.05l0,0a183157854256.12,183157854256.12,0,0,0,0-.1s0,0,0,0h0s0,0,0-.05l0,0,0-.07,0-.06h0v0l.07-.12.07-.09h0l0-.06,0-.05s0,0,0,0l0-.05h0l0,0,0,0,0,0,0,0s0,0,0,0h0l0,0,0,0,0,0,0,0h0l13.2-7.62,0,0,0,0,.05,0,0,0h.42l.07,0,.08,0,1.57.91-.15-.05h0a.32.32,0,0,0-.17,0h0a.65.65,0,0,0-.19,0h0l-.2.09L189,161a1.28,1.28,0,0,0-.21.14h0a1.07,1.07,0,0,0-.19.18" transform="translate(-104.07 -13.88)"/><path class="cls-29" d="M189,161l13.2-7.63c.56-.32,1-.06,1,.59l0,7.09a2.22,2.22,0,0,1-1,1.77l-13.2,7.62c-.56.33-1,.06-1-.58l0-7.1a2.21,2.21,0,0,1,1-1.76" transform="translate(-104.07 -13.88)"/><path class="cls-24" d="M192.44,178.57l0-13.59,1.31-.76,0,13.59a2.89,2.89,0,0,1-.4,1.57,1.6,1.6,0,0,1-.56.54l-1.31.76a2.29,2.29,0,0,0,1-2.11" transform="translate(-104.07 -13.88)"/><polygon class="cls-30" points="88.41 151.1 89.71 150.34 88.84 149.84 87.53 150.6 88.41 151.1"/><path class="cls-25" d="M189.14,179.45c1.33.77,2.42.15,2.43-1.39l0-13.58.87.5,0,13.59c0,2.09-1.49,2.93-3.31,1.89Z" transform="translate(-104.07 -13.88)"/><path class="cls-24" d="M200.61,173.75l0-13.59,1.31-.76,0,13.59a2.89,2.89,0,0,1-.4,1.57,1.63,1.63,0,0,1-.57.54l-1.3.76a2.3,2.3,0,0,0,1-2.11" transform="translate(-104.07 -13.88)"/><polygon class="cls-30" points="96.58 146.28 97.88 145.52 97.01 145.01 95.7 145.77 96.58 146.28"/><path class="cls-25" d="M197.31,174.63c1.33.77,2.42.15,2.43-1.39l0-13.58.87.5,0,13.59c0,2.09-1.49,2.93-3.31,1.88Z" transform="translate(-104.07 -13.88)"/></svg>