<svg xmlns="http://www.w3.org/2000/svg" viewBox="0 0 348.91 213.14"><defs><style>.cls-1{fill:#d29e08;}.cls-2{fill:#fdd875;}.cls-3{fill:#fdc20b;}.cls-4{fill:#fcc10d;stroke:#e9eaeb;stroke-miterlimit:10;stroke-width:4.25px;}.cls-5{fill:#be1622;}.cls-6,.cls-8{fill:#fff;}.cls-7{fill:#e94e1b;}.cls-8{font-size:70px;font-family:MyriadPro-Bold, Myriad Pro;font-weight:700;}.cls-9{isolation:isolate;}.cls-10{fill:#2a3134;}.cls-11{fill:#313537;}.cls-12{fill:#455358;}.cls-13{fill:#368784;}.cls-14{fill:#ee9f05;}.cls-15{fill:#234f5e;}.cls-16,.cls-17{fill:#f6bbc6;}.cls-16,.cls-18,.cls-20,.cls-21,.cls-22,.cls-25{fill-rule:evenodd;}.cls-18,.cls-35{fill:#5b5b5a;}.cls-19{fill:#4d4a81;}.cls-20{fill:#8a8b8c;}.cls-21{fill:#afafb1;}.cls-22{fill:#48abb4;}.cls-23{fill:#f9b233;}.cls-24{fill:#303b45;}.cls-25{fill:#353430;}.cls-26{fill:#eaeaea;}.cls-27{fill:#ebebeb;}.cls-28{fill:#e51449;}.cls-29{fill:#323c3f;}.cls-30{fill:#4e4d4c;}.cls-31{fill:#d8d8d8;}.cls-32{fill:#29303a;}.cls-33{fill:#435871;}.cls-34{fill:#d9d9d9;}.cls-36{fill:#a7b0ba;}.cls-37,.cls-45{fill:#3c3c3b;}.cls-38{fill:#e5effb;}.cls-39{fill:#2d2e83;}.cls-40{fill:#1d71b8;}.cls-41{fill:#063;}.cls-42{fill:#3aaa35;}.cls-43{fill:#7b1716;}.cls-44{fill:#e30613;}.cls-45{opacity:0.4;}.cls-46{fill:#1d1d1b;}.cls-47{fill:#adbfcf;}.cls-48{fill:#f9fafd;}.cls-49{fill:#114369;}.cls-50{fill:#edf1f4;}.cls-51{fill:#efedee;}.cls-52{fill:#0f2d43;}.cls-53{fill:#134269;}</style></defs><title>G14_09_02</title><g id="Livello_1" data-name="Livello 1"><polygon class="cls-1" points="266.23 155.62 266.23 160.37 176.76 213.14 176.76 208.39 266.23 155.62"/><polygon class="cls-2" points="176.76 208.39 176.76 213.14 80.66 157.41 80.66 152.66 176.76 208.39"/><polygon class="cls-3" points="176.54 208.41 80.44 152.68 80.44 152.41 170.75 100.51 266.23 155.63 176.69 208.5 176.54 208.41"/><ellipse class="cls-1" cx="170.67" cy="152.92" rx="65.41" ry="34.02"/><circle class="cls-4" cx="58.82" cy="58.82" r="56.69"/><circle class="cls-5" cx="58.82" cy="60.67" r="33.45"/><rect class="cls-6" x="31.44" y="53.17" width="54.75" height="15"/><circle class="cls-4" cx="290.09" cy="58.82" r="56.69"/><circle class="cls-7" cx="290.09" cy="60.67" r="33.45"/><text class="cls-8" transform="translate(280.45 84.47)">!</text></g><g id="Livello_3" data-name="Livello 3"><g class="cls-9"><polygon class="cls-10" points="193.17 112.88 195.4 111.58 195.47 89.1 193.23 90.4 193.17 112.88"/><polygon class="cls-11" points="193.23 90.4 195.47 89.1 193.03 87.7 190.8 89 193.23 90.4"/><polygon class="cls-12" points="190.8 89 190.74 111.47 193.17 112.88 193.23 90.4 190.8 89"/></g><g class="cls-9"><path class="cls-13" d="M196.06,81l1.65-1-.13.07-1.64,1,.12-.07Z" transform="translate(-9.59 -6.66)"/><path class="cls-14" d="M197.71,80.06a4.58,4.58,0,0,1,3.09-.3,8.62,8.62,0,0,1,2.54,1,15.43,15.43,0,0,1,4,3.54,17.57,17.57,0,0,1,2.42,3.89,10.77,10.77,0,0,1,1,3.53l.95,12c.14,1.79-.42,3-1.44,3.63l-1.64,1c1-.6,1.57-1.84,1.43-3.63l-1-12a10.92,10.92,0,0,0-1-3.53,17.62,17.62,0,0,0-2.43-3.89,15.1,15.1,0,0,0-4.05-3.54,8.4,8.4,0,0,0-2.53-1,4.54,4.54,0,0,0-3.1.3Z" transform="translate(-9.59 -6.66)"/><path class="cls-3" d="M201.69,81.73c-3.79-2.19-7.16-1.14-7.48,2.34l-1,10.83c-.32,3.48,2.56,8.15,6.4,10.37l4,2.33c3.85,2.22,6.74.89,6.44-2.95l-1-12C208.83,88.85,205.48,83.92,201.69,81.73Z" transform="translate(-9.59 -6.66)"/></g><g class="cls-9"><path class="cls-15" d="M180.79,115.35c-3.42,2-3.44,5.18,0,7.16l5.45,3.16a13.6,13.6,0,0,0,12.36,0L204,122.5c3.43-2,3.44-5.18,0-7.15l-5.44-3.17a13.6,13.6,0,0,0-12.36,0Z" transform="translate(-9.59 -6.66)"/></g><g class="cls-9"><path class="cls-14" d="M178.46,118.34a5.14,5.14,0,0,0,2.29,2.36l5.45,3.17a13.64,13.64,0,0,0,12.36,0L204,120.7c1.72-1,2.59-2.3,2.58-3.6v2.19c0,1.3-.86,2.61-2.58,3.6l-5.49,3.17a12.46,12.46,0,0,1-6,1.48,12.67,12.67,0,0,1-6.32-1.48l-5.45-3.17a5.09,5.09,0,0,1-2.29-2.36,3,3,0,0,1-.25-1.19v-2.19A3.14,3.14,0,0,0,178.46,118.34Z" transform="translate(-9.59 -6.66)"/><path class="cls-3" d="M180.79,113.54c-3.42,2-3.44,5.19,0,7.16l5.45,3.17a13.66,13.66,0,0,0,12.36,0L204,120.7c3.43-2,3.44-5.18,0-7.16l-5.44-3.16a13.6,13.6,0,0,0-12.36,0Z" transform="translate(-9.59 -6.66)"/></g><path class="cls-10" d="M178.46,120.14a5.21,5.21,0,0,0,2.29,2.37l5.45,3.16a13.64,13.64,0,0,0,12.36,0L204,122.5c1.72-1,2.59-2.3,2.58-3.6v2.19c0,1.3-.86,2.61-2.58,3.61l-5.49,3.16a13.62,13.62,0,0,1-12.35,0l-5.45-3.16a5.19,5.19,0,0,1-2.29-2.36,3,3,0,0,1-.25-1.2V119A3.14,3.14,0,0,0,178.46,120.14Z" transform="translate(-9.59 -6.66)"/><path class="cls-16" d="M193.6,87.8c-3,2.29-5.14,10.51-6.4,14.4l2.41,1.94c.09-.17.83-.27.94-.45,2.11-3.63,5.44-8.9,6.57-12.53.46-1.5.13-3.06-.9-3.55A2.82,2.82,0,0,0,193.6,87.8Z" transform="translate(-9.59 -6.66)"/><circle class="cls-17" cx="168.07" cy="102.01" r="2.83"/><path class="cls-16" d="M187.55,101.3c-3.16,1.65-5.79,3.18-9.12,5a26.15,26.15,0,0,0,1.68,2c3.13-1.09,6-1.92,9.15-3.34,1.69-.76,1.86-2,1.49-2.91S189.18,100.44,187.55,101.3Z" transform="translate(-9.59 -6.66)"/><path class="cls-18" d="M201.67,87.28c-1.88,1.11-3.61,1.58-5.44,2.8l0,2.43c2-1.75,3.55-2.17,5.8-3.6Z" transform="translate(-9.59 -6.66)"/><path class="cls-18" d="M196.41,86.6a12.9,12.9,0,0,0-.12,3.53c-.64.39-1.26,1-1.91,1.32a30.65,30.65,0,0,1,.85-4.47Z" transform="translate(-9.59 -6.66)"/><path class="cls-19" d="M192.29,81.88c0,.71.51,1.36.48,2.07-.06,1.31-.63,10.51.52,10.4s1,1.41,2.05,2c.83.44,1.34,1.33,2.16,1.77a3.08,3.08,0,0,0,2.71-.07c.07.08.12.17.19.25a3.36,3.36,0,0,0,3.2,1.18c.9-.24,1.6-1,2.5-1.23,1.12-.3,2.26.23,3.36.59s2.47.51,3.25-.35a2.9,2.9,0,0,0,.37-2.59,8.87,8.87,0,0,1-.5-2.67c.07-1,.67-2,.45-3-.29-1.28-1.9-2.18-1.66-3.47.13-.7.79-1.21.92-1.91.17-.9-.56-1.7-1.3-2.25-2.12-1.56-1.62-2.57-1.83-4.94a9.39,9.39,0,0,0-1.4-4.06c-.94-1.51-5.44-4.15-8.54-1.64A7.76,7.76,0,0,0,197,75.57c-.74,2.27-.47,3.36-2.89,4.41C193.22,80.35,192.32,81,192.29,81.88Z" transform="translate(-9.59 -6.66)"/><polygon class="cls-20" points="168.56 111.66 168.88 118.5 168.54 136.76 166.73 135.72 166.75 110.62 168.56 111.66"/><polygon class="cls-21" points="168.56 111.66 170.33 110.63 170.31 135.73 168.54 136.76 168.56 111.66"/><path class="cls-20" d="M195.2,107.68a4.67,4.67,0,0,0,0-.52l-1.44-.84a4.18,4.18,0,0,1,0,.61s0,.07,0,.1c0,.19-.08.39-.14.58a.14.14,0,0,1,0,.06,5.33,5.33,0,0,1-.23.63h0c-.1.21-.2.42-.32.62v0a5.57,5.57,0,0,1-.37.57l0,0a6.08,6.08,0,0,1-.39.47l-.09.1-.34.31-.15.14a4.1,4.1,0,0,1-.5.35l1.44.83a4.1,4.1,0,0,0,.5-.35l.15-.13.24-.21.1-.11.09-.09.1-.11.22-.26a.61.61,0,0,1,.07-.1l0,0,.07-.09.15-.24.14-.22v0a1.74,1.74,0,0,0,.1-.19l.12-.23a1.24,1.24,0,0,1,.1-.2v0h0l.09-.24a2.6,2.6,0,0,0,.1-.25l0-.13,0,0,0-.1c0-.1.05-.2.07-.3a.57.57,0,0,0,0-.18.44.44,0,0,0,0-.1S195.19,107.71,195.2,107.68Z" transform="translate(-9.59 -6.66)"/><polygon class="cls-20" points="185.64 100.5 184.21 99.66 184.16 84.68 185.6 85.51 185.64 100.5"/><polygon class="cls-22" points="185.6 85.51 184.16 84.68 185.13 84.12 186.57 84.96 185.6 85.51"/><polygon class="cls-22" points="181.54 104.28 167.65 112.3 169.09 113.13 182.98 105.11 181.54 104.28"/><path class="cls-21" d="M196.15,91.62l-1,.55,0,15a5.87,5.87,0,0,1-2.66,4.61l-13.9,8v1.11l13.89-8a8,8,0,0,0,3.63-6.28Z" transform="translate(-9.59 -6.66)"/><path class="cls-18" d="M202.39,89.06c3.35,1.93,5.18,4,4.1,4.65s-4.69-.43-8-2.36-5.21-3.6-4.12-4.24S199,87.13,202.39,89.06Z" transform="translate(-9.59 -6.66)"/><path class="cls-16" d="M202.4,81.54c-.28,1-1.48,3.32-.65,6.09l-6.16,3.16.51-2.58a11.63,11.63,0,0,0,.75-5.62Z" transform="translate(-9.59 -6.66)"/><path class="cls-18" d="M201.79,86.87c.2.56-.12,1.3.12,1.74.59,1.12,1.89,1.68,3,2.5,2.84,2.13.11,7.45-1.75,11a12.91,12.91,0,0,0-1.5,4.86,4.55,4.55,0,0,0,.13,2.4c4.73,12.37-10.12,19.94-12.58,11.16-.7-2.51-.31-6.08,2.06-11.46.82-1.85.31-3.23.33-4.16s-.66-2.24-1.16-4.29a7,7,0,0,1-.9-4.43c.25-1.77,1.51-3.8,2.58-6a11.78,11.78,0,0,1,1.72-3c.49-.49,1.64-.4,2.59-.63a9,9,0,0,0,.07,3.18C197.18,89.31,200.32,87.89,201.79,86.87Z" transform="translate(-9.59 -6.66)"/><path class="cls-18" d="M203.23,115.92c-.18,2.39-.86,5.19-2.77,6.73-3.37,2.7-9.83,1.86-14.81,5.57-4.5-2-9.88-4.93-12.14-6.71.61-1.47,1.11-2.93,2.61-3.82,2.54-1.52,12-7.11,14.43-7.36a8.73,8.73,0,0,0,.58-1l-.07-.06c1.18-2.68,0-5.89-.65-8.49a7.72,7.72,0,0,1-1-4.64,6.6,6.6,0,0,1,.84-2.2c.05-.12-.72-.38-.66-.51.4-.83,1.78-3.48,2.31-4.3.67-1,.76-1.35,1.6-1.86a5.82,5.82,0,0,1,2.15-.73c-.92.88-2.06,4.47-2.18,7,2.87-1.13,6.69-3.22,8-4.63.32-.34.41,0,.63-.23,1.37,1.05,1.61,1.49,2.79,2.37a3,3,0,0,1,.73.79,1.84,1.84,0,0,0-2.3-.4c-2.24.81-2.6,4.3-2.46,7.34.09,2.08.72,3.55,2.46,3.63-.85,2-1.52,3.83-1.32,5,.39,2.39,1.57,4.7,1.27,8.39C203.26,115.89,203.25,115.91,203.23,115.92Z" transform="translate(-9.59 -6.66)"/><circle class="cls-23" cx="190.98" cy="71.07" r="4.88"/><path class="cls-17" d="M192.6,78.71a6,6,0,1,0,7-4.77A6,6,0,0,0,192.6,78.71Z" transform="translate(-9.59 -6.66)"/><path class="cls-19" d="M193.94,77.89a1.2,1.2,0,0,1-.65-1,6,6,0,0,1,11.09,4.09,6.06,6.06,0,0,1-.21.76,2.07,2.07,0,0,1-.79-.17c-.55-.26-1.8-1-1.23-1.63-.28.31-.39.81-.41,2.2C200.21,78.39,196,79.16,193.94,77.89Z" transform="translate(-9.59 -6.66)"/><path class="cls-17" d="M201.82,80.65A1.82,1.82,0,1,0,204,79.2,1.83,1.83,0,0,0,201.82,80.65Z" transform="translate(-9.59 -6.66)"/><path class="cls-24" d="M180.89,142.66a11.55,11.55,0,0,1,.89,3.51c0,1.3-.51,1.65-.51,1.65a28.2,28.2,0,0,1-3.33.82c-.73,0-1.93,1.19-3.67,1.31s-4,.65-4.2-.72c-.15-.83,2-1.62,4.51-3.33a13.63,13.63,0,0,0,2.88-2.75Z" transform="translate(-9.59 -6.66)"/><path class="cls-24" d="M180.2,137l.67,6.23s.1,1.13-1.42,1.2a2,2,0,0,1-2-1.25s-.62-2.55-1.49-6.21Z" transform="translate(-9.59 -6.66)"/><path class="cls-24" d="M185.1,139.2c.38,3.54.77,6.28.77,6.28s0,1.08-1.52,1.16a1.74,1.74,0,0,1-1.79-1.43s-.82-2.37-1.68-6Z" transform="translate(-9.59 -6.66)"/><path class="cls-24" d="M185.85,145.28s-.14,1.23-1.23,1.16a3.56,3.56,0,0,1-2.06-1.23s.41,1-.54,4.2c-.53,1.79-1.57,6.76.35,7.44,1.37.49,3.28-1.11,3.51-2.13.09-.41.49-4.89.43-5.31C186.1,148,185.85,145.28,185.85,145.28Z" transform="translate(-9.59 -6.66)"/><path class="cls-25" d="M201.48,87.54c-1.88,1.11-3.09,1-4.92,2.18l-.57,3c2.08-1.43,4-2.44,6.12-4Z" transform="translate(-9.59 -6.66)"/><path class="cls-25" d="M196.22,86.86c-.12.61.19,1.15.34,2.86-.64.39-1.72,1.63-2.37,2a18.39,18.39,0,0,1,1.31-5.14Z" transform="translate(-9.59 -6.66)"/><path class="cls-18" d="M202,86.86c-1.89,1.12-3.62,1.59-5.45,2.81l-.05,2.43c2-1.75,3.55-2.17,5.8-3.6Z" transform="translate(-9.59 -6.66)"/><path class="cls-18" d="M196.68,86.19a13.27,13.27,0,0,0-.12,3.53c-.64.39-1.25,1-1.91,1.31a30.52,30.52,0,0,1,.85-4.46Z" transform="translate(-9.59 -6.66)"/><circle class="cls-26" cx="187.92" cy="83.58" r="0.68"/><ellipse class="cls-26" cx="195.58" cy="89.48" rx="0.68" ry="0.52" transform="translate(-10.98 169.18) rotate(-48.26)"/><path class="cls-27" d="M192.11,111.17l-1-.29S196,95.72,201.66,90.67c.67-.6,1.83-1.16,2.53-.59a6.81,6.81,0,0,1,.9.76s-1.49,0-4.14,2.79C197.38,97.42,192.11,111.17,192.11,111.17Z" transform="translate(-9.59 -6.66)"/><path class="cls-27" d="M203.11,111.44s-1.22-.34-2.25-.5c-2.65-.41-10.47-.59-10.47-.59l.88-3.23s7,1,9.39,1a6.85,6.85,0,0,0,1.63-.16Z" transform="translate(-9.59 -6.66)"/><path class="cls-16" d="M202.6,93c-1.59,3.4.27,11.7,1,15.72l3,.62c0-.2.62-.63.63-.84.2-4.19.74-10.4.07-14.14-.28-1.55-1.29-2.78-2.44-2.74A2.8,2.8,0,0,0,202.6,93Z" transform="translate(-9.59 -6.66)"/><circle class="cls-17" cx="184.39" cy="108.2" r="2.83"/><path class="cls-16" d="M203.58,107.13c-3.09,1.77-5.66,3.39-8.92,5.34a25.64,25.64,0,0,0,1.75,2c3.09-1.21,5.89-2.14,9-3.68,1.67-.81,1.79-2.07,1.39-3S205.18,106.22,203.58,107.13Z" transform="translate(-9.59 -6.66)"/><path class="cls-18" d="M202.4,92.92c-.77,1.64-.83,5.14-.53,8l6.11-.33a38,38,0,0,0-.57-6.15c-.28-1.6-1.39-3.15-2.57-3.11A3.29,3.29,0,0,0,202.4,92.92Z" transform="translate(-9.59 -6.66)"/><polygon class="cls-10" points="196.46 146.07 196.35 181.23 224.07 165.16 224.17 130 196.46 146.07"/><polygon class="cls-10" points="134.84 145.45 161.79 129.78 161.88 97.86 134.93 113.53 134.84 145.45"/><path class="cls-28" d="M191.55,73.72s0,0,0,0l0,0h0S191.58,73.72,191.55,73.72Z" transform="translate(-9.59 -6.66)"/><polygon class="cls-29" points="196.46 146.07 224.3 129.91 160.13 92.94 132.4 108.89 196.46 146.07"/><polygon class="cls-12" points="193.79 147.6 193.74 179.7 196.35 181.21 196.44 146.05 132.4 108.89 132.3 144.04 134.91 145.55 135 113.64 193.79 147.6"/><path class="cls-30" d="M187.32,130.5l10.32,6a3.58,3.58,0,0,0,3.28,0l19.81-11.44a1,1,0,0,0,0-1.9l-10.32-6Z" transform="translate(-9.59 -6.66)"/><path class="cls-31" d="M221.43,132.69a1.18,1.18,0,0,1-.69,1l-1.28.74-.7.4-12.58,7.26-5.24,3-.17.09-.07,0-.1,0h-.06l-.14.05-.05,0h-.09l-.14,0H200l-.13,0h-.1l-.11,0h-.86l-.16,0h-.14l-.12,0-.09,0-.13,0h0l-.14-.05h0l-.15-.06,0,0-.16-.09-9.12-5.3a2.42,2.42,0,0,1-1.2-2.08v-7.2l10.32,6,.16.08,0,0,.15.07h0l.16,0,.12,0,.1,0,.12,0,.1,0h0l.21,0h.83l.11,0h.1l.13,0,.09,0,.15,0,.09,0,0,0,.14,0h0l.13,0,.06,0,.16-.09,19.81-11.43a1.18,1.18,0,0,0,.69-1Z" transform="translate(-9.59 -6.66)"/><path class="cls-32" d="M187.31,129.25l10.31,6a3.58,3.58,0,0,0,3.28,0l19.8-11.42c.9-.53.91-1.38,0-1.9l-10.32-6Z" transform="translate(-9.59 -6.66)"/><path class="cls-33" d="M197.62,135.24l.16.09,0,0,.15.06h0l.17.05.11,0,.1,0,.12,0,.1,0h0l.16,0h.85l.12,0h.1l.13,0,.09,0,.15,0,.09,0,.05,0,.14,0,0,0,.12,0,.06,0a.91.91,0,0,0,.17-.09l19.8-11.42a1.18,1.18,0,0,0,.68-1v2.55a1.17,1.17,0,0,1-.68,1l-19.8,11.43-.17.09-.06,0-.1.05h0l0,0-.14.05h-.08l-.06,0-.15,0H200l-.13,0H198.8l-.16,0h-.06l-.07,0-.13,0-.09,0-.12,0h0L198,138h0l-.15-.06,0,0-.16-.08-10.31-6v-2.55Z" transform="translate(-9.59 -6.66)"/><path class="cls-34" d="M220.7,123.82l-19.8,11.42a3.58,3.58,0,0,1-3.28,0l-10.31-6,6.61-3.82,11.36-6.55,5.11-3,10.32,6C221.61,122.44,221.6,123.29,220.7,123.82Z" transform="translate(-9.59 -6.66)"/><path class="cls-35" d="M212.47,123.23l-12.26,7.08a2.27,2.27,0,0,1-2,0l-6.33-3.68,14.29-8.25,6.33,3.68A.62.62,0,0,1,212.47,123.23Z" transform="translate(-9.59 -6.66)"/><path class="cls-36" d="M206.32,121.94l-9.22,5.32a1.65,1.65,0,0,1-1.53,0l-1.21-.76,10.75-6.21,1.22.77C206.75,121.3,206.74,121.7,206.32,121.94Z" transform="translate(-9.59 -6.66)"/><path class="cls-35" d="M197.62,135.24l.16.09,0,0,.15.06h0l.17.05.11,0,.1,0,.12,0,.1,0h0l.16,0h.85l.12,0h.1l.13,0,.09,0,.15,0,.09,0,.05,0,.14,0,0,0,.12,0,.06,0a.91.91,0,0,0,.17-.09l19.8-11.42a1.18,1.18,0,0,0,.68-1v2.55a1.17,1.17,0,0,1-.68,1l-19.8,11.43-.17.09-.06,0-.1.05h0l0,0-.14.05h-.08l-.06,0-.15,0H200l-.13,0H198.8l-.16,0h-.06l-.07,0-.13,0-.09,0-.12,0h0L198,138h0l-.15-.06,0,0-.16-.08-10.31-6v-2.55Z" transform="translate(-9.59 -6.66)"/><path class="cls-37" d="M219.46,134.39l-13.28,7.66V138a2.31,2.31,0,0,1,1-1.79l11.21-6.46c.57-.34,1-.07,1,.59Z" transform="translate(-9.59 -6.66)"/><path class="cls-36" d="M219.46,134.39l-.7.4v-4.73a1.36,1.36,0,0,0-.08-.47c.44-.12.78.15.78.71Z" transform="translate(-9.59 -6.66)"/><path class="cls-30" d="M206.72,140.92l5.51,3.21a2,2,0,0,0,1.79,0l9.77-5.63c.49-.29.5-.76,0-1l-5.51-3.22Z" transform="translate(-9.59 -6.66)"/><path class="cls-37" d="M224.16,138a.65.65,0,0,1-.37.53L214,144.13l-.19.1h0l-.18,0h0l-.21,0h-.53l-.15,0-.13,0-.12,0,0,0a.91.91,0,0,1-.17-.09L206.85,141v.77l5.37,3.12a.75.75,0,0,0,.18.08l.05,0,0,0,.06,0,.13,0h.05l.11,0h.57l.13,0h.13l.11,0h0l.19-.09,9.76-5.64a.62.62,0,0,0,.37-.52Z" transform="translate(-9.59 -6.66)"/><polygon class="cls-6" points="215.46 132.61 205.99 138.11 198.26 133.65 207.73 128.15 215.46 132.61"/><polygon class="cls-38" points="204.14 123.24 207.82 121.13 207.82 119.65 204.14 121.76 204.14 123.24"/><path id="_Tracciato_" data-name="&lt;Tracciato&gt;" class="cls-39" d="M212,129.42a1,1,0,0,0-.06.93.29.29,0,0,0,.54,0,1.07,1.07,0,0,0,.06-.94A.28.28,0,0,0,212,129.42Z" transform="translate(-9.59 -6.66)"/><path id="_Tracciato_2" data-name="&lt;Tracciato&gt;" class="cls-40" d="M212.27,129.43a1,1,0,0,0-.06.94c.13.27.37.28.54,0a1.05,1.05,0,0,0,.06-.93C212.68,129.2,212.43,129.18,212.27,129.43Z" transform="translate(-9.59 -6.66)"/><path id="_Tracciato_3" data-name="&lt;Tracciato&gt;" class="cls-41" d="M209.64,130.76a1,1,0,0,0-.06.94.29.29,0,0,0,.54,0,1.07,1.07,0,0,0,.06-.94C210.05,130.53,209.81,130.52,209.64,130.76Z" transform="translate(-9.59 -6.66)"/><path id="_Tracciato_4" data-name="&lt;Tracciato&gt;" class="cls-42" d="M209.87,130.78a1,1,0,0,0-.06.94c.13.27.37.28.54,0a1.05,1.05,0,0,0,.06-.93C210.28,130.55,210,130.53,209.87,130.78Z" transform="translate(-9.59 -6.66)"/><path id="_Tracciato_5" data-name="&lt;Tracciato&gt;" class="cls-43" d="M210.78,131a.29.29,0,0,0,.54,0,1.07,1.07,0,0,0,.06-.94.28.28,0,0,0-.54,0A1,1,0,0,0,210.78,131Z" transform="translate(-9.59 -6.66)"/><ellipse id="_Tracciato_6" data-name="&lt;Tracciato&gt;" class="cls-44" cx="211.31" cy="130.59" rx="0.66" ry="0.38" transform="translate(57.62 326.26) rotate(-86.26)"/><ellipse id="_Tracciato_7" data-name="&lt;Tracciato&gt;" class="cls-7" cx="208.68" cy="131.91" rx="0.66" ry="0.38" transform="translate(53.85 324.87) rotate(-86.26)"/><ellipse id="_Tracciato_8" data-name="&lt;Tracciato&gt;" class="cls-23" cx="208.91" cy="131.92" rx="0.66" ry="0.38" transform="translate(54.05 325.11) rotate(-86.26)"/><polygon class="cls-45" points="197.13 134.26 198.63 135.13 210.19 128.44 208.69 127.58 197.13 134.26"/><polygon class="cls-46" points="205.75 136.28 212.35 132.44 211.96 132.2 205.36 136.04 205.75 136.28"/><polygon class="cls-46" points="204.92 135.8 211.53 131.96 211.13 131.72 204.53 135.56 204.92 135.8"/><polygon class="cls-46" points="204.09 135.33 210.7 131.49 210.31 131.25 203.7 135.09 204.09 135.33"/><polygon class="cls-46" points="203.26 134.83 209.87 130.99 209.48 130.75 202.87 134.59 203.26 134.83"/><path class="cls-47" d="M166.38,110a.64.64,0,0,0,.37.52l.65.37V110l1.31-.76L170,110l-.74.42-.55-.32-.57.34.55.32L170,110v0l.62-.36a2.27,2.27,0,0,1,.22-.53l-.41-.24v-.85l1.31-.76.29.17v-.34l1.31-.75.29.16v-.34l1.31-.76,1.28.74v.21l.18-.1,1.28.74v.21l.18-.11,1.28.74v.21l.18-.1,1.29.74v.2l.18-.1,1.29.74v.2l.18-.1,1.29.74v.21l.17-.1,1.29.73v.21l.18-.1,1.29.74v.21l.17-.11,1.29.74v.21l.18-.11,1.28.75v.2l.18-.1,1.28.74v.2l.18-.1,1.28.74v.21l.18-.1,1.28.74h0v.2l.18-.1,1.28.74v.76l.66-.38,1.28.74v.78l.61-.35a.63.63,0,0,0,.37-.52V119a.61.61,0,0,1-.36.51l-7.46,4.34a2,2,0,0,1-1.79,0l-21.76-12.56a.62.62,0,0,1-.37-.53Z" transform="translate(-9.59 -6.66)"/><path class="cls-48" d="M166.74,109.43l7.46-4.34a2,2,0,0,1,1.8,0l21.76,12.56a.56.56,0,0,1,0,1L190.3,123a2,2,0,0,1-1.79,0l-21.76-12.56A.55.55,0,0,1,166.74,109.43Z" transform="translate(-9.59 -6.66)"/><polygon class="cls-49" points="165.21 100.56 163.9 101.32 165.19 102.06 166.49 101.3 165.21 100.56"/><polygon class="cls-49" points="162.15 100.64 160.84 101.4 162.13 102.14 163.43 101.39 162.15 100.64"/><polygon class="cls-49" points="163.61 101.49 162.3 102.25 163.59 102.99 164.89 102.23 163.61 101.49"/><polygon class="cls-49" points="165.07 102.33 163.77 103.09 165.05 103.83 166.35 103.07 165.07 102.33"/><polygon class="cls-49" points="168.76 102.61 167.45 103.36 171.03 105.43 172.34 104.67 168.76 102.61"/><polygon class="cls-49" points="172.51 104.78 171.21 105.53 172.49 106.28 173.8 105.52 172.51 104.78"/><polygon class="cls-49" points="167.04 103.6 165.53 104.48 164.66 104.99 164.22 105.24 166.38 106.49 167.69 105.73 167.03 105.35 168.54 104.47 167.04 103.6"/><polygon class="cls-49" points="173.97 105.62 172.67 106.38 173.95 107.12 175.26 106.36 173.97 105.62"/><polygon class="cls-49" points="171.9 106.27 170.59 107.03 171.88 107.77 173.18 107.01 171.9 106.27"/><polygon class="cls-49" points="175.44 106.46 174.13 107.22 175.41 107.96 176.72 107.2 175.44 106.46"/><polygon class="cls-49" points="173.34 107.11 172.03 107.86 173.32 108.61 174.63 107.85 173.34 107.11"/><polygon class="cls-49" points="176.9 107.3 175.59 108.06 176.87 108.81 178.18 108.05 176.9 107.3"/><polygon class="cls-49" points="174.79 107.94 173.48 108.7 174.76 109.44 176.07 108.68 174.79 107.94"/><polygon class="cls-49" points="178.35 108.15 177.05 108.91 178.34 109.65 179.64 108.89 178.35 108.15"/><polygon class="cls-49" points="176.23 108.78 174.92 109.53 176.21 110.27 177.51 109.51 176.23 108.78"/><polygon class="cls-49" points="179.82 108.99 178.51 109.75 179.8 110.49 181.1 109.73 179.82 108.99"/><polygon class="cls-49" points="177.67 109.61 176.37 110.37 177.65 111.11 178.96 110.35 177.67 109.61"/><polygon class="cls-49" points="181.28 109.84 179.97 110.59 181.25 111.33 182.56 110.58 181.28 109.84"/><polygon class="cls-49" points="179.12 110.44 177.81 111.2 179.09 111.94 180.4 111.18 179.12 110.44"/><polygon class="cls-49" points="180.56 111.28 179.25 112.03 180.54 112.78 181.84 112.02 180.56 111.28"/><polygon class="cls-49" points="182.8 110.71 181.5 111.47 184.66 113.3 185.97 112.54 182.8 110.71"/><polygon class="cls-49" points="182.01 112.11 180.71 112.87 183.06 114.23 184.37 113.47 182.01 112.11"/><polygon class="cls-49" points="163.75 99.72 162.44 100.47 163.73 101.22 165.03 100.45 163.75 99.72"/><polygon class="cls-49" points="166.67 101.4 165.37 102.16 166.65 102.9 167.96 102.14 166.67 101.4"/><polygon class="cls-49" points="161.99 102.59 161.82 102.7 160.68 103.36 161.97 104.09 163.28 103.34 163.14 103.26 161.99 102.59"/><polygon class="cls-49" points="159.1 102.59 157.79 103.36 159.08 104.09 160.39 103.33 159.1 102.59"/><polygon class="cls-49" points="160.56 103.44 159.25 104.2 160.54 104.94 161.85 104.18 160.56 103.44"/><polygon class="cls-49" points="162.02 104.28 160.72 105.04 162 105.78 163.31 105.02 162.02 104.28"/><polygon class="cls-49" points="163.49 105.13 162.18 105.88 163.46 106.63 164.77 105.86 163.49 105.13"/><polygon class="cls-49" points="164.94 105.97 163.64 106.73 164.92 107.47 166.23 106.71 164.94 105.97"/><polygon class="cls-49" points="166.41 106.81 165.1 107.57 166.38 108.31 167.69 107.55 166.41 106.81"/><polygon class="cls-49" points="169.33 108.5 168.02 109.26 169.3 110 170.61 109.24 169.33 108.5"/><polygon class="cls-49" points="170.79 109.34 169.48 110.1 170.76 110.84 172.07 110.08 170.79 109.34"/><polygon class="cls-49" points="172.25 110.19 170.94 110.94 172.22 111.69 173.53 110.93 172.25 110.19"/><polygon class="cls-49" points="173.71 111.03 172.4 111.79 173.69 112.53 174.99 111.77 173.71 111.03"/><polygon class="cls-49" points="175.17 111.87 173.86 112.63 175.15 113.37 176.45 112.61 175.17 111.87"/><polygon class="cls-49" points="176.63 112.71 175.32 113.47 176.6 114.22 177.91 113.45 176.63 112.71"/><polygon class="cls-49" points="178.09 113.56 176.78 114.32 178.07 115.06 179.38 114.3 178.09 113.56"/><polygon class="cls-49" points="180.04 114.68 178.72 115.44 180.01 116.18 181.32 115.42 180.04 114.68"/><polygon class="cls-49" points="167.87 107.65 166.56 108.41 167.84 109.16 169.15 108.39 167.87 107.65"/><polygon class="cls-49" points="169.01 104.61 167.71 105.36 168.99 106.11 170.29 105.35 169.01 104.61"/><polygon class="cls-49" points="170.46 105.44 169.15 106.2 170.43 106.94 171.74 106.18 170.46 105.44"/><polygon class="cls-49" points="173.48 103.43 172.17 104.19 174.72 105.66 176.03 104.9 173.48 103.43"/><polygon class="cls-49" points="176.19 104.99 174.88 105.75 181.16 109.38 182.46 108.62 176.19 104.99"/><polygon class="cls-49" points="182.66 108.73 181.36 109.49 183.52 110.74 184.83 109.98 182.66 108.73"/><polygon class="cls-49" points="185.09 110.14 183.79 110.89 186.34 112.36 187.64 111.61 185.09 110.14"/><polygon class="cls-49" points="165.61 98.87 164.31 99.63 165.59 100.37 166.9 99.61 165.61 98.87"/><polygon class="cls-49" points="167.07 99.71 166.89 99.81 165.76 100.47 167.05 101.21 168.35 100.45 168.22 100.37 167.07 99.71"/><polygon class="cls-49" points="168.48 100.52 167.17 101.28 168.46 102.03 169.76 101.27 168.48 100.52"/><polygon class="cls-49" points="170.57 101.75 169.26 102.51 171.91 104.04 173.21 103.28 170.57 101.75"/><polygon class="cls-49" points="178.15 111.73 176.84 112.49 178.12 113.23 179.43 112.47 178.15 111.73 178.15 111.73"/><polygon class="cls-49" points="178 111.65 176.72 110.91 175.41 111.67 176.69 112.41 178 111.65 178 111.65"/><polygon class="cls-49" points="176.56 110.82 175.27 110.07 173.97 110.83 175.25 111.58 176.56 110.82 176.56 110.82"/><polygon class="cls-49" points="175.13 109.99 173.84 109.25 172.54 110.01 173.82 110.75 175.13 109.99 175.13 109.99"/><polygon class="cls-49" points="173.64 109.13 172.36 108.39 171.05 109.15 172.33 109.89 173.64 109.13 173.64 109.13"/><polygon class="cls-49" points="172.21 108.3 170.93 107.56 169.62 108.33 170.9 109.06 172.21 108.3 172.21 108.3"/><polygon class="cls-49" points="170.76 107.47 169.48 106.73 168.17 107.49 169.46 108.23 170.76 107.47 170.76 107.47"/><polygon class="cls-49" points="169.34 106.65 168.05 105.91 166.75 106.66 168.03 107.41 169.34 106.65 169.34 106.65"/><polygon class="cls-49" points="182.77 114.4 179.6 112.57 178.3 113.33 181.46 115.16 182.77 114.4 182.77 114.4"/><g class="cls-9"><path class="cls-48" d="M168,116.18l-4.26,2.48a.46.46,0,0,1,.46,0l4.27-2.48A.48.48,0,0,0,168,116.18Z" transform="translate(-9.59 -6.66)"/><polygon class="cls-50" points="168.79 120.23 173.06 117.75 158.88 109.56 154.62 112.04 168.79 120.23"/><path class="cls-47" d="M178.38,126.89l4.27-2.48a1.45,1.45,0,0,1,.65,1.13v.38a.47.47,0,0,1-.19.42l-4.27,2.48a.45.45,0,0,0,.19-.42V128A1.46,1.46,0,0,0,178.38,126.89Z" transform="translate(-9.59 -6.66)"/><path class="cls-47" d="M164.2,118.7c-.36-.21-.65,0-.65.38v.38a1.43,1.43,0,0,0,.65,1.13l14.18,8.19c.36.2.65,0,.65-.38V128a1.46,1.46,0,0,0-.66-1.13Z" transform="translate(-9.59 -6.66)"/></g><path class="cls-47" d="M186.57,123.59v-.7l-.24.15-27.64-16,.77-.45,0-16.55a.91.91,0,0,1,0-.17h0l0-.1v0h0s0,0,0,0a.44.44,0,0,1,.18-.22l1-.57-.44-.26a1.51,1.51,0,0,0-.29-.13,2.66,2.66,0,0,0,0,.3l-1.22.71a1,1,0,0,1,.45-1l.87-.51-.3-.17a.88.88,0,0,0-.9-.08l.49-.29.06,0,.49-.28.18-.11a.89.89,0,0,1,.9.09l25.6,14.78a2.77,2.77,0,0,1,1.26,2.18l0,16.09v2.54a.87.87,0,0,1-.37.81l-1.22.71A.87.87,0,0,0,186.57,123.59Z" transform="translate(-9.59 -6.66)"/><path class="cls-47" d="M159.53,89.89s0,0,0,0h0Z" transform="translate(-9.59 -6.66)"/><path class="cls-47" d="M159.51,90v0h0Z" transform="translate(-9.59 -6.66)"/><path class="cls-51" d="M160.27,89.66c-.42-.25-.76,0-.76.43l0,16.56,26.1,15.07.05-16.56a1.71,1.71,0,0,0-.76-1.32Z" transform="translate(-9.59 -6.66)"/><g class="cls-9"><polygon class="cls-52" points="169.16 119.14 170.38 118.43 170.39 113.17 169.17 113.87 169.16 119.14"/><polygon class="cls-53" points="169.17 113.87 170.39 113.17 157.87 105.94 156.66 106.64 169.17 113.87"/><polygon class="cls-53" points="156.66 106.64 156.64 111.91 169.16 119.14 169.17 113.87 156.66 106.64"/></g><path class="cls-51" d="M158.69,107.09l27.64,16,0-17.44a3.35,3.35,0,0,0-1.52-2.63l-24.58-14.2c-.84-.48-1.53-.09-1.53.88Zm26.87,14.63-26.1-15.07,0-16.56c0-.48.34-.68.76-.43l24.58,14.18a1.71,1.71,0,0,1,.76,1.32l-.05,16.56Z" transform="translate(-9.59 -6.66)"/><path class="cls-51" d="M158.44,107.35a2.82,2.82,0,0,0,1.26,2.18l6.54,3.77,12.52,7.23,6.54,3.78c.7.4,1.27.08,1.27-.72v-2.54l0-16.09a2.77,2.77,0,0,0-1.26-2.18L159.76,88c-.69-.4-1.26-.07-1.26.73l-.05,16.09v2.54Zm.25-.26h0l0-8.72,0-8.72a1.49,1.49,0,0,1,.15-.68.1.1,0,0,1,0,0,.86.86,0,0,1,.07-.1,1,1,0,0,1,1.27,0L184.85,103a2.69,2.69,0,0,1,.73.63l.12.16.12.17a3.13,3.13,0,0,1,.55,1.67l0,17.44-27.64-16Z" transform="translate(-9.59 -6.66)"/></g></svg>