<svg xmlns="http://www.w3.org/2000/svg" viewBox="0 0 393.76 221.02"><defs><style>.cls-1{fill:#d29e08;}.cls-2{fill:#fdd875;}.cls-3,.cls-8{fill:#fdc20b;}.cls-17,.cls-4,.cls-5,.cls-6,.cls-7{fill:none;}.cls-4,.cls-5,.cls-6,.cls-7{stroke:#fdc20b;stroke-linecap:round;stroke-linejoin:round;stroke-width:5px;}.cls-5{stroke-dasharray:13.43 13.43;}.cls-6{stroke-dasharray:12.49 12.49;}.cls-7{stroke-dasharray:13.59 13.59;}.cls-8{stroke:#eaeaea;stroke-width:4px;}.cls-17,.cls-8{stroke-miterlimit:10;}.cls-9{fill:#fff;}.cls-10,.cls-28{fill:#5b5b5a;}.cls-11{fill:#9ea6b0;}.cls-12{fill:#a7b0ba;}.cls-13{fill:#1e1e1c;opacity:0.1;}.cls-14,.cls-53{fill:#3c3c3b;}.cls-15{fill:#b5b9c3;}.cls-16{fill:#ccced3;}.cls-17{stroke:#d8d8d8;}.cls-18{fill:#95c11f;}.cls-19{isolation:isolate;}.cls-20{fill:#2a3134;}.cls-21{fill:#313537;}.cls-22{fill:#455358;}.cls-23{fill:#368784;}.cls-24{fill:#ee9f05;}.cls-25{fill:#234f5e;}.cls-26,.cls-27{fill:#f6bbc6;}.cls-26,.cls-28,.cls-30,.cls-31,.cls-32,.cls-35{fill-rule:evenodd;}.cls-29{fill:#4d4a81;}.cls-30{fill:#8a8b8c;}.cls-31{fill:#afafb1;}.cls-32{fill:#48abb4;}.cls-33{fill:#f9b233;}.cls-34{fill:#303b45;}.cls-35{fill:#353430;}.cls-36{fill:#eaeaea;}.cls-37{fill:#ebebeb;}.cls-38{fill:#e51449;}.cls-39{fill:#323c3f;}.cls-40{fill:#4e4d4c;}.cls-41{fill:#d8d8d8;}.cls-42{fill:#29303a;}.cls-43{fill:#435871;}.cls-44{fill:#d9d9d9;}.cls-45{fill:#e5effb;}.cls-46{fill:#2d2e83;}.cls-47{fill:#1d71b8;}.cls-48{fill:#063;}.cls-49{fill:#3aaa35;}.cls-50{fill:#7b1716;}.cls-51{fill:#e30613;}.cls-52{fill:#e94e1b;}.cls-53{opacity:0.4;}.cls-54{fill:#1d1d1b;}.cls-55{fill:#adbfcf;}.cls-56{fill:#f9fafd;}.cls-57{fill:#114369;}.cls-58{fill:#edf1f4;}.cls-59{fill:#efedee;}.cls-60{fill:#0f2d43;}.cls-61{fill:#134269;}</style></defs><title>G14_09_01</title><g id="Livello_1" data-name="Livello 1"><polygon class="cls-1" points="281.65 163.5 281.65 168.25 192.18 221.02 192.18 216.28 281.65 163.5"/><polygon class="cls-2" points="192.18 216.28 192.18 221.02 96.09 165.29 96.09 160.54 192.18 216.28"/><polygon class="cls-3" points="191.96 216.29 95.86 160.56 95.86 160.29 186.17 108.39 281.65 163.52 192.11 216.38 191.96 216.29"/><ellipse class="cls-1" cx="186.09" cy="160.8" rx="65.41" ry="34.02"/><line class="cls-4" x1="277.38" y1="51.92" x2="271.38" y2="51.92"/><line class="cls-5" x1="257.95" y1="51.92" x2="184.09" y2="51.92"/><polyline class="cls-4" points="177.38 51.92 171.38 51.92 171.38 57.92"/><line class="cls-6" x1="171.38" y1="70.41" x2="171.38" y2="89.14"/><line class="cls-4" x1="171.38" y1="95.38" x2="171.38" y2="101.38"/><line class="cls-4" x1="171.38" y1="51.92" x2="165.38" y2="51.92"/><line class="cls-7" x1="151.79" y1="51.92" x2="131.4" y2="51.92"/><line class="cls-4" x1="124.61" y1="51.92" x2="118.61" y2="51.92"/><path class="cls-1" d="M123.34,62.3V51.88a2.11,2.11,0,0,0-3.17-1.83l-9,5.21a2.1,2.1,0,0,0,0,3.65l9,5.21A2.11,2.11,0,0,0,123.34,62.3Z" transform="translate(-2.66 -5.16)"/><circle class="cls-8" cx="51.61" cy="51.61" r="49.61"/><path class="cls-9" d="M79.67,57.28A15.72,15.72,0,0,0,64.11,43.77a15.42,15.42,0,0,0-4.68.71,9,9,0,0,0-17.57,2.79,14.13,14.13,0,0,0-10.44,9.17,7.32,7.32,0,0,0-.81,0,9.42,9.42,0,1,0,0,18.83H78.29a9,9,0,0,0,1.38-18Z" transform="translate(-2.66 -5.16)"/><circle class="cls-8" cx="342.16" cy="51.61" r="49.61"/><path class="cls-10" d="M377.46,38.42V36H348.8v2.42h0v1.93a.48.48,0,0,0,.48.49H377a.49.49,0,0,0,.48-.49V38.42Z" transform="translate(-2.66 -5.16)"/><rect class="cls-11" x="347.09" y="35.67" width="26.75" height="36.22"/><rect class="cls-12" x="347.09" y="35.67" width="3.04" height="36.22"/><rect class="cls-10" x="352.79" y="75.69" width="20.68" height="6.52" transform="translate(723.6 152.72) rotate(-180)"/><rect class="cls-13" x="352.79" y="71.5" width="20.68" height="6.52" transform="translate(723.6 144.35) rotate(-180)"/><rect class="cls-12" x="370.81" y="35.67" width="3.04" height="36.22"/><path class="cls-14" d="M349.75,82.3H376.5V80.85a.39.39,0,0,0-.39-.4h-26a.4.4,0,0,0-.39.4Z" transform="translate(-2.66 -5.16)"/><rect class="cls-15" x="368.84" y="78.72" width="3.92" height="0.96" rx="0.41" ry="0.41" transform="translate(738.94 153.23) rotate(180)"/><rect class="cls-15" x="353.66" y="78.72" width="3.92" height="0.96" rx="0.41" ry="0.41" transform="translate(708.58 153.23) rotate(-180)"/><rect class="cls-15" x="354.62" y="71.16" width="16.53" height="2.13" transform="translate(723.11 139.28) rotate(-180)"/><rect class="cls-16" x="351.96" y="65.99" width="16.53" height="0.69"/><rect class="cls-14" x="346.14" y="30.84" width="28.66" height="1.2"/><path class="cls-13" d="M373.47,40.83,359.4,75.71l-6.61,0V40.84Z" transform="translate(-2.66 -5.16)"/><line class="cls-17" x1="350.13" y1="38.14" x2="370.81" y2="38.14"/><line class="cls-17" x1="350.13" y1="41.09" x2="370.81" y2="41.09"/><line class="cls-17" x1="350.13" y1="44.04" x2="370.81" y2="44.04"/><line class="cls-17" x1="350.13" y1="47" x2="370.81" y2="47"/><line class="cls-17" x1="350.13" y1="49.95" x2="370.81" y2="49.95"/><line class="cls-17" x1="350.13" y1="52.9" x2="370.81" y2="52.9"/><line class="cls-17" x1="350.13" y1="55.86" x2="370.81" y2="55.86"/><line class="cls-17" x1="350.13" y1="58.81" x2="370.81" y2="58.81"/><line class="cls-17" x1="350.13" y1="61.76" x2="370.81" y2="61.76"/><rect class="cls-18" x="370.56" y="33.11" width="2.61" height="0.83"/><rect class="cls-18" x="367.61" y="33.11" width="2.61" height="0.83"/><rect class="cls-18" x="364.65" y="33.11" width="2.61" height="0.83"/><rect class="cls-18" x="361.7" y="33.11" width="2.61" height="0.83"/><path class="cls-10" d="M335.89,42.86V41H313.37v1.9h0v1.52a.38.38,0,0,0,.38.38h21.76a.38.38,0,0,0,.38-.38V42.86Z" transform="translate(-2.66 -5.16)"/><rect class="cls-11" x="311.46" y="39.6" width="21.02" height="28.46"/><rect class="cls-12" x="311.46" y="39.59" width="2.39" height="28.46"/><rect class="cls-10" x="316.5" y="72.14" width="16.25" height="5.12" transform="translate(646.6 144.24) rotate(-180)"/><rect class="cls-13" x="316.5" y="68.85" width="16.25" height="5.12" transform="translate(646.6 137.66) rotate(-180)"/><rect class="cls-12" x="330.09" y="39.6" width="2.39" height="28.46"/><path class="cls-14" d="M314.12,77.34h21V76.2a.31.31,0,0,0-.31-.31H314.42a.3.3,0,0,0-.3.31Z" transform="translate(-2.66 -5.16)"/><rect class="cls-15" x="329.11" y="74.52" width="3.08" height="0.76" rx="0.32" ry="0.32" transform="translate(658.65 144.64) rotate(-180)"/><rect class="cls-15" x="317.19" y="74.52" width="3.08" height="0.76" rx="0.32" ry="0.32" transform="translate(634.8 144.64) rotate(-180)"/><rect class="cls-15" x="317.94" y="68.58" width="12.99" height="1.67" transform="translate(646.22 133.68) rotate(-180)"/><rect class="cls-16" x="315.28" y="63.42" width="12.99" height="0.54"/><circle class="cls-16" cx="330.47" cy="38.12" r="0.66"/><rect class="cls-14" x="310.71" y="35.8" width="22.52" height="0.94"/><path class="cls-13" d="M332.75,44.76,321.7,72.16l-5.2,0V44.76Z" transform="translate(-2.66 -5.16)"/><line class="cls-17" x1="313.84" y1="41.53" x2="330.09" y2="41.53"/><line class="cls-17" x1="313.84" y1="43.85" x2="330.09" y2="43.85"/><line class="cls-17" x1="313.84" y1="46.17" x2="330.09" y2="46.17"/><line class="cls-17" x1="313.84" y1="48.49" x2="330.09" y2="48.49"/><line class="cls-17" x1="313.84" y1="50.81" x2="330.09" y2="50.81"/><line class="cls-17" x1="313.84" y1="53.13" x2="330.09" y2="53.13"/><line class="cls-17" x1="313.84" y1="55.45" x2="330.09" y2="55.45"/><line class="cls-17" x1="313.84" y1="57.77" x2="330.09" y2="57.77"/><line class="cls-17" x1="313.84" y1="60.1" x2="330.09" y2="60.1"/><path class="cls-10" d="M361.86,34V31h-34.8V34h0v2.35a.58.58,0,0,0,.58.58h33.64a.58.58,0,0,0,.58-.58V34Z" transform="translate(-2.66 -5.16)"/><rect class="cls-11" x="325.56" y="31.75" width="32.49" height="43.98"/><rect class="cls-12" x="325.56" y="31.74" width="3.69" height="43.99"/><rect class="cls-10" x="331.9" y="79.23" width="25.12" height="7.91" transform="translate(686.26 161.21) rotate(-180)"/><rect class="cls-13" x="331.9" y="74.15" width="25.12" height="7.91" transform="translate(686.26 151.04) rotate(-180)"/><rect class="cls-12" x="354.36" y="31.75" width="3.69" height="43.98"/><path class="cls-14" d="M328.22,87.26H360.7V85.49a.47.47,0,0,0-.47-.47H328.69a.47.47,0,0,0-.47.47Z" transform="translate(-2.66 -5.16)"/><rect class="cls-15" x="351.4" y="82.91" width="4.76" height="1.17" rx="0.48" ry="0.48" transform="translate(704.9 161.83) rotate(180)"/><rect class="cls-15" x="332.96" y="82.91" width="4.76" height="1.17" rx="0.48" ry="0.48" transform="translate(668.03 161.83) rotate(-180)"/><rect class="cls-15" x="334.13" y="73.73" width="20.08" height="2.58" transform="translate(685.68 144.88) rotate(-180)"/><rect class="cls-16" x="331.47" y="68.57" width="20.08" height="0.83"/><polygon class="cls-14" points="324.4 27.33 359.2 27.33 359.2 25.88 324.41 25.88 324.4 27.33"/><path class="cls-13" d="M357,36.91,339.94,79.26l-8,0V36.91Z" transform="translate(-2.66 -5.16)"/><line class="cls-17" x1="329.24" y1="34.74" x2="354.36" y2="34.74"/><line class="cls-17" x1="329.24" y1="38.33" x2="354.36" y2="38.33"/><line class="cls-17" x1="329.24" y1="41.91" x2="354.36" y2="41.91"/><line class="cls-17" x1="329.24" y1="45.5" x2="354.36" y2="45.5"/><line class="cls-17" x1="329.24" y1="49.08" x2="354.36" y2="49.08"/><line class="cls-17" x1="329.24" y1="52.67" x2="354.36" y2="52.67"/><line class="cls-17" x1="329.24" y1="56.26" x2="354.36" y2="56.26"/><line class="cls-17" x1="329.24" y1="59.84" x2="354.36" y2="59.84"/><line class="cls-17" x1="329.24" y1="63.43" x2="354.36" y2="63.43"/><rect class="cls-18" x="354.06" y="28.64" width="3.18" height="1.01"/><rect class="cls-18" x="350.47" y="28.64" width="3.18" height="1.01"/><rect class="cls-18" x="346.88" y="28.64" width="3.18" height="1.01"/><rect class="cls-18" x="343.3" y="28.64" width="3.18" height="1.01"/><path class="cls-1" d="M277.1,51.88V62.3a2.11,2.11,0,0,0,3.17,1.82l9-5.21a2.1,2.1,0,0,0,0-3.65l-9-5.21A2.11,2.11,0,0,0,277.1,51.88Z" transform="translate(-2.66 -5.16)"/></g><g id="Livello_3" data-name="Livello 3"><g class="cls-19"><polygon class="cls-20" points="208.59 120.76 210.83 119.46 210.89 96.98 208.65 98.28 208.59 120.76"/><polygon class="cls-21" points="208.65 98.28 210.89 96.98 208.46 95.58 206.22 96.88 208.65 98.28"/><polygon class="cls-22" points="206.22 96.88 206.16 119.36 208.59 120.76 208.65 98.28 206.22 96.88"/></g><g class="cls-19"><path class="cls-23" d="M204.56,87.4l1.65-1-.13.07-1.65,1,.13-.07Z" transform="translate(-2.66 -5.16)"/><path class="cls-24" d="M206.21,86.45a4.57,4.57,0,0,1,3.09-.31,9,9,0,0,1,2.54,1,15.28,15.28,0,0,1,4,3.55,17.62,17.62,0,0,1,2.43,3.89,11,11,0,0,1,1,3.53l.95,12c.14,1.79-.42,3-1.44,3.63l-1.65,1c1-.59,1.58-1.84,1.44-3.62l-1-12a10.88,10.88,0,0,0-1-3.53,17.45,17.45,0,0,0-2.43-3.9,15.42,15.42,0,0,0-4-3.54,8.72,8.72,0,0,0-2.54-1,4.57,4.57,0,0,0-3.09.3Z" transform="translate(-2.66 -5.16)"/><path class="cls-3" d="M210.19,88.11C206.4,85.92,203,87,202.7,90.46l-1,10.83c-.33,3.48,2.55,8.14,6.4,10.36l4,2.34c3.84,2.22,6.74.88,6.44-2.95l-1-12C217.33,95.23,214,90.3,210.19,88.11Z" transform="translate(-2.66 -5.16)"/></g><g class="cls-19"><path class="cls-25" d="M189.29,121.73c-3.42,2-3.44,5.18,0,7.16l5.45,3.17a13.64,13.64,0,0,0,12.35,0l5.49-3.17c3.42-2,3.44-5.18,0-7.16l-5.45-3.16a13.6,13.6,0,0,0-12.36,0Z" transform="translate(-2.66 -5.16)"/></g><g class="cls-19"><path class="cls-24" d="M187,124.73a5.24,5.24,0,0,0,2.29,2.36l5.45,3.16a13.62,13.62,0,0,0,12.35,0l5.49-3.16c1.72-1,2.58-2.3,2.58-3.61v2.19c0,1.31-.86,2.61-2.59,3.61l-5.48,3.16a13.59,13.59,0,0,1-12.36,0l-5.45-3.17a5.21,5.21,0,0,1-2.28-2.36,3,3,0,0,1-.25-1.19v-2.2A3,3,0,0,0,187,124.73Z" transform="translate(-2.66 -5.16)"/><path class="cls-3" d="M189.29,119.93c-3.42,2-3.44,5.18,0,7.16l5.45,3.16a13.58,13.58,0,0,0,12.35,0l5.49-3.16c3.42-2,3.44-5.18,0-7.16l-5.45-3.17a13.66,13.66,0,0,0-12.36,0Z" transform="translate(-2.66 -5.16)"/></g><path class="cls-20" d="M187,126.53a5.14,5.14,0,0,0,2.29,2.36l5.45,3.17a13.62,13.62,0,0,0,12.35,0l5.49-3.17c1.72-1,2.58-2.3,2.58-3.61v2.2c0,1.3-.86,2.61-2.59,3.6l-5.48,3.17a13.64,13.64,0,0,1-12.36,0l-5.45-3.17a5.12,5.12,0,0,1-2.28-2.36,3,3,0,0,1-.25-1.19v-2.19A3,3,0,0,0,187,126.53Z" transform="translate(-2.66 -5.16)"/><path class="cls-26" d="M202.1,94.19c-3,2.28-5.15,10.51-6.4,14.39l2.4,2c.1-.18.84-.28.94-.46,2.11-3.63,5.45-8.89,6.57-12.52.47-1.5.14-3.06-.89-3.56A2.79,2.79,0,0,0,202.1,94.19Z" transform="translate(-2.66 -5.16)"/><circle class="cls-27" cx="183.5" cy="109.89" r="2.83"/><path class="cls-26" d="M196,107.68c-3.15,1.66-5.78,3.18-9.11,5a24.13,24.13,0,0,0,1.68,2c3.12-1.1,6-1.92,9.14-3.34,1.7-.76,1.87-2,1.5-2.91S197.67,106.83,196,107.68Z" transform="translate(-2.66 -5.16)"/><path class="cls-28" d="M210.17,93.66c-1.88,1.12-3.62,1.59-5.45,2.81l-.05,2.43c2-1.75,3.56-2.17,5.8-3.61Z" transform="translate(-2.66 -5.16)"/><path class="cls-28" d="M204.91,93a13.14,13.14,0,0,0-.13,3.53c-.63.39-1.25,1-1.91,1.31a31.9,31.9,0,0,1,.85-4.46Z" transform="translate(-2.66 -5.16)"/><path class="cls-29" d="M200.79,88.26c0,.72.5,1.36.47,2.07,0,1.32-.62,10.52.53,10.41s1,1.41,2.05,2c.82.44,1.33,1.32,2.16,1.76a3.11,3.11,0,0,0,2.71-.06,2.15,2.15,0,0,0,.18.24,3.38,3.38,0,0,0,3.2,1.19c.91-.24,1.6-1,2.51-1.24,1.11-.3,2.26.23,3.35.6s2.48.5,3.25-.36a2.86,2.86,0,0,0,.37-2.59,9.13,9.13,0,0,1-.5-2.66c.08-1,.68-2,.45-3-.29-1.29-1.9-2.18-1.66-3.48.13-.7.79-1.21.93-1.91.17-.9-.57-1.7-1.3-2.24-2.12-1.56-1.62-2.57-1.83-4.94a9.75,9.75,0,0,0-1.4-4.07c-.95-1.51-5.44-4.14-8.55-1.64A8,8,0,0,0,205.44,82c-.73,2.27-.47,3.36-2.88,4.41C201.72,86.73,200.82,87.35,200.79,88.26Z" transform="translate(-2.66 -5.16)"/><polygon class="cls-30" points="183.98 119.55 184.3 126.39 183.96 144.65 182.15 143.6 182.17 118.5 183.98 119.55"/><polygon class="cls-31" points="183.98 119.55 185.75 118.52 185.73 143.62 183.96 144.65 183.98 119.55"/><path class="cls-30" d="M203.69,114.06a3,3,0,0,0,0-.52l-1.44-.83a4.3,4.3,0,0,1,0,.61s0,.06,0,.09c0,.2-.08.39-.13.59,0,0,0,0,0,0-.07.21-.14.42-.23.63v0c-.09.21-.2.42-.31.62v0c-.12.19-.24.38-.38.57l0,0-.39.47-.09.09c-.11.12-.23.22-.34.32l-.16.13a3.45,3.45,0,0,1-.5.35l1.44.84a3.45,3.45,0,0,0,.5-.35,1.07,1.07,0,0,0,.16-.14l.23-.2.11-.11.09-.1.1-.1.21-.27.08-.1,0-.05.07-.09.16-.23.13-.23,0,0h0c0-.07.07-.13.1-.19l.12-.23.09-.21h0a2.44,2.44,0,0,0,.1-.24l.09-.26a.56.56,0,0,0,0-.12l0-.06a.29.29,0,0,0,0-.09,2.81,2.81,0,0,0,.08-.31l0-.18s0-.06,0-.1S203.69,114.09,203.69,114.06Z" transform="translate(-2.66 -5.16)"/><polygon class="cls-30" points="201.07 108.38 199.63 107.54 199.59 92.56 201.03 93.4 201.07 108.38"/><polygon class="cls-32" points="201.03 93.4 199.59 92.56 200.55 92 201.99 92.84 201.03 93.4"/><polygon class="cls-32" points="196.97 112.16 183.07 120.18 184.51 121.02 198.41 113 196.97 112.16"/><path class="cls-31" d="M204.65,98l-1,.56,0,15a5.88,5.88,0,0,1-2.67,4.62l-13.89,8v1.11l13.9-8a8,8,0,0,0,3.62-6.28Z" transform="translate(-2.66 -5.16)"/><path class="cls-28" d="M210.89,95.45c3.35,1.93,5.18,4,4.09,4.64s-4.68-.42-8-2.36-5.21-3.6-4.13-4.23S207.54,93.51,210.89,95.45Z" transform="translate(-2.66 -5.16)"/><path class="cls-26" d="M210.89,87.92c-.27,1-1.47,3.32-.64,6.09l-6.16,3.16.51-2.57a11.78,11.78,0,0,0,.75-5.62Z" transform="translate(-2.66 -5.16)"/><path class="cls-28" d="M210.29,93.25c.19.56-.13,1.3.11,1.75.6,1.11,1.89,1.68,3,2.5,2.84,2.12.12,7.45-1.75,11a12.91,12.91,0,0,0-1.5,4.86,4.77,4.77,0,0,0,.13,2.4c4.73,12.38-10.11,20-12.57,11.16-.7-2.5-.32-6.07,2.06-11.46.81-1.85.31-3.22.33-4.15s-.66-2.24-1.17-4.3a7,7,0,0,1-.9-4.43c.25-1.76,1.52-3.8,2.58-6a11.87,11.87,0,0,1,1.73-3c.48-.49,1.64-.4,2.58-.64a9.26,9.26,0,0,0,.08,3.18C205.68,95.69,208.82,94.28,210.29,93.25Z" transform="translate(-2.66 -5.16)"/><path class="cls-28" d="M211.73,122.31c-.18,2.39-.86,5.19-2.77,6.72-3.37,2.71-9.83,1.87-14.81,5.58-4.5-2.05-9.88-4.94-12.14-6.71.6-1.48,1.11-2.94,2.6-3.83,2.55-1.51,12-7.1,14.43-7.36a6.43,6.43,0,0,0,.58-1l-.06-.06c1.18-2.68,0-5.9-.66-8.49a7.7,7.7,0,0,1-1-4.64,6.56,6.56,0,0,1,.83-2.2c.06-.13-.71-.38-.65-.51.39-.84,1.77-3.48,2.31-4.31.67-1,.75-1.34,1.59-1.86a5.87,5.87,0,0,1,2.15-.72c-.92.87-2.05,4.47-2.17,7,2.87-1.13,6.69-3.22,8-4.62.32-.34.4,0,.62-.23,1.38,1.05,1.61,1.49,2.79,2.37a2.72,2.72,0,0,1,.73.79,1.84,1.84,0,0,0-2.3-.41c-2.24.81-2.59,4.31-2.45,7.34.09,2.09.72,3.55,2.45,3.64-.84,2-1.51,3.83-1.32,5,.4,2.39,1.58,4.69,1.28,8.39Z" transform="translate(-2.66 -5.16)"/><circle class="cls-33" cx="206.41" cy="78.95" r="4.88"/><path class="cls-27" d="M201.1,85.09a6,6,0,1,0,7-4.77A6,6,0,0,0,201.1,85.09Z" transform="translate(-2.66 -5.16)"/><path class="cls-29" d="M202.44,84.28a1.21,1.21,0,0,1-.65-1,6,6,0,0,1,11.08,4.1,6.53,6.53,0,0,1-.2.76,1.91,1.91,0,0,1-.79-.18c-.56-.25-1.8-1-1.23-1.62-.28.31-.39.81-.42,2.19C208.71,84.78,204.51,85.55,202.44,84.28Z" transform="translate(-2.66 -5.16)"/><path class="cls-27" d="M210.32,87a1.82,1.82,0,1,0,2.13-1.45A1.82,1.82,0,0,0,210.32,87Z" transform="translate(-2.66 -5.16)"/><path class="cls-34" d="M189.39,149.05a11.64,11.64,0,0,1,.88,3.51c0,1.29-.5,1.65-.5,1.65a29.12,29.12,0,0,1-3.33.81c-.73,0-1.94,1.2-3.67,1.32s-4,.64-4.2-.73c-.15-.83,2-1.62,4.51-3.32a13.64,13.64,0,0,0,2.87-2.76Z" transform="translate(-2.66 -5.16)"/><path class="cls-34" d="M188.69,143.35c.38,3.54.68,6.24.68,6.24s.1,1.12-1.42,1.2a2,2,0,0,1-2-1.26s-.62-2.55-1.48-6.2Z" transform="translate(-2.66 -5.16)"/><path class="cls-34" d="M193.6,145.59c.38,3.54.76,6.27.76,6.27s0,1.09-1.51,1.16a1.73,1.73,0,0,1-1.79-1.43s-.82-2.37-1.69-6Z" transform="translate(-2.66 -5.16)"/><path class="cls-34" d="M194.35,151.66s-.14,1.23-1.24,1.17a3.56,3.56,0,0,1-2.05-1.24s.41,1-.54,4.21c-.53,1.78-1.57,6.75.34,7.44,1.38.49,3.28-1.11,3.51-2.13.1-.42.5-4.89.43-5.31C194.59,154.36,194.35,151.66,194.35,151.66Z" transform="translate(-2.66 -5.16)"/><path class="cls-35" d="M210,93.92c-1.89,1.12-3.1,1-4.93,2.18l-.57,3.06c2.09-1.44,4-2.44,6.12-4Z" transform="translate(-2.66 -5.16)"/><path class="cls-35" d="M204.72,93.25c-.12.6.19,1.15.33,2.85-.63.4-1.71,1.64-2.37,2A19,19,0,0,1,204,93Z" transform="translate(-2.66 -5.16)"/><path class="cls-28" d="M210.44,93.25c-1.88,1.11-3.61,1.59-5.44,2.81l-.06,2.42c2-1.75,3.56-2.17,5.81-3.6Z" transform="translate(-2.66 -5.16)"/><path class="cls-28" d="M205.18,92.57a13.2,13.2,0,0,0-.13,3.53c-.63.4-1.25,1-1.9,1.32A30.25,30.25,0,0,1,204,93Z" transform="translate(-2.66 -5.16)"/><circle class="cls-36" cx="203.34" cy="91.46" r="0.68"/><ellipse class="cls-36" cx="204.08" cy="95.87" rx="0.68" ry="0.52" transform="translate(-5.98 179.15) rotate(-48.26)"/><path class="cls-37" d="M200.6,117.56l-1-.3s4.89-15.15,10.57-20.21c.68-.6,1.84-1.16,2.54-.59a7.58,7.58,0,0,1,.9.77s-1.49,0-4.15,2.79C205.87,103.81,200.6,117.56,200.6,117.56Z" transform="translate(-2.66 -5.16)"/><path class="cls-37" d="M211.6,117.82a22.55,22.55,0,0,0-2.25-.5c-2.65-.41-10.46-.58-10.46-.58l.88-3.23s7,1,9.39,1a7.29,7.29,0,0,0,1.63-.15Z" transform="translate(-2.66 -5.16)"/><path class="cls-26" d="M211.1,99.39c-1.6,3.4.27,11.7.94,15.73l3,.61c0-.19.62-.62.63-.83.2-4.19.74-10.4.06-14.14-.28-1.55-1.28-2.78-2.43-2.75A2.81,2.81,0,0,0,211.1,99.39Z" transform="translate(-2.66 -5.16)"/><circle class="cls-27" cx="199.81" cy="116.08" r="2.83"/><path class="cls-26" d="M212.08,113.51c-3.09,1.77-5.66,3.4-8.93,5.35.63.74,1,1.21,1.76,2,3.08-1.21,5.88-2.14,9-3.68,1.66-.82,1.79-2.07,1.38-3S213.68,112.6,212.08,113.51Z" transform="translate(-2.66 -5.16)"/><path class="cls-28" d="M210.89,99.31c-.76,1.63-.83,5.13-.53,8l6.12-.33a39.3,39.3,0,0,0-.57-6.15c-.29-1.59-1.39-3.14-2.57-3.11A3.36,3.36,0,0,0,210.89,99.31Z" transform="translate(-2.66 -5.16)"/><polygon class="cls-20" points="211.88 153.96 211.78 189.12 239.49 173.04 239.59 137.88 211.88 153.96"/><polygon class="cls-20" points="150.26 153.33 177.22 137.66 177.31 105.75 150.35 121.41 150.26 153.33"/><path class="cls-38" d="M200,80.1s0,0,0,0l0,0s0,0,0,0S200.07,80.11,200,80.1Z" transform="translate(-2.66 -5.16)"/><polygon class="cls-39" points="211.88 153.96 239.73 137.79 175.55 100.82 147.82 116.77 211.88 153.96"/><polygon class="cls-22" points="209.21 155.48 209.17 187.59 211.77 189.09 211.87 153.93 147.82 116.77 147.72 151.93 150.34 153.44 150.43 121.52 209.21 155.48"/><path class="cls-40" d="M195.81,136.89l10.33,6a3.64,3.64,0,0,0,3.28,0l19.81-11.44a1,1,0,0,0,0-1.9l-10.32-6Z" transform="translate(-2.66 -5.16)"/><path class="cls-41" d="M229.93,139.07a1.16,1.16,0,0,1-.69,1l-1.29.74-.69.41-12.58,7.26-5.25,3-.17.09-.06,0-.1,0h0l0,0-.14,0h-.09l-.06,0-.14,0h-.1l-.12,0h-1.07l-.17,0h-.05l-.08,0-.13,0-.09,0-.12,0h0l-.15-.05h0l-.15-.06,0,0-.16-.08L197,146.16a2.4,2.4,0,0,1-1.19-2.08l0-7.19,10.33,6,.15.08,0,0,.15.06h0l.17.06.12,0,.09,0,.13,0,.09,0h0l.2,0h.95l.1,0h.12l.1,0,.14,0,.1,0h0l.15-.05h0l.12-.06.06,0,.17-.09,19.81-11.44a1.16,1.16,0,0,0,.69-1Z" transform="translate(-2.66 -5.16)"/><path class="cls-42" d="M195.8,135.64l10.32,6a3.64,3.64,0,0,0,3.28,0l19.79-11.43a1,1,0,0,0,0-1.9l-10.31-6Z" transform="translate(-2.66 -5.16)"/><path class="cls-43" d="M206.12,141.63l.15.08,0,0,.14.06h0l.17.06.12,0,.09,0,.13,0,.09,0h0l.16,0h1.08l.12,0,.1,0,.14,0,.1,0h0l.15-.05h0l.12-.06.06,0,.17-.09,19.79-11.43a1.16,1.16,0,0,0,.69-.95v2.55a1.18,1.18,0,0,1-.69,1l-19.79,11.42-.17.09-.06,0-.1,0H209l-.14,0,0,0h-.1l-.14,0h-.1l-.12,0h-.1l-.12,0h-.28s0,0-.05,0a.56.56,0,0,1-.13,0h-.39l-.17,0h0l-.08,0-.13,0-.09,0-.12,0h0l-.14,0h0l-.15-.07-.05,0-.15-.08-10.31-6,0-2.55Z" transform="translate(-2.66 -5.16)"/><path class="cls-44" d="M229.19,130.2,209.4,141.63a3.64,3.64,0,0,1-3.28,0l-10.32-6,6.62-3.82,11.35-6.56,5.12-3,10.31,6A1,1,0,0,1,229.19,130.2Z" transform="translate(-2.66 -5.16)"/><path class="cls-10" d="M221,129.62l-12.25,7.08a2.27,2.27,0,0,1-2,0L200.34,133l14.29-8.25,6.34,3.68A.62.62,0,0,1,221,129.62Z" transform="translate(-2.66 -5.16)"/><path class="cls-12" d="M214.82,128.33l-9.22,5.32a1.72,1.72,0,0,1-1.53,0l-1.21-.77,10.75-6.2,1.21.76A.47.47,0,0,1,214.82,128.33Z" transform="translate(-2.66 -5.16)"/><path class="cls-10" d="M206.12,141.63l.15.08,0,0,.14.06h0l.17.06.12,0,.09,0,.13,0,.09,0h0l.16,0h1.08l.12,0,.1,0,.14,0,.1,0h0l.15-.05h0l.12-.06.06,0,.17-.09,19.79-11.43a1.16,1.16,0,0,0,.69-.95v2.55a1.18,1.18,0,0,1-.69,1l-19.79,11.42-.17.09-.06,0-.1,0H209l-.14,0,0,0h-.1l-.14,0h-.1l-.12,0h-.1l-.12,0h-.28s0,0-.05,0a.56.56,0,0,1-.13,0h-.39l-.17,0h0l-.08,0-.13,0-.09,0-.12,0h0l-.14,0h0l-.15-.07-.05,0-.15-.08-10.31-6,0-2.55Z" transform="translate(-2.66 -5.16)"/><path class="cls-14" d="M228,140.77l-13.27,7.67v-4.09a2.23,2.23,0,0,1,1-1.79l11.2-6.47c.58-.33,1-.06,1,.59Z" transform="translate(-2.66 -5.16)"/><path class="cls-12" d="M228,140.77l-.69.41,0-4.73a1.32,1.32,0,0,0-.08-.47c.45-.13.78.15.78.7Z" transform="translate(-2.66 -5.16)"/><path class="cls-40" d="M215.21,147.31l5.51,3.21a2,2,0,0,0,1.8,0l9.76-5.64a.55.55,0,0,0,0-1l-5.51-3.21Z" transform="translate(-2.66 -5.16)"/><path class="cls-14" d="M232.66,144.36a.63.63,0,0,1-.38.52l-9.76,5.64a.82.82,0,0,1-.19.09h0l-.17.06h0l-.2,0h0l-.21,0h0l-.21,0h0l-.15,0-.13,0-.12,0,0,0-.18-.08-5.37-3.12v.76l5.37,3.12.18.09,0,0,.05,0h.07a.5.5,0,0,0,.13,0l0,0h.69l.12,0h.07l.06,0,.12,0h0l.18-.09,9.76-5.63a.64.64,0,0,0,.38-.53Z" transform="translate(-2.66 -5.16)"/><polygon class="cls-9" points="230.88 140.49 221.42 145.99 213.69 141.53 223.15 136.03 230.88 140.49"/><polygon class="cls-45" points="219.56 131.12 223.25 129.01 223.25 127.53 219.56 129.64 219.56 131.12"/><path id="_Tracciato_" data-name="&lt;Tracciato&gt;" class="cls-46" d="M220.53,135.8a1.07,1.07,0,0,0-.06.94c.14.27.38.28.54,0a1,1,0,0,0,.07-.93C220.94,135.57,220.7,135.55,220.53,135.8Z" transform="translate(-2.66 -5.16)"/><path id="_Tracciato_2" data-name="&lt;Tracciato&gt;" class="cls-47" d="M220.76,135.82a1.05,1.05,0,0,0-.06.93c.13.27.38.29.54,0a1,1,0,0,0,.06-.94C221.17,135.58,220.93,135.57,220.76,135.82Z" transform="translate(-2.66 -5.16)"/><path id="_Tracciato_3" data-name="&lt;Tracciato&gt;" class="cls-48" d="M218.13,137.15a1.07,1.07,0,0,0-.06.94c.14.27.38.28.54,0a1,1,0,0,0,.07-.93C218.54,136.92,218.3,136.9,218.13,137.15Z" transform="translate(-2.66 -5.16)"/><path id="_Tracciato_4" data-name="&lt;Tracciato&gt;" class="cls-49" d="M218.36,137.17a1,1,0,0,0-.06.93c.13.27.38.29.54,0a1,1,0,0,0,.06-.94C218.77,136.93,218.53,136.92,218.36,137.17Z" transform="translate(-2.66 -5.16)"/><path id="_Tracciato_5" data-name="&lt;Tracciato&gt;" class="cls-50" d="M219.27,137.41c.14.27.38.28.54,0a1,1,0,0,0,.07-.94c-.14-.27-.38-.29-.55,0A1.07,1.07,0,0,0,219.27,137.41Z" transform="translate(-2.66 -5.16)"/><ellipse id="_Tracciato_6" data-name="&lt;Tracciato&gt;" class="cls-51" cx="219.8" cy="136.97" rx="0.66" ry="0.38" transform="translate(66.12 342.21) rotate(-86.26)"/><ellipse id="_Tracciato_7" data-name="&lt;Tracciato&gt;" class="cls-52" cx="217.17" cy="138.29" rx="0.66" ry="0.38" transform="translate(62.35 340.82) rotate(-86.26)"/><ellipse id="_Tracciato_8" data-name="&lt;Tracciato&gt;" class="cls-33" cx="217.4" cy="138.31" rx="0.66" ry="0.38" transform="translate(62.54 341.06) rotate(-86.26)"/><polygon class="cls-53" points="212.55 142.14 214.05 143.01 225.61 136.32 224.12 135.47 212.55 142.14"/><polygon class="cls-54" points="221.17 144.16 227.78 140.32 227.39 140.08 220.78 143.92 221.17 144.16"/><polygon class="cls-54" points="220.34 143.68 226.95 139.84 226.56 139.6 219.95 143.44 220.34 143.68"/><polygon class="cls-54" points="219.52 143.21 226.12 139.37 225.73 139.13 219.13 142.97 219.52 143.21"/><polygon class="cls-54" points="218.69 142.71 225.29 138.87 224.9 138.63 218.3 142.47 218.69 142.71"/><path class="cls-55" d="M174.87,116.33a.61.61,0,0,0,.38.52l.65.38v-.83l1.31-.76,1.28.74-.73.43-.55-.32-.58.33.55.32,1.31-.76v.05l.63-.37a1.85,1.85,0,0,1,.22-.52l-.42-.24v-.85l1.3-.76.3.17v-.34l1.31-.76.28.17v-.34l1.3-.76,1.29.74v.21l.18-.11,1.28.75v.2l.18-.1,1.28.74v.2l.18-.1,1.28.74v.21l.18-.11,1.28.75v.2l.18-.1,1.28.74v.2l.18-.1,1.28.74v.21l.18-.1,1.28.73v.21l.18-.1,1.28.74v.2l.18-.1,1.28.74v.21l.18-.11,1.29.75v.2l.17-.1,1.29.74v.2l.17-.1,1.29.74h0v.21l.17-.11,1.29.75v.76l.65-.39,1.29.75v.77l.61-.35a.63.63,0,0,0,.36-.51v.84a.62.62,0,0,1-.37.52l-7.46,4.34a2,2,0,0,1-1.79,0L175.24,117.7a.62.62,0,0,1-.37-.52Z" transform="translate(-2.66 -5.16)"/><path class="cls-56" d="M175.24,115.82l7.46-4.34a2,2,0,0,1,1.79,0L206.25,124c.49.29.5.75,0,1l-7.47,4.33a1.93,1.93,0,0,1-1.78,0l-21.76-12.56A.54.54,0,0,1,175.24,115.82Z" transform="translate(-2.66 -5.16)"/><polygon class="cls-57" points="180.64 108.44 179.33 109.2 180.61 109.94 181.92 109.18 180.64 108.44"/><polygon class="cls-57" points="177.57 108.53 176.27 109.29 177.55 110.03 178.86 109.27 177.57 108.53"/><polygon class="cls-57" points="179.04 109.37 177.73 110.13 179.01 110.87 180.32 110.11 179.04 109.37"/><polygon class="cls-57" points="180.5 110.21 179.19 110.97 180.47 111.71 181.78 110.95 180.5 110.21"/><polygon class="cls-57" points="184.18 110.49 182.87 111.25 186.46 113.31 187.76 112.55 184.18 110.49"/><polygon class="cls-57" points="187.94 112.66 186.63 113.42 187.92 114.16 189.22 113.4 187.94 112.66"/><polygon class="cls-57" points="182.47 111.48 180.95 112.36 180.08 112.87 179.65 113.12 181.81 114.37 183.12 113.61 182.45 113.23 183.96 112.35 182.47 111.48"/><polygon class="cls-57" points="189.4 113.5 188.09 114.26 189.38 115 190.68 114.24 189.4 113.5"/><polygon class="cls-57" points="187.32 114.16 186.02 114.92 187.3 115.66 188.61 114.9 187.32 114.16"/><polygon class="cls-57" points="190.86 114.34 189.55 115.1 190.84 115.84 192.14 115.08 190.86 114.34"/><polygon class="cls-57" points="188.77 114.99 187.46 115.75 188.75 116.49 190.05 115.73 188.77 114.99"/><polygon class="cls-57" points="192.32 115.19 191.02 115.95 192.3 116.69 193.6 115.93 192.32 115.19"/><polygon class="cls-57" points="190.21 115.82 188.91 116.58 190.19 117.32 191.49 116.56 190.21 115.82"/><polygon class="cls-57" points="193.78 116.03 192.48 116.79 193.76 117.53 195.07 116.77 193.78 116.03"/><polygon class="cls-57" points="191.66 116.66 190.35 117.41 191.63 118.16 192.94 117.4 191.66 116.66"/><polygon class="cls-57" points="195.24 116.87 193.94 117.63 195.22 118.38 196.53 117.62 195.24 116.87"/><polygon class="cls-57" points="193.1 117.49 191.79 118.25 193.08 118.99 194.38 118.23 193.1 117.49"/><polygon class="cls-57" points="196.7 117.72 195.4 118.48 196.68 119.22 197.99 118.46 196.7 117.72"/><polygon class="cls-57" points="194.54 118.32 193.24 119.08 194.52 119.82 195.82 119.06 194.54 118.32"/><polygon class="cls-57" points="195.99 119.16 194.68 119.92 195.97 120.66 197.27 119.9 195.99 119.16"/><polygon class="cls-57" points="198.23 118.6 196.92 119.36 200.08 121.18 201.39 120.42 198.23 118.6"/><polygon class="cls-57" points="197.44 119.99 196.13 120.75 198.48 122.11 199.79 121.35 197.44 119.99"/><polygon class="cls-57" points="179.18 107.6 177.87 108.36 179.15 109.1 180.46 108.34 179.18 107.6"/><polygon class="cls-57" points="182.09 109.28 180.79 110.04 182.07 110.78 183.38 110.03 182.09 109.28"/><polygon class="cls-57" points="177.41 110.48 177.24 110.58 176.11 111.24 177.39 111.98 178.7 111.22 178.57 111.14 177.41 110.48"/><polygon class="cls-57" points="174.53 110.48 173.22 111.24 174.5 111.98 175.81 111.22 174.53 110.48"/><polygon class="cls-57" points="175.99 111.32 174.68 112.08 175.96 112.82 177.27 112.06 175.99 111.32"/><polygon class="cls-57" points="177.45 112.16 176.14 112.92 177.42 113.66 178.73 112.9 177.45 112.16"/><polygon class="cls-57" points="178.91 113.01 177.6 113.77 178.89 114.51 180.19 113.75 178.91 113.01"/><polygon class="cls-57" points="180.37 113.85 179.06 114.61 180.35 115.35 181.65 114.59 180.37 113.85"/><polygon class="cls-57" points="181.83 114.69 180.52 115.45 181.81 116.19 183.12 115.43 181.83 114.69"/><polygon class="cls-57" points="184.75 116.38 183.44 117.14 184.72 117.88 186.03 117.12 184.75 116.38"/><polygon class="cls-57" points="186.21 117.22 184.9 117.98 186.19 118.72 187.5 117.96 186.21 117.22"/><polygon class="cls-57" points="187.68 118.07 186.37 118.83 187.65 119.57 188.96 118.81 187.68 118.07"/><polygon class="cls-57" points="189.13 118.91 187.83 119.67 189.11 120.41 190.42 119.65 189.13 118.91"/><polygon class="cls-57" points="190.59 119.75 189.28 120.51 190.57 121.25 191.88 120.49 190.59 119.75"/><polygon class="cls-57" points="192.06 120.6 190.75 121.36 192.03 122.1 193.34 121.34 192.06 120.6"/><polygon class="cls-57" points="193.52 121.44 192.21 122.2 193.49 122.94 194.8 122.18 193.52 121.44"/><polygon class="cls-57" points="195.46 122.56 194.15 123.32 195.43 124.06 196.74 123.3 195.46 122.56"/><polygon class="cls-57" points="183.29 115.54 181.98 116.3 183.27 117.04 184.57 116.28 183.29 115.54"/><polygon class="cls-57" points="184.44 112.49 183.13 113.25 184.41 113.99 185.72 113.23 184.44 112.49"/><polygon class="cls-57" points="185.88 113.32 184.57 114.08 185.86 114.82 187.16 114.06 185.88 113.32"/><polygon class="cls-57" points="188.9 111.31 187.6 112.07 190.15 113.54 191.46 112.79 188.9 111.31"/><polygon class="cls-57" points="191.62 112.88 190.31 113.64 196.58 117.26 197.89 116.5 191.62 112.88"/><polygon class="cls-57" points="198.09 116.61 196.78 117.37 198.95 118.62 200.25 117.86 198.09 116.61"/><polygon class="cls-57" points="200.52 118.02 199.21 118.78 201.76 120.25 203.07 119.49 200.52 118.02"/><polygon class="cls-57" points="181.04 106.75 179.73 107.51 181.01 108.25 182.32 107.49 181.04 106.75"/><polygon class="cls-57" points="182.49 107.59 182.32 107.69 181.19 108.35 182.47 109.09 183.78 108.33 183.64 108.26 182.49 107.59"/><polygon class="cls-57" points="183.9 108.41 182.6 109.17 183.88 109.91 185.19 109.15 183.9 108.41"/><polygon class="cls-57" points="185.99 109.63 184.69 110.39 187.34 111.92 188.64 111.16 185.99 109.63"/><polygon class="cls-57" points="193.57 119.61 192.26 120.37 193.55 121.11 194.85 120.35 193.57 119.61 193.57 119.61"/><polygon class="cls-57" points="193.43 119.53 192.14 118.79 190.84 119.55 192.12 120.29 193.43 119.53 193.43 119.53"/><polygon class="cls-57" points="191.98 118.7 190.7 117.95 189.39 118.72 190.67 119.46 191.98 118.7 191.98 118.7"/><polygon class="cls-57" points="190.56 117.87 189.27 117.13 187.96 117.89 189.25 118.63 190.56 117.87 190.56 117.87"/><polygon class="cls-57" points="189.06 117.01 187.78 116.27 186.47 117.03 187.75 117.77 189.06 117.01 189.06 117.01"/><polygon class="cls-57" points="187.63 116.19 186.35 115.45 185.04 116.21 186.33 116.95 187.63 116.19 187.63 116.19"/><polygon class="cls-57" points="186.19 115.35 184.91 114.61 183.6 115.37 184.88 116.11 186.19 115.35 186.19 115.35"/><polygon class="cls-57" points="184.76 114.53 183.48 113.79 182.17 114.55 183.46 115.29 184.76 114.53 184.76 114.53"/><polygon class="cls-57" points="198.19 122.28 195.03 120.46 193.72 121.22 196.88 123.04 198.19 122.28 198.19 122.28"/><g class="cls-19"><path class="cls-56" d="M176.5,122.57,172.23,125a.46.46,0,0,1,.47,0l4.26-2.48A.44.44,0,0,0,176.5,122.57Z" transform="translate(-2.66 -5.16)"/><polygon class="cls-58" points="184.22 128.11 188.49 125.63 174.31 117.45 170.04 119.92 184.22 128.11"/><path class="cls-55" d="M186.88,133.27l4.26-2.48a1.47,1.47,0,0,1,.66,1.14v.38a.46.46,0,0,1-.19.42l-4.26,2.48a.46.46,0,0,0,.19-.42v-.38A1.46,1.46,0,0,0,186.88,133.27Z" transform="translate(-2.66 -5.16)"/><path class="cls-55" d="M172.7,125.09c-.36-.21-.66,0-.66.37v.38a1.46,1.46,0,0,0,.65,1.14l14.18,8.18c.36.21.66,0,.66-.37v-.38a1.46,1.46,0,0,0-.65-1.14Z" transform="translate(-2.66 -5.16)"/></g><path class="cls-55" d="M195.06,130v-.69l-.25.15-27.63-16L168,113l0-16.56a.78.78,0,0,1,0-.16v0h0a.32.32,0,0,1,0-.09v0h0a0,0,0,0,1,0,0,.4.4,0,0,1,.18-.22l1-.58-.44-.25a1.45,1.45,0,0,0-.29-.13,1.37,1.37,0,0,0,0,.29l-1.23.71a1.1,1.1,0,0,1,.45-1l.87-.5-.29-.17a.91.91,0,0,0-.9-.09l.49-.28.06,0,.49-.28.18-.1a.88.88,0,0,1,.9.08l25.6,14.78a2.83,2.83,0,0,1,1.26,2.19l-.05,16.09v2.53a.9.9,0,0,1-.37.82l-1.21.7A.89.89,0,0,0,195.06,130Z" transform="translate(-2.66 -5.16)"/><path class="cls-55" d="M168,96.28h0Z" transform="translate(-2.66 -5.16)"/><path class="cls-55" d="M168,96.39v0h0Z" transform="translate(-2.66 -5.16)"/><path class="cls-59" d="M168.77,96c-.42-.24-.77-.05-.77.43L168,113l26.09,15.07,0-16.56a1.67,1.67,0,0,0-.76-1.31Z" transform="translate(-2.66 -5.16)"/><g class="cls-19"><polygon class="cls-60" points="184.58 127.02 185.8 126.31 185.82 121.05 184.6 121.76 184.58 127.02"/><polygon class="cls-61" points="184.6 121.76 185.82 121.05 173.3 113.82 172.08 114.53 184.6 121.76"/><polygon class="cls-61" points="172.08 114.53 172.06 119.79 184.58 127.02 184.6 121.76 172.08 114.53"/></g><path class="cls-59" d="M167.19,113.47l27.63,16,.05-17.44a3.38,3.38,0,0,0-1.52-2.64L168.77,95.16c-.84-.49-1.53-.1-1.54.87Zm26.86,14.63L168,113l0-16.56c0-.48.35-.67.77-.43l24.57,14.19a1.67,1.67,0,0,1,.76,1.31l0,16.56Z" transform="translate(-2.66 -5.16)"/><path class="cls-59" d="M166.94,113.73a2.78,2.78,0,0,0,1.26,2.19l6.54,3.77,12.52,7.23,6.54,3.78c.7.4,1.26.07,1.26-.73v-2.53l.05-16.1a2.77,2.77,0,0,0-1.26-2.18l-25.6-14.78c-.7-.4-1.27-.07-1.27.72l-.05,16.1v2.53Zm.25-.26h0l0-8.72,0-8.72a1.33,1.33,0,0,1,.16-.67l0-.06.08-.1a1,1,0,0,1,1.27,0l24.58,14.19a2.66,2.66,0,0,1,.72.63,1.83,1.83,0,0,1,.13.16l.12.17a3.28,3.28,0,0,1,.55,1.68l-.05,17.44-27.63-16Z" transform="translate(-2.66 -5.16)"/></g></svg>