<svg xmlns="http://www.w3.org/2000/svg" xmlns:xlink="http://www.w3.org/1999/xlink" viewBox="0 0 185.79 143.89"><defs><style>.cls-1{fill:#d29e08;}.cls-2{fill:#fdd875;}.cls-3{fill:#fdc20b;}.cls-4{opacity:0.5;}.cls-5{fill:#181f20;}.cls-6{fill:#6e757b;}.cls-7{fill:#b0b0b0;}.cls-8{fill:#f3f3f3;}.cls-9{fill:#e6e9eb;}.cls-10{fill:#373e42;}.cls-11{fill:#70787b;}.cls-12{fill:#010101;}.cls-13{fill:#4e5558;}.cls-14{fill:#2a292a;}.cls-15{fill:#383938;}.cls-16{fill:#e7f2f7;}.cls-17{fill:#41484e;}.cls-18{fill:#242424;}.cls-19{fill:#c8b18a;}.cls-20{fill:#cfc6b5;}.cls-21{fill:#e3e1de;}.cls-22{fill:#fff;}.cls-23{fill:url(#Áåçûìÿííûé_ãðàäèåíò_796);}.cls-24{fill:#5b111c;}.cls-25{fill:#71141a;}.cls-26{fill:#419035;}.cls-27{fill:#931827;}.cls-28{fill:#ad1924;}.cls-29{fill:#470e1d;}.cls-30{fill:#5f111e;}.cls-31{fill:#487e30;}.cls-32{fill:#80172f;}.cls-33{fill:#9b1830;}.cls-34{fill:#69150d;}.cls-35{fill:#7f1710;}.cls-36{fill:#32702f;}.cls-37{fill:#a03228;}.cls-38{fill:#ba3827;}.cls-39{fill:#6a1225;}.cls-40{fill:#7f1524;}.cls-41{fill:#639c41;}.cls-42{fill:#a02743;}.cls-43{fill:#ba2943;}.cls-44{fill:#767676;}.cls-45{fill:#a3a3a3;}.cls-46{fill:#e0e0e0;}.cls-47{fill:#8c8c8c;}.cls-48{fill:#a09d98;}.cls-49{fill:#313a42;}.cls-50{fill:#c7d2de;}.cls-51{fill:#a8b9bc;}.cls-52{fill:#c5cfd7;}.cls-53{fill:#2f3c51;}.cls-54{fill:#c6d8de;}.cls-55{fill:#ea592a;}.cls-56{fill:none;stroke:#eaeaea;stroke-miterlimit:10;stroke-width:1.42px;}.cls-57{fill:#be1622;}.cls-58{fill:#e6332a;}.cls-59{fill:#e94e1b;}.cls-60{fill:#efefef;}.cls-61{fill:#dedede;}.cls-62{fill:#dbdbdb;}.cls-63{fill:#a6a5a4;}.cls-64{fill:#bfbebf;}.cls-65{fill:#ccd1d2;}.cls-66{fill:#525252;}</style><linearGradient id="Áåçûìÿííûé_ãðàäèåíò_796" x1="107.1" y1="73.75" x2="105.56" y2="73.75" gradientTransform="translate(44.23)" gradientUnits="userSpaceOnUse"><stop offset="0.12" stop-color="#b0b0b0"/><stop offset="0.33" stop-color="#b7b7b7"/><stop offset="0.65" stop-color="#ccc"/><stop offset="1" stop-color="#ebebeb"/></linearGradient></defs><title>G14_06_02</title><g id="Livello_1" data-name="Livello 1"><polygon class="cls-1" points="185.79 86.36 185.79 91.11 96.32 143.89 96.32 139.14 185.79 86.36"/><polygon class="cls-2" points="96.32 139.14 96.32 143.89 0.22 88.16 0.22 83.41 96.32 139.14"/><polygon class="cls-3" points="96.1 139.16 0 83.42 0 83.16 90.31 31.25 185.79 86.38 96.25 139.25 96.1 139.16"/></g><g id="Livello_3" data-name="Livello 3"><g class="cls-4"><circle class="cls-3" cx="48.25" cy="16.3" r="15.59"/></g><polygon class="cls-5" points="143.97 84.47 149.94 80.89 149.94 69.8 143.97 73.39 143.97 84.47"/><polygon class="cls-6" points="86.78 40.09 86.78 51.21 143.98 84.47 143.98 73.39 86.78 40.09"/><polygon class="cls-7" points="143.67 74.88 150.5 70.77 150.5 68.89 143.67 72.99 143.67 74.88"/><polygon class="cls-8" points="143.67 72.95 150.5 68.85 92.36 35.42 85.42 39.45 143.67 72.95"/><polygon class="cls-9" points="85.42 39.45 143.67 72.95 143.67 74.83 85.42 41.37 85.42 39.45"/><path class="cls-10" d="M118.91,62.12h0v-.67l1.12.62a48.41,48.41,0,0,1,7.47,3.51,59.94,59.94,0,0,1,6,4l1.21.68V71h0a.16.16,0,0,1-.09.16c-1.07.65-7.82-2.64-9.43-3.57S118.63,63,118.91,62.12Z" transform="translate(-6.93 -12.57)"/><path class="cls-11" d="M119,61.35c.76-.61,6.91,2.63,8.52,3.56s8.07,5,7.14,5.56-7.82-2.64-9.43-3.57S118.17,62,119,61.35Z" transform="translate(-6.93 -12.57)"/><polygon class="cls-10" points="117.37 52.8 120.73 54.76 120.73 35.2 117.37 33.24 117.37 52.8"/><polygon class="cls-12" points="121.51 54.31 120.73 54.76 120.73 35.2 121.51 34.76 121.51 54.31"/><polygon class="cls-13" points="137.6 39.45 137.6 60.78 103.69 41.21 103.69 19.88 137.6 39.45"/><polygon class="cls-12" points="137.6 39.45 137.6 60.78 138.77 60.18 138.77 38.85 137.6 39.45"/><polygon class="cls-11" points="103.69 19.88 137.6 39.45 138.77 38.85 104.87 19.29 103.69 19.88"/><polygon class="cls-12" points="135.44 39.95 135.44 57.8 105.85 40.71 105.85 22.87 135.44 39.95"/><polygon class="cls-14" points="135.44 39.94 135.44 56.88 106.6 40.23 106.6 23.3 135.44 39.94"/><polygon class="cls-15" points="135.44 39.94 106.6 40.23 106.6 23.3 135.44 39.94"/><polygon class="cls-11" points="106.6 40.23 105.85 40.71 135.44 57.8 135.44 56.88 106.6 40.23"/><polygon class="cls-1" points="125.75 86.24 88.47 64.67 67.69 76.66 104.97 98.23 125.75 86.24"/><polygon class="cls-9" points="119.43 79.42 119.44 87.3 121.59 88.57 121.59 80.69 119.43 79.42"/><polygon class="cls-7" points="121.59 80.69 121.59 88.57 123.42 87.47 123.42 79.59 121.59 80.69"/><polygon class="cls-16" points="121.27 78.32 119.43 79.42 121.59 80.69 123.42 79.59 121.27 78.32"/><polygon class="cls-9" points="103.55 88.56 103.55 96.44 105.7 97.71 105.7 89.83 103.55 88.56"/><polygon class="cls-7" points="105.7 89.83 105.7 97.71 107.54 96.61 107.54 88.73 105.7 89.83"/><polygon class="cls-16" points="105.38 87.46 103.55 88.56 105.7 89.83 107.54 88.73 105.38 87.46"/><polygon class="cls-9" points="69.82 69 69.82 76.87 71.98 78.14 71.98 70.27 69.82 69"/><polygon class="cls-7" points="71.98 70.27 71.98 78.14 73.81 77.04 73.81 69.17 71.98 70.27"/><polygon class="cls-16" points="71.65 67.9 69.82 69 71.98 70.27 73.81 69.17 71.65 67.9"/><polygon class="cls-17" points="125.75 77.39 88.47 55.82 67.69 67.81 104.97 89.39 125.75 77.39"/><polygon class="cls-18" points="121.79 77.73 87.9 58.11 71.65 67.47 105.54 87.1 121.79 77.73"/><polygon class="cls-19" points="121.23 77.73 87.9 58.42 72.2 67.47 105.54 86.78 121.23 77.73"/><polygon class="cls-20" points="87.86 59.85 87.86 68.95 89.7 67.85 89.7 59.98 87.86 59.85"/><polygon class="cls-6" points="87.9 59.85 120 78.44 121.23 77.73 87.9 58.42 72.2 67.47 73.44 68.19 87.9 59.85"/><polygon class="cls-6" points="104.97 89.39 67.69 67.81 67.69 70.68 104.97 92.26 104.97 89.39"/><polygon class="cls-5" points="125.75 80.27 125.75 77.39 104.97 89.39 104.97 92.26 125.75 80.27"/><polygon class="cls-21" points="85.71 59.81 85.71 67.68 87.86 68.95 87.86 59.85 85.71 59.81"/><polygon class="cls-5" points="87.9 58.42 87.9 59.85 73.44 68.19 72.2 67.47 87.9 58.42"/><path class="cls-9" d="M151.89,73.74h-2.55l-.61,7.85c0,.64.84,1.17,1.89,1.17s1.89-.53,1.89-1.17Z" transform="translate(-6.93 -12.57)"/><path class="cls-22" d="M151.89,73.74c0,.44-.57.79-1.27.79s-1.28-.35-1.28-.79.57-.78,1.28-.78S151.89,73.31,151.89,73.74Z" transform="translate(-6.93 -12.57)"/><path class="cls-23" d="M151.66,73.75c0,.18-.19.37-.49.47a1.15,1.15,0,0,1-.28.07l-.13,0h-.38c-.49-.08-.82-.33-.82-.56s.29-.46.73-.54a1,1,0,0,1,.25,0h.34l.22,0,0,0a.83.83,0,0,1,.5.35A.35.35,0,0,1,151.66,73.75Z" transform="translate(-6.93 -12.57)"/><path class="cls-24" d="M152.25,64.07a2.18,2.18,0,0,0-.65-.25c-.53,0-.34.77-.32,1.31s0,1.1.49,1.15S152.43,64.28,152.25,64.07Z" transform="translate(-6.93 -12.57)"/><path class="cls-25" d="M151.62,64.28a.55.55,0,0,1,.6-.4c.53.07.2.89.12,1.43s-.13,1.09-.62,1.08S151.56,64.65,151.62,64.28Z" transform="translate(-6.93 -12.57)"/><path class="cls-26" d="M151.25,69.27a16.76,16.76,0,0,1-.15,2.65c-.06.41-.12.81-.2,1.18,0,0,0,.07,0,.1-.08.4-.16.78-.25,1.11h-.25c.07-.31.14-.71.22-1.12.23-1.22.45-2.59.45-2.59s-.8-.88-1.09-3.85c0,0,.85,0,1.16,1.43,0,.17.07.38.09.6v0h0A3.59,3.59,0,0,1,151.25,69.27Z" transform="translate(-6.93 -12.57)"/><path class="cls-26" d="M150.94,72.47a2.75,2.75,0,0,1,1.14-1.8l1-.7s-1.78,3.45-2.3,3.1C150.77,72.58,150.94,72.47,150.94,72.47Z" transform="translate(-6.93 -12.57)"/><path class="cls-26" d="M151.31,68.64a2.75,2.75,0,0,1,1.14-1.8l1-.7s-1.78,3.45-2.3,3.1C151.13,68.75,151.31,68.64,151.31,68.64Z" transform="translate(-6.93 -12.57)"/><path class="cls-26" d="M151.19,68.88a17.54,17.54,0,0,1,.16-2.09c.12-.54.28-1.08.28-1.08l-.31,3.17-.15-.11Z" transform="translate(-6.93 -12.57)"/><path class="cls-27" d="M151.41,66.64s-.66-.29-.37-1.26.07-1.28.07-1.28,1,.29.72.8A6.56,6.56,0,0,0,151.41,66.64Z" transform="translate(-6.93 -12.57)"/><path class="cls-28" d="M152.05,64.49s.32-.4.52-.39,0,1.18-.26,1.67-.42,1-.9.87S151.8,64.61,152.05,64.49Z" transform="translate(-6.93 -12.57)"/><path class="cls-29" d="M149.09,64.07a2.09,2.09,0,0,1,.64-.25c.54,0,.34.77.33,1.31s0,1.1-.49,1.15S148.9,64.28,149.09,64.07Z" transform="translate(-6.93 -12.57)"/><path class="cls-30" d="M149.71,64.28a.53.53,0,0,0-.59-.4c-.54.07-.2.89-.12,1.43s.12,1.09.62,1.08S149.77,64.65,149.71,64.28Z" transform="translate(-6.93 -12.57)"/><path class="cls-31" d="M150.09,69.27a16.75,16.75,0,0,0,.14,2.65c.07.41.13.81.2,1.18a.44.44,0,0,1,0,.1c.08.4.16.78.24,1.11H151c-.07-.31-.14-.71-.22-1.12-.24-1.22-.45-2.59-.45-2.59s.79-.88,1.08-3.85c0,0-.84,0-1.15,1.43a3.31,3.31,0,0,0-.09.6v0h0A3.59,3.59,0,0,0,150.09,69.27Z" transform="translate(-6.93 -12.57)"/><path class="cls-31" d="M150.39,72.47a2.75,2.75,0,0,0-1.14-1.8l-1-.7s1.79,3.45,2.3,3.1C150.57,72.58,150.39,72.47,150.39,72.47Z" transform="translate(-6.93 -12.57)"/><path class="cls-31" d="M150,68.64a2.74,2.74,0,0,0-1.15-1.8l-1-.7s1.79,3.45,2.3,3.1C150.2,68.75,150,68.64,150,68.64Z" transform="translate(-6.93 -12.57)"/><path class="cls-31" d="M150.15,68.88a17.54,17.54,0,0,0-.16-2.09c-.13-.54-.29-1.08-.29-1.08l.32,3.17.15-.11Z" transform="translate(-6.93 -12.57)"/><path class="cls-32" d="M149.93,66.64s.65-.29.37-1.26-.07-1.28-.07-1.28-1,.29-.72.8A7,7,0,0,1,149.93,66.64Z" transform="translate(-6.93 -12.57)"/><path class="cls-33" d="M149.28,64.49s-.31-.4-.51-.39,0,1.18.26,1.67.42,1,.9.87S149.54,64.61,149.28,64.49Z" transform="translate(-6.93 -12.57)"/><path class="cls-34" d="M149,65.65a2.34,2.34,0,0,0-.69,0c-.51.18-.07.84.13,1.34s.36,1,.85.92S149.28,65.79,149,65.65Z" transform="translate(-6.93 -12.57)"/><path class="cls-35" d="M148.52,66.05a.54.54,0,0,1,.43-.57c.52-.12.48.77.59,1.3s.25,1.07-.22,1.24S148.59,66.43,148.52,66.05Z" transform="translate(-6.93 -12.57)"/><path class="cls-36" d="M150.76,74.31h-.28c0-.23-.07-.44-.11-.66s-.05-.3-.08-.44c-.11-.59-.18-1-.18-1s-1.05-.56-2.31-3.26c0,0,.79-.28,1.57.95.06.11.13.23.2.37v0l.09.13v0a3.12,3.12,0,0,1,.18.42h0a15,15,0,0,1,.7,2.31l.06.23h0a2.17,2.17,0,0,0,0,.25C150.69,73.88,150.72,74.1,150.76,74.31Z" transform="translate(-6.93 -12.57)"/><path class="cls-36" d="M149.69,70.27a2.77,2.77,0,0,1,.47-2.08l.73-1s-.52,3.85-1.12,3.69C149.56,70.43,149.69,70.27,149.69,70.27Z" transform="translate(-6.93 -12.57)"/><path class="cls-36" d="M149.66,70.53a17.94,17.94,0,0,1-.55-2C149,68,149,67.4,149,67.4l.77,3.09-.18,0Z" transform="translate(-6.93 -12.57)"/><path class="cls-37" d="M149.11,68.35s-.71,0-.77-1.06-.37-1.23-.37-1.23,1-.06.95.51A6.76,6.76,0,0,0,149.11,68.35Z" transform="translate(-6.93 -12.57)"/><path class="cls-38" d="M149,66.11s.17-.48.36-.54.37,1.12.32,1.66-.06,1.1-.56,1.12S148.8,66.31,149,66.11Z" transform="translate(-6.93 -12.57)"/><path class="cls-39" d="M150.7,65.09A2.38,2.38,0,0,0,150,65c-.52.11-.18.82-.06,1.35s.21,1.08.71,1S150.92,65.26,150.7,65.09Z" transform="translate(-6.93 -12.57)"/><path class="cls-40" d="M150.13,65.42c0-.31.31-.49.51-.51.53,0,.37.83.4,1.38s.09,1.09-.4,1.18S150.15,65.8,150.13,65.42Z" transform="translate(-6.93 -12.57)"/><path class="cls-41" d="M151.17,74.21s0,0,0,0a1.15,1.15,0,0,1-.28.07c0-.36,0-.74,0-1.09,0-.82-.05-1.48-.05-1.48s-1-.71-1.82-3.56c0,0,.83-.16,1.42,1.17,0,.12.1.26.15.42h0a.78.78,0,0,1,.05.14v0a3.81,3.81,0,0,1,.13.45,16.49,16.49,0,0,1,.37,2.63h0c0,.08,0,.17,0,.25C151.15,73.59,151.16,73.91,151.17,74.21Z" transform="translate(-6.93 -12.57)"/><path class="cls-41" d="M151.08,73.59a2.74,2.74,0,0,1,.76-2l.86-.89s-1.07,3.73-1.64,3.49C150.93,73.72,151.08,73.59,151.08,73.59Z" transform="translate(-6.93 -12.57)"/><path class="cls-41" d="M150.68,69.76a2.77,2.77,0,0,1,.77-2l.86-.89s-1.07,3.73-1.64,3.5C150.53,69.9,150.68,69.76,150.68,69.76Z" transform="translate(-6.93 -12.57)"/><path class="cls-41" d="M150.61,70a17,17,0,0,1-.25-2.08c0-.55.06-1.11.06-1.11l.32,3.17-.17-.08Z" transform="translate(-6.93 -12.57)"/><path class="cls-42" d="M150.39,67.78s-.7-.16-.61-1.16-.19-1.28-.19-1.28,1,.09.87.64A6.92,6.92,0,0,0,150.39,67.78Z" transform="translate(-6.93 -12.57)"/><path class="cls-43" d="M150.59,65.54s.23-.46.43-.49.2,1.17.08,1.7-.22,1.07-.71,1S150.37,65.71,150.59,65.54Z" transform="translate(-6.93 -12.57)"/><path class="cls-44" d="M98.55,85.24v0a.58.58,0,0,1-.3.51L95.1,87.6a1.21,1.21,0,0,1-.55.14A1.07,1.07,0,0,1,94,87.6l-6.85-3.94a.4.4,0,0,1-.2-.34v-.25l3.93-2,5.57,3.07Z" transform="translate(-6.93 -12.57)"/><path class="cls-45" d="M98.55,85.24v0a.58.58,0,0,1-.3.51L95.1,87.6a1.21,1.21,0,0,1-.55.14V84.1h1.93Z" transform="translate(-6.93 -12.57)"/><path class="cls-46" d="M94.2,87.34l-7.12-4.1a.2.2,0,0,1,0-.34l3.54-2.06a.55.55,0,0,1,.58,0L98.48,85a.13.13,0,0,1,0,.23l-3.56,2.08A.71.71,0,0,1,94.2,87.34Z" transform="translate(-6.93 -12.57)"/><rect class="cls-47" x="93.31" y="79.71" width="0.16" height="5.52" transform="translate(-31.52 109.96) rotate(-60.2)"/><rect class="cls-47" x="92.75" y="80.04" width="0.16" height="5.52" transform="translate(-32.08 109.65) rotate(-60.2)"/><rect class="cls-47" x="92.19" y="80.37" width="0.16" height="5.52" transform="translate(-32.65 109.33) rotate(-60.2)"/><rect class="cls-47" x="91.63" y="80.71" width="0.16" height="5.52" transform="translate(-33.22 109.01) rotate(-60.2)"/><rect class="cls-47" x="91.07" y="81.04" width="0.16" height="5.52" transform="translate(-33.79 108.69) rotate(-60.2)"/><rect class="cls-47" x="90.51" y="81.37" width="0.16" height="5.52" transform="translate(-34.36 108.37) rotate(-60.2)"/><polygon class="cls-48" points="86.27 73.26 87.75 74.13 87.92 74.23 90.76 72.6 90.58 72.49 90.55 72.47 89.11 71.62 86.27 73.26"/><polygon class="cls-1" points="66.14 114.52 19.36 87.5 45.36 72.71 92.05 99.8 66.14 114.52"/><polygon class="cls-49" points="40.11 95.88 36.35 93.71 36.35 92.35 40.11 94.57 40.11 95.88"/><polygon class="cls-17" points="40.11 94.57 36.35 92.35 40.77 89.8 44.53 92.01 40.11 94.57"/><polygon class="cls-5" points="44.53 92.01 44.53 93.33 40.11 95.88 40.11 94.57 44.53 92.01"/><polygon class="cls-49" points="83.14 120.73 79.37 118.56 79.37 117.2 83.14 119.42 83.14 120.73"/><polygon class="cls-17" points="83.14 119.42 79.37 117.2 83.8 114.65 87.56 116.86 83.14 119.42"/><polygon class="cls-5" points="87.56 116.86 87.56 118.18 83.14 120.73 83.14 119.42 87.56 116.86"/><polygon class="cls-49" points="53.5 88.16 49.73 85.98 49.73 84.63 53.5 86.84 53.5 88.16"/><polygon class="cls-17" points="53.5 86.84 49.73 84.63 54.16 82.07 57.92 84.29 53.5 86.84"/><polygon class="cls-5" points="57.92 84.29 57.92 85.6 53.5 88.16 53.5 86.84 57.92 84.29"/><polygon class="cls-50" points="93.5 114.73 89.74 112.56 89.74 111.2 93.5 113.42 93.5 114.73"/><polygon class="cls-17" points="93.5 113.42 89.74 111.2 94.16 108.65 97.92 110.87 93.5 113.42"/><polygon class="cls-51" points="97.92 110.87 97.92 112.18 93.5 114.73 93.5 113.42 97.92 110.87"/><polygon class="cls-49" points="83.14 119.16 36.35 92.14 36.35 87.36 83.14 114.38 83.14 119.16"/><polygon class="cls-17" points="83.14 114.38 36.35 87.36 54.63 76.79 97.92 105.83 83.14 114.38"/><polygon class="cls-5" points="97.92 105.83 97.92 110.61 83.14 119.16 83.14 114.38 97.92 105.83"/><polygon class="cls-50" points="59.59 99.88 36.35 86.45 36.35 82.48 59.59 95.9 59.59 99.88"/><polygon class="cls-52" points="59.59 95.9 36.35 82.48 51.14 73.92 74.38 87.35 59.59 95.9"/><polygon class="cls-51" points="74.38 87.35 74.38 91.33 59.59 99.88 59.59 95.9 74.38 87.35"/><polygon class="cls-50" points="83.14 113.47 59.9 100.04 59.9 96.07 83.14 109.49 83.14 113.47"/><polygon class="cls-52" points="83.14 109.49 59.9 96.07 74.69 87.52 97.92 100.94 83.14 109.49"/><polygon class="cls-51" points="97.92 100.94 97.92 104.92 83.14 113.47 83.14 109.49 97.92 100.94"/><polygon class="cls-17" points="83.2 100.95 94.45 94.44 97.89 96.43 86.64 102.94 83.2 100.95"/><polygon class="cls-5" points="86.64 102.94 97.89 96.43 97.83 100.85 86.64 107.29 86.64 102.94"/><polygon class="cls-49" points="86.64 107.29 83.2 105.31 83.2 100.95 86.64 102.94 86.64 107.29"/><polygon class="cls-17" points="39.84 76.05 51.09 69.53 54.53 71.52 43.28 78.03 39.84 76.05"/><polygon class="cls-5" points="43.28 78.03 54.53 71.52 54.47 75.94 43.28 82.38 43.28 78.03"/><polygon class="cls-49" points="43.28 82.38 39.84 80.4 39.84 76.05 43.28 78.03 43.28 82.38"/><polygon class="cls-9" points="61.15 84.49 37.9 71.08 34.46 73.06 57.71 86.47 61.15 84.49"/><polygon class="cls-50" points="57.71 86.47 34.46 73.06 36.32 82 59.57 95.42 57.71 86.47"/><polygon class="cls-51" points="59.57 95.42 63.01 93.43 61.15 84.49 57.71 86.47 59.57 95.42"/><polygon class="cls-9" points="84.68 98.1 61.43 84.69 57.99 86.67 81.24 100.09 84.68 98.1"/><polygon class="cls-50" points="81.24 100.09 57.99 86.67 59.85 95.61 83.1 109.03 81.24 100.09"/><polygon class="cls-51" points="83.1 109.03 86.54 107.04 84.68 98.1 81.24 100.09 83.1 109.03"/><polygon class="cls-17" points="83.11 104.41 35.14 76.7 32.16 78.41 80.13 106.11 83.11 104.41"/><polygon class="cls-49" points="80.13 106.11 32.16 78.41 32.15 94.68 80.12 122.39 80.13 106.11"/><polygon class="cls-5" points="80.12 122.39 83.09 120.69 83.11 104.41 80.13 106.11 80.12 122.39"/><path class="cls-17" d="M46.66,31.15c0,5.56,3.35,8.82,7.49,7.26s7.48-7.32,7.48-12.88-3.35-8.82-7.48-7.27-7.49,7.32-7.49,12.89" transform="translate(-6.93 -12.57)"/><path class="cls-53" d="M48.7,31.15c0,5.56,3.35,8.82,7.48,7.26s7.49-7.32,7.49-12.88-3.35-8.82-7.49-7.27S48.7,25.58,48.7,31.15" transform="translate(-6.93 -12.57)"/><path class="cls-54" d="M51,24.9c0,.4,0,.8,0,1.19,0,5.78,3.48,9.16,7.77,7.55a9,9,0,0,0,2.46-1.46,10.07,10.07,0,0,1-5,5c-3.62,1.36-6.55-1.49-6.55-6.36A14,14,0,0,1,51,24.9" transform="translate(-6.93 -12.57)"/><path class="cls-22" d="M51,26.09c0-.39,0-.79,0-1.19a10.25,10.25,0,0,1,5.18-5.36c3.62-1.36,6.55,1.49,6.55,6.36a14,14,0,0,1-1.55,6.28,9,9,0,0,1-2.46,1.46C54.43,35.25,51,31.87,51,26.09" transform="translate(-6.93 -12.57)"/><path class="cls-53" d="M55.66,20.77c0,.39.23.61.52.51a1,1,0,0,0,.53-.91c0-.39-.24-.62-.53-.51a1,1,0,0,0-.52.91" transform="translate(-6.93 -12.57)"/><path class="cls-53" d="M55.66,36.34c0,.39.23.62.52.51a1,1,0,0,0,.53-.9c0-.39-.24-.62-.53-.51a1,1,0,0,0-.52.9" transform="translate(-6.93 -12.57)"/><path class="cls-53" d="M50.4,31.24a1,1,0,0,0,.52-.91c0-.39-.23-.62-.52-.51a1,1,0,0,0-.53.91c0,.39.24.62.53.51" transform="translate(-6.93 -12.57)"/><path class="cls-53" d="M62,26.89a1,1,0,0,0,.52-.9c0-.39-.23-.62-.52-.51a1,1,0,0,0-.53.9c0,.39.24.62.53.51" transform="translate(-6.93 -12.57)"/><path class="cls-55" d="M58.6,20.91c0,.24.15.38.33.32a.62.62,0,0,0,.32-.56c0-.25-.14-.39-.32-.32a.63.63,0,0,0-.33.56" transform="translate(-6.93 -12.57)"/><path class="cls-55" d="M60.7,23.24c0,.24.15.38.33.32a.62.62,0,0,0,.32-.56c0-.25-.14-.39-.32-.32a.63.63,0,0,0-.33.56" transform="translate(-6.93 -12.57)"/><path class="cls-55" d="M51.07,33.43c0,.25.15.39.33.32a.62.62,0,0,0,.32-.56c0-.24-.14-.38-.32-.32a.63.63,0,0,0-.33.56" transform="translate(-6.93 -12.57)"/><path class="cls-55" d="M53.17,35.77c0,.24.15.38.33.31a.62.62,0,0,0,.32-.56c0-.24-.14-.38-.32-.32a.63.63,0,0,0-.33.57" transform="translate(-6.93 -12.57)"/><path class="cls-55" d="M60.88,29.36a.62.62,0,0,0-.32.56c0,.24.14.39.32.32a.63.63,0,0,0,.33-.56c0-.24-.15-.39-.33-.32" transform="translate(-6.93 -12.57)"/><path class="cls-55" d="M58.56,33.06a.62.62,0,0,0-.32.56c0,.24.14.38.32.32a.63.63,0,0,0,.33-.57c0-.24-.15-.38-.33-.31" transform="translate(-6.93 -12.57)"/><path class="cls-55" d="M53.68,21.93a.63.63,0,0,0-.33.56c0,.24.15.39.33.32a.62.62,0,0,0,.32-.56c0-.25-.14-.39-.32-.32" transform="translate(-6.93 -12.57)"/><path class="cls-55" d="M51.36,25.63a.62.62,0,0,0-.33.56c0,.24.15.38.33.31a.6.6,0,0,0,.33-.56c0-.24-.15-.38-.33-.31" transform="translate(-6.93 -12.57)"/><path class="cls-53" d="M53.59,34.55,55.8,28.8a.56.56,0,0,1,0-.23v0a.86.86,0,0,1,.47-.79c.25-.1.46.1.46.44v.05a.88.88,0,0,1-.46.79l-.09,0L54,34.71c-.07.16-.2.25-.3.21s-.14-.21-.08-.37" transform="translate(-6.93 -12.57)"/><path class="cls-55" d="M55.47,28.64c0,.52.32.83.71.68a1.33,1.33,0,0,0,.7-1.21c0-.41-.19-.68-.45-.72h0V23.64c0-.19-.11-.3-.25-.24a.47.47,0,0,0-.26.43v3.74h0a1.5,1.5,0,0,0-.45,1.06m.34-.13a.68.68,0,0,1,.37-.62c.2-.08.36.08.36.35a.67.67,0,0,1-.36.62c-.2.08-.37-.08-.37-.35" transform="translate(-6.93 -12.57)"/><g class="cls-4"><circle class="cls-3" cx="147.06" cy="77.33" r="15.59"/></g><circle class="cls-56" cx="147.06" cy="77.33" r="15.59"/><circle class="cls-56" cx="48.25" cy="16.3" r="15.59"/><g class="cls-4"><circle class="cls-3" cx="93.06" cy="29.33" r="15.59"/></g><path class="cls-57" d="M102.3,38.9H97.71L96.6,53c0,1.16,1.52,2.1,3.4,2.1s3.41-.94,3.41-2.1Z" transform="translate(-6.93 -12.57)"/><path class="cls-58" d="M107.05,39.64h0a4.21,4.21,0,0,0-.12-.48l-1.85-7.67H94.86l-2,8.15h0a2.92,2.92,0,0,0,.51,2c.11.15.23.31.36.46,1.73,1.93,5.54,2.76,8.87,1.91a6.55,6.55,0,0,0,3.81-2.29A2.92,2.92,0,0,0,107.05,39.64Z" transform="translate(-6.93 -12.57)"/><path class="cls-59" d="M104.46,30.31a1.64,1.64,0,0,1,.26.33,2,2,0,0,1,0,2.46,4.73,4.73,0,0,1-2.75,1.66c-2.41.61-5.17,0-6.42-1.38-.09-.11-.18-.22-.26-.34a2.06,2.06,0,0,1,0-2.46,4.84,4.84,0,0,1,2.76-1.66c2.41-.61,5.16,0,6.41,1.39Z" transform="translate(-6.93 -12.57)"/><path class="cls-57" d="M100,34.47A5.59,5.59,0,0,1,95.91,33a2.47,2.47,0,0,1-.21-.27,1.53,1.53,0,0,1,0-1.86,4.21,4.21,0,0,1,2.45-1.45,7.32,7.32,0,0,1,1.82-.22,5.6,5.6,0,0,1,4.07,1.44c.07.09.15.18.21.27a1.53,1.53,0,0,1,0,1.86,4.21,4.21,0,0,1-2.45,1.45A7.32,7.32,0,0,1,100,34.47Z" transform="translate(-6.93 -12.57)"/><circle class="cls-56" cx="93.06" cy="29.33" r="15.59"/><polygon class="cls-60" points="148.54 72.63 148.95 72.88 145.22 82.43 145.22 74.53 148.54 72.63"/><polygon class="cls-61" points="148.95 72.88 148.95 80.78 145.64 82.69 145.64 74.79 148.95 72.88"/><polygon class="cls-62" points="145.83 74.9 148.75 73.22 148.75 80.67 145.83 82.35 145.83 74.9"/><polygon class="cls-60" points="148.65 73.28 148.65 80.63 145.83 82.24 145.83 82.35 148.75 80.67 148.75 73.22 148.65 73.28"/><polygon class="cls-63" points="145.22 74.53 145.64 74.79 145.64 82.69 145.22 82.43 145.22 74.53"/><polygon class="cls-63" points="148.75 73.22 148.75 80.67 148.65 80.63 148.65 73.28 148.75 73.22"/><path class="cls-64" d="M155.23,91.43a2.39,2.39,0,0,1-1,1.88c-.4.23-.75.13-.9-.22a1.2,1.2,0,0,1-.1-.5,2.37,2.37,0,0,1,1-1.88.71.71,0,0,1,.58-.1C155.06,90.7,155.23,91,155.23,91.43Z" transform="translate(-6.93 -12.57)"/><path class="cls-64" d="M155.23,88a2.38,2.38,0,0,1-1,1.88.57.57,0,0,1-.9-.21,1.29,1.29,0,0,1-.1-.51,2.4,2.4,0,0,1,1-1.88.7.7,0,0,1,.58-.09C155.06,87.31,155.23,87.6,155.23,88Z" transform="translate(-6.93 -12.57)"/><path class="cls-65" d="M154.89,91.11a2.38,2.38,0,0,1-1,1.89.68.68,0,0,1-.57.09,1.2,1.2,0,0,1-.1-.5,2.37,2.37,0,0,1,1-1.88.71.71,0,0,1,.58-.1A1.24,1.24,0,0,1,154.89,91.11Z" transform="translate(-6.93 -12.57)"/><path class="cls-65" d="M154.89,87.73a2.34,2.34,0,0,1-1,1.88.65.65,0,0,1-.57.1,1.29,1.29,0,0,1-.1-.51,2.4,2.4,0,0,1,1-1.88.7.7,0,0,1,.58-.09A1.21,1.21,0,0,1,154.89,87.73Z" transform="translate(-6.93 -12.57)"/><polygon class="cls-66" points="147.28 79.58 147.46 79.48 147.46 78.53 147.28 78.64 147.28 79.58"/><polygon class="cls-66" points="146.56 79.95 146.74 79.85 146.74 78.9 146.56 79.01 146.56 79.95"/><polygon class="cls-66" points="147.28 76.28 147.46 76.18 147.46 75.23 147.28 75.33 147.28 76.28"/><polygon class="cls-66" points="146.56 76.65 146.74 76.55 146.74 75.6 146.56 75.7 146.56 76.65"/></g></svg>