<svg xmlns="http://www.w3.org/2000/svg" xmlns:xlink="http://www.w3.org/1999/xlink" viewBox="0 0 185.79 136.9"><defs><style>.cls-1{fill:#d29e08;}.cls-2{fill:#fdd875;}.cls-3{fill:#fdc20b;}.cls-4{fill:#a6caea;}.cls-5{fill:#f2f9fc;}.cls-6{fill:#fff;}.cls-7{fill:#eaf6fd;}.cls-8{fill:#9ea6b0;}.cls-9{fill:#d3d0db;}.cls-10{fill:#71a5cf;}.cls-11{fill:#ebebeb;}.cls-12{opacity:0.2;fill:url(#Sfumatura_senza_nome_2);}.cls-13{fill:#e6332a;}</style><linearGradient id="Sfumatura_senza_nome_2" x1="-1099.6" y1="61.43" x2="-1099.6" y2="106.71" gradientTransform="matrix(-1, 0, 0, 1, -1001.95, 0)" gradientUnits="userSpaceOnUse"><stop offset="0" stop-color="#fff"/><stop offset="0.14" stop-color="#fbfbfb" stop-opacity="0.99"/><stop offset="0.27" stop-color="#f1f1f1" stop-opacity="0.94"/><stop offset="0.39" stop-color="#dedede" stop-opacity="0.87"/><stop offset="0.51" stop-color="#c5c5c5" stop-opacity="0.77"/><stop offset="0.63" stop-color="#a4a4a4" stop-opacity="0.64"/><stop offset="0.74" stop-color="#7b7b7b" stop-opacity="0.48"/><stop offset="0.85" stop-color="#4b4b4b" stop-opacity="0.29"/><stop offset="0.96" stop-color="#151515" stop-opacity="0.08"/><stop offset="1" stop-opacity="0"/></linearGradient></defs><title>G14_06_03</title><g id="Livello_1" data-name="Livello 1"><polygon class="cls-1" points="185.79 79.37 185.79 84.12 96.32 136.9 96.32 132.15 185.79 79.37"/><polygon class="cls-2" points="96.32 132.15 96.32 136.9 0.22 81.17 0.22 76.42 96.32 132.15"/><polygon class="cls-3" points="96.1 132.17 0 76.44 0 76.17 90.31 24.26 185.79 79.39 96.25 132.26 96.1 132.17"/></g><g id="Livello_3" data-name="Livello 3"><path class="cls-1" d="M43.21,103.24c-2.82,1.66-2.82,4.38,0,6l28.55,17.23a11.22,11.22,0,0,0,10.26,0l71.47-42c2.83-1.65,2.83-4.37,0-6L124.89,61.3a11.19,11.19,0,0,0-10.26,0Z" transform="translate(-6.65 -17.97)"/><path class="cls-4" d="M44.9,102.21c-2.74,1.6-2.74,4.23,0,5.84l26.58,15.64a10.85,10.85,0,0,0,10,0L150.68,83c2.74-1.6,2.74-4.23,0-5.84L124.06,61.55a10.91,10.91,0,0,0-10,0Z" transform="translate(-6.65 -17.97)"/><polyline class="cls-4" points="36.19 87.16 36.19 83.19 38.01 84.17 38.62 85.46 37.94 87.16"/><polyline class="cls-4" points="146.07 58.69 146.07 62.07 143.75 64.36 142.72 60.69 142.72 59.07"/><path class="cls-5" d="M44.9,98.67c-2.74,1.61-2.74,4.24,0,5.85l26.58,15.63a10.88,10.88,0,0,0,10,0L150.68,79.5c2.74-1.61,2.74-4.24,0-5.84L124.06,58a10.85,10.85,0,0,0-10,0Z" transform="translate(-6.65 -17.97)"/><path class="cls-6" d="M44.9,98.87c-2.74,1.61-2.74,4.24,0,5.85l26.58,15.64a10.85,10.85,0,0,0,10,0L150.68,79.7c2.74-1.6,2.74-4.23,0-5.84L124.06,58.22a10.91,10.91,0,0,0-10,0Z" transform="translate(-6.65 -17.97)"/><path class="cls-7" d="M44.9,98.67c-2.74,1.61-2.74,4.24,0,5.85l26.58,15.63a10.88,10.88,0,0,0,10,0L150.68,79.5c2.74-1.61,2.74-4.24,0-5.84L124.06,58a10.85,10.85,0,0,0-10,0Z" transform="translate(-6.65 -17.97)"/><polygon class="cls-8" points="108.12 41.48 47.23 77.19 80.73 96.95 141.55 61.14 108.12 41.48"/><path class="cls-6" d="M58.64,106.91c-.06,1.2,2,2.17,4.52,2.17s4.67-1,4.73-2.17-2-2.18-4.53-2.18S58.69,105.7,58.64,106.91Z" transform="translate(-6.65 -17.97)"/><path class="cls-9" d="M58.74,106.87c0,1.18,2.07,2.14,4.62,2.14s4.63-1,4.63-2.14-2.07-2.14-4.63-2.14S58.74,105.69,58.74,106.87Z" transform="translate(-6.65 -17.97)"/><path class="cls-5" d="M59.73,106.82c0,.9,1.62,1.63,3.63,1.63s3.63-.73,3.63-1.63-1.62-1.64-3.63-1.64S59.73,105.91,59.73,106.82Z" transform="translate(-6.65 -17.97)"/><path class="cls-6" d="M63.43,108.33c-2,0-3.63-.73-3.63-1.63a.75.75,0,0,1,.1-.38.88.88,0,0,0-.17.5c0,.9,1.62,1.63,3.63,1.63,1.73,0,3.17-.54,3.54-1.26C66.43,107.85,65.06,108.33,63.43,108.33Z" transform="translate(-6.65 -17.97)"/><path class="cls-6" d="M138.81,69.79l0,0h0l-7.55-4.39,0,0a1.89,1.89,0,0,0-.86-.19c-.62,0-1.13.24-1.13.53a.35.35,0,0,0,.12.23.18.18,0,0,0,.07,0l0,0,7.53,4.38,0,0a1.86,1.86,0,0,0,.89.2c.62,0,1.13-.23,1.13-.52A.34.34,0,0,0,138.81,69.79Z" transform="translate(-6.65 -17.97)"/><path class="cls-9" d="M138.93,69.71l0,0h0l-7.55-4.39,0,0a1.79,1.79,0,0,0-.86-.19c-.63,0-1.13.24-1.13.52a.31.31,0,0,0,.12.24l.06,0,0,0L137,70.26l0,0a1.79,1.79,0,0,0,.88.2c.63,0,1.13-.24,1.13-.52A.31.31,0,0,0,138.93,69.71Z" transform="translate(-6.65 -17.97)"/><polygon class="cls-10" points="45.98 93.71 39.74 90.09 39.74 88.93 45.98 92.55 45.98 93.71"/><path class="cls-10" d="M54.43,112c0,.48-.25.72-.56.53a1.56,1.56,0,0,1-.56-1.22c0-.48.25-.72.56-.53A1.56,1.56,0,0,1,54.43,112Z" transform="translate(-6.65 -17.97)"/><path class="cls-10" d="M70.84,121.71c0,.48-.25.72-.56.52a1.54,1.54,0,0,1-.56-1.21c0-.49.25-.72.56-.53A1.56,1.56,0,0,1,70.84,121.71Z" transform="translate(-6.65 -17.97)"/><path class="cls-10" d="M69.55,121c0,.48-.25.72-.56.53a1.56,1.56,0,0,1-.56-1.22c0-.48.25-.72.56-.53A1.56,1.56,0,0,1,69.55,121Z" transform="translate(-6.65 -17.97)"/><polygon class="cls-11" points="122.51 72.35 88.26 53.13 91.85 51.02 125.8 70.41 122.51 72.35"/><polygon class="cls-11" points="93.67 89.35 66.95 65.42 70.54 63.31 96.97 87.41 93.67 89.35"/><polygon class="cls-11" points="125.8 51.86 57.55 83.28 53.87 81.15 122.51 49.94 125.8 51.86"/><polygon class="cls-11" points="131.29 67.16 74.53 93.29 70.87 91.15 139.51 59.94 141.55 61.14 131.29 67.16"/><path class="cls-12" d="M61,99.39l80.41-24.31L114.77,59.45,53.88,95.17C53.88,95.46,61,99.39,61,99.39Z" transform="translate(-6.65 -17.97)"/><circle class="cls-13" cx="105.07" cy="21.52" r="21.52"/><polygon class="cls-13" points="118.95 36.65 91.2 36.65 105.07 60.68 118.95 36.65"/><circle class="cls-6" cx="105.07" cy="21.52" r="11.34"/></g></svg>