<svg xmlns="http://www.w3.org/2000/svg" xmlns:xlink="http://www.w3.org/1999/xlink" viewBox="0 0 397.79 176.8"><defs><style>.cls-1{fill:none;}.cls-2{isolation:isolate;}.cls-3{fill:#d29e08;}.cls-4{fill:#fdd875;}.cls-5{fill:#fdc20b;}.cls-6{fill:#3c3c3b;}.cls-7{fill:#403f3e;}.cls-8{fill:#323231;}.cls-9{fill:#222221;}.cls-10{fill:#1e2020;}.cls-11{fill:#333;}.cls-12{fill:#e9494b;}.cls-13{fill:#fff;}.cls-14{fill:#8a1815;opacity:0.7;mix-blend-mode:multiply;}.cls-15{clip-path:url(#clip-path);}.cls-16{opacity:0.4;fill:url(#linear-gradient);}.cls-16,.cls-22{mix-blend-mode:screen;}.cls-17{fill:#1da438;}.cls-18{fill:#606567;}.cls-19{fill:#757a7c;}.cls-20{fill:#a4b0b3;}.cls-21{fill:#8b9194;}.cls-22{opacity:0.3;fill:url(#linear-gradient-2);}.cls-23{fill:#99a1a4;}.cls-24{clip-path:url(#clip-path-2);}.cls-25{fill:#1c2022;}.cls-26{clip-path:url(#clip-path-3);}.cls-27{fill:#293033;}.cls-28{fill:#364145;}.cls-29{clip-path:url(#clip-path-5);}.cls-30{fill:#47555a;}.cls-31{fill:#1ab2aa;}.cls-32{fill:#e6332a;}.cls-33{fill:#95c11f;}.cls-34{fill:#ffed00;}.cls-35{fill:#a6caea;}.cls-36{fill:#f2f9fc;}.cls-37{fill:#eaf6fd;}.cls-38{fill:#9ea6b0;}.cls-39{fill:#d3d0db;}.cls-40{fill:#71a5cf;}.cls-41{fill:#ebebeb;}.cls-42{opacity:0.2;fill:url(#Sfumatura_senza_nome_2);}</style><clipPath id="clip-path" transform="translate(-1.19 -37.39)"><path class="cls-1" d="M92.82,146.52a5.47,5.47,0,0,1-2.62,4.14c-1.45.83-2.62.34-2.62-1.11a5.41,5.41,0,0,1,2.62-4.13C91.64,144.58,92.82,145.08,92.82,146.52Z"/></clipPath><linearGradient id="linear-gradient" x1="90.05" y1="145.35" x2="90.48" y2="151.87" gradientUnits="userSpaceOnUse"><stop offset="0" stop-color="#fff"/><stop offset="0.16" stop-color="#c3c3c3"/><stop offset="0.32" stop-color="#888"/><stop offset="0.49" stop-color="#585858"/><stop offset="0.64" stop-color="#323232"/><stop offset="0.78" stop-color="#171717"/><stop offset="0.9" stop-color="#070707"/><stop offset="1" stop-color="#010101"/></linearGradient><linearGradient id="linear-gradient-2" x1="97.75" y1="65.32" x2="74.96" y2="120.41" gradientUnits="userSpaceOnUse"><stop offset="0" stop-color="#bae1eb"/><stop offset="0.06" stop-color="#9dbec6"/><stop offset="0.14" stop-color="#799298"/><stop offset="0.24" stop-color="#586b70"/><stop offset="0.33" stop-color="#3d4a4d"/><stop offset="0.43" stop-color="#272f31"/><stop offset="0.54" stop-color="#161b1c"/><stop offset="0.66" stop-color="#0a0c0d"/><stop offset="0.8" stop-color="#030404"/><stop offset="1" stop-color="#010101"/></linearGradient><clipPath id="clip-path-2" transform="translate(-1.19 -37.39)"><rect class="cls-1" x="152.78" y="37.39" width="76.54" height="88.83"/></clipPath><clipPath id="clip-path-3" transform="translate(-1.19 -37.39)"><path class="cls-1" d="M180.56,113.76l.05,0Zm1.47-3.23a3.58,3.58,0,0,1-1.42,3.2l43.81-26.21a3.52,3.52,0,0,0,1.46-3.22Z"/></clipPath><clipPath id="clip-path-5" transform="translate(-1.19 -37.39)"><path class="cls-1" d="M177.12,82.91a11,11,0,0,1,5,8.69L226,65.36a11,11,0,0,0-5-8.69Z"/></clipPath><linearGradient id="Sfumatura_senza_nome_2" x1="-1105.06" y1="120.74" x2="-1105.06" y2="166.02" gradientTransform="matrix(-1, 0, 0, 1, -800.88, 0)" gradientUnits="userSpaceOnUse"><stop offset="0" stop-color="#fff"/><stop offset="0.14" stop-color="#fbfbfb" stop-opacity="0.99"/><stop offset="0.27" stop-color="#f1f1f1" stop-opacity="0.94"/><stop offset="0.39" stop-color="#dedede" stop-opacity="0.87"/><stop offset="0.51" stop-color="#c5c5c5" stop-opacity="0.77"/><stop offset="0.63" stop-color="#a4a4a4" stop-opacity="0.64"/><stop offset="0.74" stop-color="#7b7b7b" stop-opacity="0.48"/><stop offset="0.85" stop-color="#4b4b4b" stop-opacity="0.29"/><stop offset="0.96" stop-color="#151515" stop-opacity="0.08"/><stop offset="1" stop-opacity="0"/></linearGradient></defs><title>G14_06_01</title><g class="cls-2"><g id="Livello_1" data-name="Livello 1"><polygon class="cls-3" points="289.12 56.27 289.12 61.02 199.65 113.8 199.65 109.05 289.12 56.27"/><polygon class="cls-4" points="199.65 109.05 199.65 113.8 103.56 58.07 103.56 53.32 199.65 109.05"/><polygon class="cls-5" points="199.43 109.06 103.33 53.33 103.33 53.07 193.64 1.16 289.12 56.29 199.58 109.15 199.43 109.06"/><polygon class="cls-3" points="397.79 119.27 397.79 124.02 308.32 176.8 308.32 172.05 397.79 119.27"/><polygon class="cls-4" points="308.32 172.05 308.32 176.8 212.22 121.07 212.22 116.32 308.32 172.05"/><polygon class="cls-5" points="308.1 172.06 212 116.33 212 116.07 302.31 64.16 397.79 119.29 308.25 172.15 308.1 172.06"/><polygon class="cls-3" points="185.79 116.27 185.79 121.02 96.32 173.8 96.32 169.05 185.79 116.27"/><polygon class="cls-4" points="96.32 169.05 96.32 173.8 0.22 118.07 0.22 113.32 96.32 169.05"/><polygon class="cls-5" points="96.1 169.06 0 113.33 0 113.07 90.31 61.16 185.79 116.29 96.25 169.15 96.1 169.06"/></g><g id="Livello_3" data-name="Livello 3"><rect class="cls-6" x="124.38" y="130.81" width="9.81" height="5.81" rx="2" ry="2" transform="translate(-53.54 56.3) rotate(-33.54)"/><g class="cls-2"><g class="cls-2"><path class="cls-7" d="M77.34,159.28l24.72-14.36a.72.72,0,0,1-.3.65L77,159.93a.71.71,0,0,0,.3-.65Z" transform="translate(-1.19 -37.39)"/></g><path class="cls-7" d="M97.16,93.35a3,3,0,0,0-3-.3L69.4,107.42a3,3,0,0,1,3,.29l3,1.73,24.72-14.36Z" transform="translate(-1.19 -37.39)"/><polygon class="cls-8" points="74.24 72.05 98.96 57.69 98.94 107.59 74.22 121.95 74.24 72.05"/><path class="cls-9" d="M72.44,107.71c-2.59-1.49-4.6,0-4.25,3.15,1.27,11.57,5,44.56,5.2,46.3a2.26,2.26,0,0,0,1,1.59l1,.59,0-49.9Z" transform="translate(-1.19 -37.39)"/><polygon class="cls-7" points="76.16 74.65 100.88 60.29 100.87 107.53 76.15 121.89 76.16 74.65"/><polygon class="cls-10" points="77.63 75.5 99.4 62.85 99.39 100.45 77.62 113.1 77.63 75.5"/><path class="cls-7" d="M101.84,96.71a3,3,0,0,0-.51-.8,2.22,2.22,0,0,0-.56-.47l-.62-.36L75.43,109.44l.62.36a2.31,2.31,0,0,1,.57.48,3.21,3.21,0,0,1,.5.79,2.5,2.5,0,0,1,.23,1l24.71-14.36A2.31,2.31,0,0,0,101.84,96.71Z" transform="translate(-1.19 -37.39)"/><path class="cls-11" d="M76.05,109.8a2.85,2.85,0,0,1,1.3,2.24v47.24c0,.65-.46.91-1,.58l-.91-.52,0-49.9Z" transform="translate(-1.19 -37.39)"/></g><path class="cls-12" d="M87.48,122.49v-.34l1.06-.61V118.3l-1,1.2-.18-.17,1.27-1.6.24-.14v3.73l1-.6v.33Z" transform="translate(-1.19 -37.39)"/><path class="cls-12" d="M92.13,119.8v-1.07l-1.73,1v-.25l1.74-3.73.36-.21v2.64l.67-.39v.34l-.67.38v1.08Zm-1.28-.67.45-.26.83-.48v-2Z" transform="translate(-1.19 -37.39)"/><path class="cls-12" d="M94.14,118.64l-.47.27v-.47l.47-.26Z" transform="translate(-1.19 -37.39)"/><path class="cls-12" d="M95.1,116.79c0,.71.34.83.9.5l0,0a1.72,1.72,0,0,0,.9-1.45v-.09c0-.66-.44-.68-.91-.41l-.05,0a2.18,2.18,0,0,0-.92,1.08l-.31.09.1-2.33,2.4-1.39v.34l-2,1.18-.07,1.47A3,3,0,0,1,96,115c.73-.42,1.28-.29,1.28.54v.06a2.44,2.44,0,0,1-1.29,2c-.88.51-1.29.25-1.29-.55V117Z" transform="translate(-1.19 -37.39)"/><path class="cls-13" d="M91.78,126a4.17,4.17,0,0,0,1.94-2.72,2.7,2.7,0,0,1-.91.9c-.7.4-1.22.28-1.22-.57v-.06a2.38,2.38,0,0,1,1.29-2c.75-.43,1.3-.23,1.3.68v0a4.63,4.63,0,0,1-.57,2.19,4.87,4.87,0,0,1-1.83,1.88Zm2-3.29c0-.09,0-.17,0-.25v-.06c0-.66-.41-.84-.91-.54h0a1.73,1.73,0,0,0-.91,1.46v.08c0,.6.35.72.88.41h0A2.32,2.32,0,0,0,93.8,122.67Z" transform="translate(-1.19 -37.39)"/><path class="cls-13" d="M95.1,123c0,.71.34.83.9.51l0,0A1.75,1.75,0,0,0,97,122V122c0-.65-.44-.68-.91-.4l-.05,0a2.18,2.18,0,0,0-.92,1.08l-.31.09.1-2.33,2.4-1.39v.34l-2,1.18L95.15,122a2.72,2.72,0,0,1,.88-.8c.73-.43,1.28-.3,1.28.53v.07a2.44,2.44,0,0,1-1.29,2c-.88.51-1.29.25-1.29-.55v-.05Z" transform="translate(-1.19 -37.39)"/><path class="cls-13" d="M91.65,128.49,94.2,127v.23L92.65,132l-.4.23,1.52-4.59-.57.34-1.21.7v1.11l-.34.2Z" transform="translate(-1.19 -37.39)"/><path class="cls-13" d="M96.37,129.82v-1.08l-1.73,1v-.25l1.74-3.73.36-.2v2.63l.67-.38v.33l-.67.39v1.07Zm-1.28-.67.45-.26.83-.48v-2Z" transform="translate(-1.19 -37.39)"/><path class="cls-13" d="M90.86,137.93c0,.71.34.83.9.51l0,0a1.75,1.75,0,0,0,.9-1.46v-.09c0-.65-.44-.68-.91-.4l0,0a2.23,2.23,0,0,0-.92,1.08l-.31.09.1-2.33,2.4-1.39v.34l-2,1.18-.07,1.48a2.82,2.82,0,0,1,.88-.8c.74-.43,1.29-.3,1.29.53v.07a2.42,2.42,0,0,1-1.3,2c-.88.51-1.29.25-1.29-.55v0Z" transform="translate(-1.19 -37.39)"/><path class="cls-13" d="M94.14,137.34l-.47.27v-.47l.47-.27Z" transform="translate(-1.19 -37.39)"/><path class="cls-13" d="M96,136l0,0a1.68,1.68,0,0,0,.9-1.3v-.07c0-.52-.38-.56-.86-.28l-.59.34v-.33l.57-.33a1.48,1.48,0,0,0,.85-1.21v0c0-.48-.35-.58-.87-.28l0,0a1.65,1.65,0,0,0-.88,1.58l-.36.21v-.12a2.24,2.24,0,0,1,1.26-2c.82-.47,1.27-.29,1.27.34v.08a1.77,1.77,0,0,1-.63,1.26c.38-.09.65.07.65.56v.09A2.41,2.41,0,0,1,96,136.31c-.88.51-1.29.25-1.29-.55v-.06l.37-.21C95.1,136.19,95.44,136.31,96,136Z" transform="translate(-1.19 -37.39)"/><path class="cls-14" d="M92.82,146.52a5.47,5.47,0,0,1-2.62,4.14c-1.45.83-2.62.34-2.62-1.11a5.41,5.41,0,0,1,2.62-4.13C91.64,144.58,92.82,145.08,92.82,146.52Z" transform="translate(-1.19 -37.39)"/><g class="cls-15"><path class="cls-7" d="M92.42,146.17A5.15,5.15,0,0,1,90,150.08c-1.37.79-2.48.32-2.48-1.05a5.1,5.1,0,0,1,2.48-3.9C91.31,144.34,92.42,144.8,92.42,146.17Z" transform="translate(-1.19 -37.39)"/><path class="cls-16" d="M90.17,145.24A4.05,4.05,0,0,0,88,148.32c0,1.07,1,1.44,2.13.82a4,4,0,0,0,2.13-3.07C92.3,145,91.35,144.62,90.17,145.24Z" transform="translate(-1.19 -37.39)"/></g><path class="cls-17" d="M83.19,116.33l-1.89,1.09c-.53.3-1,.13-1-.4v-2a2,2,0,0,1,1-1.5l1.89-1.09c.52-.3.94-.12.94.4v2A2,2,0,0,1,83.19,116.33ZM89.11,112v-2c0-.52-.42-.7-.94-.4l-1.89,1.09a1.94,1.94,0,0,0-1,1.49v2c0,.52.42.7,1,.4l1.89-1.09A2,2,0,0,0,89.11,112Zm5-2.88v-2c0-.52-.42-.7-.94-.4l-1.89,1.09a2,2,0,0,0-1,1.5v2c0,.53.42.7,1,.4l1.89-1.09A2,2,0,0,0,94.09,109.09Zm5-2.87v-2c0-.52-.42-.7-.95-.4l-1.89,1.09a2,2,0,0,0-.94,1.49v2c0,.52.42.7.94.4l1.89-1.09A1.94,1.94,0,0,0,99.07,106.22Z" transform="translate(-1.19 -37.39)"/><g class="cls-2"><polygon class="cls-18" points="83.14 65.81 81.06 64.6 81.03 63.08 83.11 64.29 83.14 65.81"/><polygon class="cls-19" points="83.11 64.29 81.03 63.08 82.16 59.72 84.24 60.93 83.11 64.29"/><polygon class="cls-20" points="84.24 60.93 82.16 59.72 84.91 58.14 86.98 59.34 84.24 60.93"/><polygon class="cls-21" points="86.98 59.34 88.13 61.4 88.15 62.91 83.14 65.81 83.11 64.29 84.24 60.93 86.98 59.34"/></g><polygon class="cls-22" points="77.62 113.1 98.42 101.01 98.42 64.56 77.63 76.64 77.62 113.1"/><path class="cls-23" d="M71.48,170.67a7.19,7.19,0,0,1-4.69-1.57,9.31,9.31,0,0,1-3.47-7c-.81-14.5,23.52-39.22,32.68-48.52l2-2c5.17-5.38,6.84-13.76,3.8-19A13,13,0,0,0,90,85.76c-3.67.2-4.6,3.3-4.6,5.3a25.69,25.69,0,0,0,.71,5.57.55.55,0,0,1-.53.57c-.06,0-.45-.09-.55-.28a24.68,24.68,0,0,1-.73-5.82c0-1.73,1-6.18,5.64-6.44A14.15,14.15,0,0,1,102.73,92c3.33,5.79,1.63,14.55-4,20.37-.49.52-1.17,1.2-2,2-8.2,8.33-33.15,33.67-32.37,47.69a8.1,8.1,0,0,0,3.06,6.19c5,4.1,14.26-2.2,20.36-6.36,2.54-1.74,37.55-26.11,38.85-26.51a.55.55,0,1,1,.33,1c-1.15.36-36.19,24.75-38.56,26.37C83.63,166.09,76.91,170.67,71.48,170.67Z" transform="translate(-1.19 -37.39)"/><g class="cls-24"><path class="cls-25" d="M180.56,113.76l43.86-26.24a3.52,3.52,0,0,0,1.46-3.22L182,110.53a3.55,3.55,0,0,1-1.47,3.23" transform="translate(-1.19 -37.39)"/></g><g class="cls-26"><path class="cls-25" d="M180.56,113.76l43.86-26.24a2.9,2.9,0,0,0,1.26-1.72L181.82,112a2.9,2.9,0,0,1-1.26,1.72" transform="translate(-1.19 -37.39)"/><path class="cls-25" d="M181.82,112,225.68,85.8a5.29,5.29,0,0,0,.2-1.5L182,110.53a5.29,5.29,0,0,1-.21,1.51" transform="translate(-1.19 -37.39)"/></g><g class="cls-24"><path class="cls-27" d="M157.94,71.72,201.8,45.48a3.55,3.55,0,0,0-3.58-.35L154.36,71.37a3.55,3.55,0,0,1,3.58.35" transform="translate(-1.19 -37.39)"/><polygon class="cls-25" points="180.84 73.14 224.69 46.91 224.81 27.97 180.95 54.2 180.84 73.14"/><polygon class="cls-28" points="175.93 45.52 219.79 19.28 200.61 8.09 156.75 34.33 175.93 45.52"/><path class="cls-27" d="M182.14,91.6,226,65.36a11,11,0,0,0-5-8.69L177.12,82.91a11,11,0,0,1,5,8.69" transform="translate(-1.19 -37.39)"/></g><g class="cls-29"><path class="cls-27" d="M182.14,91.6,226,65.36a7.07,7.07,0,0,0-.06-.91L182.08,90.69a7.07,7.07,0,0,1,.06.91" transform="translate(-1.19 -37.39)"/><path class="cls-27" d="M182.08,90.69l43.86-26.24a11.33,11.33,0,0,0-2.43-5.53L179.66,85.16a11.41,11.41,0,0,1,2.42,5.53" transform="translate(-1.19 -37.39)"/><path class="cls-28" d="M179.66,85.16l43.86-26.24a10.44,10.44,0,0,0-2.05-2L177.61,83.21a9.65,9.65,0,0,1,2,2" transform="translate(-1.19 -37.39)"/><path class="cls-28" d="M177.61,83.21,221.47,57l-.49-.3L177.12,82.91a4.94,4.94,0,0,1,.49.3" transform="translate(-1.19 -37.39)"/></g><polygon class="cls-25" points="181.03 53.04 224.83 27.41 224.81 34.31 181.01 59.94 181.03 53.04"/><path class="cls-27" d="M157.09,64l43.8-25.63a8.47,8.47,0,0,1,6.38-.67l-43.8,25.63a8.48,8.48,0,0,0-6.38.67" transform="translate(-1.19 -37.39)"/><path class="cls-25" d="M180.42,81.22l43.79-25.63A26.58,26.58,0,0,1,226,64.81l-43.8,25.63a26.56,26.56,0,0,0-1.8-9.22" transform="translate(-1.19 -37.39)"/><path class="cls-27" d="M182.22,90.44c0-9.34-6.54-20.71-14.66-25.4s-14.74-.93-14.76,8.41l0,20.09a11.06,11.06,0,0,0,5,8.68L177,113.41c2.78,1.6,5,.31,5.05-2.88Z" transform="translate(-1.19 -37.39)"/><path class="cls-30" d="M167.54,65.12c8.12,4.69,14.69,16.06,14.66,25.4s-6.63,13.11-14.76,8.42-14.69-16.07-14.66-25.41,6.63-13.1,14.76-8.41" transform="translate(-1.19 -37.39)"/><path class="cls-25" d="M174,98.88a11.45,11.45,0,0,1-5.56-1.74c-7.54-4.35-13.65-14.94-13.63-23.6,0-5.24,2.29-8.36,6.09-8.36a11.45,11.45,0,0,1,5.56,1.74c7.54,4.35,13.65,14.93,13.63,23.59,0,5.24-2.29,8.37-6.09,8.37" transform="translate(-1.19 -37.39)"/><path class="cls-31" d="M174,96.81a9.58,9.58,0,0,1-4.52-1.46c-6.85-4-12.62-13.94-12.59-21.8,0-2.35.53-6.3,4-6.3a9.53,9.53,0,0,1,4.52,1.47c6.85,4,12.62,13.93,12.59,21.79,0,2.35-.53,6.3-4,6.3" transform="translate(-1.19 -37.39)"/><path class="cls-13" d="M162.85,78.9a2.63,2.63,0,0,1-1.17-.67,7.94,7.94,0,0,1-2.18-6.77c.14-.65.52-1.71,1.48-1.5a2.61,2.61,0,0,1,1.16.67,8,8,0,0,1,2.19,6.77c-.14.65-.52,1.71-1.48,1.5" transform="translate(-1.19 -37.39)"/><path class="cls-28" d="M187.46,80.2l2.18-1.27a3.65,3.65,0,0,1,3.66.36l-2.18,1.27a3.65,3.65,0,0,0-3.66-.36" transform="translate(-1.19 -37.39)"/><path class="cls-25" d="M227.09,122.58l2.18-1.27a3.6,3.6,0,0,1-1.5,3.29l-2.18,1.28a3.63,3.63,0,0,0,1.5-3.3" transform="translate(-1.19 -37.39)"/><polygon class="cls-25" points="225.94 69.79 228.12 68.52 228.08 83.92 225.9 85.19 225.94 69.79"/><polygon class="cls-28" points="189.93 43.17 192.11 41.9 223 59.65 220.82 60.91 189.93 43.17"/><path class="cls-28" d="M222,98.31,224.19,97a7,7,0,0,1,1,.68L223,99a7,7,0,0,0-1-.68" transform="translate(-1.19 -37.39)"/><path class="cls-27" d="M223,99l2.18-1.27a12,12,0,0,1,3.77,5.77l-2.18,1.27A12,12,0,0,0,223,99" transform="translate(-1.19 -37.39)"/><path class="cls-25" d="M226.77,104.76l2.18-1.27a8.31,8.31,0,0,1,.36,2.42l-2.18,1.27a8.66,8.66,0,0,0-.36-2.42" transform="translate(-1.19 -37.39)"/><path class="cls-27" d="M222,98.31a11.28,11.28,0,0,1,5.12,8.87l0,15.4c0,3.26-2.32,4.58-5.16,2.94L191,107.77a11.28,11.28,0,0,1-5.12-8.87l0-15.4c0-3.26,2.32-4.58,5.16-2.94Z" transform="translate(-1.19 -37.39)"/><path class="cls-27" d="M211.35,39.41a15.57,15.57,0,0,0-4.08-1.7l-43.8,25.63a15.77,15.77,0,0,1,4.09,1.7,28.92,28.92,0,0,1,9.19,9l43.92-25.43a28.77,28.77,0,0,0-9.32-9.23" transform="translate(-1.19 -37.39)"/><path class="cls-27" d="M176.75,74.07a35.73,35.73,0,0,1,3.67,7.14l43.79-25.62a35.27,35.27,0,0,0-3.54-7Z" transform="translate(-1.19 -37.39)"/><path class="cls-25" d="M201.59,43.3c-1.48.85-1.48,2.23,0,3.08a5.91,5.91,0,0,0,5.34,0l3.11-1.8c1.48-.85,1.48-2.23,0-3.08a5.85,5.85,0,0,0-5.34,0Z" transform="translate(-1.19 -37.39)"/><path class="cls-32" d="M220.12,66.16c0-1.2-.85-1.68-1.89-1.08a4.16,4.16,0,0,0-1.88,3.26c0,1.2.84,1.69,1.88,1.08a4.14,4.14,0,0,0,1.89-3.26" transform="translate(-1.19 -37.39)"/><path class="cls-33" d="M220.12,74.13c0-1.2-.85-1.69-1.89-1.09a4.16,4.16,0,0,0-1.88,3.26c0,1.2.84,1.69,1.88,1.09a4.17,4.17,0,0,0,1.89-3.26" transform="translate(-1.19 -37.39)"/><path class="cls-34" d="M220.12,82.09c0-1.2-.85-1.69-1.89-1.09a4.16,4.16,0,0,0-1.88,3.26c0,1.21.84,1.69,1.88,1.09a4.17,4.17,0,0,0,1.89-3.26" transform="translate(-1.19 -37.39)"/><path class="cls-30" d="M212,73.47a5.54,5.54,0,0,1-2.51,4.35c-1.39.8-2.51.15-2.51-1.45v-3A5.54,5.54,0,0,1,209.47,69c1.39-.81,2.51-.16,2.51,1.45Z" transform="translate(-1.19 -37.39)"/><path class="cls-3" d="M249.75,162.56c-2.82,1.66-2.82,4.37,0,6l28.55,17.24a11.19,11.19,0,0,0,10.26,0l71.47-42c2.82-1.66,2.82-4.37,0-6l-28.6-17.24a11.24,11.24,0,0,0-10.27,0Z" transform="translate(-1.19 -37.39)"/><path class="cls-35" d="M251.43,161.52c-2.73,1.61-2.73,4.24,0,5.85L278,183a10.88,10.88,0,0,0,9.95,0l69.27-40.66c2.73-1.61,2.73-4.24,0-5.84l-26.63-15.64a10.85,10.85,0,0,0-9.95,0Z" transform="translate(-1.19 -37.39)"/><polyline class="cls-35" points="248.19 127.05 248.19 123.09 250.01 124.07 250.62 125.36 249.94 127.05"/><polyline class="cls-35" points="358.07 98.59 358.07 101.97 355.75 104.26 354.72 100.58 354.72 98.97"/><path class="cls-36" d="M251.43,158c-2.73,1.6-2.73,4.24,0,5.84L278,179.47a10.85,10.85,0,0,0,9.95,0l69.27-40.66c2.73-1.6,2.73-4.23,0-5.84l-26.63-15.63a10.85,10.85,0,0,0-9.95,0Z" transform="translate(-1.19 -37.39)"/><path class="cls-13" d="M251.43,158.19c-2.73,1.61-2.73,4.24,0,5.85L278,179.67a10.88,10.88,0,0,0,9.95,0L357.22,139c2.73-1.61,2.73-4.24,0-5.85l-26.63-15.63a10.85,10.85,0,0,0-9.95,0Z" transform="translate(-1.19 -37.39)"/><path class="cls-37" d="M251.43,158c-2.73,1.6-2.73,4.24,0,5.84L278,179.47a10.85,10.85,0,0,0,9.95,0l69.27-40.66c2.73-1.6,2.73-4.23,0-5.84l-26.63-15.63a10.85,10.85,0,0,0-9.95,0Z" transform="translate(-1.19 -37.39)"/><polygon class="cls-38" points="320.12 81.38 259.23 117.09 292.73 136.85 353.55 101.04 320.12 81.38"/><path class="cls-13" d="M265.17,166.22c-.05,1.2,2,2.18,4.53,2.18s4.67-1,4.72-2.18-2-2.18-4.52-2.18S265.23,165,265.17,166.22Z" transform="translate(-1.19 -37.39)"/><path class="cls-39" d="M265.27,166.19c0,1.18,2.07,2.14,4.63,2.14s4.62-1,4.62-2.14S272.45,164,269.9,164,265.27,165,265.27,166.19Z" transform="translate(-1.19 -37.39)"/><path class="cls-36" d="M266.26,166.13c0,.9,1.63,1.63,3.64,1.63s3.63-.73,3.63-1.63-1.63-1.63-3.63-1.63S266.26,165.23,266.26,166.13Z" transform="translate(-1.19 -37.39)"/><path class="cls-13" d="M270,167.64c-2,0-3.64-.73-3.64-1.63a.82.82,0,0,1,.1-.37.83.83,0,0,0-.17.49c0,.9,1.63,1.63,3.64,1.63,1.72,0,3.16-.54,3.53-1.26C273,167.16,271.59,167.64,270,167.64Z" transform="translate(-1.19 -37.39)"/><path class="cls-13" d="M345.35,129.1l0,0h0l-7.55-4.4a.05.05,0,0,1,0,0,1.93,1.93,0,0,0-.86-.18c-.63,0-1.13.23-1.13.52a.31.31,0,0,0,.12.23.17.17,0,0,0,.06.06h0l7.53,4.39,0,0a1.79,1.79,0,0,0,.88.2c.63,0,1.13-.24,1.13-.53A.34.34,0,0,0,345.35,129.1Z" transform="translate(-1.19 -37.39)"/><path class="cls-39" d="M345.46,129l0,0,0,0h0l-7.56-4.4,0,0a1.9,1.9,0,0,0-.86-.18c-.62,0-1.13.23-1.13.52a.35.35,0,0,0,.12.23l.07.06h0l7.54,4.39h0a1.75,1.75,0,0,0,.89.21c.62,0,1.13-.24,1.13-.53A.36.36,0,0,0,345.46,129Z" transform="translate(-1.19 -37.39)"/><polygon class="cls-40" points="257.98 133.61 251.74 129.99 251.74 128.83 257.98 132.45 257.98 133.61"/><path class="cls-40" d="M261,171.35c0,.48-.25.71-.56.52a1.54,1.54,0,0,1-.56-1.22c0-.48.25-.71.56-.52A1.54,1.54,0,0,1,261,171.35Z" transform="translate(-1.19 -37.39)"/><path class="cls-40" d="M277.37,181c0,.48-.25.72-.56.53a1.56,1.56,0,0,1-.56-1.22c0-.48.25-.72.56-.53A1.56,1.56,0,0,1,277.37,181Z" transform="translate(-1.19 -37.39)"/><path class="cls-40" d="M276.08,180.36c0,.48-.25.71-.55.52a1.54,1.54,0,0,1-.56-1.22c0-.48.25-.71.56-.52A1.57,1.57,0,0,1,276.08,180.36Z" transform="translate(-1.19 -37.39)"/><polygon class="cls-41" points="334.51 112.25 300.26 93.03 303.85 90.92 337.8 110.31 334.51 112.25"/><polygon class="cls-41" points="305.67 129.25 278.95 105.31 282.54 103.21 308.97 127.31 305.67 129.25"/><polygon class="cls-41" points="337.8 91.76 269.55 123.18 265.87 121.05 334.51 89.84 337.8 91.76"/><polygon class="cls-41" points="343.3 107.05 286.53 133.19 282.87 131.05 351.51 99.84 353.55 101.04 343.3 107.05"/><path class="cls-42" d="M267.54,158.71,348,134.4l-26.64-15.63-60.89,35.71C260.42,154.78,267.54,158.71,267.54,158.71Z" transform="translate(-1.19 -37.39)"/><circle class="cls-32" cx="317.07" cy="61.42" r="21.52"/><polygon class="cls-32" points="330.95 76.55 303.2 76.55 317.07 100.58 330.95 76.55"/><circle class="cls-13" cx="317.07" cy="61.42" r="11.34"/></g></g></svg>