<svg xmlns="http://www.w3.org/2000/svg" xmlns:xlink="http://www.w3.org/1999/xlink" viewBox="0 0 185.79 126.55"><defs><style>.cls-1{fill:none;}.cls-2{isolation:isolate;}.cls-3{fill:#d29e08;}.cls-4{fill:#fdd875;}.cls-5{fill:#fdc20b;}.cls-6{fill:#3c3c3b;}.cls-7{fill:#403f3e;}.cls-8{fill:#323231;}.cls-9{fill:#222221;}.cls-10{fill:#1e2020;}.cls-11{fill:#333;}.cls-12{fill:#e9494b;}.cls-13{fill:#fff;}.cls-14{fill:#8a1815;opacity:0.7;mix-blend-mode:multiply;}.cls-15{clip-path:url(#clip-path);}.cls-16{opacity:0.4;fill:url(#linear-gradient);}.cls-16,.cls-22{mix-blend-mode:screen;}.cls-17{fill:#1da438;}.cls-18{fill:#606567;}.cls-19{fill:#757a7c;}.cls-20{fill:#a4b0b3;}.cls-21{fill:#8b9194;}.cls-22{opacity:0.3;fill:url(#linear-gradient-2);}.cls-23{fill:#99a1a4;}</style><clipPath id="clip-path" transform="translate(-6.65 -8.15)"><path class="cls-1" d="M98.28,70a5.44,5.44,0,0,1-2.62,4.13C94.22,75,93,74.51,93,73.06a5.43,5.43,0,0,1,2.62-4.13C97.11,68.09,98.28,68.59,98.28,70Z"/></clipPath><linearGradient id="linear-gradient" x1="95.51" y1="68.86" x2="95.95" y2="75.38" gradientUnits="userSpaceOnUse"><stop offset="0" stop-color="#fff"/><stop offset="0.16" stop-color="#c3c3c3"/><stop offset="0.32" stop-color="#888"/><stop offset="0.49" stop-color="#585858"/><stop offset="0.64" stop-color="#323232"/><stop offset="0.78" stop-color="#171717"/><stop offset="0.9" stop-color="#070707"/><stop offset="1" stop-color="#010101"/></linearGradient><linearGradient id="linear-gradient-2" x1="97.75" y1="18.08" x2="74.96" y2="73.16" gradientUnits="userSpaceOnUse"><stop offset="0" stop-color="#bae1eb"/><stop offset="0.06" stop-color="#9dbec6"/><stop offset="0.14" stop-color="#799298"/><stop offset="0.24" stop-color="#586b70"/><stop offset="0.33" stop-color="#3d4a4d"/><stop offset="0.43" stop-color="#272f31"/><stop offset="0.54" stop-color="#161b1c"/><stop offset="0.66" stop-color="#0a0c0d"/><stop offset="0.8" stop-color="#030404"/><stop offset="1" stop-color="#010101"/></linearGradient></defs><title>G14_06_05</title><g class="cls-2"><g id="Livello_1" data-name="Livello 1"><polygon class="cls-3" points="185.79 69.03 185.79 73.78 96.32 126.55 96.32 121.8 185.79 69.03"/><polygon class="cls-4" points="96.32 121.8 96.32 126.55 0.22 70.82 0.22 66.07 96.32 121.8"/><polygon class="cls-5" points="96.1 121.82 0 66.09 0 65.82 90.31 13.91 185.79 69.04 96.25 121.91 96.1 121.82"/></g><g id="Livello_3" data-name="Livello 3"><rect class="cls-6" x="129.84" y="54.32" width="9.81" height="5.81" rx="2" ry="2" transform="translate(-15.84 75.83) rotate(-33.54)"/><g class="cls-2"><g class="cls-2"><path class="cls-7" d="M82.8,82.79l24.72-14.36a.7.7,0,0,1-.3.65L82.51,83.45a.73.73,0,0,0,.29-.66Z" transform="translate(-6.65 -8.15)"/></g><path class="cls-7" d="M102.62,16.86a3,3,0,0,0-3-.3L74.86,30.93a3,3,0,0,1,3,.3l3,1.72,24.72-14.36Z" transform="translate(-6.65 -8.15)"/><polygon class="cls-8" points="74.24 24.8 98.96 10.44 98.94 60.34 74.22 74.7 74.24 24.8"/><path class="cls-9" d="M77.9,31.23c-2.59-1.5-4.6,0-4.25,3.14,1.27,11.58,5,44.56,5.2,46.3a2.3,2.3,0,0,0,1,1.6l1,.58V33Z" transform="translate(-6.65 -8.15)"/><polygon class="cls-7" points="76.16 27.41 100.88 13.04 100.87 60.28 76.15 74.64 76.16 27.41"/><polygon class="cls-10" points="77.63 28.25 99.4 15.61 99.39 53.2 77.62 65.85 77.63 28.25"/><path class="cls-7" d="M107.3,20.22a3.16,3.16,0,0,0-.5-.8,2.1,2.1,0,0,0-.57-.47l-.62-.36L80.89,33l.63.36a2.27,2.27,0,0,1,.56.48,3,3,0,0,1,.51.79,2.49,2.49,0,0,1,.22,1l24.72-14.37A2.33,2.33,0,0,0,107.3,20.22Z" transform="translate(-6.65 -8.15)"/><path class="cls-11" d="M81.52,33.31a2.87,2.87,0,0,1,1.29,2.25V82.79c0,.65-.46.91-1,.59l-.9-.53V33Z" transform="translate(-6.65 -8.15)"/></g><path class="cls-12" d="M92.94,46v-.34L94,45.05V41.82l-1,1.2-.19-.18,1.27-1.6.24-.14v3.74l1.06-.61v.34Z" transform="translate(-6.65 -8.15)"/><path class="cls-12" d="M97.6,43.31V42.24l-1.74,1V43l1.75-3.73.35-.21v2.64l.67-.39v.34L98,42V43.1Zm-1.28-.67.45-.26.83-.48v-2Z" transform="translate(-6.65 -8.15)"/><path class="cls-12" d="M99.6,42.15l-.47.27V42l.47-.27Z" transform="translate(-6.65 -8.15)"/><path class="cls-12" d="M100.56,40.3c0,.71.34.83.9.51l.05,0a1.75,1.75,0,0,0,.9-1.46v-.09c0-.65-.44-.68-.91-.4l0,0a2.09,2.09,0,0,0-.92,1.08l-.31.09.09-2.33,2.41-1.39v.34l-2,1.18-.07,1.48a2.75,2.75,0,0,1,.89-.8c.73-.43,1.28-.3,1.28.53v.06a2.44,2.44,0,0,1-1.29,2c-.89.51-1.3.25-1.3-.55v-.06Z" transform="translate(-6.65 -8.15)"/><path class="cls-13" d="M97.24,49.47a4.1,4.1,0,0,0,1.54-1.6,4.64,4.64,0,0,0,.41-1.12,2.64,2.64,0,0,1-.92.9c-.69.4-1.21.28-1.21-.57v0a2.39,2.39,0,0,1,1.29-2c.75-.43,1.29-.23,1.29.68v.06a4.63,4.63,0,0,1-.57,2.18,4.8,4.8,0,0,1-1.83,1.88Zm2-3.29a2.18,2.18,0,0,0,0-.25v0c0-.67-.4-.84-.9-.55h0a1.72,1.72,0,0,0-.9,1.46v.09c0,.59.35.71.88.41l0,0A2.35,2.35,0,0,0,99.26,46.18Z" transform="translate(-6.65 -8.15)"/><path class="cls-13" d="M100.56,46.53c0,.71.34.83.9.51l.05,0a1.75,1.75,0,0,0,.9-1.45v-.1c0-.65-.44-.68-.91-.4l0,0a2.16,2.16,0,0,0-.91,1.08l-.32.09.1-2.33,2.41-1.39v.34l-2,1.18-.07,1.48a2.75,2.75,0,0,1,.89-.8c.73-.42,1.28-.3,1.28.53v.07a2.45,2.45,0,0,1-1.29,2c-.89.5-1.3.24-1.3-.56v0Z" transform="translate(-6.65 -8.15)"/><path class="cls-13" d="M97.11,52l2.56-1.48v.23l-1.55,4.72-.4.23,1.51-4.59-.57.33-1.21.7v1.11l-.34.2Z" transform="translate(-6.65 -8.15)"/><path class="cls-13" d="M101.83,53.33V52.25l-1.73,1V53l1.74-3.74.36-.2V51.7l.67-.38v.34l-.67.38v1.08Zm-1.27-.67.44-.26.83-.48v-2Z" transform="translate(-6.65 -8.15)"/><path class="cls-13" d="M96.32,61.44c0,.71.34.83.9.51l0,0a1.73,1.73,0,0,0,.9-1.45v-.1c0-.65-.43-.67-.91-.4l0,0a2.11,2.11,0,0,0-.92,1.09l-.31.08.1-2.33,2.4-1.39v.34l-2,1.18-.06,1.48a2.73,2.73,0,0,1,.88-.8c.73-.42,1.28-.3,1.28.54v.06a2.45,2.45,0,0,1-1.29,2c-.88.51-1.29.24-1.29-.56v-.05Z" transform="translate(-6.65 -8.15)"/><path class="cls-13" d="M99.6,60.85l-.47.27v-.47l.47-.27Z" transform="translate(-6.65 -8.15)"/><path class="cls-13" d="M101.46,59.5l.05,0a1.67,1.67,0,0,0,.9-1.3V58.1c0-.52-.37-.56-.85-.28l-.59.34v-.33l.57-.33a1.49,1.49,0,0,0,.84-1.21v0c0-.47-.35-.58-.87-.28l-.05,0a1.64,1.64,0,0,0-.87,1.58l-.37.21v-.12a2.22,2.22,0,0,1,1.27-2c.82-.48,1.26-.29,1.26.33v.08a1.75,1.75,0,0,1-.63,1.26c.39-.08.66.07.66.56V58a2.41,2.41,0,0,1-1.29,1.84c-.89.51-1.3.25-1.3-.55v-.06l.37-.21C100.56,59.7,100.9,59.83,101.46,59.5Z" transform="translate(-6.65 -8.15)"/><path class="cls-14" d="M98.28,70a5.44,5.44,0,0,1-2.62,4.13C94.22,75,93,74.51,93,73.06a5.43,5.43,0,0,1,2.62-4.13C97.11,68.09,98.28,68.59,98.28,70Z" transform="translate(-6.65 -8.15)"/><g class="cls-15"><path class="cls-7" d="M97.89,69.68a5.14,5.14,0,0,1-2.48,3.91c-1.37.79-2.47.32-2.47-1a5.12,5.12,0,0,1,2.47-3.9C96.78,67.85,97.89,68.32,97.89,69.68Z" transform="translate(-6.65 -8.15)"/><path class="cls-16" d="M95.64,68.76a4,4,0,0,0-2.13,3.07c0,1.07.95,1.44,2.13.82a4,4,0,0,0,2.13-3.07C97.77,68.5,96.81,68.14,95.64,68.76Z" transform="translate(-6.65 -8.15)"/></g><path class="cls-17" d="M88.65,39.84l-1.89,1.1c-.52.3-.94.12-.94-.4v-2A1.94,1.94,0,0,1,86.76,37l1.89-1.1c.52-.3.95-.12.95.4v2A2,2,0,0,1,88.65,39.84Zm5.93-4.36v-2c0-.52-.43-.7-1-.4l-1.89,1.09a2,2,0,0,0-.94,1.49v2c0,.52.42.7.94.4L93.63,37A2,2,0,0,0,94.58,35.48Zm5-2.88v-2c0-.52-.43-.7-1-.39l-1.89,1.09a2,2,0,0,0-1,1.49v2c0,.52.43.7,1,.4l1.89-1.1A2,2,0,0,0,99.56,32.6Zm5-2.87v-2c0-.52-.42-.7-.94-.4l-1.89,1.09a2,2,0,0,0-1,1.49v2c0,.52.43.7,1,.4l1.89-1.09A2,2,0,0,0,104.53,29.73Z" transform="translate(-6.65 -8.15)"/><g class="cls-2"><polygon class="cls-18" points="83.14 18.56 81.06 17.35 81.03 15.84 83.11 17.04 83.14 18.56"/><polygon class="cls-19" points="83.11 17.04 81.03 15.84 82.16 12.47 84.24 13.68 83.11 17.04"/><polygon class="cls-20" points="84.24 13.68 82.16 12.47 84.91 10.89 86.98 12.1 84.24 13.68"/><polygon class="cls-21" points="86.98 12.1 88.13 14.15 88.15 15.66 83.14 18.56 83.11 17.04 84.24 13.68 86.98 12.1"/></g><polygon class="cls-22" points="77.62 65.85 98.42 53.77 98.42 17.31 77.63 29.39 77.62 65.85"/><path class="cls-23" d="M76.94,94.18a7.22,7.22,0,0,1-4.69-1.57,9.29,9.29,0,0,1-3.47-7C68,71.12,92.31,46.4,101.47,37.1l2-2c5.18-5.39,6.85-13.76,3.8-19.06A13,13,0,0,0,95.49,9.27c-3.66.2-4.6,3.3-4.6,5.3a25.69,25.69,0,0,0,.71,5.57.54.54,0,0,1-.52.57.9.9,0,0,1-.56-.27,24.72,24.72,0,0,1-.73-5.83c0-1.72,1-6.18,5.64-6.44a14.16,14.16,0,0,1,12.77,7.3c3.33,5.79,1.63,14.55-4,20.37l-2,2c-8.2,8.33-33.14,33.67-32.37,47.69A8.12,8.12,0,0,0,73,91.75c5,4.1,14.25-2.19,20.35-6.36,2.55-1.74,37.55-26.11,38.85-26.51a.55.55,0,0,1,.33,1c-1.14.36-36.19,24.75-38.55,26.37C89.09,89.6,82.38,94.18,76.94,94.18Z" transform="translate(-6.65 -8.15)"/></g></g></svg>