<svg xmlns="http://www.w3.org/2000/svg" viewBox="0 0 185.79 170.09"><defs><style>.cls-1{isolation:isolate;}.cls-2{fill:#d19d08;}.cls-3{fill:#fcd875;}.cls-4{fill:#fcc108;}.cls-5{fill:#5b5b5a;}.cls-6{fill:#f5bac5;}.cls-7{fill:#303b45;}.cls-8{fill:#4c4371;}.cls-9{fill:#35342f;}.cls-10{fill:#eaeaea;}.cls-11,.cls-12,.cls-13,.cls-32{fill:none;stroke-miterlimit:10;}.cls-11{stroke:#fbc01f;}.cls-11,.cls-12,.cls-13{stroke-width:1.12px;}.cls-12{stroke:#4194ce;}.cls-13{stroke:#fff;}.cls-14{fill:#ebebeb;}.cls-15{fill:#3c3c3b;}.cls-16{fill:#575756;}.cls-17{fill:#878787;}.cls-18{fill:#9d9d9c;}.cls-19{fill:#7b6a58;}.cls-20{fill:#262626;}.cls-21{fill:#004d61;}.cls-22{fill:#dadada;}.cls-23{fill:#006a85;}.cls-24{fill:#1d1d1b;opacity:0.2;}.cls-25{fill:#b17f4a;}.cls-26{fill:#44373c;}.cls-27{fill:#7d4e24;}.cls-28{fill:#a16958;}.cls-29{fill:#d49763;}.cls-30{fill:#fff;}.cls-31{fill:#ededed;}.cls-32{stroke:#35342f;}.cls-33{fill:#a9b2bd;}.cls-34{fill:#3b2c7c;}.cls-35{fill:#a4d9f1;}.cls-36{fill:#6786a0;}.cls-37{fill:#ddd4bc;}.cls-38{fill:#fff7e6;}.cls-39{fill:#394169;}.cls-40{fill:#ef8ab7;mix-blend-mode:multiply;}</style></defs><title>G14_07_03</title><g class="cls-1"><g id="Layer_6" data-name="Layer 6"><polygon class="cls-2" points="185.79 112.57 185.79 117.32 96.32 170.09 96.32 165.35 185.79 112.57"/><polygon class="cls-3" points="96.32 165.35 96.32 170.09 0.22 114.36 0.22 109.61 96.32 165.35"/><polygon class="cls-4" points="96.1 165.36 0 109.63 0 109.36 90.31 57.46 185.79 112.59 96.25 165.45 96.1 165.36"/><path class="cls-5" d="M98.7,59.42S97.91,71.61,98,79.2c.1,7,4.41,20.75,4.41,20.75l1,.12-.08,5a2.75,2.75,0,0,0,2.33,1.16c.53,0,1.25-5.7,1.25-5.7l.87,0-2.18-19s0-12.07,1.18-11.84c.26.06-.59.15.37,0,3.31-.63,8-3.53,7.86-7C114.8,58.25,111.3,58,111.3,58s-6.06-.47-6.76-.23S98.7,59.42,98.7,59.42Z" transform="translate(-27.71 -24.48)"/><path class="cls-5" d="M106.47,64.32s1.19,17.4,2.82,20.43c1.1,2,3.86,15.83,3.86,15.83H114l.37,2.46s3.69,1.87,3,0a19.13,19.13,0,0,1-.16-3l1.11-.66-2.45-18.76L115,62.56l-5.14-6.3Z" transform="translate(-27.71 -24.48)"/><path class="cls-5" d="M94.94,36.94s1.4-2.56,3.5-2.56,15.83,3,16.76,4,7.54,13.47,7.54,17.67-1.4,18.67-1.4,18.67-2.57.46-3.27-.7-1.4-15.64-1.4-15.64-3.73-13.53-3.73-12.83S94.94,36.94,94.94,36.94Z" transform="translate(-27.71 -24.48)"/><path class="cls-5" d="M98.94,36.9l13.69,3.8,1.94,3.43s1.17,16.33.47,18.43-8.4,3-11.2,2.57S98.7,59.3,98.7,59.3L97.27,36Z" transform="translate(-27.71 -24.48)"/><path class="cls-5" d="M94.94,36.94s-3.88,7-4.11,11.93.87,15.56.87,15.56a3,3,0,0,0,2.8.23c1.4-.7.94-13.76,1.64-15.4l5.13-11.9S99.6,34.14,94.94,36.94Z" transform="translate(-27.71 -24.48)"/><circle class="cls-6" cx="102.5" cy="29.95" r="5.47" transform="translate(-18.86 56.78) rotate(-45)"/><path class="cls-6" d="M100.69,31.63l1.87,5.63h0a3.5,3.5,0,0,0,3.92.41l.59-.32-1.55-6.12Z" transform="translate(-27.71 -24.48)"/><path class="cls-7" d="M105.21,100.47c-.71-.11-.94-.22-1.75-.37-.08,2.85-.08,5-.08,5,.19,1.91.79,1.74,2.37,1.25.51-.16.72-2.52,1.21-5.79A11.24,11.24,0,0,1,105.21,100.47Z" transform="translate(-27.71 -24.48)"/><path class="cls-7" d="M106.9,108.83c.08-1-.69-2-.61-3a.89.89,0,0,0-.05-.46,1.08,1.08,0,0,1-.75.25,8.08,8.08,0,0,1-2.14-.17c0,1.09-1.67,2.79-2.41,3.58a10.45,10.45,0,0,0-2,2.52.66.66,0,0,0-.06.56.67.67,0,0,0,.64.27,6.4,6.4,0,0,0,3.06-.82A47.58,47.58,0,0,0,106.9,108.83Z" transform="translate(-27.71 -24.48)"/><path class="cls-6" d="M108.62,30.17c0,1.17-.5,2.12-1.11,2.12s-1.12-.95-1.12-2.12.5-2.12,1.12-2.12S108.62,29,108.62,30.17Z" transform="translate(-27.71 -24.48)"/><path class="cls-8" d="M102.5,24.48A5.48,5.48,0,0,0,97.41,28a7.91,7.91,0,0,0,3.5.78c.43,0,4.34-.54,4.17-1.22a9.73,9.73,0,0,0,1,2.42,1.85,1.85,0,0,1,1.47-1.76l.14,0A5.47,5.47,0,0,0,102.5,24.48Z" transform="translate(-27.71 -24.48)"/><circle class="cls-6" cx="91.62" cy="50.33" r="1.99"/><circle class="cls-6" cx="65.6" cy="41.33" r="1.99"/><polygon class="cls-5" points="76.04 12.62 76.85 14.58 79.5 14.95 80.92 12.27 79.14 10.33 78.74 10.22 78.84 10.74 76.04 12.62"/><polygon class="cls-9" points="75.7 15.23 76.98 14.84 76.04 12.62 75.7 15.23"/><polygon class="cls-5" points="75.89 13.71 73.24 13.39 73.24 10.72 74.26 11.08 75.89 13.71"/><circle class="cls-10" cx="77.53" cy="13.19" r="0.73"/><line class="cls-11" x1="74.05" y1="18.8" x2="71.56" y2="18.33"/><line class="cls-12" x1="74.05" y1="18.8" x2="73.23" y2="18.65"/><line class="cls-13" x1="72.38" y1="18.49" x2="71.56" y2="18.33"/><path class="cls-14" d="M98.55,56.79l.2,2.51s8.06,4.27,13.16,2.76c3-.87,3.35-2,3.35-2.19,0-.53.08-2.57,0-2.84a9.16,9.16,0,0,1-4.93,2.13C106.61,59.67,98.55,56.79,98.55,56.79Z" transform="translate(-27.71 -24.48)"/><path class="cls-14" d="M101.62,58.48l-.87-.25s2-15.42,6.76-19.69c.57-.51,2.74-1.81,3.48-1.61a8.27,8.27,0,0,1,1.88.55,8,8,0,0,0-4.72,2.57C105.13,43.26,101.62,58.48,101.62,58.48Z" transform="translate(-27.71 -24.48)"/><path class="cls-7" d="M115.82,100.2c-.56,0-1.25.54-1.89.51.47,2.81.87,4.93.87,4.93.5,1.85,1.43,1,2.53.27.35-.23.07-2.57-.17-5.86A6.37,6.37,0,0,1,115.82,100.2Z" transform="translate(-27.71 -24.48)"/><path class="cls-7" d="M113.76,110.13c-.42.78,1.13,2.6,1.95,2.92a1.86,1.86,0,0,0,1.08-.26,7,7,0,0,0,2.28-2c.27-.48.11-.92,0-1.47a18.52,18.52,0,0,0-1.15-2.78,18.67,18.67,0,0,1-.62-2.81h-2.87S115,107.85,113.76,110.13Z" transform="translate(-27.71 -24.48)"/><ellipse class="cls-2" cx="92.53" cy="109.97" rx="62.69" ry="32.6"/><path class="cls-15" d="M139.7,108.11a.9.9,0,1,1-.9-.9A.9.9,0,0,1,139.7,108.11Z" transform="translate(-27.71 -24.48)"/><circle class="cls-15" cx="108.97" cy="92.75" r="0.9"/><path class="cls-15" d="M152.09,121.42a.9.9,0,1,1-.9-.91A.9.9,0,0,1,152.09,121.42Z" transform="translate(-27.71 -24.48)"/><path class="cls-15" d="M163,115a.9.9,0,1,1-.9-.9A.9.9,0,0,1,163,115Z" transform="translate(-27.71 -24.48)"/><path class="cls-15" d="M156.29,106.18a.9.9,0,1,1-.9-.9A.9.9,0,0,1,156.29,106.18Z" transform="translate(-27.71 -24.48)"/><polygon class="cls-16" points="128.65 81 128.65 79.76 126.98 80.51 120.7 86.36 111.6 81.92 110.28 81.44 110.28 82.68 117.97 87.94 107.84 90.32 107.84 91.56 108.69 92.52 119.72 89.92 122.56 96.6 124.41 96.43 124.41 95.19 123.54 89.58 135.42 90.08 135.71 89.01 135.71 87.77 124.14 87.37 128.65 81"/><polygon class="cls-17" points="128.65 79.76 126.98 79.27 120.7 85.12 111.6 80.68 110.28 81.44 117.97 86.69 107.84 90.32 108.69 91.28 119.72 88.68 122.56 95.36 124.41 95.19 123.54 88.33 135.42 88.84 135.71 87.77 124.14 86.13 128.65 79.76"/><path class="cls-16" d="M150.14,110.74a.75.75,0,0,1,0,1.42,2.73,2.73,0,0,1-2.46,0,.75.75,0,0,1,0-1.42A2.73,2.73,0,0,1,150.14,110.74Z" transform="translate(-27.71 -24.48)"/><rect class="cls-16" x="119.46" y="75.77" width="3.48" height="11.2"/><path class="cls-18" d="M148.78,89.72l-13.76,8c-.64.36-1.15.07-1.15-.67v0a5.87,5.87,0,0,1,2.65-4.6l12.26-7.07c.63-.37,1.15-.07,1.15.66v1.78A2.53,2.53,0,0,1,148.78,89.72Z" transform="translate(-27.71 -24.48)"/><path class="cls-19" d="M146.3,85.41,150,61.71A2,2,0,0,1,151,60.22l1.77-.71c.53-.21.88.17.78.84l-3.51,23.3a2.1,2.1,0,0,1-.93,1.43l-1.91,1.1C146.64,86.52,146.19,86.15,146.3,85.41Z" transform="translate(-27.71 -24.48)"/><polygon class="cls-18" points="119 80.49 106.39 73.19 121.83 60.71 134.49 68.03 119 80.49"/><polygon class="cls-16" points="138.06 42.25 125.64 35.06 118.85 61.76 131.34 68.98 138.06 42.25"/><path class="cls-20" d="M161.32,97l-13.76,7.94c-.63.37-1.15.07-1.15-.66v-.05a5.84,5.84,0,0,1,2.66-4.59l12.25-7.08c.64-.37,1.15-.07,1.15.66V95A2.54,2.54,0,0,1,161.32,97Z" transform="translate(-27.71 -24.48)"/><path class="cls-20" d="M158.85,92.66,162.5,69a2.06,2.06,0,0,1,1.08-1.49l1.76-.7c.53-.22.89.16.79.83l-3.51,23.3a2.11,2.11,0,0,1-.93,1.43l-1.91,1.1C159.19,93.77,158.74,93.41,158.85,92.66Z" transform="translate(-27.71 -24.48)"/><path class="cls-21" d="M137.21,124.64v.19h0a1.14,1.14,0,0,0,.55.74,3.26,3.26,0,0,0,2.95.11l4.7-2.48a1,1,0,0,0,.62-.89h0a5,5,0,0,0-.13-.9,6.1,6.1,0,0,0-.48-1.53h0c-.11-.25-.23-.48-.35-.7h0l-.46-.71-3.4.2a1.58,1.58,0,0,0-.42.81h0c0,.15-.07.3-.1.44a1.47,1.47,0,0,1-.53.95,7.19,7.19,0,0,0-2.88,3.21A1.73,1.73,0,0,0,137.21,124.64Zm1.39-1.7,1.84-1.64a2.23,2.23,0,0,0,.8-1.08l.32.14a2.64,2.64,0,0,1-.89,1.19l-1.85,1.64a.16.16,0,0,1-.11,0,.18.18,0,0,1-.13-.06A.17.17,0,0,1,138.6,122.94Z" transform="translate(-27.71 -24.48)"/><path class="cls-22" d="M137.12,124.85c0,.11,0,0,0,0a1.17,1.17,0,0,0,.57.76,3.31,3.31,0,0,0,3,.11l4.79-2.53c.74-.41.66-.92.66-.92a2.43,2.43,0,0,0-.24-1c.15.4-1.5,1-2.2,1.62a12.25,12.25,0,0,1-3.33,2,4.59,4.59,0,0,1-1.41.37,1.84,1.84,0,0,1-1.35-.45.94.94,0,0,1-.29-.87A1.32,1.32,0,0,0,137.12,124.85Z" transform="translate(-27.71 -24.48)"/><path class="cls-22" d="M138.58,123.18a.18.18,0,0,0,.13.06.16.16,0,0,0,.11,0l1.85-1.64a2.64,2.64,0,0,0,.89-1.19l-.32-.14a2.23,2.23,0,0,1-.8,1.08l-1.84,1.64A.17.17,0,0,0,138.58,123.18Z" transform="translate(-27.71 -24.48)"/><path class="cls-22" d="M141.53,121.37a.17.17,0,0,0,.09-.32l-.84-.5a.17.17,0,1,0-.17.29l.84.5A.11.11,0,0,0,141.53,121.37Z" transform="translate(-27.71 -24.48)"/><path class="cls-22" d="M141,121.93a.17.17,0,0,0,.1-.32l-.89-.56a.16.16,0,0,0-.23,0,.18.18,0,0,0,.05.24l.88.56A.16.16,0,0,0,141,121.93Z" transform="translate(-27.71 -24.48)"/><path class="cls-22" d="M140.45,122.46a.17.17,0,0,0,.09-.32l-.92-.53a.17.17,0,0,0-.23.06.16.16,0,0,0,.06.23l.92.54Z" transform="translate(-27.71 -24.48)"/><path class="cls-22" d="M139.81,123A.15.15,0,0,0,140,123a.16.16,0,0,0,0-.24l-.86-.58a.19.19,0,0,0-.24,0,.18.18,0,0,0,.05.24l.86.58A.16.16,0,0,0,139.81,123Z" transform="translate(-27.71 -24.48)"/><path class="cls-23" d="M138.1,101.08l4.11,2.5,3.2-1.86,11.74-6.84a3.26,3.26,0,0,0,1.62-2.61l.41-5.88c-3.86,2-8.52,3.88-12.46,5.87a30.84,30.84,0,0,0-5.43,3.31C139.29,97.18,138,99,138.1,101.08Z" transform="translate(-27.71 -24.48)"/><path class="cls-23" d="M145.84,119.06c0-5.3-.19-17.11-.52-17.71a5.74,5.74,0,0,0-1.64-1.89,4.34,4.34,0,0,0-3-.93,3.2,3.2,0,0,0-2.55,2.55c-.22,1.29,1.84,17.27,2.07,18s2.09.16,2.83.38Z" transform="translate(-27.71 -24.48)"/><path class="cls-23" d="M140.18,119.12a1.43,1.43,0,0,0,.54.78l.22.16a2.19,2.19,0,0,0,.3.16l.32.14a4.48,4.48,0,0,0,3.4-.15,1.84,1.84,0,0,0,.49-.34,1.13,1.13,0,0,0,.39-.81h0a1.44,1.44,0,0,0-.79-1.16,4.45,4.45,0,0,0-4-.15C140.35,118.1,140.06,118.61,140.18,119.12Z" transform="translate(-27.71 -24.48)"/><path class="cls-21" d="M129.47,120.2v.19h0a1.12,1.12,0,0,0,.56.74,3.21,3.21,0,0,0,2.94.1l4.7-2.47a1,1,0,0,0,.62-.89h0a5,5,0,0,0-.13-.9,6.1,6.1,0,0,0-.48-1.53h0c-.11-.25-.23-.48-.35-.7h0l-.46-.71-3.4.2a1.58,1.58,0,0,0-.42.81h0c0,.15-.07.3-.1.44a1.47,1.47,0,0,1-.53,1,7.14,7.14,0,0,0-2.88,3.21A1.69,1.69,0,0,0,129.47,120.2Zm1.39-1.7,1.84-1.64a2.23,2.23,0,0,0,.8-1.08,2.15,2.15,0,0,0,.32.13,2.62,2.62,0,0,1-.89,1.2l-1.85,1.64a.16.16,0,0,1-.11,0,.18.18,0,0,1-.13-.06A.17.17,0,0,1,130.86,118.5Z" transform="translate(-27.71 -24.48)"/><path class="cls-22" d="M129.39,120.41h0a1.23,1.23,0,0,0,.57.76,3.34,3.34,0,0,0,3,.1l4.79-2.52c.74-.41.66-.92.66-.92a2.43,2.43,0,0,0-.24-1c.16.4-1.5,1-2.2,1.62a12.25,12.25,0,0,1-3.33,2,4.31,4.31,0,0,1-1.41.36,1.76,1.76,0,0,1-1.35-.45.91.91,0,0,1-.29-.86A1.27,1.27,0,0,0,129.39,120.41Z" transform="translate(-27.71 -24.48)"/><path class="cls-22" d="M130.84,118.74a.18.18,0,0,0,.13.06.16.16,0,0,0,.11,0l1.85-1.64a2.62,2.62,0,0,0,.89-1.2,2.15,2.15,0,0,1-.32-.13,2.23,2.23,0,0,1-.8,1.08l-1.84,1.64A.17.17,0,0,0,130.84,118.74Z" transform="translate(-27.71 -24.48)"/><path class="cls-22" d="M133.79,116.92a.18.18,0,0,0,.15-.08.17.17,0,0,0-.06-.23l-.84-.5a.17.17,0,1,0-.17.29l.84.5A.11.11,0,0,0,133.79,116.92Z" transform="translate(-27.71 -24.48)"/><path class="cls-22" d="M133.3,117.49a.17.17,0,0,0,.14-.08.18.18,0,0,0-.05-.24l-.89-.56a.17.17,0,0,0-.23,0,.18.18,0,0,0,0,.24l.88.56A.17.17,0,0,0,133.3,117.49Z" transform="translate(-27.71 -24.48)"/><path class="cls-22" d="M132.71,118a.17.17,0,0,0,.09-.32l-.92-.53a.17.17,0,0,0-.23.06.16.16,0,0,0,.06.23l.92.53A.11.11,0,0,0,132.71,118Z" transform="translate(-27.71 -24.48)"/><path class="cls-22" d="M132.07,118.6a.15.15,0,0,0,.14-.07.16.16,0,0,0,0-.24l-.86-.58a.17.17,0,0,0-.24,0,.18.18,0,0,0,.05.24l.86.58A.16.16,0,0,0,132.07,118.6Z" transform="translate(-27.71 -24.48)"/><path class="cls-23" d="M130.37,96.63l4.11,2.52,15.26-8c.94-.55,1.22-2.2,1.3-3.29l-.39-5C142,87.46,129.87,90.65,130.37,96.63Z" transform="translate(-27.71 -24.48)"/><path class="cls-23" d="M138.1,114.61c0-5.29-.19-17.11-.51-17.7A5.89,5.89,0,0,0,135.94,95a4.26,4.26,0,0,0-3-.93,3.17,3.17,0,0,0-2.54,2.54c-.23,1.29,1.83,17.41,2.07,18.15s2.08,0,2.82.25Z" transform="translate(-27.71 -24.48)"/><path class="cls-23" d="M133.28,113.35a1.23,1.23,0,0,0-.09,2.33,4.45,4.45,0,0,0,4,.15,1.22,1.22,0,0,0,.09-2.32A4.45,4.45,0,0,0,133.28,113.35Z" transform="translate(-27.71 -24.48)"/><path class="cls-24" d="M141.29,95.57a30.84,30.84,0,0,1,5.43-3.31,3.26,3.26,0,0,1-2.11-2.85,5.52,5.52,0,0,1-.35,2.93C143.71,93.65,141.73,94.24,141.29,95.57Z" transform="translate(-27.71 -24.48)"/><path class="cls-15" d="M142.3,75.65a2.86,2.86,0,0,0,1.83,3.6h0a2.85,2.85,0,0,0,3.59-1.82l3.37-9.73a2.85,2.85,0,0,0-1.82-3.59h0a2.85,2.85,0,0,0-3.6,1.82Z" transform="translate(-27.71 -24.48)"/><path class="cls-15" d="M142.75,85.88c1.83,2.85,5.27,6.7,9.58,8.17a34.73,34.73,0,0,0,3.67,1c2.28.48,3.88.47,3.88-.23l.64-13.21.52-10.8c-1.18-2.08-3-3.36-6-5-8.16-4.36-8.63-.76-9.58,3.44a139.36,139.36,0,0,1-2.14,14.38C142.62,86.61,142.45,85.41,142.75,85.88Z" transform="translate(-27.71 -24.48)"/><polygon class="cls-25" points="72.16 92.22 127.78 124 147.91 112.2 85.07 84.61 72.16 92.22"/><polygon class="cls-26" points="127.78 89.45 127.78 124 147.91 112.2 147.92 77.65 127.78 89.45"/><polygon class="cls-27" points="72.16 57.67 72.16 92.22 85.07 84.61 92.29 45.88 72.16 57.67"/><polygon class="cls-28" points="68.03 56.95 68.03 59.08 109.46 82.74 124.45 91.31 129.54 94.22 151.04 81.62 89.53 46.48 68.03 56.95"/><polygon class="cls-29" points="68.03 56.94 72.16 59.3 85.07 66.68 127.78 91.07 129.54 92.08 147.92 81.32 149.21 80.57 151.05 79.48 147.92 77.7 147.89 77.67 132.26 68.75 114.09 58.37 92.3 45.92 92.26 45.9 89.53 44.34 68.03 56.94"/><polygon class="cls-28" points="129.54 94.22 151.04 81.61 151.04 79.48 129.54 92.08 129.54 94.22"/><polygon class="cls-29" points="72.16 92.22 127.78 124 127.78 93.18 72.16 61.41 72.16 92.22"/><path class="cls-15" d="M136.86,82.79l9.7-3.72a2.86,2.86,0,0,0,1.24-3.84,3.12,3.12,0,0,0-.69-.87,4.15,4.15,0,0,0-.43-.3l-.25-.13A2.86,2.86,0,0,0,144,74l-8.83,5.68Z" transform="translate(-27.71 -24.48)"/><path class="cls-30" d="M152.89,64.92a4,4,0,0,1,2.7,1c.71.67,1.38,1.59.91,2.45a5.56,5.56,0,0,1-1.87,1.48l-2.78,1.58-.75-3-2.34,1.44a11.69,11.69,0,0,1,.43-2.36,3.76,3.76,0,0,1,1.36-1.94A4,4,0,0,1,152.89,64.92Z" transform="translate(-27.71 -24.48)"/><path class="cls-31" d="M150.13,61.35c0-.42.3-.59.66-.38a1.44,1.44,0,0,1,.66,1.14c0,.42-.29.59-.66.38A1.47,1.47,0,0,1,150.13,61.35Z" transform="translate(-27.71 -24.48)"/><polygon class="cls-31" points="122.62 36.45 123.55 38.06 119.63 40.23 118.7 38.62 122.62 36.45"/><path class="cls-22" d="M146.21,63.52c0-.42.3-.59.66-.38a1.47,1.47,0,0,1,.66,1.14c0,.42-.3.59-.66.38A1.47,1.47,0,0,1,146.21,63.52Z" transform="translate(-27.71 -24.48)"/><path class="cls-31" d="M150.53,60.19c0-.42.29-.59.66-.38a1.46,1.46,0,0,1,.65,1.14c0,.42-.29.59-.65.38A1.44,1.44,0,0,1,150.53,60.19Z" transform="translate(-27.71 -24.48)"/><polygon class="cls-31" points="123.01 35.29 123.94 36.9 120.02 39.06 119.09 37.45 123.01 35.29"/><path class="cls-22" d="M146.61,62.36c0-.42.29-.59.66-.38a1.45,1.45,0,0,1,.65,1.13c0,.42-.29.59-.65.38A1.44,1.44,0,0,1,146.61,62.36Z" transform="translate(-27.71 -24.48)"/><path class="cls-31" d="M150.9,59c0-.42.29-.59.65-.38a1.44,1.44,0,0,1,.66,1.13c0,.42-.29.59-.66.38A1.45,1.45,0,0,1,150.9,59Z" transform="translate(-27.71 -24.48)"/><polygon class="cls-31" points="123.38 34.11 124.31 35.72 120.39 37.89 119.46 36.28 123.38 34.11"/><path class="cls-22" d="M147,61.18c0-.42.3-.59.66-.38a1.44,1.44,0,0,1,.66,1.14c0,.42-.3.59-.66.38A1.47,1.47,0,0,1,147,61.18Z" transform="translate(-27.71 -24.48)"/><path class="cls-31" d="M151.19,57.69c0-.42.29-.59.65-.38a1.44,1.44,0,0,1,.66,1.14c0,.42-.29.59-.66.38A1.46,1.46,0,0,1,151.19,57.69Z" transform="translate(-27.71 -24.48)"/><polygon class="cls-31" points="123.67 32.78 124.6 34.4 120.68 36.56 119.75 34.95 123.67 32.78"/><path class="cls-22" d="M147.27,59.85c0-.42.29-.59.65-.38a1.44,1.44,0,0,1,.66,1.14c0,.42-.29.59-.66.38A1.46,1.46,0,0,1,147.27,59.85Z" transform="translate(-27.71 -24.48)"/><path class="cls-31" d="M151.44,56.37c0-.42.29-.59.66-.38a1.46,1.46,0,0,1,.65,1.14c0,.42-.29.59-.65.38A1.44,1.44,0,0,1,151.44,56.37Z" transform="translate(-27.71 -24.48)"/><polygon class="cls-31" points="123.92 31.47 124.85 33.08 120.93 35.24 120 33.63 123.92 31.47"/><path class="cls-22" d="M147.52,58.54c0-.42.29-.59.65-.38a1.44,1.44,0,0,1,.66,1.14c0,.41-.29.58-.66.37A1.42,1.42,0,0,1,147.52,58.54Z" transform="translate(-27.71 -24.48)"/><path class="cls-31" d="M151.55,55c0-.42.3-.59.66-.38a1.47,1.47,0,0,1,.66,1.14c0,.42-.3.59-.66.38A1.47,1.47,0,0,1,151.55,55Z" transform="translate(-27.71 -24.48)"/><polygon class="cls-31" points="124.03 30.08 124.97 31.69 121.04 33.85 120.11 32.24 124.03 30.08"/><path class="cls-22" d="M147.63,57.15c0-.42.29-.59.66-.38a1.46,1.46,0,0,1,.65,1.14c0,.42-.29.59-.65.38A1.44,1.44,0,0,1,147.63,57.15Z" transform="translate(-27.71 -24.48)"/><path class="cls-31" d="M151.91,53.84c0-.42.29-.59.66-.38a1.46,1.46,0,0,1,.65,1.14c0,.42-.29.59-.65.38A1.44,1.44,0,0,1,151.91,53.84Z" transform="translate(-27.71 -24.48)"/><polygon class="cls-31" points="124.39 28.93 125.32 30.55 121.4 32.71 120.47 31.1 124.39 28.93"/><path class="cls-22" d="M148,56c0-.42.29-.59.66-.38a1.46,1.46,0,0,1,.65,1.14c0,.42-.29.59-.65.38A1.44,1.44,0,0,1,148,56Z" transform="translate(-27.71 -24.48)"/><path class="cls-6" d="M157.51,62.15a5.5,5.5,0,1,1-3.41-7A5.5,5.5,0,0,1,157.51,62.15Z" transform="translate(-27.71 -24.48)"/><path class="cls-6" d="M150.25,67h0a1,1,0,0,0,.12.47.75.75,0,0,0,.07.12,1.78,1.78,0,0,0,.62.55,4.34,4.34,0,0,0,3.94,0,1.2,1.2,0,0,0,0-2.27,3.27,3.27,0,0,0-.81-.33h0a4.74,4.74,0,0,0-.49-.1,4.29,4.29,0,0,0-2.63.43,1.66,1.66,0,0,0-.73.74A1.09,1.09,0,0,0,150.25,67Z" transform="translate(-27.71 -24.48)"/><rect class="cls-6" x="122.54" y="35.3" width="5.57" height="7.2"/><path class="cls-31" d="M154.49,60.76c0,.05.55-.32.76-.43a12.23,12.23,0,0,0-.42,4,.73.73,0,0,0,.16.51.56.56,0,0,0,.35.13,1.47,1.47,0,0,0,1.28-.75,4,4,0,0,0,.47-1.48c.11-.65.21-1.3.29-1.95.17-1.32.51-3.05,0-4.28a4.47,4.47,0,0,0-2-2.18,7.24,7.24,0,0,0-3.25-.67,5.51,5.51,0,0,0-2.53.81A3.46,3.46,0,0,0,148,56.33a1.82,1.82,0,0,0-.07,1.08,2.13,2.13,0,0,0,1.62,1.28,5.37,5.37,0,0,0,3.56-.2,3,3,0,0,0,.68-.38c.2-.16.54,0,.65.27a.92.92,0,0,1,.07.4C154.5,59.21,154.48,60.73,154.49,60.76Z" transform="translate(-27.71 -24.48)"/><path class="cls-6" d="M155.27,59.76a.75.75,0,0,0-.7.46,3,3,0,0,0-.25,1,2.68,2.68,0,0,0,.05,1.32.54.54,0,0,0,.22.29.51.51,0,0,0,.54-.09,1.06,1.06,0,0,0,.27-.47,7.24,7.24,0,0,0,.37-1.51,1.44,1.44,0,0,0,0-.62A.6.6,0,0,0,155.27,59.76Z" transform="translate(-27.71 -24.48)"/><path class="cls-31" d="M158.68,66c0-.42.29-.59.66-.38a1.46,1.46,0,0,1,.65,1.14c0,.42-.29.59-.65.38A1.44,1.44,0,0,1,158.68,66Z" transform="translate(-27.71 -24.48)"/><polygon class="cls-31" points="131.16 41.08 132.09 42.69 128.17 44.86 127.24 43.25 131.16 41.08"/><path class="cls-22" d="M154.76,68.15c0-.42.29-.59.66-.38a1.46,1.46,0,0,1,.65,1.14c0,.42-.29.59-.65.38A1.44,1.44,0,0,1,154.76,68.15Z" transform="translate(-27.71 -24.48)"/><path class="cls-31" d="M157.77,64.39c0-.42.29-.59.65-.38a1.44,1.44,0,0,1,.66,1.14c0,.42-.29.59-.66.38A1.46,1.46,0,0,1,157.77,64.39Z" transform="translate(-27.71 -24.48)"/><polygon class="cls-31" points="130.25 39.49 131.18 41.1 127.26 43.27 126.33 41.66 130.25 39.49"/><path class="cls-22" d="M153.85,66.56c0-.42.29-.59.65-.38a1.44,1.44,0,0,1,.66,1.14c0,.42-.29.59-.66.38A1.46,1.46,0,0,1,153.85,66.56Z" transform="translate(-27.71 -24.48)"/><path class="cls-31" d="M157.26,62.7c0-.42.29-.59.66-.38a1.45,1.45,0,0,1,.65,1.13c0,.42-.29.59-.65.38A1.44,1.44,0,0,1,157.26,62.7Z" transform="translate(-27.71 -24.48)"/><polygon class="cls-31" points="129.74 37.79 130.67 39.4 126.75 41.57 125.82 39.96 129.74 37.79"/><path class="cls-22" d="M153.34,64.86c0-.42.29-.59.66-.38a1.46,1.46,0,0,1,.65,1.14c0,.42-.29.59-.65.38A1.44,1.44,0,0,1,153.34,64.86Z" transform="translate(-27.71 -24.48)"/><path class="cls-31" d="M157.07,61.12c0-.42.29-.59.65-.38a1.44,1.44,0,0,1,.66,1.14c0,.42-.29.59-.66.38A1.46,1.46,0,0,1,157.07,61.12Z" transform="translate(-27.71 -24.48)"/><polygon class="cls-31" points="129.55 36.22 130.48 37.83 126.56 39.99 125.63 38.38 129.55 36.22"/><path class="cls-22" d="M153.15,63.29c0-.42.29-.59.65-.38a1.44,1.44,0,0,1,.66,1.13c0,.42-.29.59-.66.38A1.45,1.45,0,0,1,153.15,63.29Z" transform="translate(-27.71 -24.48)"/><path class="cls-31" d="M157,59.59c0-.42.3-.59.66-.38a1.47,1.47,0,0,1,.66,1.14c0,.42-.3.59-.66.38A1.47,1.47,0,0,1,157,59.59Z" transform="translate(-27.71 -24.48)"/><polygon class="cls-31" points="129.44 34.69 130.37 36.3 126.44 38.46 125.52 36.85 129.44 34.69"/><path class="cls-22" d="M153,61.75c0-.41.29-.58.66-.37a1.43,1.43,0,0,1,.66,1.13c0,.42-.3.59-.66.38A1.44,1.44,0,0,1,153,61.75Z" transform="translate(-27.71 -24.48)"/><path class="cls-31" d="M157,58.11c0-.42.3-.59.66-.38a1.47,1.47,0,0,1,.66,1.14c0,.42-.3.59-.66.38A1.47,1.47,0,0,1,157,58.11Z" transform="translate(-27.71 -24.48)"/><polygon class="cls-31" points="129.44 33.21 130.37 34.82 126.44 36.98 125.52 35.37 129.44 33.21"/><path class="cls-22" d="M153,60.28c0-.42.29-.59.66-.38a1.46,1.46,0,0,1,.66,1.13c0,.42-.3.59-.66.38A1.44,1.44,0,0,1,153,60.28Z" transform="translate(-27.71 -24.48)"/><path class="cls-31" d="M157,56.6c0-.41.3-.58.66-.37a1.43,1.43,0,0,1,.66,1.13c0,.42-.3.59-.66.38A1.47,1.47,0,0,1,157,56.6Z" transform="translate(-27.71 -24.48)"/><polygon class="cls-31" points="129.44 31.7 130.37 33.31 126.44 35.48 125.52 33.87 129.44 31.7"/><path class="cls-22" d="M153,58.77c0-.42.29-.59.66-.38a1.47,1.47,0,0,1,.66,1.14c0,.42-.3.59-.66.38A1.44,1.44,0,0,1,153,58.77Z" transform="translate(-27.71 -24.48)"/><path class="cls-24" d="M143.31,83.71,160,93.23l.56-11.58c-.61-1.05-2.3-2.23-2.49-3.18-.27-1.33-.54-2.65-.82-4a4.24,4.24,0,0,0-.6-1.67c-.13,2.7-.3,4.44-.45,7.15a1.71,1.71,0,0,1-.39,1.28c-4.32,3.92-10.2-.7-10.78-1.68s.6-6.32,1.3-8.87C146.39,69.1,143.41,83.26,143.31,83.71Z" transform="translate(-27.71 -24.48)"/><path class="cls-15" d="M157.16,84.05a2.87,2.87,0,0,0,3.13,2.59h0a2.87,2.87,0,0,0,2.59-3.13l-1-11a2.86,2.86,0,0,0-3.12-2.59h0a2.87,2.87,0,0,0-2.59,3.13Z" transform="translate(-27.71 -24.48)"/><path class="cls-15" d="M149.59,87.77,151.12,91l10.42-4.47a2.87,2.87,0,0,0,1-3.93h0a2.88,2.88,0,0,0-3.93-1Z" transform="translate(-27.71 -24.48)"/><circle class="cls-6" cx="121.55" cy="65.25" r="2.39"/><ellipse class="cls-26" cx="95.28" cy="56.3" rx="2.3" ry="1.33"/><rect class="cls-26" x="92.98" y="55.74" width="4.6" height="0.65"/><ellipse class="cls-28" cx="95.28" cy="55.74" rx="2.3" ry="1.33"/><path class="cls-26" d="M124.36,79.33a.83.83,0,0,1,0,1.58,3,3,0,0,1-2.74,0,.84.84,0,0,1,0-1.58A3,3,0,0,1,124.36,79.33Z" transform="translate(-27.71 -24.48)"/><ellipse class="cls-28" cx="95.28" cy="55.44" rx="1.94" ry="1.12"/><path class="cls-28" d="M129.61,80a.18.18,0,0,1,.12,0,.48.48,0,0,1,.21.39.18.18,0,0,1,0,.13h0l-.19.23-.4-.72.29-.06h0Z" transform="translate(-27.71 -24.48)"/><polygon class="cls-28" points="98.34 57.68 94.89 59.67 95.42 59.98 98.55 58.18 98.34 57.68"/><polygon class="cls-26" points="101.56 55.63 98.27 57.72 98.55 58.18 101.97 56.37 101.56 55.63"/><rect class="cls-25" x="120.38" y="83.8" width="2.43" height="0.79" transform="translate(-39.83 122.93) rotate(-60)"/><path class="cls-26" d="M122.11,83.51c0-.55-.38-.78-.86-.5a1.91,1.91,0,0,0-.86,1.49c0,.55.39.77.86.49A1.88,1.88,0,0,0,122.11,83.51Z" transform="translate(-27.71 -24.48)"/><path class="cls-26" d="M122.53,83.74c0-.55-.39-.77-.86-.49a1.88,1.88,0,0,0-.86,1.49c0,.54.38.77.86.49A1.91,1.91,0,0,0,122.53,83.74Z" transform="translate(-27.71 -24.48)"/><path class="cls-28" d="M121.61,83.15a.63.63,0,0,1,1,.59,1.82,1.82,0,0,1-.26.9,2.07,2.07,0,0,1-.65.69.63.63,0,0,1-1-.59,1.82,1.82,0,0,1,.26-.9A2.07,2.07,0,0,1,121.61,83.15Zm.81.59a.5.5,0,0,0-.2-.46.52.52,0,0,0-.5.06,1.65,1.65,0,0,0-.57.6,1.71,1.71,0,0,0-.24.8.5.5,0,0,0,.2.46.52.52,0,0,0,.5-.06,1.58,1.58,0,0,0,.57-.6A1.71,1.71,0,0,0,122.42,83.74Z" transform="translate(-27.71 -24.48)"/><path class="cls-26" d="M122.9,84c0-.55-.38-.77-.86-.49a1.9,1.9,0,0,0-.86,1.48c0,.55.39.78.86.5A1.88,1.88,0,0,0,122.9,84Z" transform="translate(-27.71 -24.48)"/><path class="cls-28" d="M122,83.37a.63.63,0,0,1,1,.59,1.74,1.74,0,0,1-.27.9,1.83,1.83,0,0,1-.64.68.68.68,0,0,1-.72.06.71.71,0,0,1-.3-.65,1.88,1.88,0,0,1,.26-.9A1.85,1.85,0,0,1,122,83.37Zm.81.59a.42.42,0,0,0-.7-.4,1.58,1.58,0,0,0-.57.6,1.7,1.7,0,0,0-.24.79.5.5,0,0,0,.2.47.52.52,0,0,0,.5-.06,1.65,1.65,0,0,0,.57-.6A1.71,1.71,0,0,0,122.8,84Z" transform="translate(-27.71 -24.48)"/><rect class="cls-26" x="122.28" y="83.68" width="2.22" height="3.11" transform="translate(-39.83 125) rotate(-60)"/><path class="cls-26" d="M124.65,85c0-.55-.38-.77-.86-.49a1.91,1.91,0,0,0-.86,1.49c0,.54.39.77.86.49A1.88,1.88,0,0,0,124.65,85Z" transform="translate(-27.71 -24.48)"/><path class="cls-28" d="M123.74,84.38a.63.63,0,0,1,1,.59,1.82,1.82,0,0,1-.26.9,1.94,1.94,0,0,1-.65.68.68.68,0,0,1-.72.06.7.7,0,0,1-.3-.64,1.88,1.88,0,0,1,.26-.91A2,2,0,0,1,123.74,84.38Zm.81.59a.42.42,0,0,0-.7-.4,1.58,1.58,0,0,0-.57.6,1.71,1.71,0,0,0-.24.8.5.5,0,0,0,.2.46.52.52,0,0,0,.5-.06,1.65,1.65,0,0,0,.57-.6A1.71,1.71,0,0,0,124.55,85Z" transform="translate(-27.71 -24.48)"/><path class="cls-26" d="M125,85.19c0-.55-.38-.77-.86-.5a1.94,1.94,0,0,0-.86,1.49c0,.55.39.77.86.5A1.88,1.88,0,0,0,125,85.19Z" transform="translate(-27.71 -24.48)"/><path class="cls-28" d="M124.12,84.6a.63.63,0,0,1,1,.59,1.79,1.79,0,0,1-.27.9,1.83,1.83,0,0,1-.64.68.63.63,0,0,1-1-.59,1.88,1.88,0,0,1,.26-.9A1.85,1.85,0,0,1,124.12,84.6Zm.81.59a.5.5,0,0,0-.2-.46.47.47,0,0,0-.5.06,1.51,1.51,0,0,0-.57.6,1.59,1.59,0,0,0-.24.79.51.51,0,0,0,.2.47.52.52,0,0,0,.5-.06,1.69,1.69,0,0,0,.57-.61A1.64,1.64,0,0,0,124.93,85.19Z" transform="translate(-27.71 -24.48)"/><polygon class="cls-26" points="97.49 60.4 96.28 62.51 95.91 62.17 97.01 60.26 97.49 60.4"/><path class="cls-28" d="M125.45,85.43c0-.55-.38-.77-.86-.49a1.91,1.91,0,0,0-.86,1.49c0,.54.39.77.86.49A1.88,1.88,0,0,0,125.45,85.43Z" transform="translate(-27.71 -24.48)"/><path class="cls-28" d="M126.31,82.53c0,.12-.08.17-.19.11a.44.44,0,0,1-.19-.33c0-.12.09-.17.2-.11A.43.43,0,0,1,126.31,82.53Z" transform="translate(-27.71 -24.48)"/><path class="cls-26" d="M129.76,80.65c0,.2-.14.28-.3.18a.65.65,0,0,1-.29-.52c0-.19.14-.27.3-.18A.68.68,0,0,1,129.76,80.65Z" transform="translate(-27.71 -24.48)"/><circle class="cls-6" cx="107.55" cy="57.25" r="2.39"/><path class="cls-6" d="M75.51,111.12l-.2,0a2.11,2.11,0,0,1-.33-.89c-.3-1.35-1.16-.54-1.16-.54l-1.69.54s.82,2.82,2.29,3.88a1.67,1.67,0,0,0,1.09.41,1.71,1.71,0,0,0,0-3.42Z" transform="translate(-27.71 -24.48)"/><path class="cls-5" d="M79.73,84.65s-4.29-2-5.89,0S70.59,96.14,70.05,99s1.54,9.46,2.08,11.25,2.85,0,2.85,0-.28-8.75-.11-9.47S76,93.58,76,93.58a26,26,0,0,0,1.23,3.81c.71,1.61-.89,6.25-1.25,7.5s2.86,2.5,5.53,2.68,7.67-2,7.67-2S91,91,87.76,89.36,79.73,84.65,79.73,84.65Z" transform="translate(-27.71 -24.48)"/><path class="cls-7" d="M88.55,149.69c-.65-.32-2.18.1-2.72.09-.37,0-2.2.52-2.65-2-.05-.28-.06-2.68-.06-2.68l-2.23.28s-1.15,7.48-1.2,8.47.25,1.15,1.45,1.63,3.5-2.09,5.09-2.84C88.25,151.65,90,150.41,88.55,149.69Z" transform="translate(-27.71 -24.48)"/><path class="cls-7" d="M93.55,152.69c-1.36-.9-2.78-.23-3.14-.28a3.26,3.26,0,0,1-3.23-2.66c-.05-.28-.06-2.68-.06-2.68l-2.23.28s-1.15,7.48-1.2,8.47.25,1.15,1.45,1.63,4.36-1.54,6.09-1.84S94.9,153.59,93.55,152.69Z" transform="translate(-27.71 -24.48)"/><path class="cls-9" d="M76,104.89A55.32,55.32,0,0,0,74.73,111a166.18,166.18,0,0,0,3.74,16.34c1.08,3.4,2.12,17.32,2.12,18.21s.89,2.15,2,2S83.84,132,84.73,129s1.78-17.14,1.78-17.14l2.67-6.25Z" transform="translate(-27.71 -24.48)"/><path class="cls-5" d="M75,109.34l5.92,4.83s3.48,12,3.84,14.82-1.07,16.8-.18,18.59,2.33,1.42,2.86,1.07,3-17.32,3-22.42-1.31-21-1.31-21L76,104.89Z" transform="translate(-27.71 -24.48)"/><path class="cls-32" d="M85.32,108.32a25.49,25.49,0,0,1,3.06,4.43" transform="translate(-27.71 -24.48)"/><path class="cls-9" d="M87.76,89.36C86.5,88.72,85,87.86,83.61,87c1.75,6.5,3.32,13.77.91,20.14a35.23,35.23,0,0,0,4.66-1.58S91,91,87.76,89.36Z" transform="translate(-27.71 -24.48)"/><path class="cls-14" d="M77.3,103.74c-.31-.07-.61-.13-.9-.22-.18.59-.34,1.08-.42,1.37-.36,1.25,2.86,2.5,5.53,2.68s7.67-2,7.67-2,.11-.83.22-2.1C85.18,105.2,80.45,106.26,77.3,103.74Z" transform="translate(-27.71 -24.48)"/><path class="cls-33" d="M85.2,104.85a17.25,17.25,0,0,1-.68,2.33,35.23,35.23,0,0,0,4.66-1.58s.11-.83.22-2.1A28.1,28.1,0,0,1,85.2,104.85Z" transform="translate(-27.71 -24.48)"/><path class="cls-5" d="M82.07,86.22l5.69,3.14s.79-.29,1.92,3.79a38.92,38.92,0,0,1,.76,9.73s1.85,2,5.41,13.05L93,117c-2-4.62-3.91-7-5-10.09-.79-2.36-4-11.1-6.91-14C78.8,90.74,82.07,86.22,82.07,86.22Z" transform="translate(-27.71 -24.48)"/><path class="cls-6" d="M90.11,81.27a5.36,5.36,0,1,1-3.94-6.46A5.36,5.36,0,0,1,90.11,81.27Z" transform="translate(-27.71 -24.48)"/><path class="cls-6" d="M80.4,80.65l-.8,5.75h0a3.43,3.43,0,0,0,3.27,2l.66,0,1.28-6Z" transform="translate(-27.71 -24.48)"/><path class="cls-34" d="M88,82.36a1.11,1.11,0,0,0-1.44-1.25,1.44,1.44,0,0,0-.74,1.41,4.2,4.2,0,0,0,.53,1.6,24.88,24.88,0,0,1-6,1.39c-.5-1.31-1-2.63-1.51-3.94a5.61,5.61,0,0,1-.47-1.84,6.72,6.72,0,0,1,2.25-4.56A7.11,7.11,0,0,1,86.17,74,6,6,0,0,1,90,77.21C90.94,79.09,89,80.82,88,82.36Z" transform="translate(-27.71 -24.48)"/><path class="cls-34" d="M83.54,71.28a7.48,7.48,0,0,0-3.69-1.52c-1.73-.33-3.67-.45-5.1.57s-1.91,2.82-2.1,4.53a6.47,6.47,0,0,0,.3,3.27A5.45,5.45,0,0,0,77.48,81a6.93,6.93,0,0,0,4.91-1.22C84.61,78.15,85.85,73.36,83.54,71.28Z" transform="translate(-27.71 -24.48)"/><path class="cls-35" d="M84.81,75c-.1,2.58-1.9,5.59-4.44,6a1.76,1.76,0,0,0,.13.35,5.68,5.68,0,0,0,4.9-4.5C85.58,76,85.28,75.73,84.81,75Z" transform="translate(-27.71 -24.48)"/><path class="cls-6" d="M97.45,117.66a2.3,2.3,0,1,1-2.29-2.3A2.29,2.29,0,0,1,97.45,117.66Z" transform="translate(-27.71 -24.48)"/><polygon class="cls-30" points="106.87 57.63 117.44 63.78 102.2 72.58 91.63 66.44 106.87 57.63"/><polygon class="cls-36" points="102.38 60.84 111.15 65.94 110.96 66.06 102.19 60.96 102.38 60.84"/><polygon class="cls-36" points="106.36 66.29 101.77 63.62 101.96 63.51 106.55 66.18 106.36 66.29"/><polygon class="cls-36" points="101.28 61.48 110.06 66.58 109.87 66.69 101.09 61.59 101.28 61.48"/><polygon class="cls-36" points="100.74 61.79 109.51 66.89 109.32 67 100.55 61.9 100.74 61.79"/><polygon class="cls-36" points="99.22 62.67 108 67.77 107.81 67.88 99.03 62.78 99.22 62.67"/><polygon class="cls-36" points="98.68 62.98 107.45 68.08 107.26 68.19 98.48 63.09 98.68 62.98"/><polygon class="cls-36" points="98.13 63.3 106.91 68.4 106.71 68.51 97.94 63.41 98.13 63.3"/><polygon class="cls-36" points="97.58 63.61 106.36 68.71 106.17 68.82 97.39 63.72 97.58 63.61"/><polygon class="cls-36" points="97.04 63.93 105.81 69.03 105.62 69.14 96.84 64.04 97.04 63.93"/><polygon class="cls-36" points="96.49 64.24 105.27 69.34 105.07 69.45 96.3 64.35 96.49 64.24"/><polygon class="cls-36" points="101.83 61.16 110.61 66.26 110.41 66.37 101.64 61.27 101.83 61.16"/><polygon class="cls-36" points="102.92 60.53 111.7 65.63 111.51 65.74 102.73 60.64 102.92 60.53"/><polygon class="cls-36" points="103.47 60.21 112.25 65.31 112.05 65.42 103.28 60.33 103.47 60.21"/><polygon class="cls-36" points="110.61 63.84 106.02 61.17 106.21 61.06 110.8 63.72 110.61 63.84"/><polygon class="cls-36" points="106.83 59.24 113.93 63.37 113.44 63.66 106.34 59.53 106.83 59.24"/><path class="cls-37" d="M121.46,90.45h0l0,0a.42.42,0,0,0,.27,0c.08-.05.12-.11.1-.16l.05,0,0,0a.44.44,0,0,0,.28-.05c.08,0,.11-.11.09-.16l0,0,0,0a.45.45,0,0,0,.28,0c.08,0,.11-.11.09-.16l0,0,0,0a.45.45,0,0,0,.28,0c.08,0,.11-.11.09-.16l0,0h0l.26-.15.26.15h0l0,0s0,.11.08.16a.45.45,0,0,0,.28,0l0,0,0,0s0,.11.08.16a.54.54,0,0,0,.28.05l0,0,0,0s0,.11.09.16a.49.49,0,0,0,.27,0l0,0,0,0c0,.06,0,.12.09.16a.41.41,0,0,0,.27,0l0,0,0,0c0,.06,0,.12.09.16a.41.41,0,0,0,.27.05l0,0,0,0c0,.05,0,.11.09.16a.41.41,0,0,0,.27,0l0,0h0l.26.15-.26.15,0,0h0a.46.46,0,0,0-.28.06c-.08,0-.11.1-.09.16l0,0,0,0a.46.46,0,0,0-.28.06c-.08,0-.11.1-.09.16l0,0-.05,0a.46.46,0,0,0-.28.06c-.08,0-.11.1-.09.16l0,0-.05,0a.46.46,0,0,0-.28.06c-.08,0-.11.1-.09.16h0l0,0-.26.15-.26-.15h0l0,0s0-.11-.08-.16a.5.5,0,0,0-.27,0l-.05,0,0,0a.14.14,0,0,0-.08-.16.42.42,0,0,0-.27,0l0,0-.05,0s0-.11-.08-.15a.44.44,0,0,0-.28-.05l0,0,0,0c0-.05,0-.11-.08-.16a.45.45,0,0,0-.28,0l0,0,0,0s0-.11-.08-.16a.54.54,0,0,0-.28,0l0,0,0,0s0-.11-.09-.16a.49.49,0,0,0-.27,0l0,0h0l-.26-.15Z" transform="translate(-27.71 -24.48)"/><polygon class="cls-38" points="95.88 65.06 98.56 66.62 96.72 67.69 94.03 66.12 95.88 65.06"/><path class="cls-39" d="M129.87,94.69c-.24-.18-.48-.36-.73-.53l-.59-.38-.25-.16a.58.58,0,0,0-.25-.12s0,0,0,0h0a.44.44,0,0,1,.17.07l.25.16c.2.13.41.25.61.39s.55.38.81.58a1.63,1.63,0,0,1,.13-.37.35.35,0,0,1,.05-.08s-.07-.06-.05-.07a.29.29,0,0,0,.12-.13L130,94h0l-.14,0,0,0a.41.41,0,0,0-.05.09.8.8,0,0,1,.15.21s0,0,0,0h0c-.28-.19-.64-.32-1-.5a2.2,2.2,0,0,1-.25-.17.7.7,0,0,0-.3-.14s-.07-.07-.06-.08a.82.82,0,0,1,.25.11c.11.06.21.14.32.21s.31.15.47.23l.31.16v0s0,0,0-.06a3.67,3.67,0,0,0-.29-.23s-.06,0,0-.06a1,1,0,0,1,.35,0,.05.05,0,0,1,0,0l0,0a.38.38,0,0,1,.24,0l0,0a1.59,1.59,0,0,1,.27-.12,1.06,1.06,0,0,1,.5,0,.76.76,0,0,1,.41.25.61.61,0,0,1-.06.83,2.1,2.1,0,0,1-.66.58l0,0a.7.7,0,0,1-.36.11.25.25,0,0,1-.22-.19A.84.84,0,0,1,129.87,94.69Zm.14.46a.42.42,0,0,0,.19,0,1.11,1.11,0,0,0,.19-.09l.2-.13c.45-.33.95-.89.47-1.28a.85.85,0,0,0-.82,0,.61.61,0,0,0-.14.07h0a.38.38,0,0,1,.11.11c.16,0,.32.06.33.17a0,0,0,0,1,0,0,.36.36,0,0,1,.2.15c.05.1,0,.2-.1.28a.84.84,0,0,1-.21.21l-.11,0a.19.19,0,0,1-.23-.16.37.37,0,0,1,.06-.22h0a1.65,1.65,0,0,0-.17.39v.06l.26.2s0,0,0,0h0l-.25-.19a.88.88,0,0,0,0,.28s0,.11.08.12m.27-1s.08.05.07.07a.51.51,0,0,0-.16.36c0,.06.09,0,.14,0h0a.56.56,0,0,0,.16-.14c.08-.09.21-.22.15-.32s-.26,0-.33,0h0l0,0m-.83-.4a2.11,2.11,0,0,1,.23.19.41.41,0,0,1,0-.09.15.15,0,0,1,0-.07.85.85,0,0,0-.23,0m.59,0-.15.12.06.07.05,0a.43.43,0,0,1,.16,0v0a.15.15,0,0,0-.12-.08m.22.27a.39.39,0,0,0,.19,0h0s0-.06,0-.08a.43.43,0,0,0-.16,0h0a.34.34,0,0,1,0,.1m-.1,0s0,0,0-.07l-.09,0,0,0,.1,0m-.43.11h0l.07,0-.06-.08s0,0,0,0m.1-.37,0,0,0,0,0,0,.07-.06h0m0,.17,0,0h0l0,0,0,0m-.08-.08h0m.48.25h0" transform="translate(-27.71 -24.48)"/><path class="cls-40" d="M122.89,90.38a1.48,1.48,0,0,0,1.33,0,.41.41,0,0,0,0-.77,1.48,1.48,0,0,0-1.33,0A.41.41,0,0,0,122.89,90.38Zm.14-.69a1.17,1.17,0,0,1,1.06,0,.32.32,0,0,1,0,.61,1.17,1.17,0,0,1-1.06,0A.32.32,0,0,1,123,89.69Zm-.61,1a2.46,2.46,0,0,0,2.27,0c.63-.36.64-1,0-1.31a2.46,2.46,0,0,0-2.27,0A.69.69,0,0,0,122.42,90.65Zm.24-1.18a2,2,0,0,1,1.81,0c.5.29.49.76,0,1a2,2,0,0,1-1.81,0C122.15,90.23,122.16,89.76,122.66,89.47Z" transform="translate(-27.71 -24.48)"/><path class="cls-6" d="M136.37,83.84c-1,.92-2.31,1-2.68.67-.92-1,.5-1,1.44-1.94s1.07-2.33,2-1.39S137.32,82.93,136.37,83.84Z" transform="translate(-27.71 -24.48)"/></g></g></svg>