<svg xmlns="http://www.w3.org/2000/svg" xmlns:xlink="http://www.w3.org/1999/xlink" viewBox="0 0 153.32 153.32"><defs><style>.cls-1,.cls-14{fill:none;}.cls-2{isolation:isolate;}.cls-3{clip-path:url(#clip-path);}.cls-4{fill:#a3b1db;}.cls-5{fill:#7a86a9;}.cls-6{fill:#946d5d;}.cls-7{fill:#757575;}.cls-8{fill:#fff;}.cls-9{fill:#b8b8b8;}.cls-10{fill:#d5d5d4;}.cls-11{fill:#5d5d5d;}.cls-12{fill:#7d8278;}.cls-13{fill:#f5ad1f;opacity:0.8;}.cls-14{stroke:#eaeaea;stroke-miterlimit:10;stroke-width:4.5px;}.cls-15{fill:#cdcccc;}.cls-16{fill:#cecbca;}.cls-17{fill:#e5e5e4;}.cls-18{fill:#d6d7d7;}.cls-19{fill:#157187;}.cls-20{fill:#808181;opacity:0.43;mix-blend-mode:multiply;}</style><clipPath id="clip-path" transform="translate(-1.27 -1.74)"><circle class="cls-1" cx="78.25" cy="78.4" r="76.54"/></clipPath></defs><title>G14_05_06_05</title><g class="cls-2"><g id="Houses"><g class="cls-3"><path class="cls-4" d="M66.42,142h23.5v9.83a73.85,73.85,0,0,0,22.67-7.59V142h4a74.57,74.57,0,0,0,19.18-16.78H116.63L109.36,118v-9.21h3.23V87.86h23.5v20.89h2.53l4.86,4.86a74.42,74.42,0,0,0-29-100L44.32,72.47v72.31a73.51,73.51,0,0,0,22.1,7.14Zm43.36-83.77H113V37.35a11.76,11.76,0,1,1,23.51,0h0V58.23H139l10.65,10.66v5.82H117l-7.26-7.26ZM63.2,108.75h3.22V87.86h23.5v20.89h2.53L103.1,119.4v5.82H70.46L63.2,118Z" transform="translate(-1.27 -1.74)"/><path class="cls-5" d="M44.32,65.74v6.73l70.11-58.9q-2.36-1.34-4.81-2.5Z" transform="translate(-1.27 -1.74)"/><path class="cls-6" d="M38.74,70.42l5.58-4.68v0L109.37,11Q106.25,9.5,103,8.33L38.74,62.12Z" transform="translate(-1.27 -1.74)"/><rect class="cls-7" x="114.75" y="52.16" width="7.23" height="4.32"/><rect class="cls-7" x="124.99" y="52.16" width="7.24" height="4.32"/><rect class="cls-7" x="114.75" y="38.62" width="7.23" height="10.54"/><rect class="cls-7" x="124.99" y="38.62" width="7.24" height="10.54"/><path class="cls-8" d="M116,53.91h7.24v4.32h3V53.91h7.23v4.32h3V37.35H113V58.23h3Zm10.25-13.55h7.23V50.9h-7.23Zm-10.25,0h7.24V50.9H116Z" transform="translate(-1.27 -1.74)"/><path class="cls-7" d="M124.76,28.89a8.47,8.47,0,0,0-8.46,8.46h16.92A8.46,8.46,0,0,0,124.76,28.89Z" transform="translate(-1.27 -1.74)"/><path class="cls-8" d="M116,31.71l9.06-3.58,8.76,3.34v5.88h2.69a11.76,11.76,0,1,0-23.51,0h3Z" transform="translate(-1.27 -1.74)"/><path class="cls-8" d="M125.07,28.13,116,31.71v5.64h.29a8.46,8.46,0,1,1,16.92,0h.61V31.47Z" transform="translate(-1.27 -1.74)"/><polygon class="cls-5" points="148.42 72.97 148.42 67.14 137.76 56.49 137.76 65.7 135.24 65.7 124.99 65.7 121.98 65.7 111.74 65.7 108.51 65.7 115.78 72.97 148.42 72.97"/><rect class="cls-9" x="108.51" y="56.49" width="3.23" height="9.22"/><rect class="cls-9" x="135.24" y="56.49" width="2.53" height="9.22"/><rect class="cls-9" x="114.75" y="56.49" width="7.23" height="6.2"/><rect class="cls-9" x="124.99" y="56.49" width="7.24" height="6.2"/><polygon class="cls-9" points="121.98 65.7 124.99 65.7 135.24 65.7 135.24 56.49 132.23 56.49 132.23 62.69 124.99 62.69 124.99 56.49 121.98 56.49 121.98 62.69 114.75 62.69 114.75 56.49 111.74 56.49 111.74 65.7 121.98 65.7"/><rect class="cls-7" x="68.17" y="102.68" width="7.23" height="4.33"/><rect class="cls-7" x="78.42" y="102.68" width="7.23" height="4.33"/><rect class="cls-7" x="68.17" y="89.13" width="7.23" height="10.53"/><rect class="cls-7" x="78.42" y="89.13" width="7.23" height="10.53"/><path class="cls-8" d="M69.44,104.42h7.23v4.33h3v-4.33h7.23v4.33h3V87.86H66.42v20.89h3ZM79.68,90.87h7.23V101.4H79.68Zm-10.24,0h7.23V101.4H69.44Z" transform="translate(-1.27 -1.74)"/><polygon class="cls-5" points="101.84 123.48 101.84 117.66 91.18 107 91.18 116.22 88.66 116.22 78.42 116.22 75.4 116.22 65.16 116.22 61.93 116.22 69.2 123.48 101.84 123.48"/><rect class="cls-9" x="88.66" y="107.01" width="2.52" height="9.21"/><rect class="cls-9" x="61.93" y="107.01" width="3.22" height="9.21"/><rect class="cls-9" x="68.17" y="107.01" width="7.23" height="6.2"/><rect class="cls-9" x="78.42" y="107.01" width="7.23" height="6.2"/><polygon class="cls-9" points="75.4 116.22 78.42 116.22 88.66 116.22 88.66 107 85.65 107 85.65 113.2 78.42 113.2 78.42 107 75.4 107 75.4 113.2 68.17 113.2 68.17 107 65.16 107 65.16 116.22 75.4 116.22"/><rect class="cls-7" x="114.34" y="102.68" width="7.24" height="4.33"/><rect class="cls-7" x="124.58" y="102.68" width="7.23" height="4.33"/><rect class="cls-7" x="114.34" y="89.13" width="7.24" height="10.53"/><rect class="cls-7" x="124.58" y="89.13" width="7.23" height="10.53"/><path class="cls-8" d="M115.6,104.42h7.24v4.33h3v-4.33h7.23v4.33h3V87.86h-23.5v20.89h3Zm10.25-13.55h7.23V101.4h-7.23Zm-10.25,0h7.24V101.4H115.6Z" transform="translate(-1.27 -1.74)"/><path class="cls-5" d="M138.62,118H109.36l7.27,7.26h19.11a73.29,73.29,0,0,0,7.74-11.61l-4.86-4.86Z" transform="translate(-1.27 -1.74)"/><rect class="cls-9" x="108.1" y="107.01" width="3.23" height="9.21"/><rect class="cls-9" x="134.82" y="107.01" width="2.53" height="9.21"/><rect class="cls-9" x="114.34" y="107.01" width="7.24" height="6.2"/><rect class="cls-9" x="124.58" y="107.01" width="7.23" height="6.2"/><polygon class="cls-9" points="121.57 116.22 124.58 116.22 134.82 116.22 134.82 107 131.81 107 131.81 113.2 124.58 113.2 124.58 107 121.57 107 121.57 113.2 114.34 113.2 114.34 107 111.33 107 111.33 116.22 121.57 116.22"/><path class="cls-7" d="M76.67,145H69.44v7.29q3.57.41,7.23.47Z" transform="translate(-1.27 -1.74)"/><path class="cls-7" d="M86.91,145H79.68v7.75q3.66-.09,7.23-.52Z" transform="translate(-1.27 -1.74)"/><path class="cls-8" d="M66.42,142v9.92c1,.16,2,.28,3,.39V145h7.23v7.76c.42,0,.83,0,1.25,0,.59,0,1.18,0,1.76,0V145h7.23v7.23c1-.12,2-.26,3-.42V142Z" transform="translate(-1.27 -1.74)"/><path class="cls-8" d="M112.59,144.24c1.35-.71,2.68-1.45,4-2.24h-4Z" transform="translate(-1.27 -1.74)"/><rect class="cls-9" x="32.89" y="107.01" width="10.16" height="9.21"/><path class="cls-10" d="M9.18,49.89h1.58v40h3v11.07H7A74.5,74.5,0,0,0,33.12,137.8V19A74.64,74.64,0,0,0,9.18,49.89Z" transform="translate(-1.27 -1.74)"/><path class="cls-11" d="M4.39,89.84h6.37V49.89H9.18A74.28,74.28,0,0,0,3.52,78.4,75.69,75.69,0,0,0,4.39,89.84Z" transform="translate(-1.27 -1.74)"/><rect class="cls-12" x="9.49" y="88.1" width="3.02" height="11.06"/><path class="cls-12" d="M7,100.91h3.77V89.84H4.39A74,74,0,0,0,7,100.91Z" transform="translate(-1.27 -1.74)"/><circle class="cls-13" cx="76.66" cy="76.66" r="74.41"/><circle class="cls-14" cx="76.66" cy="76.66" r="74.41"/><path class="cls-15" d="M53.8,75.83a73.8,73.8,0,0,1-7.07-4.58c-.14-.32.12-.46.73-.8A10.9,10.9,0,0,1,50.56,69a7.7,7.7,0,0,1,1.59.19c-.66.39-1.89.93-1.81,1.57s1.59,2.72,2.3,3.63C52.84,74.67,53.28,75.2,53.8,75.83Z" transform="translate(-1.27 -1.74)"/><path class="cls-16" d="M88.91,55l-1.69,1C81.36,59.64,62.15,71.47,62,71.59a1.87,1.87,0,0,1-1.44.18l-.15-.07a24.38,24.38,0,0,0-3.2-1.24c-.6-.18-1.22-.36-1.82-.52-1.2-.32-2.35-.57-3.23-.73A7.7,7.7,0,0,0,50.56,69a10.9,10.9,0,0,0-3.1,1.43l31.3-19s.45-.26,1.12-.59a9.9,9.9,0,0,1,4.22-1.23C86,49.79,88.91,55,88.91,55Z" transform="translate(-1.27 -1.74)"/><path class="cls-17" d="M62.46,77.39a1,1,0,0,1-.34.45h0a18.93,18.93,0,0,1-2.82,1.5c-1.76.91-2.33.23-2.33.23s-1.84-2.18-3.15-3.75c-.52-.63-1-1.16-1.16-1.42-.71-.91-2.22-3-2.3-3.63s1.15-1.18,1.81-1.57c.88.16,2,.41,3.23.73a1.73,1.73,0,0,0-.77.27c-1.15.75-1.13,2.8,0,4.58s3,2.63,4.19,1.88,1.13-2.8,0-4.59a5.49,5.49,0,0,0-1.6-1.62,24.38,24.38,0,0,1,3.2,1.24l.15.07s.72,1.42,1.49,3.1S62.63,76.74,62.46,77.39Z" transform="translate(-1.27 -1.74)"/><path class="cls-18" d="M88.91,61.18l-8.36,5.2-4.82,3L62.12,77.84a1,1,0,0,0,.34-.45c.17-.65.34-.85-.42-2.52s-1.49-3.1-1.49-3.1A1.87,1.87,0,0,0,62,71.59c.16-.12,19.37-12,25.23-15.56A17.3,17.3,0,0,0,88,57.62c.28.49.56,1,.78,1.51C89.22,60,89.42,60.86,88.91,61.18Z" transform="translate(-1.27 -1.74)"/><rect class="cls-18" x="77.17" y="67.12" width="9.2" height="14.5" rx="0.91" ry="0.91"/><path class="cls-19" d="M58.84,76.67c-1.15.75-3-.09-4.19-1.88s-1.19-3.83,0-4.58a1.73,1.73,0,0,1,.77-.27c.6.16,1.22.34,1.82.52a5.49,5.49,0,0,1,1.6,1.62C60,73.87,60,75.92,58.84,76.67Z" transform="translate(-1.27 -1.74)"/><path class="cls-18" d="M87.11,65v7.19a2.9,2.9,0,0,1-5.8,0V65.85l4.82-3a.69.69,0,0,1,.13.11A2.92,2.92,0,0,1,87.11,65Z" transform="translate(-1.27 -1.74)"/><path class="cls-8" d="M55.74,72.3c.2.53.07,1.08-.3,1.22s-.83-.16-1-.69-.08-1.07.29-1.22S55.53,71.77,55.74,72.3Z" transform="translate(-1.27 -1.74)"/><path class="cls-17" d="M80.71,77.49a4.85,4.85,0,0,0,3.1.68,2.75,2.75,0,0,0,2.65-1.47c.38-1-.32-1.93.27-3.06a2.89,2.89,0,0,1-.47.62,2.86,2.86,0,0,1-2.05.85,2.9,2.9,0,0,1-2.9-2.9v-.62a28.25,28.25,0,0,1-1.21,2.66A3.5,3.5,0,0,0,80.71,77.49Z" transform="translate(-1.27 -1.74)"/><path class="cls-20" d="M61.59,73.89c-.48-.14-1.27-.35-2.17-.56-2-.47-4.55-.92-5.61-.65a1,1,0,0,0-.36.16c-1,.8.18,2.79.5,3.17a1.43,1.43,0,0,0-.15-.18c-.52-.63-1-1.16-1.16-1.42-.71-.91-2.22-3-2.3-3.63s1.15-1.18,1.81-1.57l.59.11.47.1.85.19.43.11.19,0,.7.18c.6.16,1.22.33,1.82.52a23.05,23.05,0,0,1,3.2,1.24l.15.07S61,72.68,61.59,73.89Z" transform="translate(-1.27 -1.74)"/><path class="cls-20" d="M80.71,77.49l5.86,5.87h.16a.91.91,0,0,0,.91-.91V72.74l-.53-.53a2.88,2.88,0,0,1-.38,1.43c-.59,1.13.11,2-.27,3.06a2.75,2.75,0,0,1-2.65,1.47A4.85,4.85,0,0,1,80.71,77.49Z" transform="translate(-1.27 -1.74)"/><path class="cls-20" d="M87.11,65v1.39a3,3,0,0,0-2.9-1,3.81,3.81,0,0,0-2.9,3.6V65.85l4.82-3a.69.69,0,0,1,.13.11A2.92,2.92,0,0,1,87.11,65Z" transform="translate(-1.27 -1.74)"/><path class="cls-20" d="M87.7,57,87,58.27l-1.69,1c-4.88,3-19,11.68-23.68,14.59-.58-1.21-1-2.12-1-2.12A1.92,1.92,0,0,0,62,71.59c.15-.12,17.12-10.57,24-14.83L87.22,56A9.53,9.53,0,0,0,87.7,57Z" transform="translate(-1.27 -1.74)"/></g></g></g></svg>