<svg xmlns="http://www.w3.org/2000/svg" viewBox="0 0 185.79 148.91"><defs><style>.cls-1{isolation:isolate;}.cls-2{fill:#d29e08;}.cls-3{fill:#fdd875;}.cls-4{fill:#fdc20b;}.cls-5{fill:#2a3134;}.cls-6{fill:#313537;}.cls-7{fill:#455358;}.cls-8{fill:#368784;}.cls-9{fill:#ee9f05;}.cls-10{fill:#234f5e;}.cls-11,.cls-12{fill:#f6bbc6;}.cls-11,.cls-13,.cls-15,.cls-16,.cls-17,.cls-20{fill-rule:evenodd;}.cls-13{fill:#5b5b5a;}.cls-14{fill:#4d4a81;}.cls-15{fill:#8a8b8c;}.cls-16{fill:#afafb1;}.cls-17{fill:#48abb4;}.cls-18{fill:#f9b233;}.cls-19{fill:#303b45;}.cls-20{fill:#353430;}.cls-21{fill:#eaeaea;}.cls-22{fill:#ebebeb;}.cls-23{fill:#e51449;}.cls-24{fill:#323c3f;}.cls-25{fill:#adbfcf;}.cls-26{fill:#f9fafd;}.cls-27{fill:#114369;}.cls-28{fill:#edf1f4;}.cls-29{fill:#efedee;}.cls-30{fill:#0f2d43;}.cls-31{fill:#134269;}.cls-32{fill:#a36f1c;}.cls-33{fill:#fff;}.cls-34{fill:#e6e9f3;}.cls-35{fill:#ced2e3;}.cls-36{fill:#6786a0;}.cls-37{fill:#ded5bd;}.cls-38{fill:#fff8e7;}.cls-39{fill:#3a4169;}.cls-40{fill:#f08cb8;mix-blend-mode:multiply;}.cls-41{fill:#d4a141;}</style></defs><title>G14_04_03</title><g class="cls-1"><g id="Livello_1" data-name="Livello 1"><polygon class="cls-2" points="185.79 91.39 185.79 96.14 96.32 148.91 96.32 144.16 185.79 91.39"/><polygon class="cls-3" points="96.32 144.16 96.32 148.91 0.22 93.18 0.22 88.43 96.32 144.16"/><polygon class="cls-4" points="96.1 144.18 0 88.45 0 88.18 90.31 36.28 185.79 91.4 96.25 144.27 96.1 144.18"/><ellipse class="cls-2" cx="90.23" cy="88.69" rx="65.41" ry="34.02"/></g><g id="Livello_3" data-name="Livello 3"><g class="cls-1"><polygon class="cls-5" points="112.73 48.65 114.96 47.34 115.03 24.87 112.79 26.17 112.73 48.65"/><polygon class="cls-6" points="112.79 26.17 115.03 24.87 112.6 23.47 110.36 24.77 112.79 26.17"/><polygon class="cls-7" points="110.36 24.77 110.3 47.24 112.73 48.65 112.79 26.17 110.36 24.77"/></g><g class="cls-1"><path class="cls-8" d="M204.56,87.4l1.65-1-.13.07-1.65,1,.13-.07Z" transform="translate(-98.52 -77.28)"/><path class="cls-9" d="M206.21,86.45a4.57,4.57,0,0,1,3.09-.31,9,9,0,0,1,2.54,1,15.28,15.28,0,0,1,4,3.55,17.62,17.62,0,0,1,2.43,3.89,11,11,0,0,1,1,3.53l.95,12c.14,1.79-.42,3-1.44,3.63l-1.65,1c1-.59,1.58-1.84,1.44-3.62l-1-12a10.88,10.88,0,0,0-1-3.53,17.45,17.45,0,0,0-2.43-3.9,15.42,15.42,0,0,0-4-3.54,8.72,8.72,0,0,0-2.54-1,4.57,4.57,0,0,0-3.09.3Z" transform="translate(-98.52 -77.28)"/><path class="cls-4" d="M210.19,88.11C206.4,85.92,203,87,202.7,90.46l-1,10.83c-.33,3.48,2.55,8.14,6.4,10.36l4,2.34c3.84,2.22,6.74.88,6.44-2.95l-1-12C217.33,95.23,214,90.3,210.19,88.11Z" transform="translate(-98.52 -77.28)"/></g><g class="cls-1"><path class="cls-10" d="M189.29,121.73c-3.42,2-3.44,5.18,0,7.16l5.45,3.17a13.64,13.64,0,0,0,12.35,0l5.49-3.17c3.42-2,3.44-5.18,0-7.16l-5.45-3.16a13.6,13.6,0,0,0-12.36,0Z" transform="translate(-98.52 -77.28)"/></g><g class="cls-1"><path class="cls-9" d="M187,124.73a5.24,5.24,0,0,0,2.29,2.36l5.45,3.16a13.62,13.62,0,0,0,12.35,0l5.49-3.16c1.72-1,2.58-2.3,2.58-3.61v2.19c0,1.31-.86,2.61-2.59,3.61l-5.48,3.16a13.59,13.59,0,0,1-12.36,0l-5.45-3.17a5.21,5.21,0,0,1-2.28-2.36,3,3,0,0,1-.25-1.19v-2.2A3,3,0,0,0,187,124.73Z" transform="translate(-98.52 -77.28)"/><path class="cls-4" d="M189.29,119.93c-3.42,2-3.44,5.18,0,7.16l5.45,3.16a13.58,13.58,0,0,0,12.35,0l5.49-3.16c3.42-2,3.44-5.18,0-7.16l-5.45-3.17a13.66,13.66,0,0,0-12.36,0Z" transform="translate(-98.52 -77.28)"/></g><path class="cls-5" d="M187,126.53a5.14,5.14,0,0,0,2.29,2.36l5.45,3.17a13.62,13.62,0,0,0,12.35,0l5.49-3.17c1.72-1,2.58-2.3,2.58-3.61v2.2c0,1.3-.86,2.61-2.59,3.6l-5.48,3.17a13.64,13.64,0,0,1-12.36,0l-5.45-3.17a5.12,5.12,0,0,1-2.28-2.36,3,3,0,0,1-.25-1.19v-2.19A3,3,0,0,0,187,126.53Z" transform="translate(-98.52 -77.28)"/><path class="cls-11" d="M202.1,94.19c-3,2.28-5.15,10.51-6.4,14.39l2.4,2c.1-.18.84-.28.94-.46,2.11-3.63,5.45-8.89,6.57-12.52.47-1.5.14-3.06-.89-3.56A2.79,2.79,0,0,0,202.1,94.19Z" transform="translate(-98.52 -77.28)"/><circle class="cls-12" cx="87.63" cy="37.78" r="2.83"/><path class="cls-11" d="M196,107.68c-3.15,1.66-5.78,3.18-9.11,5a24.13,24.13,0,0,0,1.68,2c3.12-1.1,6-1.92,9.14-3.34,1.7-.76,1.87-2,1.5-2.91S197.67,106.83,196,107.68Z" transform="translate(-98.52 -77.28)"/><path class="cls-13" d="M210.17,93.66c-1.88,1.12-3.62,1.59-5.45,2.81l-.05,2.43c2-1.75,3.56-2.17,5.8-3.61Z" transform="translate(-98.52 -77.28)"/><path class="cls-13" d="M204.91,93a13.14,13.14,0,0,0-.13,3.53c-.63.39-1.25,1-1.91,1.31a31.9,31.9,0,0,1,.85-4.46Z" transform="translate(-98.52 -77.28)"/><path class="cls-14" d="M200.79,88.26c0,.72.5,1.36.47,2.07,0,1.32-.62,10.52.53,10.41s1,1.41,2.05,2c.82.44,1.33,1.32,2.16,1.76a3.11,3.11,0,0,0,2.71-.06,2.15,2.15,0,0,0,.18.24,3.38,3.38,0,0,0,3.2,1.19c.91-.24,1.6-1,2.51-1.24,1.11-.3,2.26.23,3.35.6s2.48.5,3.25-.36a2.86,2.86,0,0,0,.37-2.59,9.13,9.13,0,0,1-.5-2.66c.08-1,.68-2,.45-3-.29-1.29-1.9-2.18-1.66-3.48.13-.7.79-1.21.93-1.91.17-.9-.57-1.7-1.3-2.24-2.12-1.56-1.62-2.57-1.83-4.94a9.75,9.75,0,0,0-1.4-4.07c-.95-1.51-5.44-4.14-8.55-1.64A8,8,0,0,0,205.44,82c-.73,2.27-.47,3.36-2.88,4.41C201.72,86.73,200.82,87.35,200.79,88.26Z" transform="translate(-98.52 -77.28)"/><polygon class="cls-15" points="88.12 47.43 88.44 54.27 88.1 72.53 86.29 71.49 86.31 46.39 88.12 47.43"/><polygon class="cls-16" points="88.12 47.43 89.89 46.4 89.87 71.5 88.1 72.53 88.12 47.43"/><path class="cls-15" d="M203.69,114.06a3,3,0,0,0,0-.52l-1.44-.83a4.3,4.3,0,0,1,0,.61s0,.06,0,.09c0,.2-.08.39-.13.59,0,0,0,0,0,0-.07.21-.14.42-.23.63v0c-.09.21-.2.42-.31.62v0c-.12.19-.24.38-.38.57l0,0-.39.47-.09.09c-.11.12-.23.22-.34.32l-.16.13a3.45,3.45,0,0,1-.5.35l1.44.84a3.45,3.45,0,0,0,.5-.35,1.07,1.07,0,0,0,.16-.14l.23-.2.11-.11.09-.1.1-.1.21-.27.08-.1,0-.05.07-.09.16-.23.13-.23,0,0h0c0-.07.07-.13.1-.19l.12-.23.09-.21h0a2.44,2.44,0,0,0,.1-.24l.09-.26a.56.56,0,0,0,0-.12l0-.06a.29.29,0,0,0,0-.09,2.81,2.81,0,0,0,.08-.31l0-.18s0-.06,0-.1S203.69,114.09,203.69,114.06Z" transform="translate(-98.52 -77.28)"/><polygon class="cls-15" points="105.2 36.27 103.77 35.43 103.72 20.45 105.16 21.28 105.2 36.27"/><polygon class="cls-17" points="105.16 21.28 103.72 20.45 104.69 19.89 106.13 20.73 105.16 21.28"/><polygon class="cls-17" points="101.1 40.05 87.21 48.07 88.65 48.9 102.54 40.88 101.1 40.05"/><path class="cls-16" d="M204.65,98l-1,.56,0,15a5.88,5.88,0,0,1-2.67,4.62l-13.89,8v1.11l13.9-8a8,8,0,0,0,3.62-6.28Z" transform="translate(-98.52 -77.28)"/><path class="cls-13" d="M210.89,95.45c3.35,1.93,5.18,4,4.09,4.64s-4.68-.42-8-2.36-5.21-3.6-4.13-4.23S207.54,93.51,210.89,95.45Z" transform="translate(-98.52 -77.28)"/><path class="cls-11" d="M210.89,87.92c-.27,1-1.47,3.32-.64,6.09l-6.16,3.16.51-2.57a11.78,11.78,0,0,0,.75-5.62Z" transform="translate(-98.52 -77.28)"/><path class="cls-13" d="M210.29,93.25c.19.56-.13,1.3.11,1.75.6,1.11,1.89,1.68,3,2.5,2.84,2.12.12,7.45-1.75,11a12.91,12.91,0,0,0-1.5,4.86,4.77,4.77,0,0,0,.13,2.4c4.73,12.38-10.11,20-12.57,11.16-.7-2.5-.32-6.07,2.06-11.46.81-1.85.31-3.22.33-4.15s-.66-2.24-1.17-4.3a7,7,0,0,1-.9-4.43c.25-1.76,1.52-3.8,2.58-6a11.87,11.87,0,0,1,1.73-3c.48-.49,1.64-.4,2.58-.64a9.26,9.26,0,0,0,.08,3.18C205.68,95.69,208.82,94.28,210.29,93.25Z" transform="translate(-98.52 -77.28)"/><path class="cls-13" d="M211.73,122.31c-.18,2.39-.86,5.19-2.77,6.72-3.37,2.71-9.83,1.87-14.81,5.58-4.5-2.05-9.88-4.94-12.14-6.71.6-1.48,1.11-2.94,2.6-3.83,2.55-1.51,12-7.1,14.43-7.36a6.43,6.43,0,0,0,.58-1l-.06-.06c1.18-2.68,0-5.9-.66-8.49a7.7,7.7,0,0,1-1-4.64,6.56,6.56,0,0,1,.83-2.2c.06-.13-.71-.38-.65-.51.39-.84,1.77-3.48,2.31-4.31.67-1,.75-1.34,1.59-1.86a5.87,5.87,0,0,1,2.15-.72c-.92.87-2.05,4.47-2.17,7,2.87-1.13,6.69-3.22,8-4.62.32-.34.4,0,.62-.23,1.38,1.05,1.61,1.49,2.79,2.37a2.72,2.72,0,0,1,.73.79,1.84,1.84,0,0,0-2.3-.41c-2.24.81-2.59,4.31-2.45,7.34.09,2.09.72,3.55,2.45,3.64-.84,2-1.51,3.83-1.32,5,.4,2.39,1.58,4.69,1.28,8.39Z" transform="translate(-98.52 -77.28)"/><circle class="cls-18" cx="110.54" cy="6.84" r="4.88"/><path class="cls-12" d="M201.1,85.09a6,6,0,1,0,7-4.77A6,6,0,0,0,201.1,85.09Z" transform="translate(-98.52 -77.28)"/><path class="cls-14" d="M202.44,84.28a1.21,1.21,0,0,1-.65-1,6,6,0,0,1,11.08,4.1,6.53,6.53,0,0,1-.2.76,1.91,1.91,0,0,1-.79-.18c-.56-.25-1.8-1-1.23-1.62-.28.31-.39.81-.42,2.19C208.71,84.78,204.51,85.55,202.44,84.28Z" transform="translate(-98.52 -77.28)"/><path class="cls-12" d="M210.32,87a1.82,1.82,0,1,0,2.13-1.45A1.82,1.82,0,0,0,210.32,87Z" transform="translate(-98.52 -77.28)"/><path class="cls-19" d="M189.39,149.05a11.64,11.64,0,0,1,.88,3.51c0,1.29-.5,1.65-.5,1.65a29.12,29.12,0,0,1-3.33.81c-.73,0-1.94,1.2-3.67,1.32s-4,.64-4.2-.73c-.15-.83,2-1.62,4.51-3.32a13.64,13.64,0,0,0,2.87-2.76Z" transform="translate(-98.52 -77.28)"/><path class="cls-19" d="M188.69,143.35c.38,3.54.68,6.24.68,6.24s.1,1.12-1.42,1.2a2,2,0,0,1-2-1.26s-.62-2.55-1.48-6.2Z" transform="translate(-98.52 -77.28)"/><path class="cls-19" d="M193.6,145.59c.38,3.54.76,6.27.76,6.27s0,1.09-1.51,1.16a1.73,1.73,0,0,1-1.79-1.43s-.82-2.37-1.69-6Z" transform="translate(-98.52 -77.28)"/><path class="cls-19" d="M194.35,151.66s-.14,1.23-1.24,1.17a3.56,3.56,0,0,1-2.05-1.24s.41,1-.54,4.21c-.53,1.78-1.57,6.75.34,7.44,1.38.49,3.28-1.11,3.51-2.13.1-.42.5-4.89.43-5.31C194.59,154.36,194.35,151.66,194.35,151.66Z" transform="translate(-98.52 -77.28)"/><path class="cls-20" d="M210,93.92c-1.89,1.12-3.1,1-4.93,2.18l-.57,3.06c2.09-1.44,4-2.44,6.12-4Z" transform="translate(-98.52 -77.28)"/><path class="cls-20" d="M204.72,93.25c-.12.6.19,1.15.33,2.85-.63.4-1.71,1.64-2.37,2A19,19,0,0,1,204,93Z" transform="translate(-98.52 -77.28)"/><path class="cls-13" d="M210.44,93.25c-1.88,1.11-3.61,1.59-5.44,2.81l-.06,2.42c2-1.75,3.56-2.17,5.81-3.6Z" transform="translate(-98.52 -77.28)"/><path class="cls-13" d="M205.18,92.57a13.2,13.2,0,0,0-.13,3.53c-.63.4-1.25,1-1.9,1.32A30.25,30.25,0,0,1,204,93Z" transform="translate(-98.52 -77.28)"/><circle class="cls-21" cx="107.48" cy="19.34" r="0.68"/><ellipse class="cls-21" cx="204.08" cy="95.87" rx="0.68" ry="0.52" transform="translate(-101.85 107.04) rotate(-48.26)"/><path class="cls-22" d="M200.6,117.56l-1-.3s4.89-15.15,10.57-20.21c.68-.6,1.84-1.16,2.54-.59a7.58,7.58,0,0,1,.9.77s-1.49,0-4.15,2.79C205.87,103.81,200.6,117.56,200.6,117.56Z" transform="translate(-98.52 -77.28)"/><path class="cls-22" d="M211.6,117.82a22.55,22.55,0,0,0-2.25-.5c-2.65-.41-10.46-.58-10.46-.58l.88-3.23s7,1,9.39,1a7.29,7.29,0,0,0,1.63-.15Z" transform="translate(-98.52 -77.28)"/><path class="cls-11" d="M211.1,99.39c-1.6,3.4.27,11.7.94,15.73l3,.61c0-.19.62-.62.63-.83.2-4.19.74-10.4.06-14.14-.28-1.55-1.28-2.78-2.43-2.75A2.81,2.81,0,0,0,211.1,99.39Z" transform="translate(-98.52 -77.28)"/><circle class="cls-12" cx="103.95" cy="43.97" r="2.83"/><path class="cls-11" d="M212.08,113.51c-3.09,1.77-5.66,3.4-8.93,5.35.63.74,1,1.21,1.76,2,3.08-1.21,5.88-2.14,9-3.68,1.66-.82,1.79-2.07,1.38-3S213.68,112.6,212.08,113.51Z" transform="translate(-98.52 -77.28)"/><path class="cls-13" d="M210.89,99.31c-.76,1.63-.83,5.13-.53,8l6.12-.33a39.3,39.3,0,0,0-.57-6.15c-.29-1.59-1.39-3.14-2.57-3.11A3.36,3.36,0,0,0,210.89,99.31Z" transform="translate(-98.52 -77.28)"/><polygon class="cls-5" points="116.02 81.84 115.91 117 143.63 100.92 143.73 65.77 116.02 81.84"/><polygon class="cls-5" points="54.4 81.22 81.35 65.55 81.44 33.63 54.48 49.3 54.4 81.22"/><path class="cls-23" d="M200,80.1s0,0,0,0l0,0s0,0,0,0S200.07,80.11,200,80.1Z" transform="translate(-98.52 -77.28)"/><polygon class="cls-24" points="116.02 81.84 143.86 65.68 79.69 28.71 51.96 44.66 116.02 81.84"/><polygon class="cls-7" points="113.35 83.37 113.3 115.47 115.91 116.98 116 81.82 51.96 44.66 51.86 79.81 54.47 81.32 54.56 49.41 113.35 83.37"/><path class="cls-25" d="M174.87,116.33a.61.61,0,0,0,.38.52l.65.38v-.83l1.31-.76,1.28.74-.73.43-.55-.32-.58.33.55.32,1.31-.76v.05l.63-.37a1.85,1.85,0,0,1,.22-.52l-.42-.24v-.85l1.3-.76.3.17v-.34l1.31-.76.28.17v-.34l1.3-.76,1.29.74v.21l.18-.11,1.28.75v.2l.18-.1,1.28.74v.2l.18-.1,1.28.74v.21l.18-.11,1.28.75v.2l.18-.1,1.28.74v.2l.18-.1,1.28.74v.21l.18-.1,1.28.73v.21l.18-.1,1.28.74v.2l.18-.1,1.28.74v.21l.18-.11,1.29.75v.2l.17-.1,1.29.74v.2l.17-.1,1.29.74h0v.21l.17-.11,1.29.75v.76l.65-.39,1.29.75v.77l.61-.35a.63.63,0,0,0,.36-.51v.84a.62.62,0,0,1-.37.52l-7.46,4.34a2,2,0,0,1-1.79,0L175.24,117.7a.62.62,0,0,1-.37-.52Z" transform="translate(-98.52 -77.28)"/><path class="cls-26" d="M175.24,115.82l7.46-4.34a2,2,0,0,1,1.79,0L206.25,124c.49.29.5.75,0,1l-7.47,4.33a1.93,1.93,0,0,1-1.78,0l-21.76-12.56A.54.54,0,0,1,175.24,115.82Z" transform="translate(-98.52 -77.28)"/><polygon class="cls-27" points="84.77 36.33 83.46 37.09 84.75 37.83 86.05 37.07 84.77 36.33"/><polygon class="cls-27" points="81.71 36.41 80.41 37.17 81.69 37.91 82.99 37.16 81.71 36.41"/><polygon class="cls-27" points="83.17 37.26 81.86 38.02 83.15 38.76 84.45 38 83.17 37.26"/><polygon class="cls-27" points="84.63 38.1 83.33 38.86 84.61 39.6 85.92 38.84 84.63 38.1"/><polygon class="cls-27" points="88.32 38.37 87.01 39.13 90.59 41.2 91.9 40.44 88.32 38.37"/><polygon class="cls-27" points="92.08 40.55 90.77 41.3 92.05 42.05 93.36 41.28 92.08 40.55"/><polygon class="cls-27" points="86.6 39.37 85.09 40.25 84.22 40.76 83.78 41.01 85.94 42.26 87.25 41.5 86.58 41.12 88.1 40.24 86.6 39.37"/><polygon class="cls-27" points="93.54 41.39 92.23 42.15 93.51 42.89 94.82 42.13 93.54 41.39"/><polygon class="cls-27" points="91.46 42.04 90.15 42.8 91.44 43.54 92.74 42.78 91.46 42.04"/><polygon class="cls-27" points="95 42.23 93.69 42.99 94.97 43.73 96.28 42.97 95 42.23"/><polygon class="cls-27" points="92.9 42.88 91.59 43.63 92.88 44.38 94.19 43.62 92.9 42.88"/><polygon class="cls-27" points="96.46 43.07 95.15 43.83 96.43 44.58 97.74 43.82 96.46 43.07"/><polygon class="cls-27" points="94.35 43.71 93.04 44.47 94.32 45.21 95.63 44.45 94.35 43.71"/><polygon class="cls-27" points="97.92 43.92 96.61 44.68 97.9 45.42 99.2 44.66 97.92 43.92"/><polygon class="cls-27" points="95.79 44.54 94.48 45.3 95.77 46.04 97.07 45.28 95.79 44.54"/><polygon class="cls-27" points="99.38 44.76 98.07 45.52 99.36 46.26 100.66 45.5 99.38 44.76"/><polygon class="cls-27" points="97.23 45.38 95.93 46.13 97.21 46.88 98.52 46.12 97.23 45.38"/><polygon class="cls-27" points="100.84 45.61 99.53 46.36 100.81 47.1 102.12 46.35 100.84 45.61"/><polygon class="cls-27" points="98.68 46.21 97.37 46.97 98.66 47.71 99.96 46.95 98.68 46.21"/><polygon class="cls-27" points="100.12 47.05 98.82 47.8 100.1 48.55 101.41 47.79 100.12 47.05"/><polygon class="cls-27" points="102.36 46.48 101.06 47.24 104.22 49.07 105.53 48.31 102.36 46.48"/><polygon class="cls-27" points="101.57 47.88 100.27 48.64 102.62 50 103.93 49.24 101.57 47.88"/><polygon class="cls-27" points="83.31 35.48 82 36.24 83.29 36.98 84.59 36.22 83.31 35.48"/><polygon class="cls-27" points="86.23 37.17 84.93 37.93 86.21 38.67 87.52 37.91 86.23 37.17"/><polygon class="cls-27" points="81.55 38.37 81.38 38.47 80.24 39.13 81.53 39.87 82.84 39.11 82.7 39.03 81.55 38.37"/><polygon class="cls-27" points="78.66 38.37 77.36 39.12 78.64 39.86 79.95 39.1 78.66 38.37"/><polygon class="cls-27" points="80.12 39.21 78.81 39.97 80.1 40.71 81.41 39.95 80.12 39.21"/><polygon class="cls-27" points="81.58 40.05 80.28 40.81 81.56 41.55 82.87 40.79 81.58 40.05"/><polygon class="cls-27" points="83.05 40.89 81.74 41.65 83.02 42.4 84.33 41.63 83.05 40.89"/><polygon class="cls-27" points="84.5 41.74 83.2 42.5 84.48 43.24 85.79 42.48 84.5 41.74"/><polygon class="cls-27" points="85.97 42.58 84.66 43.34 85.94 44.08 87.25 43.32 85.97 42.58"/><polygon class="cls-27" points="88.89 44.27 87.58 45.03 88.86 45.77 90.17 45.01 88.89 44.27"/><polygon class="cls-27" points="90.35 45.11 89.04 45.87 90.33 46.61 91.63 45.85 90.35 45.11"/><polygon class="cls-27" points="91.81 45.96 90.5 46.71 91.78 47.45 93.09 46.7 91.81 45.96"/><polygon class="cls-27" points="93.27 46.8 91.96 47.56 93.25 48.3 94.55 47.54 93.27 46.8"/><polygon class="cls-27" points="94.73 47.64 93.42 48.4 94.71 49.14 96.01 48.38 94.73 47.64"/><polygon class="cls-27" points="96.19 48.48 94.88 49.24 96.17 49.98 97.47 49.23 96.19 48.48"/><polygon class="cls-27" points="97.65 49.33 96.34 50.09 97.63 50.83 98.94 50.07 97.65 49.33"/><polygon class="cls-27" points="99.6 50.45 98.28 51.21 99.57 51.95 100.88 51.19 99.6 50.45"/><polygon class="cls-27" points="87.43 43.42 86.12 44.18 87.4 44.92 88.71 44.16 87.43 43.42"/><polygon class="cls-27" points="88.57 40.38 87.27 41.13 88.55 41.88 89.86 41.12 88.57 40.38"/><polygon class="cls-27" points="90.02 41.21 88.71 41.97 89.99 42.71 91.3 41.95 90.02 41.21"/><polygon class="cls-27" points="93.04 39.2 91.73 39.96 94.28 41.43 95.59 40.67 93.04 39.2"/><polygon class="cls-27" points="95.75 40.76 94.44 41.52 100.72 45.15 102.02 44.39 95.75 40.76"/><polygon class="cls-27" points="102.22 44.5 100.92 45.26 103.08 46.51 104.39 45.75 102.22 44.5"/><polygon class="cls-27" points="104.65 45.91 103.35 46.66 105.9 48.13 107.2 47.38 104.65 45.91"/><polygon class="cls-27" points="85.17 34.64 83.87 35.4 85.15 36.14 86.46 35.38 85.17 34.64"/><polygon class="cls-27" points="86.63 35.48 86.45 35.58 85.32 36.24 86.61 36.98 87.91 36.22 87.78 36.14 86.63 35.48"/><polygon class="cls-27" points="88.04 36.29 86.73 37.05 88.02 37.79 89.32 37.03 88.04 36.29"/><polygon class="cls-27" points="90.13 37.52 88.82 38.28 91.47 39.81 92.77 39.05 90.13 37.52"/><polygon class="cls-27" points="97.71 47.5 96.4 48.26 97.68 49 98.99 48.24 97.71 47.5 97.71 47.5"/><polygon class="cls-27" points="97.56 47.42 96.28 46.68 94.97 47.44 96.25 48.18 97.56 47.42 97.56 47.42"/><polygon class="cls-27" points="96.12 46.59 94.83 45.84 93.53 46.6 94.81 47.35 96.12 46.59 96.12 46.59"/><polygon class="cls-27" points="94.69 45.76 93.41 45.02 92.1 45.78 93.38 46.52 94.69 45.76 94.69 45.76"/><polygon class="cls-27" points="93.2 44.9 91.92 44.16 90.61 44.92 91.89 45.66 93.2 44.9 93.2 44.9"/><polygon class="cls-27" points="91.77 44.07 90.49 43.33 89.18 44.09 90.46 44.83 91.77 44.07 91.77 44.07"/><polygon class="cls-27" points="90.33 43.24 89.04 42.5 87.73 43.26 89.02 44 90.33 43.24 90.33 43.24"/><polygon class="cls-27" points="88.9 42.42 87.61 41.67 86.31 42.43 87.59 43.18 88.9 42.42 88.9 42.42"/><polygon class="cls-27" points="102.33 50.17 99.16 48.34 97.86 49.1 101.02 50.93 102.33 50.17 102.33 50.17"/><g class="cls-1"><path class="cls-26" d="M176.5,122.57,172.23,125a.46.46,0,0,1,.47,0l4.26-2.48A.44.44,0,0,0,176.5,122.57Z" transform="translate(-98.52 -77.28)"/><polygon class="cls-28" points="88.35 56 92.62 53.52 78.44 45.33 74.18 47.81 88.35 56"/><path class="cls-25" d="M186.88,133.27l4.26-2.48a1.47,1.47,0,0,1,.66,1.14v.38a.46.46,0,0,1-.19.42l-4.26,2.48a.46.46,0,0,0,.19-.42v-.38A1.46,1.46,0,0,0,186.88,133.27Z" transform="translate(-98.52 -77.28)"/><path class="cls-25" d="M172.7,125.09c-.36-.21-.66,0-.66.37v.38a1.46,1.46,0,0,0,.65,1.14l14.18,8.18c.36.21.66,0,.66-.37v-.38a1.46,1.46,0,0,0-.65-1.14Z" transform="translate(-98.52 -77.28)"/></g><path class="cls-25" d="M195.06,130v-.69l-.25.15-27.63-16L168,113l0-16.56a.78.78,0,0,1,0-.16v0h0a.32.32,0,0,1,0-.09v0h0a0,0,0,0,1,0,0,.4.4,0,0,1,.18-.22l1-.58-.44-.25a1.45,1.45,0,0,0-.29-.13,1.37,1.37,0,0,0,0,.29l-1.23.71a1.1,1.1,0,0,1,.45-1l.87-.5-.29-.17a.91.91,0,0,0-.9-.09l.49-.28.06,0,.49-.28.18-.1a.88.88,0,0,1,.9.08l25.6,14.78a2.83,2.83,0,0,1,1.26,2.19l-.05,16.09v2.53a.9.9,0,0,1-.37.82l-1.21.7A.89.89,0,0,0,195.06,130Z" transform="translate(-98.52 -77.28)"/><path class="cls-25" d="M168,96.28h0Z" transform="translate(-98.52 -77.28)"/><path class="cls-25" d="M168,96.39v0h0Z" transform="translate(-98.52 -77.28)"/><path class="cls-29" d="M168.77,96c-.42-.24-.77-.05-.77.43L168,113l26.09,15.07,0-16.56a1.67,1.67,0,0,0-.76-1.31Z" transform="translate(-98.52 -77.28)"/><g class="cls-1"><polygon class="cls-30" points="88.72 54.91 89.94 54.2 89.95 48.94 88.73 49.64 88.72 54.91"/><polygon class="cls-31" points="88.73 49.64 89.95 48.94 77.43 41.71 76.22 42.41 88.73 49.64"/><polygon class="cls-31" points="76.22 42.41 76.2 47.68 88.72 54.91 88.73 49.64 76.22 42.41"/></g><path class="cls-29" d="M167.19,113.47l27.63,16,.05-17.44a3.38,3.38,0,0,0-1.52-2.64L168.77,95.16c-.84-.49-1.53-.1-1.54.87Zm26.86,14.63L168,113l0-16.56c0-.48.35-.67.77-.43l24.57,14.19a1.67,1.67,0,0,1,.76,1.31l0,16.56Z" transform="translate(-98.52 -77.28)"/><path class="cls-29" d="M166.94,113.73a2.78,2.78,0,0,0,1.26,2.19l6.54,3.77,12.52,7.23,6.54,3.78c.7.4,1.26.07,1.26-.73v-2.53l.05-16.1a2.77,2.77,0,0,0-1.26-2.18l-25.6-14.78c-.7-.4-1.27-.07-1.27.72l-.05,16.1v2.53Zm.25-.26h0l0-8.72,0-8.72a1.33,1.33,0,0,1,.16-.67l0-.06.08-.1a1,1,0,0,1,1.27,0l24.58,14.19a2.66,2.66,0,0,1,.72.63,1.83,1.83,0,0,1,.13.16l.12.17a3.28,3.28,0,0,1,.55,1.68l-.05,17.44-27.63-16Z" transform="translate(-98.52 -77.28)"/><polygon class="cls-32" points="110.37 54.18 99.2 60.67 119.12 72.1 130.29 65.61 110.37 54.18"/><polygon class="cls-33" points="117.17 56.3 106 61.8 122.12 71.1 133.29 64.61 117.17 56.3"/><polyline class="cls-34" points="120.12 69.1 104 59.8 104 61.47 120.12 70.77 120.12 69.1"/><polygon class="cls-35" points="120.12 69.1 120.12 70.77 131.29 64.28 131.29 62.61 120.12 69.1"/><polygon class="cls-33" points="115.17 53.3 104 59.8 120.12 69.1 131.29 62.61 115.17 53.3"/><polygon class="cls-36" points="119.93 56.7 110.65 62.09 110.85 62.2 120.13 56.81 119.93 56.7"/><polygon class="cls-36" points="115.72 62.45 120.57 59.63 120.37 59.51 115.51 62.33 115.72 62.45"/><polygon class="cls-36" points="121.08 57.36 111.81 62.75 112.01 62.87 121.28 57.48 121.08 57.36"/><polygon class="cls-36" points="121.66 57.7 112.38 63.09 112.59 63.2 121.86 57.81 121.66 57.7"/><polygon class="cls-36" points="123.26 58.62 113.98 64.01 114.19 64.13 123.47 58.74 123.26 58.62"/><polygon class="cls-36" points="123.84 58.95 114.56 64.34 114.77 64.46 124.04 59.07 123.84 58.95"/><polygon class="cls-36" points="124.42 59.29 115.14 64.68 115.34 64.8 124.62 59.41 124.42 59.29"/><polygon class="cls-36" points="124.99 59.62 115.72 65.01 115.92 65.13 125.2 59.74 124.99 59.62"/><polygon class="cls-36" points="125.57 59.95 116.3 65.34 116.5 65.46 125.78 60.07 125.57 59.95"/><polygon class="cls-36" points="126.15 60.29 116.87 65.68 117.08 65.8 126.35 60.41 126.15 60.29"/><polygon class="cls-36" points="120.5 57.03 111.23 62.42 111.43 62.54 120.71 57.15 120.5 57.03"/><polygon class="cls-36" points="119.35 56.36 110.07 61.75 110.28 61.87 119.55 56.48 119.35 56.36"/><polygon class="cls-36" points="118.77 56.03 109.5 61.42 109.7 61.54 118.97 56.15 118.77 56.03"/><polygon class="cls-36" points="111.23 59.86 116.08 57.04 115.88 56.92 111.03 59.74 111.23 59.86"/><polygon class="cls-36" points="115.22 55.01 107.72 59.37 108.24 59.67 115.74 55.31 115.22 55.01"/><path class="cls-37" d="M227.57,139.39h0a.52.52,0,0,1-.3-.06c-.08-.05-.11-.11-.09-.17l0,0-.06,0a.49.49,0,0,1-.29-.06c-.09-.05-.12-.11-.1-.17l0,0-.05,0a.45.45,0,0,1-.3,0c-.08-.05-.11-.12-.09-.17l0,0-.06,0a.49.49,0,0,1-.29-.06c-.09,0-.12-.11-.1-.17h0l0,0-.28-.16-.27.16h0l0,0c0,.06,0,.12-.09.17a.56.56,0,0,1-.29.05l-.05,0-.05,0c0,.05,0,.12-.09.16a.48.48,0,0,1-.29.06l0,0-.05,0c0,.06,0,.12-.08.17a.43.43,0,0,1-.29.05l0,0-.05,0c0,.06,0,.12-.09.17a.47.47,0,0,1-.29.05l-.05,0,0,0c0,.05,0,.12-.09.16a.48.48,0,0,1-.29.06l0,0,0,0c0,.06,0,.12-.09.17a.42.42,0,0,1-.29,0l0,0h0l-.28.16.28.16,0,0h0a.52.52,0,0,1,.3.06c.08.05.11.11.09.17l.06,0,0,0a.58.58,0,0,1,.29,0c.09.05.12.12.1.17l0,0,.05,0a.52.52,0,0,1,.3.06c.08.05.11.11.09.17l.06,0,.05,0a.49.49,0,0,1,.29.06c.09,0,.12.11.1.17h0l0,0,.28.16.27-.16,0,0h0c0-.06,0-.12.09-.17a.47.47,0,0,1,.29-.05l.05,0,.05,0c0-.06,0-.12.09-.17a.56.56,0,0,1,.29-.05l0,0,.05,0s0-.12.08-.16a.51.51,0,0,1,.29-.06l0,0,.05,0c0-.06,0-.12.09-.17a.41.41,0,0,1,.29,0l.05,0,0,0c0-.06,0-.12.09-.17a.56.56,0,0,1,.29,0l0,0,.05,0c0-.05,0-.12.08-.16a.51.51,0,0,1,.29-.06h0l0,0,.28-.16Z" transform="translate(-98.52 -77.28)"/><polygon class="cls-38" points="126.8 61.15 123.96 62.8 125.91 63.93 128.75 62.28 126.8 61.15"/><path class="cls-39" d="M218.69,144.25a.26.26,0,0,1-.22.19.63.63,0,0,1-.38-.11l0,0a2.4,2.4,0,0,1-.71-.61c-.21-.28-.32-.61-.06-.88a.8.8,0,0,1,.44-.26.92.92,0,0,1,.52,0,1.18,1.18,0,0,1,.28.12l0,0a.45.45,0,0,1,.26,0l0,0s0,0,0,.05a.88.88,0,0,1,.37,0s0,.06,0,.06a2.6,2.6,0,0,0-.31.25.43.43,0,0,1,0,.05v0l.33-.16c.16-.08.35-.16.49-.25l.34-.22a.68.68,0,0,1,.26-.11s0,.08-.06.08a.82.82,0,0,0-.31.15l-.27.18c-.32.19-.71.33-1,.53h0a0,0,0,0,1,0,0,1.09,1.09,0,0,1,.17-.22l-.06-.09,0,0-.15.05s0,0,0,0l-.13,0a.29.29,0,0,0,.13.14s0,.06-.05.07a.41.41,0,0,1,.05.09,1.53,1.53,0,0,1,.14.39c.28-.21.55-.42.85-.62l.65-.4.26-.17a.49.49,0,0,1,.18-.08h0s0,0,0,0a.59.59,0,0,0-.26.14l-.26.16c-.21.13-.43.26-.63.4l-.77.57A.77.77,0,0,1,218.69,144.25Zm-.16.11c.09,0,.09-.09.09-.13a1,1,0,0,0,0-.29l-.26.2s0,0,0,0,0,0,0,0l.28-.21s0,0,0-.06a1.4,1.4,0,0,0-.18-.42h0a.42.42,0,0,1,.06.23c0,.07-.09.22-.24.18l-.11,0a1,1,0,0,1-.23-.22c-.07-.09-.15-.19-.1-.29a.3.3,0,0,1,.21-.16.06.06,0,0,1,0,0c0-.12.18-.18.35-.17a.25.25,0,0,1,.11-.12l0,0-.15-.07a1,1,0,0,0-.87,0c-.51.41,0,1,.5,1.35a1.1,1.1,0,0,0,.21.14,1.24,1.24,0,0,0,.2.1.44.44,0,0,0,.2,0m-.28-1.08,0,0h0c-.08,0-.31-.09-.35,0s.07.25.16.34a1.29,1.29,0,0,0,.17.15h0c.06,0,.15.06.15,0a.59.59,0,0,0-.17-.39s.05-.07.08-.07m.87-.42-.24,0a.35.35,0,0,1,0,.08.41.41,0,0,1,0,.09c.07-.07.16-.13.24-.2m-.63,0a.14.14,0,0,0-.12.09h0l.17.05.05,0,.07-.06a.76.76,0,0,0-.17-.13m-.22.28a.34.34,0,0,1,0-.1h-.18c-.05,0-.07.05,0,.08h0a.41.41,0,0,0,.2,0m.1,0,.11,0,0,0a.29.29,0,0,0-.1,0s0,0,0,.07m.45.12a0,0,0,0,0,0,0l-.06.09.08-.05h0m-.1-.39h0a.46.46,0,0,0,.07.07l0,0,0,0-.05,0m0,.18,0,0-.05.05h0l.06,0m.09-.08h0m-.51.26h0" transform="translate(-98.52 -77.28)"/><path class="cls-40" d="M226.05,138.5a1.59,1.59,0,0,0-1.41,0,.44.44,0,0,0,0,.82,1.56,1.56,0,0,0,1.41,0A.43.43,0,0,0,226.05,138.5Zm-.14.74a1.29,1.29,0,0,1-1.12,0,.34.34,0,0,1,0-.65,1.21,1.21,0,0,1,1.11,0A.35.35,0,0,1,225.91,139.24Zm.63-1a2.61,2.61,0,0,0-2.4,0c-.66.38-.66,1,0,1.39a2.67,2.67,0,0,0,2.4,0A.73.73,0,0,0,226.54,138.22Zm-.23,1.25a2.16,2.16,0,0,1-1.92,0,.59.59,0,0,1,0-1.11,2.08,2.08,0,0,1,1.91,0A.59.59,0,0,1,226.31,139.47Z" transform="translate(-98.52 -77.28)"/><polygon class="cls-41" points="110.37 52.18 99.2 58.67 119.12 70.1 130.29 63.61 110.37 52.18"/><polygon class="cls-41" points="121.59 56.48 113.16 59.07 124.63 65.65 131.06 61.91 121.59 56.48"/><path class="cls-41" d="M197.72,136a3.84,3.84,0,0,0-.5,1.25c0,.22.5.75.5.75l19.92,11.43a3.21,3.21,0,0,1-.5-.95,3.54,3.54,0,0,1,.5-1.05Z" transform="translate(-98.52 -77.28)"/></g></g></svg>