<svg xmlns="http://www.w3.org/2000/svg" xmlns:xlink="http://www.w3.org/1999/xlink" viewBox="0 0 147.78 147.78"><defs><style>.cls-1,.cls-3{fill:none;}.cls-2{clip-path:url(#clip-path);}.cls-3{stroke:#eaeaea;stroke-miterlimit:10;stroke-width:3.06px;}.cls-4{fill:#d5d5d4;}.cls-5{fill:#9f9f9f;}.cls-6{fill:#b8b8b8;}.cls-7{fill:#a3b1db;}.cls-8{fill:#5e6a95;}.cls-9{fill:#46506f;}.cls-10{fill:#8a8a8a;}.cls-11{fill:#5a703b;}.cls-12{fill:#f5ad1f;opacity:0.8;}.cls-13{fill:#2c464f;}.cls-14{fill:#406774;}.cls-15{fill:#343142;}.cls-16{fill:#ad1f17;}.cls-17{fill:#3f4855;}.cls-18{fill:#def0f0;}.cls-19{fill:#66abd1;}.cls-20{fill:#87cdd3;}</style><clipPath id="clip-path" transform="translate(-4.8 -3.46)"><circle class="cls-1" cx="78.76" cy="77.35" r="73.7"/></clipPath></defs><title>G14_05_06_02</title><g id="Marine"><g class="cls-2"><path class="cls-3" d="M78.69,149.7a72.06,72.06,0,0,0,44.8-15.55H33.89A72,72,0,0,0,78.69,149.7Z" transform="translate(-4.8 -3.46)"/><path class="cls-3" d="M78.69,5A72,72,0,0,0,32.51,21.64h92.35A72,72,0,0,0,78.69,5Z" transform="translate(-4.8 -3.46)"/><path class="cls-4" d="M15.88,41.43H141.49a72.82,72.82,0,0,0-16.63-19.79H32.51A72.82,72.82,0,0,0,15.88,41.43Z" transform="translate(-4.8 -3.46)"/><path class="cls-5" d="M13.45,46H143.92c-.75-1.56-1.57-3.08-2.43-4.58H15.88C15,42.93,14.2,44.45,13.45,46Z" transform="translate(-4.8 -3.46)"/><path class="cls-6" d="M6.33,77.35A72.27,72.27,0,0,0,7.47,90.08H149.9a72.24,72.24,0,0,0-4.77-41.4H12.24A72.06,72.06,0,0,0,6.33,77.35Z" transform="translate(-4.8 -3.46)"/><path class="cls-6" d="M12.24,48.68H145.13c-.39-.9-.78-1.79-1.21-2.67H13.45C13,46.89,12.63,47.78,12.24,48.68Z" transform="translate(-4.8 -3.46)"/><path class="cls-5" d="M149.9,90.08H7.47a72.31,72.31,0,0,0,26.42,44.07h89.6A72.29,72.29,0,0,0,149.9,90.08Z" transform="translate(-4.8 -3.46)"/><path class="cls-1" d="M50.91,8.4H38.4v7.9h1.46a72.51,72.51,0,0,1,11-5.78Z" transform="translate(-4.8 -3.46)"/><rect class="cls-1" x="15.97" y="4.94" width="12.52" height="7.9"/><path class="cls-7" d="M56,8.4v.23l.67-.23Z" transform="translate(-4.8 -3.46)"/><path class="cls-3" d="M39.86,16.3h11V10.52A72.51,72.51,0,0,0,39.86,16.3Z" transform="translate(-4.8 -3.46)"/><path class="cls-7" d="M56.7,8.4,56,8.63V16.3H68.54V8.4Z" transform="translate(-4.8 -3.46)"/><path class="cls-7" d="M108.92,11.61V16.3h.92V12Z" transform="translate(-4.8 -3.46)"/><rect class="cls-7" x="68.86" y="4.94" width="12.52" height="7.9"/><path class="cls-7" d="M100.67,8.4H91.29v7.9h12.52V9.47C102.77,9.09,101.72,8.74,100.67,8.4Z" transform="translate(-4.8 -3.46)"/><path class="cls-8" d="M113.62,16.3h3.89c-1.27-.81-2.56-1.59-3.89-2.32Z" transform="translate(-4.8 -3.46)"/><path class="cls-9" d="M109.84,12V16.3h3.78V14Q111.76,12.94,109.84,12Z" transform="translate(-4.8 -3.46)"/><path class="cls-10" d="M50.91,10.52V16.3h5V8.67C54.21,9.23,52.55,9.84,50.91,10.52Z" transform="translate(-4.8 -3.46)"/><path class="cls-10" d="M55.91,8.67V16.3H56V8.63Z" transform="translate(-4.8 -3.46)"/><path class="cls-6" d="M68.54,8.4V5.71A71.65,71.65,0,0,0,56.7,8.4Z" transform="translate(-4.8 -3.46)"/><path class="cls-10" d="M73.66,5.18c-1.72.12-3.43.29-5.12.53V16.3h5.12V5.18Z" transform="translate(-4.8 -3.46)"/><path class="cls-6" d="M73.66,5.18V8.4H86.18v-3A74.23,74.23,0,0,0,78.69,5C77,5,75.32,5.07,73.66,5.18Z" transform="translate(-4.8 -3.46)"/><path class="cls-10" d="M91.29,6.11c-1.69-.3-3.39-.56-5.11-.74V16.3h5.11V6.11Z" transform="translate(-4.8 -3.46)"/><path class="cls-6" d="M91.29,8.4h9.38a71.7,71.7,0,0,0-9.38-2.29Z" transform="translate(-4.8 -3.46)"/><path class="cls-10" d="M103.81,9.47V16.3h5.11V11.61C107.25,10.84,105.54,10.12,103.81,9.47Z" transform="translate(-4.8 -3.46)"/><path class="cls-11" d="M113.62,16.3H39.86a73,73,0,0,0-6.81,4.91h91.28a71.86,71.86,0,0,0-6.82-4.91Z" transform="translate(-4.8 -3.46)"/><path class="cls-12" d="M149.86,83.59h.9c.17-2.06.28-4.14.28-6.24a73.21,73.21,0,0,0-1-12.11h-.16Z" transform="translate(-4.8 -3.46)"/><path class="cls-12" d="M32.15,119.26a11.73,11.73,0,0,0,3.27-7.15c0-.39,0-.78,0-1.17v0a.84.84,0,0,1,.85-.82h.1a.83.83,0,0,1,.83.85c0,.22,0,.45,0,.68a11.65,11.65,0,0,0,3.46,7.46,11.44,11.44,0,0,0,16.14-.16A11.25,11.25,0,0,0,58,117.41c-1.9-1.51-3-2.65-3-3.07h.17a1.83,1.83,0,0,1-.19-.18L16.76,83.59H50.38V80.23h6.11v3.36h6.88V76.88H68v6.71H88.62V76.88H84V74H54.48V71H84V68.05h15.8v8.83H95.75v6.71h14.36V65.24H105.9V56.45H148A72.36,72.36,0,1,0,22.42,122.83a13.11,13.11,0,0,0,1.4.06A11.93,11.93,0,0,0,32.15,119.26Zm78.7-74.47v-6.5h16.82v18H110.85Z" transform="translate(-4.8 -3.46)"/><path class="cls-13" d="M110.11,83.59H16.76L54.9,114.16a1.83,1.83,0,0,0,.19.18h4.35a11.21,11.21,0,0,0,.51-3.4,1.28,1.28,0,1,1,2.56,0h0v0a11.17,11.17,0,0,0,.57,3.4H84.14a10.94,10.94,0,0,0,.54-3.4,1.55,1.55,0,0,1,3.09,0h0v0a19.29,19.29,0,0,0,.32,3.4h17.63a8.52,8.52,0,0,0,.1-1.24h0a1.56,1.56,0,0,1,3.12,0h0a10.19,10.19,0,0,0,.09,1.24H127a8.52,8.52,0,0,0,.1-1.24v0a1.42,1.42,0,1,1,2.84,0h0a10.19,10.19,0,0,0,.09,1.24h10.87a71.94,71.94,0,0,0,9.89-30.75H110.11Zm-65,13.24A4.33,4.33,0,1,1,49.4,92.5,4.33,4.33,0,0,1,45.08,96.83Zm24.18,9.27A2.74,2.74,0,1,1,72,103.36,2.74,2.74,0,0,1,69.26,106.1Zm9.23,0a2.74,2.74,0,1,1,2.75-2.74A2.74,2.74,0,0,1,78.49,106.1Zm40.77,0a2.74,2.74,0,1,1,2.74-2.74A2.74,2.74,0,0,1,119.26,106.1Zm9.24,0a2.74,2.74,0,1,1,2.74-2.74A2.74,2.74,0,0,1,128.5,106.1Z" transform="translate(-4.8 -3.46)"/><rect class="cls-14" x="105.31" y="61.78" width="39.75" height="18.35"/><path class="cls-14" d="M105.9,60.85h43.23c-.34-1.49-.73-3-1.16-4.4H105.9Z" transform="translate(-4.8 -3.46)"/><rect class="cls-13" x="106.06" y="41.34" width="16.82" height="11.47"/><polygon class="cls-15" points="90.96 70.06 90.96 73.42 95.04 73.42 95.04 64.59 79.24 64.59 79.24 67.51 79.24 70.5 79.24 73.42 83.83 73.42 83.83 70.06 90.96 70.06"/><rect class="cls-15" x="49.68" y="67.51" width="29.55" height="2.99"/><rect class="cls-15" x="83.83" y="73.42" width="7.13" height="6.7"/><rect class="cls-15" x="83.83" y="70.06" width="7.13" height="3.36"/><rect class="cls-15" x="58.58" y="73.42" width="4.58" height="6.7"/><rect class="cls-15" x="45.58" y="76.78" width="6.12" height="3.35"/><path class="cls-16" d="M55.09,114.34h-.17c.08.42,1.13,1.56,3,3.07a5.66,5.66,0,0,0,.31-.48C56.57,115.66,55.5,114.72,55.09,114.34Z" transform="translate(-4.8 -3.46)"/><path class="cls-16" d="M92.3,121a8.78,8.78,0,0,0,3.57,1,9,9,0,0,0,9.85-7.68H88.09a11.94,11.94,0,0,0,1.59,4.2A7.34,7.34,0,0,0,92.3,121Z" transform="translate(-4.8 -3.46)"/><path class="cls-16" d="M132.56,119.59a9.18,9.18,0,0,0,3.27,2.12,73.16,73.16,0,0,0,5-7.37H130A9.19,9.19,0,0,0,132.56,119.59Z" transform="translate(-4.8 -3.46)"/><path class="cls-16" d="M59.44,114.34H55.09c.41.38,1.48,1.32,3.17,2.59A11.22,11.22,0,0,0,59.44,114.34Z" transform="translate(-4.8 -3.46)"/><path class="cls-16" d="M117.94,122.15a9.08,9.08,0,0,0,9-7.81H109a9,9,0,0,0,8.91,7.81Z" transform="translate(-4.8 -3.46)"/><path class="cls-16" d="M73.73,122a11,11,0,0,0,10.41-7.67H63.08A11.1,11.1,0,0,0,73.73,122Z" transform="translate(-4.8 -3.46)"/><rect class="cls-16" x="106.06" y="34.84" width="16.82" height="6.5"/><path class="cls-17" d="M105.9,60.85v4.39H150c-.25-1.48-.55-2.95-.89-4.39Z" transform="translate(-4.8 -3.46)"/><path class="cls-18" d="M45.08,88.17A4.33,4.33,0,1,0,49.4,92.5,4.33,4.33,0,0,0,45.08,88.17Z" transform="translate(-4.8 -3.46)"/><path class="cls-15" d="M69.26,100.62A2.74,2.74,0,1,0,72,103.36,2.73,2.73,0,0,0,69.26,100.62Z" transform="translate(-4.8 -3.46)"/><path class="cls-15" d="M78.49,100.62a2.74,2.74,0,1,0,2.75,2.74A2.73,2.73,0,0,0,78.49,100.62Z" transform="translate(-4.8 -3.46)"/><path class="cls-15" d="M119.26,100.62a2.74,2.74,0,1,0,2.74,2.74A2.73,2.73,0,0,0,119.26,100.62Z" transform="translate(-4.8 -3.46)"/><path class="cls-15" d="M128.5,100.62a2.74,2.74,0,1,0,2.74,2.74A2.74,2.74,0,0,0,128.5,100.62Z" transform="translate(-4.8 -3.46)"/><path class="cls-19" d="M59.9,118.88a12.93,12.93,0,0,1-1.48,1.75,13.56,13.56,0,0,1-19.22-.17,13.37,13.37,0,0,1-3-4.77A13.07,13.07,0,0,1,23.82,124c-.16,0-.31,0-.47,0a72.31,72.31,0,0,0,100.18,10.16c-8.09-.29-14.89-.59-19.92-.84C82.85,132.26,67.37,124.2,59.9,118.88Z" transform="translate(-4.8 -3.46)"/><path class="cls-19" d="M70.57,124.46a13.89,13.89,0,0,1-6.44-3.55c-1.46-.89-2.76-1.75-3.89-2.54-.11.17-.22.35-.34.51,7.47,5.32,22.95,13.38,43.71,14.39,5,.25,11.83.55,19.92.84l0,0c-7.65-.28-14.11-.57-18.95-.81A85.9,85.9,0,0,1,70.57,124.46Z" transform="translate(-4.8 -3.46)"/><path class="cls-19" d="M128.52,118.76a12,12,0,0,1-21.13.26,11.82,11.82,0,0,1-2.44,3.09,12.7,12.7,0,0,1-14.19,1.66,10.5,10.5,0,0,1-3.71-3.54,14.51,14.51,0,0,1-1.17-2.33,13.68,13.68,0,0,1-2.25,2.93,14,14,0,0,1-9.9,4,13.41,13.41,0,0,1-3.16-.4,85.9,85.9,0,0,0,34.05,8.81c4.84.24,11.3.53,18.95.81a72.65,72.65,0,0,0,10.49-10.18,11.69,11.69,0,0,1-3.45-2.36A12.06,12.06,0,0,1,128.52,118.76Z" transform="translate(-4.8 -3.46)"/><path class="cls-19" d="M63.93,120.73a13.75,13.75,0,0,1-2.74-4,15.42,15.42,0,0,1-.95,1.68c1.13.79,2.43,1.65,3.89,2.54Z" transform="translate(-4.8 -3.46)"/><path class="cls-20" d="M23.82,123.43a12.48,12.48,0,0,0,12.45-11.66c0-.14,0-.28,0-.42s0-.27,0-.41h.09c0,.14,0,.27,0,.41l0,.42a12.48,12.48,0,0,0,22.64,6.39l-1-.75a11.25,11.25,0,0,1-1.23,1.51,11.44,11.44,0,0,1-16.14.16,11.65,11.65,0,0,1-3.46-7.46c0-.23,0-.46,0-.68a.83.83,0,0,0-.83-.85h-.1a.84.84,0,0,0-.85.82v0c0,.39,0,.78,0,1.17a11.73,11.73,0,0,1-3.27,7.15,11.93,11.93,0,0,1-8.33,3.63,13.11,13.11,0,0,1-1.4-.06c.15.18.29.37.44.56C23.18,123.41,23.49,123.43,23.82,123.43Z" transform="translate(-4.8 -3.46)"/><path class="cls-20" d="M61.19,111.77c0-.28,0-.55,0-.83,0,.28,0,.55,0,.83a12.67,12.67,0,0,0,.45,2.57h1.36a11.17,11.17,0,0,1-.57-3.4v0h0a1.28,1.28,0,1,0-2.56,0,11.21,11.21,0,0,1-.51,3.4h1.3A12.79,12.79,0,0,0,61.19,111.77Z" transform="translate(-4.8 -3.46)"/><path class="cls-20" d="M86.16,112.19a10.48,10.48,0,0,0,.07-1.25c0,.41,0,.83,0,1.25a19.64,19.64,0,0,0,.24,2.15h1.58a19.29,19.29,0,0,1-.32-3.4v0h0a1.55,1.55,0,0,0-3.09,0,10.94,10.94,0,0,1-.54,3.4h1.61A11.68,11.68,0,0,0,86.16,112.19Z" transform="translate(-4.8 -3.46)"/><path class="cls-20" d="M107.38,113.1a10.19,10.19,0,0,0,.08,1.24H109a10.19,10.19,0,0,1-.09-1.24h0a1.56,1.56,0,0,0-3.12,0h0a8.52,8.52,0,0,1-.1,1.24h1.58A10.19,10.19,0,0,0,107.38,113.1Z" transform="translate(-4.8 -3.46)"/><path class="cls-20" d="M128.49,113.1a10.19,10.19,0,0,0,.08,1.24H130a10.19,10.19,0,0,1-.09-1.24h0a1.42,1.42,0,1,0-2.84,0v0a8.52,8.52,0,0,1-.1,1.24h1.44A10.19,10.19,0,0,0,128.49,113.1Z" transform="translate(-4.8 -3.46)"/><path class="cls-20" d="M58.26,116.93a5.66,5.66,0,0,1-.31.48l1,.75a5.39,5.39,0,0,0,.33-.5Z" transform="translate(-4.8 -3.46)"/><path class="cls-20" d="M73.73,123.43a12.49,12.49,0,0,0,12-9.09H84.14a11.07,11.07,0,0,1-21.06,0H61.72A12.48,12.48,0,0,0,73.73,123.43Z" transform="translate(-4.8 -3.46)"/><path class="cls-20" d="M96.82,123.66a10.56,10.56,0,0,0,10.48-9.32h-1.58A9,9,0,0,1,95.87,122a8.78,8.78,0,0,1-3.57-1,7.34,7.34,0,0,1-2.62-2.49,11.94,11.94,0,0,1-1.59-4.2H86.51C87.34,119.15,90.13,123.66,96.82,123.66Z" transform="translate(-4.8 -3.46)"/><path class="cls-20" d="M117.94,123.66a10.55,10.55,0,0,0,10.47-9.32H127a9.08,9.08,0,0,1-9,7.81,9,9,0,0,1-8.91-7.81h-1.57A10.55,10.55,0,0,0,117.94,123.66Z" transform="translate(-4.8 -3.46)"/><path class="cls-20" d="M135,122.83c.3-.37.59-.75.88-1.12a9.11,9.11,0,0,1-5.83-7.37h-1.43A10.56,10.56,0,0,0,135,122.83Z" transform="translate(-4.8 -3.46)"/><path class="cls-20" d="M59.24,117.66a12.62,12.62,0,0,0,1.5-3.32h-1.3a11.22,11.22,0,0,1-1.18,2.59Z" transform="translate(-4.8 -3.46)"/><path class="cls-20" d="M86.23,110.94a10.48,10.48,0,0,1-.07,1.25h.11C86.24,111.77,86.23,111.35,86.23,110.94Z" transform="translate(-4.8 -3.46)"/><path class="cls-20" d="M61.23,110.94c0,.28,0,.55,0,.83h.08C61.25,111.49,61.23,111.22,61.23,110.94Z" transform="translate(-4.8 -3.46)"/><path class="cls-20" d="M36.32,110.94h-.09c0,.14,0,.27,0,.41h0C36.3,111.21,36.32,111.08,36.32,110.94Z" transform="translate(-4.8 -3.46)"/><path class="cls-20" d="M33.16,120.28a13.18,13.18,0,0,0,3.05-4.59,13.37,13.37,0,0,0,3,4.77,13.56,13.56,0,0,0,19.22.17,12.93,12.93,0,0,0,1.48-1.75l-1-.72a12.48,12.48,0,0,1-22.64-6.39,12.48,12.48,0,0,1-12.45,11.66c-.33,0-.64,0-1,0l.49.56c.16,0,.31,0,.47,0A13.1,13.1,0,0,0,33.16,120.28Z" transform="translate(-4.8 -3.46)"/><path class="cls-20" d="M128.41,114.34h.16a10.19,10.19,0,0,1-.08-1.24A10.19,10.19,0,0,1,128.41,114.34Z" transform="translate(-4.8 -3.46)"/><path class="cls-20" d="M86.16,112.19a11.68,11.68,0,0,1-.41,2.15h.76a19.64,19.64,0,0,1-.24-2.15Z" transform="translate(-4.8 -3.46)"/><path class="cls-20" d="M61.19,111.77a12.79,12.79,0,0,1-.45,2.57h1a12.67,12.67,0,0,1-.45-2.57Z" transform="translate(-4.8 -3.46)"/><path class="cls-20" d="M107.3,114.34h.16a10.19,10.19,0,0,1-.08-1.24A10.19,10.19,0,0,1,107.3,114.34Z" transform="translate(-4.8 -3.46)"/><path class="cls-20" d="M60.24,118.37l-1-.71a5.39,5.39,0,0,1-.33.5l1,.72C60,118.72,60.13,118.54,60.24,118.37Z" transform="translate(-4.8 -3.46)"/><path class="cls-20" d="M64.13,120.91a13.89,13.89,0,0,0,6.44,3.55C68.16,123.27,66,122.06,64.13,120.91Z" transform="translate(-4.8 -3.46)"/><path class="cls-20" d="M128.57,114.34h-.16a10.55,10.55,0,0,1-21,0h-.16a10.56,10.56,0,0,1-10.48,9.32c-6.69,0-9.48-4.51-10.31-9.32h-.76a12.49,12.49,0,0,1-24,0h-1a12.62,12.62,0,0,1-1.5,3.32l1,.71a15.42,15.42,0,0,0,.95-1.68,13.75,13.75,0,0,0,2.74,4l.2.18c1.88,1.15,4,2.36,6.44,3.55a13.41,13.41,0,0,0,3.16.4,14,14,0,0,0,9.9-4,13.68,13.68,0,0,0,2.25-2.93,14.51,14.51,0,0,0,1.17,2.33,10.5,10.5,0,0,0,3.71,3.54A12.7,12.7,0,0,0,105,122.11a11.82,11.82,0,0,0,2.44-3.09,12,12,0,0,0,2,2.63,12,12,0,0,0,19.14-2.89,12.06,12.06,0,0,0,2.09,2.78,11.69,11.69,0,0,0,3.45,2.36c.3-.35.6-.71.89-1.07A10.56,10.56,0,0,1,128.57,114.34Z" transform="translate(-4.8 -3.46)"/><path class="cls-20" d="M36.25,111.35c0,.14,0,.28,0,.42l0-.42Z" transform="translate(-4.8 -3.46)"/><circle class="cls-3" cx="73.89" cy="73.89" r="72.36"/></g></g></svg>