<svg xmlns="http://www.w3.org/2000/svg" xmlns:xlink="http://www.w3.org/1999/xlink" viewBox="0 0 397.79 186.05"><defs><style>.cls-1{fill:none;}.cls-2{isolation:isolate;}.cls-3{fill:#d29e08;}.cls-4{fill:#fdd875;}.cls-5{fill:#fdc20b;}.cls-6{fill:#e8e7d7;}.cls-7{fill:#0a783c;}.cls-8{fill:#683c11;}.cls-9{fill:#7d4e24;}.cls-10{fill:#fff;}.cls-11{fill:#1c8950;}.cls-12{fill:#fbd886;}.cls-13{fill:#45354c;}.cls-14{fill:#dadada;}.cls-15{fill:#f9f9f9;}.cls-16{fill:#c7c6c6;}.cls-17{fill:#2d965c;}.cls-18{fill:#36a9e1;}.cls-19{fill:#f6f6f6;}.cls-20{fill:#9ea6b0;}.cls-21{opacity:0.1;}.cls-22{clip-path:url(#clip-path);}.cls-23{fill:#1e1e1c;}.cls-24{opacity:0.15;}.cls-25{clip-path:url(#clip-path-2);}.cls-26{clip-path:url(#clip-path-3);}.cls-27{opacity:0.3;mix-blend-mode:overlay;}.cls-28{clip-path:url(#clip-path-4);}.cls-29{clip-path:url(#clip-path-5);}.cls-30{clip-path:url(#clip-path-6);}.cls-31{clip-path:url(#clip-path-7);}.cls-32{clip-path:url(#clip-path-8);}.cls-33{clip-path:url(#clip-path-9);}.cls-34{clip-path:url(#clip-path-10);}.cls-35{clip-path:url(#clip-path-11);}.cls-36{clip-path:url(#clip-path-12);}.cls-37{clip-path:url(#clip-path-13);}.cls-38{clip-path:url(#clip-path-14);}.cls-39{clip-path:url(#clip-path-15);}.cls-40{clip-path:url(#clip-path-16);}.cls-41{clip-path:url(#clip-path-17);}.cls-42{clip-path:url(#clip-path-18);}.cls-43{clip-path:url(#clip-path-19);}.cls-44{clip-path:url(#clip-path-20);}.cls-45{clip-path:url(#clip-path-21);}.cls-46{clip-path:url(#clip-path-22);}.cls-47{clip-path:url(#clip-path-23);}.cls-48{clip-path:url(#clip-path-24);}.cls-49{fill:#323232;}.cls-50{fill:#464545;}.cls-51{fill:#251f12;}.cls-52{fill:#c7c9cd;}.cls-53{fill:#5d5d5d;}.cls-54{fill:#3c3c3b;}.cls-55,.cls-60,.cls-69{fill:#6786a0;}.cls-55,.cls-60{stroke:#473763;stroke-miterlimit:10;}.cls-55{stroke-width:1.12px;}.cls-55,.cls-60,.cls-68{opacity:0.9;}.cls-56{fill:#d9d0d8;}.cls-57{fill:#010101;}.cls-58{fill:#fcbd0b;}.cls-59{fill:#262529;}.cls-60{stroke-width:0.74px;}.cls-61{fill:#eaeaea;}.cls-62{fill:url(#linear-gradient);}.cls-63{fill:#da2715;}.cls-64{fill:url(#linear-gradient-2);}.cls-65{fill:#b8b8b8;}.cls-66{fill:#878787;}.cls-67{fill:#e7e6e6;}.cls-70{fill:#473763;}.cls-71{fill:#202121;}.cls-72{fill:#1d71b8;}.cls-73{fill:#be1622;}.cls-74{fill:#e6332a;}.cls-75{fill:#2a3134;}.cls-76{fill:#313537;}.cls-77{fill:#455358;}.cls-78{fill:#368784;}.cls-79{fill:#ee9f04;}.cls-80{fill:#234f5e;}.cls-81,.cls-87{fill:#f6bcc6;}.cls-81,.cls-82,.cls-84,.cls-85,.cls-86,.cls-90{fill-rule:evenodd;}.cls-82{fill:#5b5b5a;}.cls-83{fill:#f39200;}.cls-84{fill:#8a8b8c;}.cls-85{fill:#afafb1;}.cls-86{fill:#48aab4;}.cls-88{fill:#333;}.cls-89{fill:#303b45;}.cls-90{fill:#353430;}.cls-91{fill:#ebebeb;}.cls-92{fill:#e51349;}.cls-93{fill:#323c3f;}.cls-94{fill:#adbfcf;}.cls-95{fill:#f9fafd;}.cls-96{fill:#114369;}.cls-97{fill:#edf1f4;}.cls-98{fill:#efedee;}.cls-99{fill:#0f2d43;}.cls-100{fill:#144269;}</style><clipPath id="clip-path" transform="translate(-1.19 -28.14)"><rect class="cls-1" x="210.6" y="93.07" width="0.66" height="11.23"/></clipPath><clipPath id="clip-path-2" transform="translate(-1.19 -28.14)"><rect class="cls-1" x="205.28" y="103.92" width="5.99" height="3.84"/></clipPath><clipPath id="clip-path-3" transform="translate(-1.19 -28.14)"><rect class="cls-1" x="205.27" y="95.74" width="5.99" height="3.84"/></clipPath><clipPath id="clip-path-4" transform="translate(-1.19 -28.14)"><rect class="cls-1" x="205.27" y="97.42" width="5.99" height="6.28"/></clipPath><clipPath id="clip-path-5" transform="translate(-1.19 -28.14)"><rect class="cls-1" x="236.67" y="78.02" width="0.66" height="11.23"/></clipPath><clipPath id="clip-path-6" transform="translate(-1.19 -28.14)"><rect class="cls-1" x="231.35" y="88.87" width="5.99" height="3.84"/></clipPath><clipPath id="clip-path-7" transform="translate(-1.19 -28.14)"><rect class="cls-1" x="231.34" y="80.69" width="5.99" height="3.84"/></clipPath><clipPath id="clip-path-8" transform="translate(-1.19 -28.14)"><rect class="cls-1" x="231.34" y="82.38" width="5.99" height="6.28"/></clipPath><clipPath id="clip-path-9" transform="translate(-1.19 -28.14)"><rect class="cls-1" x="243.26" y="74.23" width="0.66" height="11.23"/></clipPath><clipPath id="clip-path-10" transform="translate(-1.19 -28.14)"><rect class="cls-1" x="237.94" y="85.08" width="5.99" height="3.84"/></clipPath><clipPath id="clip-path-11" transform="translate(-1.19 -28.14)"><rect class="cls-1" x="237.93" y="76.9" width="5.99" height="3.84"/></clipPath><clipPath id="clip-path-12" transform="translate(-1.19 -28.14)"><rect class="cls-1" x="237.93" y="78.59" width="5.99" height="6.28"/></clipPath><clipPath id="clip-path-13" transform="translate(-1.19 -28.14)"><rect class="cls-1" x="182.49" y="93.07" width="0.66" height="11.23"/></clipPath><clipPath id="clip-path-14" transform="translate(-1.19 -28.14)"><rect class="cls-1" x="182.49" y="103.92" width="5.99" height="3.84"/></clipPath><clipPath id="clip-path-15" transform="translate(-1.19 -28.14)"><rect class="cls-1" x="182.49" y="95.74" width="5.99" height="3.84"/></clipPath><clipPath id="clip-path-16" transform="translate(-1.19 -28.14)"><rect class="cls-1" x="182.49" y="97.42" width="5.99" height="6.28"/></clipPath><clipPath id="clip-path-17" transform="translate(-1.19 -28.14)"><rect class="cls-1" x="156.95" y="78.32" width="0.66" height="11.23"/></clipPath><clipPath id="clip-path-18" transform="translate(-1.19 -28.14)"><rect class="cls-1" x="156.95" y="89.17" width="5.99" height="3.84"/></clipPath><clipPath id="clip-path-19" transform="translate(-1.19 -28.14)"><rect class="cls-1" x="156.95" y="80.99" width="5.99" height="3.84"/></clipPath><clipPath id="clip-path-20" transform="translate(-1.19 -28.14)"><rect class="cls-1" x="156.95" y="82.67" width="5.99" height="6.28"/></clipPath><clipPath id="clip-path-21" transform="translate(-1.19 -28.14)"><rect class="cls-1" x="150.36" y="74.53" width="0.66" height="11.23"/></clipPath><clipPath id="clip-path-22" transform="translate(-1.19 -28.14)"><rect class="cls-1" x="150.36" y="85.38" width="5.99" height="3.84"/></clipPath><clipPath id="clip-path-23" transform="translate(-1.19 -28.14)"><rect class="cls-1" x="150.36" y="77.2" width="5.99" height="3.84"/></clipPath><clipPath id="clip-path-24" transform="translate(-1.19 -28.14)"><rect class="cls-1" x="150.36" y="78.88" width="5.99" height="6.28"/></clipPath><linearGradient id="linear-gradient" x1="-176.07" y1="154.61" x2="-153.78" y2="175.1" gradientTransform="translate(442)" gradientUnits="userSpaceOnUse"><stop offset="0" stop-color="#d9d9d9"/><stop offset="0.08" stop-color="#bfbebf"/><stop offset="0.83" stop-color="#a3a5a5"/><stop offset="1" stop-color="#6f7171"/></linearGradient><linearGradient id="linear-gradient-2" x1="-187.94" y1="177.89" x2="-159.47" y2="177.89" xlink:href="#linear-gradient"/></defs><title>G14_05_01</title><g class="cls-2"><g id="Livello_1" data-name="Livello 1"><polygon class="cls-3" points="289.12 65.53 289.12 70.28 199.65 123.05 199.65 118.3 289.12 65.53"/><polygon class="cls-4" points="199.65 118.3 199.65 123.05 103.56 67.32 103.56 62.57 199.65 118.3"/><polygon class="cls-5" points="199.43 118.32 103.33 62.59 103.33 62.32 193.64 10.42 289.12 65.54 199.58 118.41 199.43 118.32"/><polygon class="cls-3" points="197.18 107.04 123.87 64.52 123.87 64.32 192.76 24.72 265.61 66.78 197.3 107.11 197.18 107.04"/><polygon class="cls-3" points="397.79 128.53 397.79 133.28 308.32 186.05 308.32 181.3 397.79 128.53"/><polygon class="cls-4" points="308.32 181.3 308.32 186.05 212.22 130.32 212.22 125.57 308.32 181.3"/><polygon class="cls-5" points="308.1 181.32 212 125.59 212 125.32 302.31 73.42 397.79 128.54 308.25 181.41 308.1 181.32"/><polygon class="cls-3" points="185.79 125.53 185.79 130.28 96.32 183.05 96.32 178.3 185.79 125.53"/><polygon class="cls-4" points="96.32 178.3 96.32 183.05 0.22 127.32 0.22 122.57 96.32 178.3"/><polygon class="cls-5" points="96.1 178.32 0 122.59 0 122.32 90.31 70.42 185.79 125.54 96.25 178.41 96.1 178.32"/></g><g id="Livello_3" data-name="Livello 3"><polygon class="cls-6" points="141.66 32.6 141.66 39.18 141.67 39.19 141.67 65.31 195.52 96.39 195.52 70.28 195.52 63.7 168.59 31.15 141.66 32.6"/><polygon class="cls-7" points="141.67 65.3 195.52 96.39 195.52 91.3 141.67 60.21 141.67 65.3"/><polygon class="cls-8" points="176.45 81.89 169.9 78.11 169.9 59.93 176.45 63.71 176.45 81.89"/><polygon class="cls-9" points="175.76 80.86 170.59 77.88 170.59 60.96 175.76 63.95 175.76 80.86"/><polygon class="cls-10" points="195.52 63.7 195.52 96.39 249.37 65.3 249.37 32.61 195.52 63.7"/><polygon class="cls-11" points="195.52 91.3 195.52 96.39 249.37 65.3 249.37 60.21 195.52 91.3"/><polygon class="cls-12" points="217.26 65.41 223.23 61.97 223.23 58.74 217.26 62.19 217.26 65.41"/><polygon class="cls-13" points="222.67 61.7 222.67 59.72 217.82 62.52 217.82 64.5 222.67 61.7"/><polygon class="cls-14" points="163.94 83.3 163.94 84.17 163.94 85.04 170.49 88.82 170.49 87.95 170.49 87.08 163.94 83.3"/><polygon class="cls-14" points="166.91 79.84 166.91 80.71 166.91 81.58 173.46 85.36 173.46 84.49 173.46 83.62 166.91 79.84"/><polygon class="cls-15" points="169.9 78.11 168.41 78.98 166.91 79.84 173.46 83.62 174.95 82.76 176.45 81.89 169.9 78.11"/><polygon class="cls-15" points="166.91 81.58 163.94 83.3 170.49 87.08 173.46 85.36 166.91 81.58"/><polygon class="cls-16" points="173.46 83.62 173.46 85.36 170.49 87.08 170.49 88.82 176.45 85.38 176.45 83.64 176.45 81.89 173.46 83.62"/><polygon class="cls-11" points="222.43 0 165.81 32.71 194.22 66.97 250.84 34.27 222.43 0"/><polygon class="cls-7" points="195.26 1.44 138.64 34.14 165.81 32.71 222.43 0 195.26 1.44"/><polygon class="cls-7" points="138.64 34.14 138.64 35 165.81 33.57 165.81 32.71 138.64 34.14"/><polygon class="cls-7" points="194.22 67.83 165.81 33.57 165.81 32.71 194.22 66.97 194.22 67.83"/><polygon class="cls-17" points="194.22 66.97 194.22 67.83 250.84 35.13 250.84 34.27 194.22 66.97"/><path class="cls-12" d="M170.34,72.61c0,2.13-1.49,3-3.34,1.93a7.37,7.37,0,0,1-3.33-5.78c0-2.12,1.49-3,3.33-1.92a7.35,7.35,0,0,1,3.34,5.77" transform="translate(-1.19 -28.14)"/><path class="cls-18" d="M169.62,72.2c0,1.67-1.17,2.34-2.62,1.51a5.79,5.79,0,0,1-2.61-4.53c0-1.67,1.17-2.35,2.61-1.51a5.76,5.76,0,0,1,2.62,4.53" transform="translate(-1.19 -28.14)"/><polygon class="cls-12" points="166.19 46.31 165.44 45.88 165.44 38.79 166.19 39.23 166.19 46.31"/><polygon class="cls-12" points="168.88 43.89 168.88 44.76 162.75 41.22 162.75 40.35 168.88 43.89"/><path class="cls-7" d="M207.85,56c-2.15,4.8,8.07,16.68,8.07,16.68l8.48-9.82.91-1.36s-10-4.22-14.28-5.94c-2.35-.93-2.89-.2-3.18.44" transform="translate(-1.19 -28.14)"/><path class="cls-19" d="M221.44,63.11a10,10,0,0,0-4.52,7.82l9-5.21c0-2.88-2-4-4.51-2.61" transform="translate(-1.19 -28.14)"/><path class="cls-11" d="M215.92,72.67V71.51A12.24,12.24,0,0,1,221.44,62c3-1.75,5.52-.32,5.52,3.19V66.3Z" transform="translate(-1.19 -28.14)"/><path class="cls-12" d="M221.44,63.11a10,10,0,0,0-4.52,7.82l9-5.21c0-2.88-2-4-4.51-2.61" transform="translate(-1.19 -28.14)"/><path class="cls-13" d="M217.57,69.87a8.73,8.73,0,0,1,3.87-6.06c1.95-1.13,3.58-.41,3.87,1.59Z" transform="translate(-1.19 -28.14)"/><polygon class="cls-12" points="220.55 39.66 219.94 40.01 219.94 35.42 220.55 35.07 220.55 39.66"/><path class="cls-10" d="M176.72,98.57c0,.14-.1.2-.22.13a.49.49,0,0,1-.22-.38c0-.14.1-.19.22-.12a.46.46,0,0,1,.22.37" transform="translate(-1.19 -28.14)"/><polygon class="cls-10" points="175.49 70.56 174.98 71.19 174.38 70.17 175.16 70.04 175.49 70.56"/><path class="cls-20" d="M176.27,99.07c0,.27-.19.38-.42.24a.93.93,0,0,1-.42-.72c0-.27.19-.38.42-.24a.91.91,0,0,1,.42.72" transform="translate(-1.19 -28.14)"/><polygon class="cls-12" points="210.67 76.6 203.49 80.75 203.49 67.96 210.67 63.81 210.67 76.6"/><polygon class="cls-18" points="204.09 68.39 210.07 64.94 210.07 72.89 210.07 73.7 210.07 73.95 210.08 75.57 210.07 76.16 204.09 79.62 204.09 78.86 204.09 71.98 204.08 70.35 204.09 70.1 204.09 69.29 204.09 68.39"/><path class="cls-12" d="M205.28,107.76V96.53l6-3.46V104.3Zm6.23-3.32V92.64L205,96.38v11.81Z" transform="translate(-1.19 -28.14)"/><g class="cls-21"><g class="cls-22"><polygon class="cls-23" points="209.41 68.47 209.41 75.78 210.07 76.16 210.07 67.98 209.41 68.47"/><polygon class="cls-23" points="210.07 64.93 209.41 65.32 209.41 67.6 210.07 67.98 210.07 64.93"/></g></g><g class="cls-24"><g class="cls-25"><polygon class="cls-23" points="204.09 78.86 209.41 75.78 210.08 76.16 204.09 79.62 204.09 78.86"/></g></g><g class="cls-24"><g class="cls-26"><polygon class="cls-23" points="204.09 70.68 209.41 67.6 210.07 67.98 204.08 71.44 204.09 70.68"/></g></g><g class="cls-27"><g class="cls-28"><polygon class="cls-10" points="204.08 70.35 210.07 73.95 210.08 75.57 204.09 71.98 204.08 70.35"/><polygon class="cls-10" points="204.09 69.29 210.08 72.89 210.07 73.7 204.09 70.1 204.09 69.29"/></g></g><polygon class="cls-12" points="210.33 67.83 203.83 71.58 203.83 72.23 210.33 68.48 210.33 67.83"/><polygon class="cls-12" points="236.74 61.55 229.56 65.7 229.56 52.91 236.74 48.76 236.74 61.55"/><polygon class="cls-18" points="230.16 53.34 236.14 49.89 236.15 57.84 236.14 58.65 236.14 58.9 236.15 60.52 236.15 61.11 230.16 64.57 230.16 63.81 230.16 56.93 230.16 55.3 230.16 55.05 230.16 54.24 230.16 53.34"/><path class="cls-12" d="M231.35,92.71V81.48l6-3.46V89.25Zm6.23-3.31V77.59l-6.48,3.74V93.14Z" transform="translate(-1.19 -28.14)"/><g class="cls-21"><g class="cls-29"><polygon class="cls-23" points="235.48 53.42 235.49 60.73 236.15 61.11 236.14 52.93 235.48 53.42"/><polygon class="cls-23" points="236.14 49.89 235.48 50.27 235.48 52.56 236.14 52.93 236.14 49.89"/></g></g><g class="cls-24"><g class="cls-30"><polygon class="cls-23" points="230.16 63.81 235.49 60.73 236.15 61.11 230.16 64.57 230.16 63.81"/></g></g><g class="cls-24"><g class="cls-31"><polygon class="cls-23" points="230.16 55.63 235.48 52.56 236.14 52.94 230.15 56.39 230.16 55.63"/></g></g><g class="cls-27"><g class="cls-32"><polygon class="cls-10" points="230.16 55.3 236.14 58.9 236.15 60.52 230.16 56.93 230.16 55.3"/><polygon class="cls-10" points="230.16 54.24 236.15 57.84 236.14 58.65 230.16 55.05 230.16 54.24"/></g></g><polygon class="cls-12" points="236.4 52.78 229.9 56.53 229.9 57.18 236.4 53.43 236.4 52.78"/><polygon class="cls-12" points="243.33 57.76 236.15 61.91 236.15 49.12 243.33 44.97 243.33 57.76"/><polygon class="cls-18" points="236.74 49.55 242.73 46.1 242.73 54.05 242.73 54.86 242.73 55.11 242.74 56.73 242.73 57.33 236.75 60.78 236.75 60.02 236.74 53.14 236.74 51.51 236.75 51.26 236.75 50.45 236.74 49.55"/><path class="cls-12" d="M237.93,88.92V77.69l6-3.46V85.46Zm6.24-3.31V73.8l-6.49,3.75v11.8Z" transform="translate(-1.19 -28.14)"/><g class="cls-21"><g class="cls-33"><polygon class="cls-23" points="242.07 49.63 242.07 56.95 242.73 57.33 242.73 49.14 242.07 49.63"/><polygon class="cls-23" points="242.73 46.1 242.07 46.48 242.07 48.77 242.73 49.14 242.73 46.1"/></g></g><g class="cls-24"><g class="cls-34"><polygon class="cls-23" points="236.75 60.02 242.07 56.95 242.73 57.33 236.75 60.78 236.75 60.02"/></g></g><g class="cls-24"><g class="cls-35"><polygon class="cls-23" points="236.74 51.84 242.07 48.77 242.73 49.15 236.74 52.6 236.74 51.84"/></g></g><g class="cls-27"><g class="cls-36"><polygon class="cls-10" points="236.74 51.51 242.73 55.11 242.74 56.73 236.74 53.14 236.74 51.51"/><polygon class="cls-10" points="236.75 50.45 242.73 54.05 242.73 54.86 236.75 51.26 236.75 50.45"/></g></g><polygon class="cls-12" points="242.99 48.99 236.49 52.74 236.49 53.39 242.99 49.64 242.99 48.99"/><polygon class="cls-12" points="180.7 76.6 187.89 80.75 187.89 67.96 180.7 63.81 180.7 76.6"/><polygon class="cls-18" points="187.29 68.39 181.3 64.94 181.3 72.89 181.3 73.7 181.3 73.95 181.3 75.57 181.3 76.16 187.29 79.62 187.29 78.86 187.29 71.98 187.29 70.35 187.29 70.1 187.29 69.29 187.29 68.39"/><path class="cls-12" d="M188.48,107.76l-6-3.46V93.07l6,3.46v11.23Zm.25.43V96.38l-6.49-3.74v11.81Z" transform="translate(-1.19 -28.14)"/><g class="cls-21"><g class="cls-37"><polygon class="cls-23" points="181.96 68.47 181.96 75.78 181.3 76.16 181.3 67.98 181.96 68.47"/><polygon class="cls-23" points="181.3 64.93 181.96 65.32 181.96 67.6 181.3 67.98 181.3 64.93"/></g></g><g class="cls-24"><g class="cls-38"><polygon class="cls-23" points="187.29 78.86 181.96 75.78 181.3 76.16 187.29 79.62 187.29 78.86"/></g></g><g class="cls-24"><g class="cls-39"><polygon class="cls-23" points="187.29 70.68 181.96 67.6 181.3 67.98 187.29 71.44 187.29 70.68"/></g></g><g class="cls-27"><g class="cls-40"><polygon class="cls-10" points="187.29 70.35 181.3 73.95 181.3 75.57 187.29 71.98 187.29 70.35"/><polygon class="cls-10" points="187.29 69.29 181.3 72.89 181.3 73.7 187.29 70.1 187.29 69.29"/></g></g><polygon class="cls-12" points="181.05 67.83 187.54 71.58 187.54 72.23 181.05 68.48 181.05 67.83"/><polygon class="cls-12" points="155.16 61.85 162.35 66 162.35 53.2 155.16 49.06 155.16 61.85"/><polygon class="cls-18" points="161.75 53.64 155.76 50.18 155.76 58.13 155.76 58.95 155.76 59.2 155.76 60.82 155.76 61.41 161.75 64.87 161.75 64.11 161.75 57.23 161.75 55.6 161.75 55.35 161.75 54.54 161.75 53.64"/><path class="cls-12" d="M162.94,93l-6-3.46V78.32l6,3.46V93Zm.25.43V81.63l-6.49-3.74v11.8Z" transform="translate(-1.19 -28.14)"/><g class="cls-21"><g class="cls-41"><polygon class="cls-23" points="156.43 53.72 156.42 61.03 155.76 61.41 155.76 53.23 156.43 53.72"/><polygon class="cls-23" points="155.76 50.18 156.42 50.56 156.42 52.85 155.76 53.23 155.76 50.18"/></g></g><g class="cls-24"><g class="cls-42"><polygon class="cls-23" points="161.75 64.11 156.42 61.03 155.76 61.41 161.75 64.87 161.75 64.11"/></g></g><g class="cls-24"><g class="cls-43"><polygon class="cls-23" points="161.75 55.93 156.42 52.85 155.76 53.23 161.75 56.69 161.75 55.93"/></g></g><g class="cls-27"><g class="cls-44"><polygon class="cls-10" points="161.75 55.6 155.76 59.2 155.76 60.82 161.75 57.23 161.75 55.6"/><polygon class="cls-10" points="161.75 54.54 155.76 58.13 155.76 58.95 161.75 55.35 161.75 54.54"/></g></g><polygon class="cls-12" points="155.51 53.08 162 56.83 162 57.47 155.51 53.73 155.51 53.08"/><polygon class="cls-12" points="148.57 58.06 155.76 62.21 155.76 49.42 148.57 45.27 148.57 58.06"/><polygon class="cls-18" points="155.16 49.85 149.17 46.39 149.17 54.34 149.17 55.16 149.17 55.41 149.17 57.03 149.17 57.62 155.16 61.08 155.16 60.32 155.16 53.44 155.16 51.81 155.16 51.56 155.16 50.75 155.16 49.85"/><path class="cls-12" d="M156.35,89.22l-6-3.46V74.53l6,3.46V89.22Zm.25.43V77.84l-6.49-3.74V85.9Z" transform="translate(-1.19 -28.14)"/><g class="cls-21"><g class="cls-45"><polygon class="cls-23" points="149.84 49.93 149.83 57.24 149.17 57.62 149.17 49.44 149.84 49.93"/><polygon class="cls-23" points="149.17 46.39 149.84 46.78 149.84 49.06 149.17 49.44 149.17 46.39"/></g></g><g class="cls-24"><g class="cls-46"><polygon class="cls-23" points="155.16 60.32 149.83 57.24 149.17 57.62 155.16 61.08 155.16 60.32"/></g></g><g class="cls-24"><g class="cls-47"><polygon class="cls-23" points="155.16 52.14 149.84 49.06 149.18 49.44 155.16 52.9 155.16 52.14"/></g></g><g class="cls-27"><g class="cls-48"><polygon class="cls-10" points="155.16 51.81 149.17 55.41 149.17 57.03 155.16 53.44 155.16 51.81"/><polygon class="cls-10" points="155.16 50.75 149.17 54.34 149.17 55.16 155.16 51.56 155.16 50.75"/></g></g><polygon class="cls-12" points="148.92 49.29 155.41 53.04 155.41 53.68 148.92 49.94 148.92 49.29"/><path class="cls-3" d="M301.57,189.2c16.68-4.49,54-31.69,66.94-41.35,2.49-1.86,2.29-4.62-.43-6.13l-15-8.34L345,146.44l-62.6,42.12S296.94,190.45,301.57,189.2Z" transform="translate(-1.19 -28.14)"/><path class="cls-49" d="M359.3,137.53s-1.94-2,0-3.12v-.49l-.38-1.9a.82.82,0,0,0-1.18-.63l-7.85,3.37a25.48,25.48,0,0,0-15.82.66c-.53.21-1.06.45-1.58.71-1.55.77-3.08,1.6-4.57,2.46a84.79,84.79,0,0,0-9.37,6.26c-1.72,1.33-2.8,1.54-4.23,2.88-1.65,2-5.33,5.43-7.28,7.85-2.87,3.58-5.46,6.56-7.58,8.91a.53.53,0,0,1-.1.06l-.16.08c-3.74,2.82-11.89,8.68-15.85,15.08a8.13,8.13,0,0,0-1,3.38s-.18,4.58,0,4.64l5.2-2.83.69.85,3.49-2,.52-2.29a14.63,14.63,0,0,1,6-7.86c3.65-2.11,6.64-.41,6.65,3.79,10.82-6.25,25.09-14.49,34.43-20l-.95.55a9.77,9.77,0,0,1,.08-1.19l.54-2.4a14.67,14.67,0,0,1,6-7.87c3.61-2.09,6.57-.46,6.66,3.63l.47-.33,2-4.91,5.22-3.33v-4ZM304,162.7c.42-.73.87-1.43,1.32-2.12.06-.23,1.85-2.48,1.85-2.46a59.31,59.31,0,0,1,10.55-10.67l1.38-1a81.35,81.35,0,0,1,7.64-5.07c13.77-7.94,18-3.66,18.2-3.44L304,162.7Zm-4.62,1.77h0c.55-.42,1-.77,1.3-1C300.41,163.7,300,164.05,299.41,164.47Z" transform="translate(-1.19 -28.14)"/><polygon class="cls-50" points="292.84 159.88 287.98 157.07 292.84 154.58 292.84 159.88"/><polygon class="cls-51" points="358.12 113.36 358.13 116.59 350.93 121.6 352.9 116.69 358.12 113.36"/><path class="cls-52" d="M345,150.25c1.83-1.05,3.32-.21,3.33,1.9a7.3,7.3,0,0,1-3.31,5.73c-1.82,1.05-3.32.2-3.33-1.9A7.29,7.29,0,0,1,345,150.25Z" transform="translate(-1.19 -28.14)"/><path class="cls-50" d="M339.32,157.5v-.15a9.08,9.08,0,0,1,.18-1.69,4.2,4.2,0,0,1-.51.05,3.75,3.75,0,0,1-2-.54,8.36,8.36,0,0,1-1.27,2.78L341,161A3.93,3.93,0,0,1,339.32,157.5Z" transform="translate(-1.19 -28.14)"/><path class="cls-53" d="M345,147.53c3.14-1.82,5.7-.36,5.71,3.25A12.49,12.49,0,0,1,345,160.6c-3.1,1.79-5.63.4-5.71-3.1v-.15A12.49,12.49,0,0,1,345,147.53Zm0,10.35a7.3,7.3,0,0,0,3.31-5.73c0-2.11-1.5-3-3.33-1.9a7.29,7.29,0,0,0-3.31,5.73c0,2.1,1.51,3,3.33,1.9Z" transform="translate(-1.19 -28.14)"/><path class="cls-54" d="M328.51,115.67a4.76,4.76,0,0,1,3.79.23l25.49,14.54c.28.16,1,1.08,1,1.27s-.82-.42-1.06-.32l-7.85,3.37-28.24-16.14Z" transform="translate(-1.19 -28.14)"/><path class="cls-55" d="M317.88,148.43c1.41-1.07,2.76-2.06,4.08-3v5.31l-14.58,8.83-1.51.78A72,72,0,0,1,317.88,148.43Z" transform="translate(-1.19 -28.14)"/><path class="cls-56" d="M349.88,134.76a25.48,25.48,0,0,0-15.82.66c-.53.21-1.06.45-1.58.71-1.55.77-3.08,1.6-4.57,2.46a84.79,84.79,0,0,0-9.37,6.26c-1.72,1.33-2.8,1.54-4.23,2.88-1.65,2-5.33,5.43-7.28,7.85-2.87,3.58-5.46,6.56-7.58,8.91,0,0,5.44-1,5.44,3.24v9.65c10.82-6.25,25.09-14.49,34.43-20l-.95.55a9.77,9.77,0,0,1,.08-1.19l.54-2.4a14.67,14.67,0,0,1,6-7.87c3.61-2.09,6.57-.46,6.66,3.63ZM304,162.7c.42-.73.87-1.43,1.32-2.12.06-.23,1.85-2.48,1.85-2.46a59.31,59.31,0,0,1,10.55-10.67l1.38-1a81.35,81.35,0,0,1,7.64-5.07c13.77-7.94,18-3.66,18.2-3.44L304,162.7Zm-4.62,1.77h0c.55-.42,1-.77,1.3-1C300.41,163.7,300,164.05,299.41,164.47Z" transform="translate(-1.19 -28.14)"/><path class="cls-57" d="M351.65,150.07c-.09-4.09-3-5.72-6.66-3.63a14.67,14.67,0,0,0-6,7.87l-.54,2.4a9.77,9.77,0,0,0-.08,1.19l.95-.55a12.49,12.49,0,0,1,5.67-9.82c3.14-1.82,5.7-.36,5.71,3.25l.95-.55Z" transform="translate(-1.19 -28.14)"/><path class="cls-55" d="M339.29,137.6a7.39,7.39,0,0,1,3.94.37l-3.88,2.34C339.33,139.67,339.29,138.63,339.29,137.6Z" transform="translate(-1.19 -28.14)"/><path class="cls-58" d="M254,168.26a.78.78,0,0,1,0,.16h0A.88.88,0,0,0,254,168.26Z" transform="translate(-1.19 -28.14)"/><path class="cls-59" d="M254.05,167V167h0Z" transform="translate(-1.19 -28.14)"/><path class="cls-60" d="M323.7,144.12c1.61-1,9.68-6.06,13.93-6.69v4.24L323.7,150C323.59,149.21,323.72,145.93,323.7,144.12Z" transform="translate(-1.19 -28.14)"/><path class="cls-61" d="M321.64,118.62a25.51,25.51,0,0,0-15.83.66h0c-.52.21-1.05.45-1.57.71-1.55.77-3.08,1.59-4.57,2.45a83.9,83.9,0,0,0-9.37,6.27c-1.73,1.33-3.67,3-5.1,4.35a277.4,277.4,0,0,0,27.95,16c1.42-1.34,3.67-2.85,5.39-4.18a84.79,84.79,0,0,1,9.37-6.26c1.49-.86,3-1.69,4.57-2.46.3-.15,1.58-.71,1.58-.71a25.48,25.48,0,0,1,15.82-.66Z" transform="translate(-1.19 -28.14)"/><path class="cls-52" d="M298.25,177.4c1.83-1.05,3.32-.21,3.32,1.9a7.29,7.29,0,0,1-3.3,5.73c-1.83,1.06-3.33.2-3.33-1.9A7.29,7.29,0,0,1,298.25,177.4Z" transform="translate(-1.19 -28.14)"/><path class="cls-58" d="M311.6,151.06c.63-.67,1.31-1.35,2-2C312.91,149.71,312.23,150.39,311.6,151.06Z" transform="translate(-1.19 -28.14)"/><path class="cls-53" d="M298.24,174.68c3.14-1.81,5.7-.36,5.71,3.25a12.52,12.52,0,0,1-5.67,9.82c-3.15,1.81-5.7.36-5.72-3.25A12.5,12.5,0,0,1,298.24,174.68Zm0,10.35a7.29,7.29,0,0,0,3.3-5.73c0-2.11-1.49-3-3.32-1.9a7.29,7.29,0,0,0-3.31,5.73c0,2.1,1.5,3,3.33,1.9Z" transform="translate(-1.19 -28.14)"/><path class="cls-57" d="M298.24,173.59c3.65-2.11,6.64-.41,6.65,3.79l-.94.55c0-3.61-2.57-5.06-5.71-3.25a12.5,12.5,0,0,0-5.68,9.82l-.94.55a9.45,9.45,0,0,1,.07-1.18l0-.13.52-2.29A14.63,14.63,0,0,1,298.24,173.59Z" transform="translate(-1.19 -28.14)"/><path class="cls-58" d="M283.91,187.71c.13.82.33,1.4,4.4-.79C284.24,189.11,284,188.53,283.91,187.71Z" transform="translate(-1.19 -28.14)"/><path class="cls-51" d="M282.34,187.73l5.2-2.83.69.85,3.49-2,0,.13a9.41,9.41,0,0,0-.07,1.17l-1.45.84-.19.1,0,0-.13.08-.07,0-.12.08-.05,0-.12.07-.07,0-.09,0-.09.05-.07,0-.09.05-.08,0-.08.05-.57.31c-4.07,2.19-5.8,2.47-5.92,1.64a2.13,2.13,0,0,0-.19-.74Z" transform="translate(-1.19 -28.14)"/><path class="cls-59" d="M283.72,187h0a1.93,1.93,0,0,1,.19.75A1.93,1.93,0,0,0,283.72,187Z" transform="translate(-1.19 -28.14)"/><path class="cls-62" d="M272.46,147.3c-1.16,1-4.47,3.28-8,6.27-3.41,2.84-7.05,6.33-9.32,10a8.29,8.29,0,0,0-1,3.38l28.25,16.14a8.13,8.13,0,0,1,1-3.38c2.27-3.67,5.92-7.16,9.32-10,3.57-3,7.13-5.14,8.3-6.15Z" transform="translate(-1.19 -28.14)"/><path class="cls-54" d="M272.46,147.3c-1.16,1-4.47,3.28-8,6.27-3.41,2.84-7.05,6.33-9.32,10a8.29,8.29,0,0,0-1,3.38l28.25,16.14a8.13,8.13,0,0,1,1-3.38c2.27-3.67,5.92-7.16,9.32-10,3.57-3,7.13-5.14,8.3-6.15Z" transform="translate(-1.19 -28.14)"/><path class="cls-63" d="M359.21,134.45l.08,0-.08,4.28-2.42,1.06-1.45-2.25A23.57,23.57,0,0,1,359.21,134.45Z" transform="translate(-1.19 -28.14)"/><path class="cls-64" d="M254.05,169.59a5.16,5.16,0,0,0,2.31,4l26.17,15.24-.23-5.74L254.05,167Z" transform="translate(-1.19 -28.14)"/><polygon class="cls-65" points="262.89 146.94 270.64 151.89 271.14 147.92 262.37 143.57 262.89 146.94"/><path class="cls-51" d="M271.28,177.46c.69.4,1.05,1.94,1.05,2.64s-.57,1-1.26.57l-8.94-5.16a2.62,2.62,0,0,1-1.25-2c0-.71.76-1.59,1.46-1.19Z" transform="translate(-1.19 -28.14)"/><path class="cls-66" d="M261.46,172.4a1.29,1.29,0,0,0-.17.16l10.81,6.24a3,3,0,0,0-.11-.32Z" transform="translate(-1.19 -28.14)"/><path class="cls-66" d="M261,174.08a2.21,2.21,0,0,0,.16.35l10.92,6.3a.57.57,0,0,0,.15-.16Z" transform="translate(-1.19 -28.14)"/><path class="cls-66" d="M261,173.09a.9.9,0,0,0-.06.22l11.42,6.59,0-.27Z" transform="translate(-1.19 -28.14)"/><path class="cls-10" d="M264.43,173l-10.38-6v2.62a4.08,4.08,0,0,0,.26,1.34l10.11,5.83Z" transform="translate(-1.19 -28.14)"/><path class="cls-67" d="M261.9,172a6.33,6.33,0,0,1-2.36-1.07c-1.22-.72-2.16-1.41-2.08-1.53a6.4,6.4,0,0,1,2.35,1.07C261,171.2,262,171.88,261.9,172Z" transform="translate(-1.19 -28.14)"/><polygon class="cls-10" points="281.01 155.18 281.34 159.2 269.24 152.2 269.25 148.4 281.01 155.18"/><path class="cls-67" d="M279.67,182.37a6.33,6.33,0,0,1-2.36-1.07,6.65,6.65,0,0,1-2.09-1.53,6.33,6.33,0,0,1,2.36,1.07A6.65,6.65,0,0,1,279.67,182.37Z" transform="translate(-1.19 -28.14)"/><path class="cls-57" d="M323.27,154.76c.22-.13.41,0,.41.24a.93.93,0,0,1-.41.72L320,157.59c-.24.14-.42,0-.43-.23a.91.91,0,0,1,.42-.72Z" transform="translate(-1.19 -28.14)"/><path class="cls-57" d="M338.25,145.83c.23-.12.42,0,.42.25a.92.92,0,0,1-.41.71L335,148.67c-.23.13-.41,0-.41-.24a.93.93,0,0,1,.41-.72Z" transform="translate(-1.19 -28.14)"/><g class="cls-68"><path class="cls-69" d="M272,148.43c.35-.28.65-.51.87-.7a86,86,0,0,0,6.41-7.19c1.73-2,3.36-4,4.52-5.24l1.13-1.16.52-.5,27.23,15.57-.59.58-.86.89c-1.19,1.27-2.83,3.22-4.56,5.28a87.13,87.13,0,0,1-6.29,7.06c-.28.24-.69.56-1.19.94Z" transform="translate(-1.19 -28.14)"/><path class="cls-70" d="M285.49,134.34l26.23,15,0,0-.05,0,0,0,.81.77-.86-.72-.08.09-.1.09-.08.09-.22.23,0,0h0l-.12.12-.14.15c-1.2,1.28-2.84,3.23-4.58,5.3a89.34,89.34,0,0,1-6.23,7c-.21.19-.52.43-.86.7l-26.16-15,.25-.2a89,89,0,0,0,6.47-7.25c1.72-2.05,3.34-4,4.5-5.22l.24-.24,0,0h0l0,0h0l.2-.21,0,0h0l0,0,.12-.13,0,0,0,0,0,0,.11-.12.06-.05,0,0h0l.06-.06.08-.08.07-.07,0,0v0h0m-.17-1.39-.12.11-.17.17-.1.09-.18.18-.09.09-.19.18-.08.09c-.06.06-.13.12-.19.19l-.08.08-.19.19-.07.07-.2.21-.05.06-.26.26c-2.87,3.07-8.61,10.41-10.89,12.38-.33.29-.85.7-1.51,1.19l28.24,16.14c.66-.49,1.18-.9,1.52-1.19,2.27-2,8-9.31,10.89-12.38l.25-.26.06-.06.19-.21.07-.07.2-.19.07-.08.19-.19.09-.09.18-.18.09-.09.18-.17.1-.1.18-.17.11-.11L285.32,133Z" transform="translate(-1.19 -28.14)"/></g><polygon class="cls-71" points="286.64 128.04 286.14 127.18 280.2 123.64 279.72 124.09 286.64 128.04"/><path class="cls-71" d="M287.33,155.58a.28.28,0,0,1-.18-.06c-.07-.06-6.49-5.81-12.28-7a.26.26,0,0,1-.21-.31A.27.27,0,0,1,275,148c5.93,1.18,12.27,6.84,12.53,7.08a.27.27,0,0,1,0,.38A.27.27,0,0,1,287.33,155.58Z" transform="translate(-1.19 -28.14)"/><polygon class="cls-71" points="296.76 133.71 296.26 132.86 290.32 129.31 289.84 129.76 296.76 133.71"/><path class="cls-71" d="M297.45,161.26a.31.31,0,0,1-.18-.07c-.06-.06-6.49-5.81-12.28-7a.26.26,0,0,1-.21-.31.27.27,0,0,1,.31-.21c5.94,1.18,12.27,6.84,12.54,7.09a.26.26,0,0,1,0,.37A.28.28,0,0,1,297.45,161.26Z" transform="translate(-1.19 -28.14)"/><polygon class="cls-56" points="323.01 112.82 294.94 96.52 299.95 93.48 328.18 109.66 323.01 112.82"/><polygon class="cls-61" points="320.72 108.2 296.71 94.16 301.72 91.12 325.89 105.04 320.72 108.2"/><polygon class="cls-72" points="294.94 96.52 296.71 94.16 301.72 91.12 310.55 96.21 305.49 99.29 305.59 102.7 294.94 96.52"/><polygon class="cls-73" points="311.74 106.28 311.74 102.95 316.99 99.92 325.89 105.04 328.18 109.66 323.01 112.82 311.74 106.28"/><polygon class="cls-18" points="305.49 99.29 296.71 94.16 301.72 91.12 310.55 96.21 305.49 99.29"/><polygon class="cls-74" points="320.72 108.2 311.74 102.95 316.99 99.92 325.89 105.04 320.72 108.2"/><polygon class="cls-75" points="73.95 86.5 71.71 85.2 71.64 62.73 73.88 64.03 73.95 86.5"/><polygon class="cls-76" points="73.88 64.03 71.65 62.73 74.08 61.33 76.31 62.63 73.88 64.03"/><polygon class="cls-77" points="76.31 62.63 76.38 85.1 73.95 86.5 73.88 64.03 76.31 62.63"/><path class="cls-78" d="M72.83,81.12l-1.65-1,.13.07,1.64,1-.12-.07" transform="translate(-1.19 -28.14)"/><path class="cls-79" d="M71.18,80.17a4.58,4.58,0,0,0-3.09-.31,9.2,9.2,0,0,0-2.54,1,15.47,15.47,0,0,0-4,3.55,17.57,17.57,0,0,0-2.42,3.89,10.7,10.7,0,0,0-1,3.53l-1,12c-.14,1.79.42,3,1.44,3.63l1.64.95c-1-.59-1.57-1.83-1.43-3.62l.95-12a10.86,10.86,0,0,1,1-3.53,17.68,17.68,0,0,1,2.43-3.9,15.45,15.45,0,0,1,4.05-3.54,9,9,0,0,1,2.53-1,4.6,4.6,0,0,1,3.1.3Z" transform="translate(-1.19 -28.14)"/><path class="cls-74" d="M67.2,81.83c3.79-2.19,7.16-1.13,7.48,2.35l1,10.83c.32,3.48-2.56,8.14-6.41,10.36l-4,2.34c-3.85,2.22-6.74.89-6.44-2.95l.95-12c.3-3.85,3.64-8.78,7.44-11" transform="translate(-1.19 -28.14)"/><path class="cls-80" d="M88.1,115.45c3.42,2,3.44,5.18,0,7.16l-5.45,3.17a13.66,13.66,0,0,1-12.36,0l-5.48-3.17c-3.43-2-3.44-5.18,0-7.16l5.44-3.16a13.6,13.6,0,0,1,12.36,0Z" transform="translate(-1.19 -28.14)"/><path class="cls-79" d="M90.43,118.45a5.24,5.24,0,0,1-2.29,2.36L82.69,124a13.64,13.64,0,0,1-12.36,0l-5.48-3.16c-1.72-1-2.59-2.3-2.58-3.61v2.19c0,1.31.86,2.62,2.58,3.61l5.49,3.17a13.62,13.62,0,0,0,12.35,0L88.13,123a5.19,5.19,0,0,0,2.29-2.36,3,3,0,0,0,.25-1.19v-2.19a3.14,3.14,0,0,1-.25,1.19" transform="translate(-1.19 -28.14)"/><path class="cls-74" d="M88.1,113.65c3.42,2,3.44,5.18,0,7.16L82.69,124a13.6,13.6,0,0,1-12.36,0l-5.48-3.16c-3.43-2-3.44-5.18,0-7.16l5.44-3.17a13.66,13.66,0,0,1,12.36,0Z" transform="translate(-1.19 -28.14)"/><path class="cls-75" d="M90.43,120.25a5.14,5.14,0,0,1-2.29,2.36l-5.45,3.17a13.64,13.64,0,0,1-12.36,0l-5.48-3.17c-1.72-1-2.59-2.3-2.58-3.61v2.2c0,1.3.86,2.61,2.58,3.6L70.33,128a13.62,13.62,0,0,0,12.35,0l5.45-3.17a5.09,5.09,0,0,0,2.29-2.36,3,3,0,0,0,.25-1.19v-2.19a3.14,3.14,0,0,1-.25,1.19" transform="translate(-1.19 -28.14)"/><path class="cls-81" d="M75.29,87.91c3,2.28,5.14,10.51,6.4,14.39l-2.41,2c-.09-.18-.83-.28-.94-.46-2.11-3.63-5.44-8.89-6.57-12.52-.46-1.5-.13-3.06.9-3.56a2.79,2.79,0,0,1,2.62.2" transform="translate(-1.19 -28.14)"/><path class="cls-81" d="M89.07,106.94a2.83,2.83,0,1,0,4-.33,2.83,2.83,0,0,0-4,.33" transform="translate(-1.19 -28.14)"/><path class="cls-81" d="M81.34,101.4c3.16,1.66,5.79,3.18,9.12,5a26.22,26.22,0,0,1-1.68,2c-3.12-1.1-6-1.92-9.15-3.34-1.69-.76-1.86-2-1.49-2.91s1.57-1.66,3.2-.81" transform="translate(-1.19 -28.14)"/><path class="cls-82" d="M67.22,87.38c1.88,1.12,3.61,1.59,5.44,2.81l0,2.43c-2-1.76-3.55-2.17-5.8-3.61Z" transform="translate(-1.19 -28.14)"/><path class="cls-82" d="M72.48,86.71a12.85,12.85,0,0,1,.12,3.53c.64.39,1.26,1,1.91,1.31a31.88,31.88,0,0,0-.84-4.46Z" transform="translate(-1.19 -28.14)"/><path class="cls-83" d="M76.6,82c0,.72-.51,1.36-.48,2.07.06,1.32.63,10.52-.52,10.41s-1,1.41-2,2c-.83.44-1.34,1.33-2.16,1.76a3.11,3.11,0,0,1-2.71-.06c-.07.08-.12.17-.19.24a3.37,3.37,0,0,1-3.2,1.19c-.9-.24-1.6-1-2.5-1.24-1.12-.3-2.26.23-3.36.6s-2.47.5-3.25-.36A2.89,2.89,0,0,1,55.81,96a8.81,8.81,0,0,0,.5-2.66c-.07-1-.67-2-.45-3,.29-1.28,1.9-2.18,1.66-3.47-.12-.71-.79-1.22-.92-1.92-.17-.9.56-1.7,1.3-2.24,2.12-1.56,1.62-2.57,1.83-4.94a9.48,9.48,0,0,1,1.4-4.07c.94-1.51,5.44-4.14,8.54-1.64A7.89,7.89,0,0,1,72,75.68c.73,2.27.46,3.36,2.88,4.41.84.36,1.74,1,1.77,1.89" transform="translate(-1.19 -28.14)"/><polygon class="cls-84" points="89.56 90.29 89.23 97.13 89.58 115.39 91.39 114.35 91.36 89.25 89.56 90.29"/><polygon class="cls-85" points="89.56 90.29 87.78 89.26 87.81 114.36 89.58 115.39 89.56 90.29"/><path class="cls-84" d="M73.69,107.79a4.84,4.84,0,0,1,0-.53l1.44-.83a4.3,4.3,0,0,0,.05.61s0,.06,0,.1.08.38.14.58l0,0a5.33,5.33,0,0,0,.23.63v0c.1.21.2.42.32.62a0,0,0,0,1,0,0c.11.2.24.38.37.57l0,.05c.12.16.26.32.39.47l.09.09a3.4,3.4,0,0,0,.34.32l.15.13a4.1,4.1,0,0,0,.5.35l-1.44.84a5.05,5.05,0,0,1-.5-.35l-.15-.14-.24-.2-.1-.11-.09-.1a.94.94,0,0,1-.1-.1l-.22-.27-.07-.1s0,0,0,0a.36.36,0,0,0-.07-.1l-.15-.23-.14-.23v0h0c0-.07-.07-.13-.1-.19l-.12-.23a2,2,0,0,0-.1-.21h0A2.44,2.44,0,0,0,74,109l-.09-.26,0-.12s0,0,0-.06l0-.09a2.82,2.82,0,0,1-.07-.31c0-.06,0-.12,0-.18s0-.06,0-.1,0-.06,0-.08" transform="translate(-1.19 -28.14)"/><polygon class="cls-84" points="72.47 79.13 73.91 78.29 73.95 63.31 72.51 64.14 72.47 79.13"/><polygon class="cls-86" points="72.51 64.14 73.95 63.31 72.99 62.75 71.55 63.59 72.51 64.14"/><polygon class="cls-86" points="76.57 82.91 90.47 90.93 89.03 91.76 75.13 83.74 76.57 82.91"/><path class="cls-85" d="M72.74,91.72l1,.56,0,15a5.87,5.87,0,0,0,2.66,4.62l13.9,8V121l-13.89-8a8,8,0,0,1-3.63-6.28Z" transform="translate(-1.19 -28.14)"/><path class="cls-82" d="M66.5,89.17c-3.35,1.93-5.18,4-4.1,4.64s4.69-.42,8-2.36,5.21-3.6,4.12-4.23-4.71,0-8.06,2" transform="translate(-1.19 -28.14)"/><path class="cls-81" d="M66.49,81.64c.28,1,1.48,3.33.65,6.09l6.16,3.16-.51-2.57A11.66,11.66,0,0,1,72,82.7Z" transform="translate(-1.19 -28.14)"/><path class="cls-82" d="M67.1,87c-.2.56.12,1.3-.11,1.75-.6,1.11-1.9,1.68-3,2.5-2.84,2.12-.11,7.45,1.75,11a12.91,12.91,0,0,1,1.5,4.86,4.55,4.55,0,0,1-.13,2.4c-4.73,12.38,10.12,20,12.58,11.16.7-2.5.31-6.07-2.06-11.45-.82-1.86-.31-3.23-.33-4.16s.66-2.24,1.16-4.3a7,7,0,0,0,.9-4.43c-.24-1.76-1.51-3.8-2.58-6a11.88,11.88,0,0,0-1.72-3c-.49-.49-1.64-.4-2.59-.64a9,9,0,0,1-.07,3.18c-.69-.45-3.83-1.86-5.3-2.89" transform="translate(-1.19 -28.14)"/><path class="cls-82" d="M65.66,116c.18,2.39.86,5.19,2.77,6.72,3.37,2.71,9.83,1.87,14.81,5.58,4.5-2.05,9.88-4.94,12.14-6.71-.61-1.48-1.11-2.94-2.61-3.83-2.54-1.51-12-7.1-14.43-7.36a8.63,8.63,0,0,1-.58-1l.07-.06c-1.18-2.68,0-5.9.65-8.49a7.72,7.72,0,0,0,1-4.64,6.6,6.6,0,0,0-.84-2.2c0-.13.72-.38.66-.51-.4-.84-1.78-3.48-2.31-4.3-.67-1-.76-1.35-1.6-1.87a5.81,5.81,0,0,0-2.15-.72c.92.87,2.06,4.47,2.18,7-2.87-1.14-6.69-3.23-8-4.63-.32-.34-.41,0-.63-.23-1.37,1.05-1.61,1.49-2.79,2.37a3,3,0,0,0-.73.79,1.84,1.84,0,0,1,2.3-.41c2.24.81,2.6,4.31,2.46,7.34-.09,2.09-.72,3.55-2.46,3.64.85,2,1.52,3.83,1.32,5-.39,2.39-1.57,4.7-1.27,8.39l0,0" transform="translate(-1.19 -28.14)"/><path class="cls-72" d="M73.11,76.93A4.87,4.87,0,1,1,67.41,73a4.88,4.88,0,0,1,5.7,3.89" transform="translate(-1.19 -28.14)"/><path class="cls-87" d="M76.29,78.81a6,6,0,1,1-7-4.77,6,6,0,0,1,7,4.77" transform="translate(-1.19 -28.14)"/><path class="cls-83" d="M75,78a1.21,1.21,0,0,0,.65-1,6,6,0,0,0-11.09,4.1,6.57,6.57,0,0,0,.21.76,2.07,2.07,0,0,0,.79-.17c.55-.26,1.8-1,1.23-1.63.28.31.39.81.41,2.19,1.53-3.7,5.73-2.93,7.8-4.2" transform="translate(-1.19 -28.14)"/><path class="cls-54" d="M66.53,81.47c0-3.54,1.87-6.41,5.41-6.41a4.34,4.34,0,0,1,3,1c-.47-1.27-2-2-4-2-3.54,0-5.41,2.87-5.41,6.41C65.53,82.49,66.53,83,66.53,81.47Z" transform="translate(-1.19 -28.14)"/><path class="cls-88" d="M65.68,83.6a1.89,1.89,0,0,1-2.13-1.81A2.28,2.28,0,0,1,65,79.14a1.8,1.8,0,0,1,2.13,1.8C67.13,82.86,66.67,83.36,65.68,83.6Z" transform="translate(-1.19 -28.14)"/><path class="cls-54" d="M65.12,83.6A1.89,1.89,0,0,1,63,81.79a2.28,2.28,0,0,1,1.45-2.65,1.8,1.8,0,0,1,2.12,1.8C66.56,82.86,66.1,83.36,65.12,83.6Z" transform="translate(-1.19 -28.14)"/><path class="cls-89" d="M88,142.77a11.55,11.55,0,0,0-.89,3.51c0,1.29.51,1.65.51,1.65a28.59,28.59,0,0,0,3.33.81c.73,0,1.93,1.2,3.67,1.32s4,.64,4.2-.73c.15-.83-2-1.62-4.51-3.32a13.54,13.54,0,0,1-2.88-2.76Z" transform="translate(-1.19 -28.14)"/><path class="cls-89" d="M88.69,137.07,88,143.31s-.1,1.12,1.42,1.2a2,2,0,0,0,2-1.26s.62-2.54,1.49-6.2Z" transform="translate(-1.19 -28.14)"/><path class="cls-89" d="M83.79,139.31c-.38,3.54-.77,6.27-.77,6.27s0,1.09,1.51,1.16a1.74,1.74,0,0,0,1.8-1.43s.82-2.37,1.68-6Z" transform="translate(-1.19 -28.14)"/><path class="cls-89" d="M83,145.38s.14,1.23,1.23,1.17a3.56,3.56,0,0,0,2.06-1.24s-.41,1,.54,4.21c.53,1.78,1.57,6.75-.35,7.44-1.37.49-3.28-1.11-3.51-2.13-.09-.42-.49-4.89-.43-5.31.21-1.44.46-4.14.46-4.14" transform="translate(-1.19 -28.14)"/><path class="cls-90" d="M67.4,87.64c1.89,1.12,3.1,1,4.93,2.18l.57,3.06c-2.08-1.44-4-2.44-6.12-4Z" transform="translate(-1.19 -28.14)"/><path class="cls-90" d="M72.67,87c.12.6-.19,1.15-.34,2.85.64.4,1.72,1.64,2.37,2a18.32,18.32,0,0,0-1.31-5.13Z" transform="translate(-1.19 -28.14)"/><path class="cls-82" d="M66.94,87c1.89,1.11,3.62,1.59,5.45,2.81l0,2.42c-2-1.75-3.55-2.17-5.8-3.6Z" transform="translate(-1.19 -28.14)"/><path class="cls-82" d="M72.21,86.29a13.33,13.33,0,0,1,.12,3.53c.64.4,1.25,1,1.91,1.32a30.27,30.27,0,0,0-.85-4.46Z" transform="translate(-1.19 -28.14)"/><path class="cls-61" d="M70.71,90.34a.68.68,0,1,0,1.35,0,.68.68,0,1,0-1.35,0" transform="translate(-1.19 -28.14)"/><path class="cls-61" d="M72.92,89.93a.62.62,0,0,0,.84.16.61.61,0,0,0-.06-.85.62.62,0,0,0-.84-.16.61.61,0,0,0,.06.85" transform="translate(-1.19 -28.14)"/><path class="cls-91" d="M76.78,111.28l1-.3S72.92,95.83,67.23,90.77c-.67-.6-1.83-1.16-2.53-.59a7.58,7.58,0,0,0-.9.77s1.49,0,4.14,2.79c3.57,3.79,8.84,17.54,8.84,17.54" transform="translate(-1.19 -28.14)"/><path class="cls-91" d="M65.78,111.54S67,111.2,68,111c2.65-.41,10.47-.58,10.47-.58l-.88-3.23s-7,1-9.39,1a7.29,7.29,0,0,1-1.63-.15Z" transform="translate(-1.19 -28.14)"/><path class="cls-81" d="M66.29,93.11c1.59,3.4-.27,11.7-1,15.73l-3,.62c0-.2-.62-.63-.63-.84-.2-4.19-.74-10.4-.07-14.14.28-1.55,1.29-2.78,2.44-2.75a2.82,2.82,0,0,1,2.23,1.38" transform="translate(-1.19 -28.14)"/><path class="cls-81" d="M72.82,113.05a2.83,2.83,0,1,0,4-.18,2.82,2.82,0,0,0-4,.18" transform="translate(-1.19 -28.14)"/><path class="cls-81" d="M65.31,107.23c3.09,1.77,5.66,3.4,8.92,5.35-.63.74-1,1.21-1.75,2-3.09-1.21-5.89-2.14-9-3.68-1.67-.82-1.79-2.07-1.39-3s1.64-1.6,3.24-.69" transform="translate(-1.19 -28.14)"/><path class="cls-82" d="M66.49,93c.77,1.63.83,5.13.53,8l-6.11-.34a39.37,39.37,0,0,1,.56-6.15c.29-1.59,1.4-3.14,2.58-3.11A3.32,3.32,0,0,1,66.49,93" transform="translate(-1.19 -28.14)"/><polygon class="cls-75" points="70.66 119.7 70.76 154.86 43.04 138.78 42.94 103.63 70.66 119.7"/><polygon class="cls-75" points="132.28 119.08 105.32 103.41 105.23 71.5 132.19 87.16 132.28 119.08"/><path class="cls-92" d="M86.34,68.82s0,0,0,0l0,0a0,0,0,0,1,0,0s0,0,0,0" transform="translate(-1.19 -28.14)"/><polygon class="cls-93" points="70.66 119.7 42.81 103.54 106.98 66.57 134.72 82.52 70.66 119.7"/><polygon class="cls-77" points="73.32 121.23 73.37 153.33 70.77 154.84 70.67 119.68 134.72 82.52 134.81 117.67 132.2 119.18 132.11 87.27 73.32 121.23"/><path class="cls-94" d="M102.51,110.05a.62.62,0,0,1-.37.52l-.65.38v-.83l-1.31-.76-1.28.74.73.43.55-.32.57.33-.55.32-1.3-.76v.05l-.63-.37a2.2,2.2,0,0,0-.22-.52l.41-.24v-.85l-1.31-.76-.29.17v-.34l-1.31-.76-.29.17v-.34L94,105.55l-1.28.74v.21l-.18-.11-1.28.74v.21l-.18-.1-1.28.74v.2l-.18-.1-1.29.74V109l-.18-.11-1.29.75v.2l-.18-.1-1.29.74v.2l-.17-.1-1.29.74v.21l-.18-.1-1.29.73v.21l-.17-.1L81,113v.2l-.19-.1-1.28.74v.21l-.18-.11-1.28.75v.2l-.18-.1-1.28.74v.2l-.18-.1-1.28.74v.21l-.18-.11-1.28.75V118l-.66-.39-1.28.75v.77l-.61-.35a.62.62,0,0,1-.37-.52v.85a.63.63,0,0,0,.36.52L78.59,124a2,2,0,0,0,1.79,0l21.76-12.57a.6.6,0,0,0,.37-.52v-.85" transform="translate(-1.19 -28.14)"/><path class="cls-95" d="M102.15,109.54l-7.46-4.34a2,2,0,0,0-1.8,0L71.13,117.76a.55.55,0,0,0,0,1l7.46,4.34a2,2,0,0,0,1.79,0l21.76-12.57a.54.54,0,0,0,0-1" transform="translate(-1.19 -28.14)"/><polygon class="cls-96" points="92.9 79.19 94.21 79.95 92.92 80.69 91.62 79.93 92.9 79.19"/><polygon class="cls-96" points="95.96 79.27 97.27 80.03 95.99 80.77 94.68 80.02 95.96 79.27"/><polygon class="cls-96" points="94.5 80.12 95.81 80.88 94.52 81.62 93.22 80.86 94.5 80.12"/><polygon class="cls-96" points="93.04 80.96 94.35 81.72 93.06 82.46 91.76 81.7 93.04 80.96"/><polygon class="cls-96" points="89.36 81.23 90.66 81.99 87.08 84.06 85.77 83.3 89.36 81.23"/><polygon class="cls-96" points="85.6 83.41 86.9 84.16 85.62 84.91 84.32 84.14 85.6 83.41"/><polygon class="cls-96" points="91.07 82.23 92.58 83.11 93.46 83.62 93.89 83.87 91.73 85.12 90.42 84.36 91.09 83.97 89.58 83.1 91.07 82.23"/><polygon class="cls-96" points="84.14 84.25 85.44 85.01 84.16 85.75 82.85 84.99 84.14 84.25"/><polygon class="cls-96" points="86.22 84.9 87.52 85.66 86.24 86.4 84.93 85.64 86.22 84.9"/><polygon class="cls-96" points="82.67 85.09 83.98 85.85 82.7 86.59 81.39 85.83 82.67 85.09"/><polygon class="cls-96" points="84.77 85.74 86.08 86.5 84.79 87.24 83.49 86.48 84.77 85.74"/><polygon class="cls-96" points="81.22 85.93 82.52 86.69 81.24 87.44 79.93 86.67 81.22 85.93"/><polygon class="cls-96" points="83.33 86.57 84.63 87.33 83.35 88.07 82.04 87.31 83.33 86.57"/><polygon class="cls-96" points="79.76 86.78 81.06 87.54 79.78 88.28 78.47 87.52 79.76 86.78"/><polygon class="cls-96" points="81.88 87.4 83.19 88.16 81.9 88.9 80.6 88.14 81.88 87.4"/><polygon class="cls-96" points="78.29 87.62 79.6 88.38 78.32 89.12 77.01 88.36 78.29 87.62"/><polygon class="cls-96" points="80.44 88.24 81.75 89 80.46 89.74 79.16 88.98 80.44 88.24"/><polygon class="cls-96" points="76.83 88.47 78.14 89.22 76.86 89.96 75.55 89.2 76.83 88.47"/><polygon class="cls-96" points="78.99 89.07 80.3 89.83 79.02 90.57 77.71 89.81 78.99 89.07"/><polygon class="cls-96" points="77.55 89.91 78.86 90.67 77.57 91.41 76.27 90.65 77.55 89.91"/><polygon class="cls-96" points="75.31 89.34 76.62 90.11 73.45 91.93 72.15 91.17 75.31 89.34"/><polygon class="cls-96" points="76.1 90.74 77.41 91.5 75.06 92.86 73.75 92.1 76.1 90.74"/><polygon class="cls-96" points="94.36 78.34 95.67 79.11 94.39 79.84 93.08 79.08 94.36 78.34"/><polygon class="cls-96" points="91.44 80.03 92.75 80.79 91.46 81.53 90.16 80.77 91.44 80.03"/><polygon class="cls-96" points="96.12 81.22 96.3 81.33 97.43 81.98 96.14 82.72 94.84 81.97 94.97 81.89 96.12 81.22"/><polygon class="cls-96" points="99.01 81.22 100.32 81.98 99.03 82.72 97.73 81.96 99.01 81.22"/><polygon class="cls-96" points="97.55 82.07 98.86 82.83 97.57 83.57 96.27 82.81 97.55 82.07"/><polygon class="cls-96" points="96.09 82.91 97.4 83.67 96.11 84.41 94.81 83.65 96.09 82.91"/><polygon class="cls-96" points="94.63 83.75 95.94 84.51 94.65 85.25 93.34 84.49 94.63 83.75"/><polygon class="cls-96" points="93.17 84.6 94.48 85.36 93.19 86.1 91.89 85.34 93.17 84.6"/><polygon class="cls-96" points="91.71 85.44 93.02 86.2 91.73 86.94 90.42 86.18 91.71 85.44"/><polygon class="cls-96" points="88.78 87.13 90.09 87.89 88.81 88.63 87.5 87.87 88.78 87.13"/><polygon class="cls-96" points="87.33 87.97 88.64 88.73 87.35 89.47 86.04 88.71 87.33 87.97"/><polygon class="cls-96" points="85.86 88.82 87.17 89.57 85.89 90.31 84.58 89.56 85.86 88.82"/><polygon class="cls-96" points="84.4 89.66 85.71 90.42 84.43 91.16 83.12 90.4 84.4 89.66"/><polygon class="cls-96" points="82.94 90.5 84.25 91.26 82.97 92 81.66 91.24 82.94 90.5"/><polygon class="cls-96" points="81.48 91.34 82.79 92.1 81.51 92.84 80.2 92.08 81.48 91.34"/><polygon class="cls-96" points="80.02 92.19 81.33 92.95 80.05 93.69 78.74 92.93 80.02 92.19"/><polygon class="cls-96" points="78.08 93.31 79.39 94.07 78.1 94.81 76.8 94.05 78.08 93.31"/><polygon class="cls-96" points="90.24 86.28 91.55 87.04 90.27 87.78 88.96 87.02 90.24 86.28"/><polygon class="cls-96" points="89.1 83.24 90.41 84 89.12 84.74 87.82 83.98 89.1 83.24"/><polygon class="cls-96" points="87.66 84.07 88.96 84.83 87.68 85.57 86.38 84.81 87.66 84.07"/><polygon class="cls-96" points="84.63 82.06 85.94 82.82 83.39 84.29 82.08 83.53 84.63 82.06"/><polygon class="cls-96" points="81.92 83.62 83.23 84.38 76.95 88.01 75.65 87.25 81.92 83.62"/><polygon class="cls-96" points="75.45 87.36 76.76 88.12 74.59 89.37 73.28 88.61 75.45 87.36"/><polygon class="cls-96" points="73.02 88.77 74.33 89.52 71.77 91 70.47 90.24 73.02 88.77"/><polygon class="cls-96" points="92.5 77.5 93.81 78.26 92.52 79 91.22 78.24 92.5 77.5"/><polygon class="cls-96" points="91.05 78.34 91.22 78.44 92.35 79.1 91.07 79.84 89.76 79.08 89.89 79 91.05 78.34"/><polygon class="cls-96" points="89.64 79.15 90.94 79.91 89.66 80.65 88.35 79.89 89.64 79.15"/><polygon class="cls-96" points="87.54 80.38 88.85 81.14 86.2 82.67 84.9 81.91 87.54 80.38"/><polygon class="cls-96" points="79.97 90.36 81.28 91.12 79.99 91.86 78.68 91.1 79.97 90.36"/><polygon class="cls-96" points="80.11 90.28 81.39 89.54 82.7 90.3 81.42 91.04 80.11 90.28"/><polygon class="cls-96" points="81.56 89.45 82.84 88.7 84.15 89.46 82.86 90.21 81.56 89.45"/><polygon class="cls-96" points="82.98 88.62 84.27 87.88 85.58 88.64 84.29 89.38 82.98 88.62"/><polygon class="cls-96" points="84.47 87.76 85.75 87.02 87.07 87.78 85.78 88.52 84.47 87.76"/><polygon class="cls-96" points="85.9 86.93 87.19 86.19 88.49 86.95 87.21 87.69 85.9 86.93"/><polygon class="cls-96" points="87.35 86.1 88.63 85.36 89.94 86.12 88.66 86.86 87.35 86.1"/><polygon class="cls-96" points="88.78 85.28 90.06 84.54 91.37 85.29 90.08 86.04 88.78 85.28"/><polygon class="cls-96" points="75.35 93.03 78.51 91.2 79.81 91.97 76.65 93.79 75.35 93.03"/><path class="cls-95" d="M100.89,116.29l4.26,2.47a.44.44,0,0,0-.46,0l-4.27-2.48a.48.48,0,0,1,.47,0" transform="translate(-1.19 -28.14)"/><polygon class="cls-97" points="89.32 98.86 85.05 96.38 99.23 88.19 103.5 90.67 89.32 98.86"/><path class="cls-94" d="M90.51,127l-4.27-2.48a1.46,1.46,0,0,0-.65,1.14V126a.48.48,0,0,0,.19.42l4.27,2.48a.46.46,0,0,1-.19-.42v-.38a1.47,1.47,0,0,1,.66-1.14" transform="translate(-1.19 -28.14)"/><path class="cls-94" d="M104.69,118.81c.36-.21.65,0,.65.37v.38a1.43,1.43,0,0,1-.65,1.14l-14.18,8.18c-.36.21-.65,0-.65-.37v-.39a1.46,1.46,0,0,1,.66-1.13Z" transform="translate(-1.19 -28.14)"/><path class="cls-94" d="M82.32,123.7V123l.24.15,27.64-16-.77-.44-.05-16.56a.81.81,0,0,0,0-.16v0h0a.29.29,0,0,0,0-.09v0a.44.44,0,0,0-.18-.22c-.33-.19-.66-.38-1-.58l.44-.25a1.08,1.08,0,0,1,.29-.13,2.64,2.64,0,0,1,0,.29l1.22.71a1,1,0,0,0-.45-1l-.87-.51.3-.17A.89.89,0,0,1,110,88l-.48-.28s-.05,0-.06,0l-.49-.28-.18-.1a.88.88,0,0,0-.9.08l-25.6,14.78a2.81,2.81,0,0,0-1.26,2.19l0,16.09V123a.9.9,0,0,0,.37.82l1.22.7a.86.86,0,0,1-.37-.8" transform="translate(-1.19 -28.14)"/><path class="cls-94" d="M118.36,85v0Z" transform="translate(-1.19 -28.14)"/><path class="cls-94" d="M118.38,85.11v0h0v0" transform="translate(-1.19 -28.14)"/><path class="cls-98" d="M108.62,89.76c.42-.24.76-.05.76.43l.05,16.56-26.1,15.07,0-16.56A1.67,1.67,0,0,1,84,104Z" transform="translate(-1.19 -28.14)"/><polygon class="cls-99" points="88.95 97.77 87.74 97.06 87.72 91.8 88.94 92.5 88.95 97.77"/><polygon class="cls-100" points="88.94 92.5 87.72 91.8 100.24 84.57 101.46 85.27 88.94 92.5"/><polygon class="cls-100" points="101.46 85.28 101.47 90.54 88.95 97.77 88.94 92.5 101.46 85.28"/><path class="cls-98" d="M110.15,89.75c0-1-.69-1.36-1.53-.87L84,103.07a3.38,3.38,0,0,0-1.52,2.64l0,17.44,27.64-16ZM83.28,105.26A1.67,1.67,0,0,1,84,104l24.58-14.19c.42-.24.76-.05.76.43l.05,16.57-26.1,15.06Z" transform="translate(-1.19 -28.14)"/><path class="cls-98" d="M110.44,105.85v-.93l0-16.1c0-.79-.57-1.12-1.26-.72L83.52,102.88a2.79,2.79,0,0,0-1.25,2.18l0,16.1v2.54c0,.79.57,1.12,1.27.72l6.54-3.78,12.52-7.23,6.54-3.77a2.83,2.83,0,0,0,1.26-2.19Zm-27.88,17.3,0-17.44a3.19,3.19,0,0,1,.55-1.68l.12-.17.12-.16a2.69,2.69,0,0,1,.73-.63l24.58-14.19a1,1,0,0,1,1.27,0l.07.1a.21.21,0,0,1,0,.06,1.44,1.44,0,0,1,.15.67l0,8.72,0,8.72h0Z" transform="translate(-1.19 -28.14)"/></g></g></svg>