<svg xmlns="http://www.w3.org/2000/svg" xmlns:xlink="http://www.w3.org/1999/xlink" viewBox="0 0 533.53 315.14"><defs><style>.cls-1,.cls-2,.cls-25,.cls-40,.cls-42,.cls-43,.cls-52,.cls-54,.cls-55,.cls-6{fill:none;}.cls-1,.cls-2,.cls-6{stroke:#d19e07;stroke-width:5px;}.cls-1,.cls-2,.cls-40,.cls-42,.cls-6{stroke-linecap:round;stroke-linejoin:round;}.cls-2{stroke-dasharray:10.21 10.21;}.cls-3{fill:#d29e08;}.cls-4{fill:#fdd875;}.cls-28,.cls-5{fill:#fdc20b;}.cls-6{stroke-dasharray:11 12;}.cls-7{fill:#d9d0d8;}.cls-8{fill:url(#linear-gradient);}.cls-9{fill:#dce7f5;}.cls-10{fill:#be1622;}.cls-11{fill:#36a9e1;}.cls-12{fill:#3aaa35;}.cls-13{fill:#fff;}.cls-14{fill:#2caae1;}.cls-15{fill:#e7e8e9;}.cls-16{fill:#f1f2f2;}.cls-17{fill:#8ed2ee;}.cls-18{fill:#82c073;}.cls-19{fill:#f6bbc6;}.cls-20,.cls-45{fill:#5b5b5a;}.cls-21{fill:#303b45;}.cls-22{fill:#353430;}.cls-23{fill:#3b2d7c;}.cls-24{fill:#a6daf2;}.cls-25{stroke:#353430;}.cls-25,.cls-28,.cls-41,.cls-43,.cls-52,.cls-55{stroke-miterlimit:10;}.cls-26{fill:#ebebeb;}.cls-27{fill:#a9b2bd;}.cls-28,.cls-55{stroke:#eaeaea;}.cls-28,.cls-40,.cls-41,.cls-55{stroke-width:4px;}.cls-29{fill:#ee7a00;}.cls-30{fill:#f0b600;}.cls-31{fill:#facf66;}.cls-32{fill:#e52c4f;}.cls-33{fill:#be2e3e;}.cls-34{fill:#173652;}.cls-35,.cls-41{fill:#195379;}.cls-36{fill:#ebc81f;}.cls-37{fill:#d2b10e;}.cls-38{fill:#92d0d4;}.cls-39{fill:#b5dfe7;}.cls-40,.cls-41,.cls-42,.cls-43{stroke:#173652;}.cls-42,.cls-43{stroke-width:10px;}.cls-44{fill:#f4c4a4;}.cls-45{opacity:0.2;}.cls-46{fill:#f8ac1a;}.cls-47{fill:#e0e0e0;}.cls-48{fill:#bdbcbc;}.cls-49{fill:#4e7a92;}.cls-50{fill:#9a9b9c;}.cls-51{fill:#fcd6b7;}.cls-52{stroke:#f5ad1f;stroke-width:2px;}.cls-53{fill:#3c3c3b;opacity:0.4;}</style><linearGradient id="linear-gradient" x1="82.45" y1="170.09" x2="181.26" y2="113.04" gradientUnits="userSpaceOnUse"><stop offset="0" stop-color="#5995d0"/><stop offset="0.41" stop-color="#67acdf"/><stop offset="1" stop-color="#78c9f2"/></linearGradient></defs><title>G14_04_01</title><g id="Tiles"><line class="cls-1" x1="243.99" y1="156.17" x2="237.99" y2="156.17"/><line class="cls-2" x1="227.78" y1="156.17" x2="171.63" y2="156.17"/><line class="cls-1" x1="166.53" y1="156.17" x2="160.53" y2="156.17"/></g><g id="Criminal"><polygon class="cls-3" points="185.79 218.43 185.79 223.18 96.32 275.95 96.32 271.2 185.79 218.43"/><polygon class="cls-4" points="96.32 271.2 96.32 275.95 0.22 220.22 0.22 215.47 96.32 271.2"/><polygon class="cls-5" points="96.1 271.22 0 215.49 0 215.22 90.31 163.32 185.79 218.45 96.25 271.31 96.1 271.22"/><circle class="cls-6" cx="370.04" cy="166.83" r="109.28"/><path class="cls-7" d="M71.41,62.4,75.56,60h0a2.49,2.49,0,0,1,2.64.24l116.3,67.15a7,7,0,0,1,3.39,5.34v83.56a2,2,0,0,1-.62,1.58h0l-.07,0a1.57,1.57,0,0,1-.38.22l-4.15,2.37-.47-4.11-114-65.82a7,7,0,0,1-3.39-5.34V64.65Z" transform="translate(-1.83 -3.07)"/><path class="cls-8" d="M193.39,135.32v83.55a1.91,1.91,0,0,1-.78,1.71,2.51,2.51,0,0,1-2.6-.28L73.71,153.15a7,7,0,0,1-3.38-5.34V64.26c0-2,1.68-2.45,3.38-1.44l93.18,53.81L190,130A7,7,0,0,1,193.39,135.32Z" transform="translate(-1.83 -3.07)"/><path class="cls-9" d="M193.39,135.31v3.77l0,0-123-71V64.26c0-2,1.71-2.44,3.38-1.44l93.18,53.8L190,130A7,7,0,0,1,193.39,135.31Z" transform="translate(-1.83 -3.07)"/><path class="cls-10" d="M172.8,124.37a3.56,3.56,0,0,0,1.72,2.7l1.17.68c.95.54,1.71.22,1.71-.72v-1.18a3.52,3.52,0,0,0-1.71-2.7l-1.17-.68c-1-.55-1.72-.22-1.72.72Z" transform="translate(-1.83 -3.07)"/><path class="cls-11" d="M179.2,128.06a3.55,3.55,0,0,0,1.71,2.7l1.18.68c.95.55,1.71.22,1.71-.72v-1.18a3.55,3.55,0,0,0-1.71-2.7l-1.18-.68c-.94-.54-1.71-.22-1.71.73Z" transform="translate(-1.83 -3.07)"/><path class="cls-12" d="M185.6,131.76a3.58,3.58,0,0,0,1.71,2.7l1.18.68c.94.54,1.71.22,1.71-.73v-1.17a3.55,3.55,0,0,0-1.71-2.7l-1.18-.68c-.94-.55-1.71-.23-1.71.72Z" transform="translate(-1.83 -3.07)"/><path class="cls-13" d="M102.55,140.47c0,2.64,2.14,6,4.77,7.52l33,18.66c2.63,1.52,4.76.61,4.76-2V133.48c0-2.63-2.13-6-4.76-7.52l-33-18.65c-2.63-1.52-4.77-.62-4.77,2Z" transform="translate(-1.83 -3.07)"/><path class="cls-14" d="M109.07,128.85c0,8.14,6.6,18.55,14.74,23.25s14.74,1.91,14.74-6.23-6.59-18.53-14.74-23.23S109.07,120.72,109.07,128.85ZM113,131.1c0-5.94,4.85-8,10.81-4.53s10.79,11.05,10.79,17-4.82,8-10.79,4.56S113,137.07,113,131.1Z" transform="translate(-1.83 -3.07)"/><polygon class="cls-14" points="117.46 139.72 129.54 139.72 117.46 125.77 117.46 139.72"/><polygon class="cls-15" points="147.72 145.38 187.41 168.3 187.41 140.48 147.72 117.57 147.72 145.38"/><polygon class="cls-16" points="187.41 142.89 167.56 145.34 187.41 168.3 187.41 142.89"/><polygon class="cls-16" points="147.72 119.98 167.56 145.34 147.72 145.38 147.72 119.98"/><polygon class="cls-13" points="187.41 140.48 167.56 142.62 147.72 117.57 187.41 140.48"/><path class="cls-17" d="M185.41,200.23c0,2.57-2.08,3.44-4.64,2l-19.06-11c-2.57-1.48-4.65-4.76-4.65-7.33V164.81c0-2.57,2.08-3.45,4.65-2l19.06,11c2.56,1.49,4.64,4.77,4.64,7.34Z" transform="translate(-1.83 -3.07)"/><path class="cls-13" d="M177.62,178.36a15.86,15.86,0,0,0-5.55-5.8c-2-1.15-4-1.43-5.56-.56-2.54,1.43-3,5.51-1.38,9.83H165l-3.84,2.22c-.84.47-.85,2,0,3.49a4.32,4.32,0,0,0,1.54,1.6,1.54,1.54,0,0,0,1.53.16l3.89-2.14v-.1a14.49,14.49,0,0,0,3.92,3.43c2,1.15,4,1.41,5.51.53C180.67,189.28,180.68,183.62,177.62,178.36Zm-1.92,9.42a3.77,3.77,0,0,1-3.69-.38,10.57,10.57,0,0,1-3.68-3.84c-2-3.39-2-7.17.06-8.32a3.73,3.73,0,0,1,3.67.37,10.54,10.54,0,0,1,3.66,3.82C177.73,182.89,177.72,186.63,175.7,187.78Z" transform="translate(-1.83 -3.07)"/><path class="cls-18" d="M100.38,109.61c0,4-3.2,5.31-7.16,3l-14-8.11c-4-2.28-7.16-7.33-7.16-11.28v-14c0-3.95,3.2-5.3,7.16-3l14,8.1c4,2.28,7.16,7.33,7.16,11.28Z" transform="translate(-1.83 -3.07)"/><path class="cls-13" d="M96.08,92c-1-1.59-2.64-2.53-3.64-2.1L84.92,96.3l-5-9.72C79,85,77.34,84,76.33,84.47s-1,2.06,0,3.65l6.76,12.6a5.72,5.72,0,0,0,1.83,1.81,2.08,2.08,0,0,0,1.82.29l9.34-7.17C97.09,95.23,97.09,93.6,96.08,92Z" transform="translate(-1.83 -3.07)"/><path class="cls-19" d="M79.75,168.82l-.24,0a2.54,2.54,0,0,1-.38-1.05c-.35-1.57-1.36-.62-1.36-.62l-2,.62s1,3.31,2.69,4.56a2,2,0,1,0,1.28-3.53Z" transform="translate(-1.83 -3.07)"/><path class="cls-20" d="M89.38,137.81s-5-2.39-6.9,0-7.32,13.46-8,16.81.63,11.08,1.25,13.17,3.35,0,3.35,0,.84-10.24,1.05-11.08,4.18-10.88,4.18-10.88a64.61,64.61,0,0,0,2.09,6.91c.84,1.88-1,7.32-1.46,8.78s3.34,2.93,6.48,3.14,9-2.3,9-2.3,2.1-17.15-1.67-19S89.38,137.81,89.38,137.81Z" transform="translate(-1.83 -3.07)"/><ellipse class="cls-3" cx="95.84" cy="216.28" rx="59.53" ry="30.95"/><path class="cls-21" d="M105.57,217.52c-1.59-1.06-3.25-.27-3.68-.33a3.83,3.83,0,0,1-3.79-3.12c0-.33-.06-3.14-.06-3.14l-2.61.33S94.08,220,94,221.18s.3,1.36,1.71,1.92,5.1-1.81,7.13-2.17S107.15,218.57,105.57,217.52Z" transform="translate(-1.83 -3.07)"/><path class="cls-21" d="M90.12,213.57c-1.59-1-3.25-.27-3.68-.33s-1.85,0-2.41-.4c-.2-.9,1.56-5.17,1.56-5.17l-1.13-.15-2.34.87s-3.49,7.68-3.56,8.85.3,1.35,1.71,1.91,5.1-1.81,7.13-2.16S91.7,214.62,90.12,213.57Z" transform="translate(-1.83 -3.07)"/><path class="cls-19" d="M101.54,133.85a6.28,6.28,0,1,1-4.62-7.58A6.27,6.27,0,0,1,101.54,133.85Z" transform="translate(-1.83 -3.07)"/><path class="cls-22" d="M85,161.52a64.5,64.5,0,0,0-1.47,7.2c0,1.37,3.12,15.18,4.39,19.15S81,208.16,81,209.21s1,2.51,2.3,2.3,10.88-18.2,11.93-21.76,2.09-20.07,2.09-20.07l3.13-7.32Z" transform="translate(-1.83 -3.07)"/><path class="cls-20" d="M83.81,166.73l6.93,5.67s4.08,14,4.5,17.35S94,209.43,95,211.53s2.72,1.67,3.35,1.25,3.55-20.29,3.55-26.26-1.54-24.59-1.54-24.59L85,161.52Z" transform="translate(-1.83 -3.07)"/><path class="cls-19" d="M90.17,133.12l-.94,6.74h0a4,4,0,0,0,3.82,2.4l.78,0,1.5-7.08Z" transform="translate(-1.83 -3.07)"/><path class="cls-23" d="M99,135.12a1.32,1.32,0,0,0-1.7-1.46,1.69,1.69,0,0,0-.86,1.66,4.92,4.92,0,0,0,.62,1.87,29.82,29.82,0,0,1-7,1.63l-1.77-4.62a6.82,6.82,0,0,1-.55-2.15,7.84,7.84,0,0,1,2.63-5.35,8.34,8.34,0,0,1,6.49-1.33,7,7,0,0,1,4.51,3.72C102.51,131.3,100.22,133.32,99,135.12Z" transform="translate(-1.83 -3.07)"/><path class="cls-23" d="M93.85,122.15a8.74,8.74,0,0,0-4.33-1.79c-2-.38-4.3-.52-6,.68s-2.24,3.3-2.47,5.29a7.56,7.56,0,0,0,.36,3.84c.86,2,3.11,3.17,5.3,3.41a8.15,8.15,0,0,0,5.76-1.43C95.1,130.2,96.55,124.58,93.85,122.15Z" transform="translate(-1.83 -3.07)"/><path class="cls-24" d="M95.33,126.5c-.11,3-2.23,6.55-5.2,7.07a3.36,3.36,0,0,0,.15.41A6.65,6.65,0,0,0,96,128.71C96.23,127.72,95.88,127.36,95.33,126.5Z" transform="translate(-1.83 -3.07)"/><path class="cls-25" d="M95.93,165.54a29.81,29.81,0,0,1,3.59,5.19" transform="translate(-1.83 -3.07)"/><path class="cls-19" d="M118.11,146.37a2.69,2.69,0,1,1-2.69-2.69A2.7,2.7,0,0,1,118.11,146.37Z" transform="translate(-1.83 -3.07)"/><path class="cls-22" d="M98.79,143.32c-1.48-.74-3.26-1.75-4.87-2.71,2,7.61,3.9,16.13,1.08,23.59a40.56,40.56,0,0,0,5.46-1.84S102.56,145.21,98.79,143.32Z" transform="translate(-1.83 -3.07)"/><path class="cls-20" d="M92.12,139.65l6.67,3.67s1.88.67,3.77,5.25,5.73,8.05,7,8.47c0,0,3.9-8.5,4.74-9.13s2.09,0,2.07.66c-.08,2.71-1.88,14.83-4.6,15.88S91.18,151.36,91,147.6A25.51,25.51,0,0,1,92.12,139.65Z" transform="translate(-1.83 -3.07)"/><path class="cls-26" d="M86.53,160.18c-.35-.09-.71-.16-1.06-.27-.2.69-.38,1.26-.48,1.61-.42,1.46,3.34,2.93,6.48,3.14s9-2.3,9-2.3.11-1,.24-2.47C95.76,161.88,90.22,163.13,86.53,160.18Z" transform="translate(-1.83 -3.07)"/><path class="cls-27" d="M95.79,161.47A20.24,20.24,0,0,1,95,164.2a40.56,40.56,0,0,0,5.46-1.84s.11-1,.24-2.47A32.61,32.61,0,0,1,95.79,161.47Z" transform="translate(-1.83 -3.07)"/><circle class="cls-28" cx="370.66" cy="60.11" r="58.11"/><circle class="cls-28" cx="473.42" cy="134.68" r="58.11"/><circle class="cls-28" cx="434.39" cy="254.95" r="58.11"/><circle class="cls-28" cx="306.62" cy="255.03" r="58.11"/><path class="cls-29" d="M485.24,165.63c0,7-10,21.91-10,21.91s-10-14.88-10-21.91,4.46-9,10-9S485.24,158.6,485.24,165.63Z" transform="translate(-1.83 -3.07)"/><path class="cls-30" d="M482.16,164.24c0,4.85-6.88,16.8-6.88,16.8s-6.87-11.95-6.87-16.8,3.08-6.18,6.87-6.18S482.16,159.39,482.16,164.24Z" transform="translate(-1.83 -3.07)"/><path class="cls-31" d="M479.27,161.92c0,2.81-4,12-4,12s-4-9.19-4-12,1.78-3.58,4-3.58S479.27,159.11,479.27,161.92Z" transform="translate(-1.83 -3.07)"/><path class="cls-32" d="M467.16,140.47s-13.72,7.21-13.72,22.81c0,0,.86,1.71,2.23-.35s2.57-7.71,11.32-7.71Z" transform="translate(-1.83 -3.07)"/><path class="cls-33" d="M483.34,140.47s13.72,7.21,13.72,22.81c0,0-.86,1.71-2.23-.35s-2.57-7.71-11.32-7.71Z" transform="translate(-1.83 -3.07)"/><path class="cls-34" d="M490.48,125.32a60.63,60.63,0,0,0-2.69-17.66H475.25V113a8.41,8.41,0,0,1,0,16.81v27h8.21C487.68,150.15,490.48,138.54,490.48,125.32Z" transform="translate(-1.83 -3.07)"/><path class="cls-35" d="M466.85,121.39a8.4,8.4,0,0,1,8.4-8.4v-5.33H462.71A60.63,60.63,0,0,0,460,125.32c0,13.22,2.8,24.83,7,31.47h8.21v-27A8.41,8.41,0,0,1,466.85,121.39Z" transform="translate(-1.83 -3.07)"/><path class="cls-36" d="M467.16,156.82a.38.38,0,0,0-.38.38V159a.38.38,0,0,0,.38.38h8.09v-2.56Z" transform="translate(-1.83 -3.07)"/><path class="cls-37" d="M483.33,156.82h-8.08v2.56h8.08a.39.39,0,0,0,.39-.38v-1.8A.39.39,0,0,0,483.33,156.82Z" transform="translate(-1.83 -3.07)"/><path class="cls-37" d="M481,121.39a5.76,5.76,0,0,1-5.76,5.76v2.65a8.41,8.41,0,0,0,0-16.81v2.65A5.75,5.75,0,0,1,481,121.39Z" transform="translate(-1.83 -3.07)"/><path class="cls-36" d="M466.85,121.39a8.41,8.41,0,0,0,8.4,8.41v-2.65a5.76,5.76,0,1,1,0-11.51V113A8.4,8.4,0,0,0,466.85,121.39Z" transform="translate(-1.83 -3.07)"/><path class="cls-38" d="M481,121.39a5.75,5.75,0,0,0-5.76-5.75v11.51A5.76,5.76,0,0,0,481,121.39Z" transform="translate(-1.83 -3.07)"/><path class="cls-39" d="M469.49,121.39a5.76,5.76,0,0,0,5.76,5.76V115.64A5.75,5.75,0,0,0,469.49,121.39Z" transform="translate(-1.83 -3.07)"/><path class="cls-33" d="M475.25,88v19.71h12.54C484.21,95.93,478,88,475.25,88Z" transform="translate(-1.83 -3.07)"/><path class="cls-32" d="M475.25,88c-2.74,0-9,8-12.54,19.71h12.54V88Z" transform="translate(-1.83 -3.07)"/><path class="cls-33" d="M475.78,144.74l-.13,0h-.4V164h.44a.44.44,0,0,0,.44-.44v-.59l0-.84,1.21-15.47A1.83,1.83,0,0,0,475.78,144.74Z" transform="translate(-1.83 -3.07)"/><path class="cls-32" d="M474.82,144.72h0l-.14,0a1,1,0,0,0-.24.11,1.74,1.74,0,0,0-1.29,1.8l1.21,15.49,0,.78v.59a.43.43,0,0,0,.27.4.39.39,0,0,0,.21.06h.4V144.72Z" transform="translate(-1.83 -3.07)"/><path class="cls-40" d="M391.41,99.28h-39a12,12,0,0,1-12-12V78.12a12,12,0,0,1,12-12H390.7a12,12,0,0,0,12-12V45a12,12,0,0,0-12-12h-39" transform="translate(-1.83 -3.07)"/><circle class="cls-41" cx="349.84" cy="29.88" r="5.81"/><circle class="cls-41" cx="389.58" cy="96.21" r="5.81"/><circle class="cls-41" cx="338.55" cy="79.63" r="5.81"/><circle class="cls-41" cx="373.84" cy="63.05" r="5.81"/><circle class="cls-41" cx="400.87" cy="46.47" r="5.81"/><path class="cls-34" d="M447.23,280.85a2.31,2.31,0,1,0,2.39,2.23A2.31,2.31,0,0,0,447.23,280.85Zm-.27-7.14a9.46,9.46,0,1,0,9.8,9.1A9.46,9.46,0,0,0,447,273.71Zm.53,14.3a4.85,4.85,0,1,1,4.67-5A4.85,4.85,0,0,1,447.49,288Zm16,0-.79,2a.67.67,0,0,1-.8.4l-3-.74a13.36,13.36,0,0,1-4.42,4.7l.92,2.82a.66.66,0,0,1-.34.83l-2,.92a.65.65,0,0,1-.85-.27l-1.64-2.59a12.91,12.91,0,0,1-2.88.42,13.43,13.43,0,0,1-3.12-.25L443.21,299a.65.65,0,0,1-.83.33l-2-.77a.67.67,0,0,1-.4-.8l.74-3a13.34,13.34,0,0,1-4.57-4.3l-3.11,1a.65.65,0,0,1-.83-.33l-.93-2a.65.65,0,0,1,.26-.85l2.86-1.82a13.52,13.52,0,0,1-.42-2.86,13.87,13.87,0,0,1,.3-3.37l-3-1.62a.65.65,0,0,1-.32-.83l.78-2a.65.65,0,0,1,.8-.39l3.36.84a13.36,13.36,0,0,1,4.22-4.34l-1.14-3.2a.65.65,0,0,1,.31-.84l1.94-1a.65.65,0,0,1,.86.24l2,3,0,.06a13.61,13.61,0,0,1,2.73-.39,13.38,13.38,0,0,1,3,.23v0l1.79-3.12a.65.65,0,0,1,.84-.3l2,.83a.65.65,0,0,1,.37.81l-.92,3.32a13.39,13.39,0,0,1,4.27,3.83l3.08-1a.66.66,0,0,1,.83.33l.93,2a.66.66,0,0,1-.27.86l-2.66,1.7a13.62,13.62,0,0,1,.58,3.46,13.16,13.16,0,0,1-.23,3l2.76,1.48A.66.66,0,0,1,463.53,288Z" transform="translate(-1.83 -3.07)"/><path class="cls-35" d="M444.06,270.19l0-.07-2-3a.65.65,0,0,0-.86-.24l-1.94,1a.66.66,0,0,0-.31.83l1.15,3.21a13.43,13.43,0,0,0-4.22,4.33l-3.36-.83a.65.65,0,0,0-.8.39l-.78,2a.64.64,0,0,0,.32.83l3,1.62a13.36,13.36,0,0,0-.3,3.36,13.52,13.52,0,0,0,.42,2.87l-2.86,1.82a.65.65,0,0,0-.26.85l.93,2a.64.64,0,0,0,.82.33l3.11-1a13.53,13.53,0,0,0,4.57,4.3l-.73,3a.63.63,0,0,0,.4.79l2,.78a.65.65,0,0,0,.83-.33l1.47-2.76a13.36,13.36,0,0,0,2.55.25v-3.91a9.45,9.45,0,0,1-.27-18.9h.27V269.8h-.41A13.51,13.51,0,0,0,444.06,270.19Z" transform="translate(-1.83 -3.07)"/><path class="cls-35" d="M442.43,283.34A4.86,4.86,0,0,0,447.2,288v-2.55a2.31,2.31,0,0,1,0-4.61h0v-2.54h-.1A4.85,4.85,0,0,0,442.43,283.34Z" transform="translate(-1.83 -3.07)"/><circle class="cls-35" cx="468.25" cy="267.84" r="6.11"/><path class="cls-34" d="M423.32,239.9a4.25,4.25,0,1,0,4.4,4.09A4.25,4.25,0,0,0,423.32,239.9Zm-.49-13.14a17.4,17.4,0,1,0,18,16.75A17.4,17.4,0,0,0,422.83,226.76Zm1,26.31a8.93,8.93,0,1,1,8.6-9.25A8.92,8.92,0,0,1,423.8,253.07Zm29.5,0-1.44,3.73a1.2,1.2,0,0,1-1.47.72l-5.45-1.35a24.77,24.77,0,0,1-8.13,8.65l1.69,5.2a1.19,1.19,0,0,1-.63,1.51l-3.61,1.7a1.21,1.21,0,0,1-1.57-.5l-3-4.77a24.92,24.92,0,0,1-5.29.78,24.29,24.29,0,0,1-5.75-.47l-2.7,5.09a1.22,1.22,0,0,1-1.53.6l-3.74-1.42a1.21,1.21,0,0,1-.73-1.47l1.35-5.55a24.66,24.66,0,0,1-8.4-7.91l-5.73,1.87a1.19,1.19,0,0,1-1.52-.61l-1.71-3.61a1.2,1.2,0,0,1,.48-1.57l5.27-3.35a24.59,24.59,0,0,1-.23-11.47l-5.53-3a1.2,1.2,0,0,1-.6-1.53l1.44-3.73a1.21,1.21,0,0,1,1.47-.73l6.19,1.54a24.82,24.82,0,0,1,7.75-8l-2.1-5.89a1.21,1.21,0,0,1,.57-1.54l3.57-1.8a1.22,1.22,0,0,1,1.59.44l3.7,5.49.06.12a23.65,23.65,0,0,1,5-.71,25,25,0,0,1,5.5.41s0,0,0,0l3.29-5.75a1.21,1.21,0,0,1,1.55-.55l3.68,1.53a1.2,1.2,0,0,1,.69,1.49l-1.68,6.1a24.78,24.78,0,0,1,7.84,7.06l5.68-1.87a1.21,1.21,0,0,1,1.52.62l1.71,3.61a1.21,1.21,0,0,1-.49,1.57L447,236.88a24.69,24.69,0,0,1,1.08,6.36,25.57,25.57,0,0,1-.42,5.56l5.08,2.73A1.21,1.21,0,0,1,453.3,253.06Z" transform="translate(-1.83 -3.07)"/><path class="cls-35" d="M417.48,220.28l-.05-.12-3.71-5.49a1.21,1.21,0,0,0-1.58-.44l-3.57,1.8a1.21,1.21,0,0,0-.57,1.54l2.1,5.89a24.72,24.72,0,0,0-7.75,8l-6.19-1.54a1.22,1.22,0,0,0-1.48.73l-1.43,3.73a1.21,1.21,0,0,0,.59,1.53l5.54,3a24.75,24.75,0,0,0,.22,11.46l-5.26,3.36a1.2,1.2,0,0,0-.48,1.57l1.71,3.61a1.2,1.2,0,0,0,1.52.61l5.72-1.88a24.71,24.71,0,0,0,8.41,7.92l-1.36,5.55a1.21,1.21,0,0,0,.74,1.46l3.73,1.43a1.21,1.21,0,0,0,1.53-.61l2.7-5.08a25.22,25.22,0,0,0,4.7.48v-7.21a17.39,17.39,0,0,1-.49-34.77c.16,0,.33,0,.49,0v-7.2h-.75A23.83,23.83,0,0,0,417.48,220.28Z" transform="translate(-1.83 -3.07)"/><path class="cls-35" d="M414.49,244.48a8.92,8.92,0,0,0,8.77,8.58v-4.68a4.25,4.25,0,0,1,0-8.49h0v-4.66h-.18A8.94,8.94,0,0,0,414.49,244.48Z" transform="translate(-1.83 -3.07)"/><path class="cls-34" d="M470.39,269.71a1.35,1.35,0,1,0,1,1.61A1.35,1.35,0,0,0,470.39,269.71Zm.9-4.08a5.53,5.53,0,1,0,4.21,6.59A5.52,5.52,0,0,0,471.29,265.63Zm-1.8,8.17a2.84,2.84,0,1,1,3.38-2.16A2.84,2.84,0,0,1,469.49,273.8Zm9.08,2.36-.75,1a.38.38,0,0,1-.51.1l-1.57-.85a7.81,7.81,0,0,1-3.19,2l.11,1.74a.39.39,0,0,1-.32.42l-1.25.23a.39.39,0,0,1-.44-.28l-.55-1.71a8.24,8.24,0,0,1-1.69-.18,7.72,7.72,0,0,1-1.73-.61l-1.24,1.35a.37.37,0,0,1-.51.07l-1-.74a.39.39,0,0,1-.11-.51l.86-1.6a7.86,7.86,0,0,1-1.95-3.11l-1.92.12a.36.36,0,0,1-.41-.31l-.24-1.24a.38.38,0,0,1,.27-.45l1.89-.61a7.69,7.69,0,0,1,.85-3.54l-1.47-1.36a.39.39,0,0,1-.06-.52l.74-1a.39.39,0,0,1,.51-.11l1.78,1a8,8,0,0,1,3-1.84l-.18-2a.37.37,0,0,1,.3-.42l1.24-.28a.39.39,0,0,1,.45.27l.7,2a.06.06,0,0,1,0,0,7.94,7.94,0,0,1,1.6.19,7.54,7.54,0,0,1,1.66.56h0l1.47-1.51a.4.4,0,0,1,.53,0l1,.76a.39.39,0,0,1,.09.52l-1,1.74a7.83,7.83,0,0,1,1.85,2.8l1.9-.12a.37.37,0,0,1,.42.31l.24,1.25a.38.38,0,0,1-.28.44l-1.76.57a7.46,7.46,0,0,1-.18,2,7.55,7.55,0,0,1-.57,1.68l1.35,1.25A.39.39,0,0,1,478.57,276.16Z" transform="translate(-1.83 -3.07)"/><line class="cls-42" x1="306.62" y1="221.28" x2="306.62" y2="245.95"/><circle class="cls-43" cx="306.62" cy="254.95" r="25.61"/><circle class="cls-5" cx="269.61" cy="133.39" r="58.11"/><path class="cls-44" d="M263.79,147l-.31-2.2a1.09,1.09,0,0,0-1.24-.92l-.46-3.21a1.12,1.12,0,0,0-1.27-.94l-.15,0-.42-2.88a1.8,1.8,0,0,0-2.06-1.53l-9.08,1.31a1.66,1.66,0,0,0-.49.16l-8.24,4.41-.6,2,13.69,10.33a1.52,1.52,0,0,1,1.13-.78l6.61-1a2.14,2.14,0,0,0,1.81-2.38l-.09-.76a.37.37,0,0,1,.3-.41A1.09,1.09,0,0,0,263.79,147Z" transform="translate(-1.83 -3.07)"/><path class="cls-45" d="M309.56,163.85l-.46.61-3.84-2.87-.89,1.18-2.52-1.9a1,1,0,0,1-.29-.33,1.25,1.25,0,0,1-.12-.3l-1.29-6-.41-1.89a2.18,2.18,0,0,0-.83-1.29l-1.71-1.29V116.59a2.1,2.1,0,0,0-2.1-2.1H286v-.6a.8.8,0,0,0-.8-.8H281v-.33a4.13,4.13,0,0,0-8.26,0,.28.28,0,0,0,0,.09v.24h-4.25a.79.79,0,0,0-.79.8v.6h-9.09a2.1,2.1,0,0,0-2.1,2.1v32l-.58.08a1.21,1.21,0,0,0-.44.15l-7.46,4-2.41,1.29a1.37,1.37,0,0,0-.68.91l-2.34,11.66a1.31,1.31,0,0,0,0,.44l1.54,8.36-.31,2-2.12-.38-.65,3.7-.52-.08-.73,3.28,3.94,2.55,5.74,3.15,4.87,1.16,1-7.55-1-.18.65-3.69-1.59-.28c1-1.4,1.45-1.86,2-2.7a22.52,22.52,0,0,0,2.83-6.26l.5-1.89h30.23l1.41.87a2.1,2.1,0,0,0,.94.31l3.44.28a1,1,0,0,1,.5.17l2.58,1.67-.43.59,3.82,2.87-.47.63,6.48,5.37,3.07-1.9,4.85-4.78L318,169.6ZM278.25,112v.57h-2.83V112a1.42,1.42,0,0,1,2.42-1A1.44,1.44,0,0,1,278.25,112Z" transform="translate(-1.83 -3.07)"/><rect class="cls-46" x="244.74" y="86.37" width="54" height="71.38" rx="2.79" ry="2.79"/><rect class="cls-13" x="247.16" y="89.15" width="49.16" height="65.8"/><path class="cls-47" d="M257.7,106.17a3.77,3.77,0,1,0,3.76,3.77A3.76,3.76,0,0,0,257.7,106.17Zm0,6a2.22,2.22,0,1,1,2.21-2.21A2.21,2.21,0,0,1,257.7,112.15Z" transform="translate(-1.83 -3.07)"/><path class="cls-47" d="M257.7,117.84a3.77,3.77,0,1,0,3.76,3.76A3.76,3.76,0,0,0,257.7,117.84Zm0,6a2.22,2.22,0,1,1,2.21-2.22A2.22,2.22,0,0,1,257.7,123.82Z" transform="translate(-1.83 -3.07)"/><path class="cls-47" d="M257.7,129.57a3.77,3.77,0,1,0,3.76,3.77A3.76,3.76,0,0,0,257.7,129.57Zm0,6a2.21,2.21,0,1,1,2.21-2.21A2.21,2.21,0,0,1,257.7,135.55Z" transform="translate(-1.83 -3.07)"/><rect class="cls-48" x="265.02" y="103.51" width="26" height="1.48"/><rect class="cls-48" x="265.02" y="106.12" width="26" height="1.48"/><rect class="cls-48" x="265.02" y="108.74" width="26" height="1.48"/><rect class="cls-48" x="265.02" y="115.18" width="26" height="1.48"/><rect class="cls-48" x="265.02" y="117.79" width="26" height="1.48"/><rect class="cls-48" x="265.02" y="120.4" width="26" height="1.48"/><rect class="cls-48" x="265.02" y="126.92" width="26" height="1.48"/><rect class="cls-48" x="265.02" y="129.53" width="26" height="1.48"/><rect class="cls-48" x="265.02" y="132.14" width="26" height="1.48"/><polygon class="cls-49" points="255.6 109.34 252.3 106.05 253.49 104.86 255.55 106.92 260.21 101.93 261.44 103.08 255.6 109.34"/><polygon class="cls-49" points="255.6 120.37 252.3 117.08 253.49 115.89 255.55 117.95 260.21 112.96 261.44 114.11 255.6 120.37"/><polygon class="cls-49" points="255.6 132.13 252.3 128.84 253.49 127.65 255.55 129.71 260.21 124.72 261.44 125.87 255.6 132.13"/><path class="cls-48" d="M279,87.14a5.48,5.48,0,0,0-11,0v2.29h11V87.26A.49.49,0,0,0,279,87.14Zm-7.35-1a1.88,1.88,0,1,1,3.76,0v.74h-3.76Z" transform="translate(-1.83 -3.07)"/><rect class="cls-48" x="269.86" y="83.85" width="3.76" height="0.19"/><path class="cls-47" d="M279,87.14a5.48,5.48,0,0,0-11,0v.19a5.48,5.48,0,0,1,11,0,.49.49,0,0,1,0,.12v-.19A.49.49,0,0,0,279,87.14Z" transform="translate(-1.83 -3.07)"/><path class="cls-50" d="M279.05,87.26v2.17h-11V87.14h11A.49.49,0,0,1,279.05,87.26Z" transform="translate(-1.83 -3.07)"/><rect class="cls-48" x="259.57" y="84.51" width="24.34" height="7.32" rx="3.66" ry="3.66"/><path class="cls-47" d="M284.68,87.58H262.45a1,1,0,0,0-1.05,1v.19a1,1,0,0,1,1.05-1h22.23a1.06,1.06,0,0,1,1.06,1v-.19A1.06,1.06,0,0,0,284.68,87.58Z" transform="translate(-1.83 -3.07)"/><path class="cls-50" d="M284.68,93.59H262.45a1.05,1.05,0,0,1-1.05-1.06v1.31a1.05,1.05,0,0,0,1.05,1.06h22.23a1.06,1.06,0,0,0,1.06-1.06V92.53A1.06,1.06,0,0,1,284.68,93.59Z" transform="translate(-1.83 -3.07)"/><path class="cls-47" d="M283.39,89.44H263.74a.27.27,0,0,1-.27-.27h0a.28.28,0,0,1,.27-.28h19.65a.29.29,0,0,1,.28.28h0A.28.28,0,0,1,283.39,89.44Z" transform="translate(-1.83 -3.07)"/><path class="cls-47" d="M283.39,91.11H263.74a.28.28,0,0,1-.27-.28h0a.27.27,0,0,1,.27-.27h19.65a.28.28,0,0,1,.28.27h0A.29.29,0,0,1,283.39,91.11Z" transform="translate(-1.83 -3.07)"/><path class="cls-47" d="M283.39,92.77H263.74a.27.27,0,0,1-.27-.27h0a.27.27,0,0,1,.27-.27h19.65a.28.28,0,0,1,.28.27h0A.28.28,0,0,1,283.39,92.77Z" transform="translate(-1.83 -3.07)"/><rect class="cls-50" x="261.64" y="85.59" width="20.2" height="0.55" rx="0.27" ry="0.27"/><path class="cls-50" d="M283.39,90.88H263.74a.28.28,0,0,1-.27-.28h0a.27.27,0,0,1,.27-.27h19.65a.28.28,0,0,1,.28.27h0A.29.29,0,0,1,283.39,90.88Z" transform="translate(-1.83 -3.07)"/><path class="cls-50" d="M283.39,92.54H263.74a.27.27,0,0,1-.27-.27h0a.27.27,0,0,1,.27-.27h19.65a.28.28,0,0,1,.28.27h0A.28.28,0,0,1,283.39,92.54Z" transform="translate(-1.83 -3.07)"/><path class="cls-47" d="M257.7,141.39a3.77,3.77,0,1,0,3.76,3.76A3.76,3.76,0,0,0,257.7,141.39Zm0,6a2.21,2.21,0,1,1,2.21-2.21A2.21,2.21,0,0,1,257.7,147.36Z" transform="translate(-1.83 -3.07)"/><rect class="cls-48" x="265.02" y="138.73" width="26" height="1.48"/><rect class="cls-48" x="265.02" y="141.34" width="26" height="1.48"/><rect class="cls-48" x="265.02" y="143.95" width="26" height="1.48"/><path class="cls-51" d="M254.91,140.49a2.48,2.48,0,0,0-3.92-3l-2.47,8.47a1.58,1.58,0,0,1-1.94.36l-3.2-1.71a6.75,6.75,0,0,1-2.24-1.94l-1.07-1.46-2.67,1.43a1.49,1.49,0,0,0-.75,1l-2.58,12.87a1.35,1.35,0,0,0,0,.49l1.7,9.23-.94,6.19,10.6-1.39c1.52-2.13,2-2.63,2.71-3.69a24.65,24.65,0,0,0,3.12-6.92l1.76-6.56a1.14,1.14,0,0,1,.15-.36l.65-4.57Z" transform="translate(-1.83 -3.07)"/><rect class="cls-47" x="237.95" y="163.94" width="4.15" height="14.84" transform="translate(448.74 -38.22) rotate(100.03)"/><path class="cls-20" d="M231.79,172l-1.27,5.7a58.3,58.3,0,0,0,15.81,11.15l1.78-14Z" transform="translate(-1.83 -3.07)"/><line class="cls-52" x1="229.49" y1="171.06" x2="246.01" y2="174.02"/><line class="cls-52" x1="229.08" y1="172.9" x2="245.77" y2="175.89"/><line class="cls-52" x1="228.67" y1="174.74" x2="245.53" y2="177.75"/><path class="cls-53" d="M242.57,174l1.22.18.78-4.08,2.8-1.67-1.43,1.89,1.75.33-.72,4.08,1.14.2-1.78,14a57.28,57.28,0,0,1-5.88-3.25Z" transform="translate(-1.83 -3.07)"/><path class="cls-54" d="M281.43,145.75l-.65.86a.31.31,0,0,0,.09.46l3.2,1.89.06,0,1.69.61a.3.3,0,0,0,.29,0l1.47-1.1a.33.33,0,0,0,.12-.19l.47-2.53a.31.31,0,0,0-.32-.37h-.39l.13.64-.13-.64-5.8.25A.3.3,0,0,0,281.43,145.75Z" transform="translate(-1.83 -3.07)"/><rect class="cls-47" x="298.37" y="151.05" width="5.49" height="14.68" transform="translate(153.31 -152) rotate(36.85)"/><path class="cls-51" d="M281.87,132.48a.44.44,0,0,0-.37,0l-13.29,8.1a1.12,1.12,0,0,0-.07,1.87L270,143.8a1,1,0,0,1,.15.14l1.31-1.25,10.92-3.83,4.07,1.68.63,3,.39,1.82h.39a.31.31,0,0,1,.32.37l-.47,2.53a.33.33,0,0,1-.12.19l-.27.2c3.29,2.32,8,2.53,11.92,1.06a2,2,0,0,1-.13-.34l-1.42-6.62-.45-2.08a2.46,2.46,0,0,0-.92-1.43L293.36,137Z" transform="translate(-1.83 -3.07)"/><path class="cls-20" d="M322.88,163.48l-14.81-10.11-9.85,13.11L312.08,178A58.33,58.33,0,0,0,322.88,163.48Z" transform="translate(-1.83 -3.07)"/><path class="cls-44" d="M277.17,146.92l4.11.08c-.17-.1,7.08-1.82,7.08-1.82l-1.09-5.2-4.38-1.8-11.73,4.12-1.42,1.34C270,143.88,277.17,146.92,277.17,146.92Z" transform="translate(-1.83 -3.07)"/><path class="cls-49" d="M293.79,140.63l-31.1,2,.21,3.87,31.21-1.87a1.24,1.24,0,0,0,1.15-1.37l-.17-1.54A1.23,1.23,0,0,0,293.79,140.63Z" transform="translate(-1.83 -3.07)"/><polygon class="cls-51" points="261.07 143.44 256.97 142 260.86 139.57 261.07 143.44"/><polygon class="cls-49" points="256.97 142 258.56 142.55 258.42 141.09 256.97 142"/><line class="cls-52" x1="297.78" y1="164.71" x2="307.83" y2="151.27"/><line class="cls-52" x1="299.24" y1="165.9" x2="309.4" y2="152.33"/><line class="cls-52" x1="300.7" y1="167.08" x2="310.96" y2="153.38"/><path class="cls-51" d="M287.31,148.65l-1.2.9a.3.3,0,0,1-.29,0l-1.69-.61-.06,0-1.95-1.16-4.3-2.42-3.9-1.74a2.78,2.78,0,0,0-3.35.86l-.41.55a2.66,2.66,0,0,0,1.54,3.38l1.56.61,3.73,2.48,5.37,5a2.34,2.34,0,0,0,.31.24l4.08,2.51a2.41,2.41,0,0,0,1,.34l3.8.3a1.21,1.21,0,0,1,.55.19L295,162l7.36-9.77-2.8-2.1a1.26,1.26,0,0,1-.32-.37C295.33,151.18,290.6,151,287.31,148.65Z" transform="translate(-1.83 -3.07)"/><path class="cls-53" d="M300.74,163.12l-.37.49-4.17-3.28-.35.47-1.51-1.08-2.2.39L295,162l-.47.66,4.22,3.17-.52.7L312.08,178c1.33-1.3,2.6-2.67,3.8-4.09Z" transform="translate(-1.83 -3.07)"/><circle class="cls-55" cx="269.61" cy="133.39" r="58.11"/></g></svg>