<svg xmlns="http://www.w3.org/2000/svg" viewBox="0 0 185.79 164.81"><defs><style>.cls-1{fill:#d29e08;}.cls-2{fill:#fdd875;}.cls-3{fill:#fdc20b;}.cls-4{fill:#1d71b8;}.cls-5{fill:#075a92;}.cls-6{fill:#e6e9f3;}.cls-7{fill:#fff;}.cls-8{fill:#e5effb;}.cls-9{fill:#f6bbc6;}.cls-10{fill:#5b5b5a;}.cls-11{fill:#303b45;}.cls-12{fill:#353430;}.cls-13{fill:#3b2d7c;}.cls-14{fill:#a6daf2;}.cls-15{fill:none;stroke:#353430;stroke-miterlimit:10;}.cls-16{fill:#ebebeb;}.cls-17{fill:#a9b2bd;}</style></defs><title>G14_03</title><g id="Tiles"><polygon class="cls-1" points="185.79 107.29 185.79 112.04 96.32 164.81 96.32 160.06 185.79 107.29"/><polygon class="cls-2" points="96.32 160.06 96.32 164.81 0.22 109.08 0.22 104.33 96.32 160.06"/><polygon class="cls-3" points="96.1 160.08 0 104.35 0 104.08 90.31 52.18 185.79 107.31 96.25 160.17 96.1 160.08"/></g><g id="Criminal"><ellipse class="cls-1" cx="92.28" cy="105.84" rx="59.96" ry="31.18"/><polygon class="cls-4" points="88.55 0 137.97 27.84 137.89 106.84 89.34 79.49 88.42 0.49 88.55 0"/><polygon class="cls-5" points="88.42 0.49 136.97 27.84 136.89 106.84 88.34 79.49 82.42 3.49 88.42 0.49"/><polygon class="cls-6" points="129.84 31.25 129.76 108.25 135.95 105.05 135.87 28.05 129.84 31.25"/><polygon class="cls-7" points="82.42 4.49 129.84 31.25 129.76 108.25 82.34 81.49 82.42 4.49"/><polygon class="cls-8" points="129.84 31.25 82.42 4.49 88.25 1.8 135.87 28.05 129.84 31.25"/><polygon class="cls-4" points="82.42 3.49 130.97 30.84 130.89 109.84 82.34 82.49 81.42 3.49 82.42 3.49"/><polygon class="cls-5" points="81.42 3.49 129.97 30.84 129.89 109.84 81.34 82.49 81.42 3.49"/><polygon class="cls-4" points="88.42 0.49 82.42 3.49 81.42 3.49 88.55 0 88.42 0.49"/><path class="cls-9" d="M57.23,68.56a2,2,0,0,0-.24,0,2.62,2.62,0,0,1-.38-1c-.35-1.58-1.36-.63-1.36-.63l-2,.63s1,3.3,2.68,4.55a2,2,0,1,0,1.28-3.53Z" transform="translate(-2.86 -3.26)"/><path class="cls-10" d="M66.86,37.55s-5-2.38-6.9,0S52.64,51,52,54.36s.63,11.09,1.26,13.18,3.34,0,3.34,0,.84-10.25,1-11.09,4.18-10.87,4.18-10.87a66.4,66.4,0,0,0,2.09,6.9c.84,1.88-1,7.32-1.46,8.78S65.81,64.19,69,64.4s9-2.3,9-2.3S80,45,76.27,43.07,66.86,37.55,66.86,37.55Z" transform="translate(-2.86 -3.26)"/><path class="cls-11" d="M83.05,117.26c-1.59-1.05-3.25-.26-3.68-.33a3.81,3.81,0,0,1-3.79-3.11c0-.33-.06-3.15-.06-3.15l-2.61.34s-1.35,8.75-1.41,9.92.29,1.35,1.7,1.91,5.1-1.81,7.13-2.16S84.63,118.31,83.05,117.26Z" transform="translate(-2.86 -3.26)"/><path class="cls-11" d="M67.6,113.32c-1.59-1.06-3.25-.27-3.68-.33s-1.85,0-2.41-.4c-.2-.9,1.56-5.17,1.56-5.17l-1.13-.16-2.34.87S56.11,115.82,56,117s.3,1.35,1.71,1.91,5.1-1.8,7.13-2.16S69.18,114.37,67.6,113.32Z" transform="translate(-2.86 -3.26)"/><path class="cls-9" d="M79,33.6A6.28,6.28,0,1,1,74.4,26,6.28,6.28,0,0,1,79,33.6Z" transform="translate(-2.86 -3.26)"/><path class="cls-12" d="M62.47,61.26A64.76,64.76,0,0,0,61,68.47c0,1.37,3.12,15.17,4.39,19.15s-6.9,20.28-6.9,21.33,1,2.51,2.3,2.3S71.67,93.05,72.72,89.5s2.09-20.08,2.09-20.08l3.13-7.32Z" transform="translate(-2.86 -3.26)"/><path class="cls-10" d="M61.29,66.48l6.93,5.66s4.08,14,4.5,17.36-1.25,19.68-.21,21.77,2.72,1.67,3.35,1.26,3.55-20.29,3.55-26.26-1.53-24.59-1.53-24.59l-15.41-.42Z" transform="translate(-2.86 -3.26)"/><path class="cls-9" d="M67.65,32.87l-.94,6.73h0A4,4,0,0,0,70.54,42l.77,0,1.5-7.08Z" transform="translate(-2.86 -3.26)"/><path class="cls-13" d="M76.51,34.87a1.31,1.31,0,0,0-1.7-1.46A1.67,1.67,0,0,0,74,35.06a4.86,4.86,0,0,0,.62,1.87,28.85,28.85,0,0,1-7,1.63l-1.77-4.62a6.68,6.68,0,0,1-.55-2.15,7.82,7.82,0,0,1,2.63-5.34,8.26,8.26,0,0,1,6.49-1.33,7,7,0,0,1,4.51,3.72C80,31,77.7,33.07,76.51,34.87Z" transform="translate(-2.86 -3.26)"/><path class="cls-13" d="M71.33,21.89A8.73,8.73,0,0,0,67,20.11c-2-.38-4.3-.53-6,.67s-2.24,3.3-2.47,5.3a7.57,7.57,0,0,0,.36,3.84c.86,2,3.11,3.17,5.3,3.41A8.16,8.16,0,0,0,70,31.89C72.58,29.94,74,24.32,71.33,21.89Z" transform="translate(-2.86 -3.26)"/><path class="cls-14" d="M72.81,26.25c-.11,3-2.23,6.54-5.2,7.06a2.36,2.36,0,0,0,.15.41,6.64,6.64,0,0,0,5.74-5.27C73.71,27.46,73.36,27.1,72.81,26.25Z" transform="translate(-2.86 -3.26)"/><path class="cls-15" d="M73.41,65.29A29.36,29.36,0,0,1,77,70.47" transform="translate(-2.86 -3.26)"/><path class="cls-9" d="M95.59,46.11a2.69,2.69,0,1,1-2.69-2.69A2.68,2.68,0,0,1,95.59,46.11Z" transform="translate(-2.86 -3.26)"/><path class="cls-12" d="M76.27,43.07c-1.48-.74-3.26-1.76-4.86-2.72,2,7.61,3.89,16.13,1.07,23.6a41.45,41.45,0,0,0,5.46-1.85S80,45,76.27,43.07Z" transform="translate(-2.86 -3.26)"/><path class="cls-10" d="M69.6,39.39l6.67,3.68s1.88.67,3.77,5.25,5.73,8,7,8.46c0,0,3.9-8.5,4.74-9.13s2.09,0,2.07.67C93.76,51,92,63.15,89.24,64.19S68.66,51.1,68.45,47.34A25.58,25.58,0,0,1,69.6,39.39Z" transform="translate(-2.86 -3.26)"/><path class="cls-16" d="M64,59.92c-.35-.08-.71-.15-1.06-.26-.2.69-.38,1.26-.48,1.6-.42,1.47,3.34,2.93,6.48,3.14s9-2.3,9-2.3.11-1,.24-2.47C73.24,61.63,67.7,62.87,64,59.92Z" transform="translate(-2.86 -3.26)"/><path class="cls-17" d="M73.27,61.22A20.67,20.67,0,0,1,72.48,64a41.45,41.45,0,0,0,5.46-1.85s.11-1,.24-2.47A32.66,32.66,0,0,1,73.27,61.22Z" transform="translate(-2.86 -3.26)"/></g></svg>