<svg xmlns="http://www.w3.org/2000/svg" viewBox="0 0 527.94 298.52"><defs><style>.cls-1{fill:#d29e08;}.cls-2{fill:#fdd875;}.cls-3,.cls-31{fill:#fdc20b;}.cls-4{fill:#fcc10d;}.cls-5{fill:#2c2a25;}.cls-6{fill:#29110b;}.cls-7{fill:#deb09d;}.cls-8{fill:#fad0b4;}.cls-9{fill:#e2bca2;}.cls-10{fill:#e7e8e9;}.cls-11{fill:#657d83;}.cls-12{fill:#728d95;}.cls-13,.cls-17,.cls-24,.cls-27,.cls-29,.cls-34{fill:none;}.cls-13{stroke:#e9eaeb;}.cls-13,.cls-17,.cls-24,.cls-27,.cls-31,.cls-33,.cls-34{stroke-miterlimit:10;}.cls-13,.cls-17,.cls-31{stroke-width:4px;}.cls-14{fill:#fff;}.cls-15,.cls-16{fill:#fcd6b7;}.cls-15,.cls-44,.cls-46,.cls-48,.cls-49,.cls-50,.cls-53{fill-rule:evenodd;}.cls-17,.cls-31{stroke:#eaeaea;}.cls-18,.cls-26,.cls-46{fill:#5b5b5a;}.cls-18{opacity:0.2;}.cls-19{fill:#f4c4a4;}.cls-20{fill:#f8ac1a;}.cls-21{fill:#bdbcbc;}.cls-22{fill:#e0e0e0;}.cls-23{fill:#9a9b9c;}.cls-24{stroke:#4e7a92;}.cls-24,.cls-27{stroke-width:2px;}.cls-25{font-size:9px;font-family:MyriadPro-Bold, Myriad Pro;font-weight:700;letter-spacing:0em;}.cls-25,.cls-71{fill:#1d1d1b;}.cls-27{stroke:#f5ad1f;}.cls-28,.cls-64{fill:#3c3c3b;}.cls-28{opacity:0.4;}.cls-30{fill:#4e7a92;}.cls-32{fill:#e5effb;}.cls-33{fill:#f5ad1f;}.cls-33,.cls-34{stroke:#6786a0;stroke-width:2.13px;}.cls-35{fill:#008d36;}.cls-36{fill:#063;}.cls-37{isolation:isolate;}.cls-38{fill:#2a3134;}.cls-39{fill:#313537;}.cls-40{fill:#455358;}.cls-41{fill:#368784;}.cls-42{fill:#ee9f05;}.cls-43{fill:#234f5e;}.cls-44,.cls-45{fill:#f6bbc6;}.cls-47{fill:#4d4a81;}.cls-48{fill:#8a8b8c;}.cls-49{fill:#afafb1;}.cls-50{fill:#48abb4;}.cls-51{fill:#f9b233;}.cls-52{fill:#303b45;}.cls-53{fill:#353430;}.cls-54{fill:#eaeaea;}.cls-55{fill:#ebebeb;}.cls-56{fill:#e51449;}.cls-57{fill:#323c3f;}.cls-58{fill:#4e4d4c;}.cls-59{fill:#d8d8d8;}.cls-60{fill:#29303a;}.cls-61{fill:#435871;}.cls-62{fill:#d9d9d9;}.cls-63{fill:#a7b0ba;}.cls-65{fill:#2d2e83;}.cls-66{fill:#1d71b8;}.cls-67{fill:#3aaa35;}.cls-68{fill:#7b1716;}.cls-69{fill:#e30613;}.cls-70{fill:#e94e1b;}.cls-72{fill:#adbfcf;}.cls-73{fill:#f9fafd;}.cls-74{fill:#114369;}.cls-75{fill:#edf1f4;}.cls-76{fill:#efedee;}.cls-77{fill:#0f2d43;}.cls-78{fill:#134269;}</style></defs><title>G14_08_02</title><g id="Livello_1" data-name="Livello 1"><polygon class="cls-1" points="355.74 241 355.74 245.75 266.27 298.52 266.27 293.77 355.74 241"/><polygon class="cls-2" points="266.27 293.77 266.27 298.52 170.17 242.79 170.17 238.04 266.27 293.77"/><polygon class="cls-3" points="266.05 293.79 169.95 238.06 169.95 237.79 260.26 185.89 355.74 241.01 266.2 293.88 266.05 293.79"/><ellipse class="cls-1" cx="260.18" cy="238.3" rx="65.41" ry="34.02"/><circle class="cls-4" cx="148.33" cy="94.2" r="56.69"/><g id="_5" data-name="5"><path class="cls-5" d="M167.39,78.9,166.5,78Z" transform="translate(-5.12 -12.05)"/><path class="cls-6" d="M129.74,96.38a37.62,37.62,0,0,1,.32-4.47c1.66-12.12,12.22-22.64,25-20.64,13.63,2.14,20.46,12.19,21.81,25.7.47,4.64-.35,8.48,1,13,1.44,4.8,3.05,9.55,4.36,14.39a191.14,191.14,0,0,1,5.3,23.34c.67,4.77-.47,5-4.79,7.13-1.85.91-5.15,3.78-7.21,3.68-13.91-.67-25.85,1.28-39.77.78-4.08-.14-7.79-2.9-11.54-4.45-14.23-5.84-2.46-20.23.49-28.4a100.24,100.24,0,0,0,4.6-17.71C130,104.49,129.65,100.45,129.74,96.38Z" transform="translate(-5.12 -12.05)"/><path class="cls-7" d="M138.32,130.69s3.54-8.5,2.5-15.52c-.8-5.39,21.57,2,21.57,2s0,9.6.92,14.08-2,18.23-2,18.23L143.05,148l-1.35-3.81Z" transform="translate(-5.12 -12.05)"/><path class="cls-8" d="M158.46,89.78c1.31-.9,6.4-3.29,6.21-5.07.22,2.08,1.28,3.84,1.83,5.81.62,2.21,1.52,4.31,2,6.58a26.68,26.68,0,0,1-.54,13.22c-1.31,3.83-4,6.79-6.95,9.47l-.63.56c-2.37,2.11-4.72,3.1-7,3l-.06-31A37.51,37.51,0,0,0,158.46,89.78Z" transform="translate(-5.12 -12.05)"/><path class="cls-9" d="M144.86,97.76c2.8-1.56,8.28-5.46,8.44-5.39v31c-2.33.06-4.67-.93-7-3l-.64-.56c-3.21-2.9-6.09-5.85-6.82-10.08-.09-.55-.4-1.22-1-1.25-1.85-.11-2.71-3.31-3.07-5.26C137.69,100.84,141.64,99.55,144.86,97.76Z" transform="translate(-5.12 -12.05)"/><path class="cls-10" d="M147.59,163.93h6.67l7-16.36A2.78,2.78,0,0,0,161,146a52.84,52.84,0,0,1-10.09,1.45A52.83,52.83,0,0,1,140.84,146a2.78,2.78,0,0,0-.2,1.55Z" transform="translate(-5.12 -12.05)"/><path class="cls-11" d="M191,150.4c-.66-7.17.11-.32-.75-3.54-1.84-6.91-5.93-8.74-12.71-10.82-1-.31-15.59-3.41-14.66-6.44q-4.59,15-9.24,30.08l-1.31,4.25,19.33-4Z" transform="translate(-5.12 -12.05)"/><path class="cls-11" d="M125.25,156.86l23.94,7.07c-.43-1.42-.87-2.83-1.31-4.25q-4.6-15-9.24-30.08c0,.49-6.06,4.27-6.77,4.55-2.79,1.11-5.19,1.14-7.67,1.64C125.74,144.91,125.64,147.36,125.25,156.86Z" transform="translate(-5.12 -12.05)"/><path class="cls-12" d="M160.93,163.93c4.2-6.27,8.08-11.88,7.9-12.2l-4.41-7.9,6,.65c-.62-1.91-2-11.28-3.77-12.23l-3.39-2.73L156.05,151l-3.91,12.89Z" transform="translate(-5.12 -12.05)"/><path class="cls-12" d="M133,151.73c-.18.32,3.39,4.18,7.55,10.47l9.14,1.73L145.8,151l-7.22-21.52-3.4,2.73c-1.76.95-3.14,10.32-3.76,12.23l6-.65Z" transform="translate(-5.12 -12.05)"/><path class="cls-11" d="M125.25,156.86c-.31-3.54,1.15-2.22,1.24-5.79.14-5.85-1.32-9.5-2.29-15.28a15.14,15.14,0,0,0-3.79,1.25c-5.61,2.77-6.59,4.05-8.31,9.69-1,3.26,7.92,2.74,7.34,6Z" transform="translate(-5.12 -12.05)"/></g><circle class="cls-13" cx="148.33" cy="94.2" r="56.69"/><path class="cls-14" d="M177.06,71.27l-4.75,6.25v.1l7.55-1V80l-7.55-.9v.1l4.8,6L174,87l-3-7h-.1l-3.25,7-2.85-1.8,4.75-6.1v-.1l-7.4,1v-3.4l7.35.95v-.1l-4.7-6.1,3.05-1.75,3.1,6.95h.1l3.05-7Z" transform="translate(-5.12 -12.05)"/><circle class="cls-4" cx="379.61" cy="94.2" r="56.69"/><g id="_5-2" data-name="5"><path class="cls-5" d="M398.67,78.9l-.89-.92Z" transform="translate(-5.12 -12.05)"/><path class="cls-6" d="M361,96.38a39.85,39.85,0,0,1,.32-4.47c1.67-12.12,12.22-22.64,25-20.64C400,73.41,406.78,83.46,408.14,97c.46,4.64-.35,8.48,1,13,1.43,4.8,3,9.55,4.36,14.39a191.11,191.11,0,0,1,5.29,23.34c.67,4.77-.47,5-4.78,7.13-1.86.91-5.16,3.78-7.22,3.68-13.9-.67-25.85,1.28-39.76.78-4.08-.14-7.8-2.9-11.55-4.45-14.22-5.84-2.45-20.23.49-28.4a99.38,99.38,0,0,0,4.6-17.71C361.25,104.49,360.93,100.45,361,96.38Z" transform="translate(-5.12 -12.05)"/><path class="cls-7" d="M369.59,130.69s3.55-8.5,2.5-15.52c-.8-5.39,21.58,2,21.58,2s0,9.6.92,14.08-2,18.23-2,18.23L374.32,148,373,144.19Z" transform="translate(-5.12 -12.05)"/><path class="cls-8" d="M389.74,89.78c1.3-.9,6.4-3.29,6.2-5.07.23,2.08,1.29,3.84,1.84,5.81.62,2.21,1.51,4.31,2,6.58a26.68,26.68,0,0,1-.54,13.22c-1.3,3.83-4,6.79-6.94,9.47l-.64.56c-2.37,2.11-4.71,3.1-7,3l-.06-31A37.63,37.63,0,0,0,389.74,89.78Z" transform="translate(-5.12 -12.05)"/><path class="cls-9" d="M376.13,97.76c2.8-1.56,8.29-5.46,8.44-5.39v17.71a2.85,2.85,0,0,1,1.39,1.51,2.91,2.91,0,0,1,.18,1c0,3.5.77,10.46.77,10.46s-1.07.24-1.24.26c-.34,0-1.1,0-1.1,0-2.32.06-4.67-.93-7-3-.22-.18-.43-.37-.64-.56-3.22-2.9-6.1-5.85-6.82-10.08-.1-.55-.4-1.22-1-1.25-1.84-.11-2.7-3.31-3.07-5.26C369,100.84,372.91,99.55,376.13,97.76Z" transform="translate(-5.12 -12.05)"/><path class="cls-10" d="M378.86,163.93h6.68l6.94-16.36a2.78,2.78,0,0,0-.2-1.55,52.83,52.83,0,0,1-10.08,1.45A52.84,52.84,0,0,1,372.11,146a2.8,2.8,0,0,0-.19,1.55Z" transform="translate(-5.12 -12.05)"/><path class="cls-11" d="M422.28,150.4c-.65-7.17.12-.32-.74-3.54-1.85-6.91-5.93-8.74-12.72-10.82-1-.31-15.58-3.41-14.65-6.44q-4.6,15-9.25,30.08c-.43,1.42-.87,2.83-1.3,4.25l21.13-4.14Z" transform="translate(-5.12 -12.05)"/><path class="cls-11" d="M356.53,156.86l23.94,7.07-1.31-4.25q-4.62-15-9.24-30.08c0,.49-6.06,4.27-6.77,4.55-2.8,1.11-5.19,1.14-7.68,1.64C357,144.91,356.92,147.36,356.53,156.86Z" transform="translate(-5.12 -12.05)"/><path class="cls-12" d="M392.2,163.93c4.21-6.27,8.09-11.88,7.91-12.2l-4.42-7.9,6,.65c-.61-1.91-2-11.28-3.76-12.23l-3.39-2.73L387.32,151l-3.9,12.89Z" transform="translate(-5.12 -12.05)"/><path class="cls-12" d="M364.29,151.73c-.18.32,3.4,4.43,7.56,10.72l9.13,1.48L377.07,151l-7.22-21.52-3.39,2.73c-1.77.95-3.15,10.32-3.77,12.23l6-.65Z" transform="translate(-5.12 -12.05)"/><path class="cls-11" d="M356.53,156.86c-.32-3.54,1.15-2.22,1.23-5.79.14-5.85-1.31-9.5-2.29-15.28a15.27,15.27,0,0,0-3.79,1.25c-5.61,2.77-6.59,4.05-8.31,9.69-1,3.26,7.92,2.74,7.35,6Z" transform="translate(-5.12 -12.05)"/><path class="cls-15" d="M379.37,132.45l.47,4.85c.25,1.26,3,4.39,4.3,4.24s.77-2.66.48-3.92l-1.2-7.64C383.06,129.66,379.37,131.33,379.37,132.45Z" transform="translate(-5.12 -12.05)"/><path class="cls-16" d="M394.76,148.11A17.09,17.09,0,0,1,395,143c1.06-3.4,1.52-3.61,2-5.23a21.63,21.63,0,0,0,.52-9.08c0-2.16-1.91-3.22-3-1.69-.59-1.86-3.3-2.5-4.22-.69-.24-2.1-3-3-4.16-1.4l-1-11.62c0-2.86-2.68-3.54-2.63-.06l-.66,25.47a5.14,5.14,0,0,0,1,2.68c.6,0,1.41,8.55,1.41,8.55Z" transform="translate(-5.12 -12.05)"/><polygon class="cls-10" points="391.84 148.28 386.4 149.53 378.49 149.82 378.03 133.62 390.19 131.96 391.84 148.28"/><polygon class="cls-12" points="392.99 150.52 387.09 151.88 377.84 152.19 377.64 136.44 391.2 134.68 392.99 150.52"/></g><circle class="cls-17" cx="379.61" cy="94.69" r="56.69"/><circle class="cls-3" cx="263.97" cy="58.69" r="56.69"/><path class="cls-18" d="M298.76,94.57a1.13,1.13,0,0,1-.29-.33,1.08,1.08,0,0,1-.11-.3L297.1,88.1l-.4-1.85a2.17,2.17,0,0,0-.81-1.26l-1.67-1.26V51.37a2.05,2.05,0,0,0-2.05-2.06h-8.86v-.59a.78.78,0,0,0-.78-.77h-4.15v-.32a4,4,0,0,0-8.06,0V48h-4.15a.77.77,0,0,0-.77.77v.59h-8.87a2.05,2.05,0,0,0-2,2.06V82.59l-.56.08a1.28,1.28,0,0,0-.43.14l-7.28,3.9L243.85,88a1.31,1.31,0,0,0-.66.89l-2.28,11.37a1,1,0,0,0,0,.43l1.49,8.15-.3,2-2.06-.36L239.4,114l-.51-.08-.71,3.2,3.84,2.49,5.6,3.06,4.76,1.14.94-7.36-1-.18.64-3.6-1.56-.27c1-1.37,1.41-1.82,1.94-2.64a22,22,0,0,0,2.76-6.11l.49-1.84h29.13l.7,2.77-1.66.37,2.51,18.86,16.63-9.55Zm-23-47.65v.54H273v-.54a1.38,1.38,0,0,1,2.36-1A1.37,1.37,0,0,1,275.73,46.92Z" transform="translate(-5.12 -12.05)"/><path class="cls-19" d="M261.63,81l-.31-2.15a1.07,1.07,0,0,0-1.21-.9l-.45-3.13a1.09,1.09,0,0,0-1.24-.92l-.14,0-.41-2.81a1.77,1.77,0,0,0-2-1.5L247,70.9a1.36,1.36,0,0,0-.47.15l-8,4.31-.58,1.91,13.35,10.08a1.54,1.54,0,0,1,1.1-.76l6.45-.93a2.08,2.08,0,0,0,1.77-2.33l-.09-.74a.37.37,0,0,1,.29-.4A1.06,1.06,0,0,0,261.63,81Z" transform="translate(-5.12 -12.05)"/><rect class="cls-20" x="239.71" y="12.82" width="52.68" height="69.64" rx="2.72" ry="2.72"/><rect class="cls-14" x="242.07" y="15.54" width="47.96" height="64.2"/><path class="cls-21" d="M276.51,22.63a5.35,5.35,0,0,0-10.69,0v2.24h10.69V22.63Zm-7.18-.94a1.84,1.84,0,0,1,3.13-1.3,1.85,1.85,0,0,1,.54,1.3v.73h-3.67Z" transform="translate(-5.12 -12.05)"/><rect class="cls-21" x="264.22" y="10.37" width="3.66" height="0.19"/><path class="cls-22" d="M276.51,22.63a5.35,5.35,0,0,0-10.69,0v.19a5.35,5.35,0,0,1,10.69,0v-.19Z" transform="translate(-5.12 -12.05)"/><rect class="cls-23" x="260.7" y="10.58" width="10.69" height="2.24"/><rect class="cls-21" x="254.18" y="11.01" width="23.75" height="7.15" rx="3.57" ry="3.57"/><path class="cls-22" d="M282,23.06H260.32a1,1,0,0,0-1,1v.18a1,1,0,0,1,1-1H282a1,1,0,0,1,1,1v-.18A1,1,0,0,0,282,23.06Z" transform="translate(-5.12 -12.05)"/><path class="cls-23" d="M282,28.92H260.32a1,1,0,0,1-1-1v1.28a1,1,0,0,0,1,1H282a1,1,0,0,0,1-1V27.89A1,1,0,0,1,282,28.92Z" transform="translate(-5.12 -12.05)"/><path class="cls-22" d="M280.75,24.87H261.58a.27.27,0,0,1-.27-.26h0a.27.27,0,0,1,.27-.27h19.17a.27.27,0,0,1,.26.27h0A.26.26,0,0,1,280.75,24.87Z" transform="translate(-5.12 -12.05)"/><path class="cls-22" d="M280.75,26.5H261.58a.27.27,0,0,1-.27-.27h0a.27.27,0,0,1,.27-.26h19.17a.26.26,0,0,1,.26.26h0A.27.27,0,0,1,280.75,26.5Z" transform="translate(-5.12 -12.05)"/><path class="cls-22" d="M280.75,28.13H261.58a.27.27,0,0,1-.27-.27h0a.27.27,0,0,1,.27-.27h19.17a.27.27,0,0,1,.26.27h0A.27.27,0,0,1,280.75,28.13Z" transform="translate(-5.12 -12.05)"/><rect class="cls-23" x="256.2" y="12.07" width="19.7" height="0.53" rx="0.27" ry="0.27"/><path class="cls-23" d="M280.75,26.28H261.58a.27.27,0,0,1-.27-.27h0a.27.27,0,0,1,.27-.27h19.17A.27.27,0,0,1,281,26h0A.27.27,0,0,1,280.75,26.28Z" transform="translate(-5.12 -12.05)"/><path class="cls-23" d="M280.75,27.9H261.58a.27.27,0,0,1-.27-.26h0a.27.27,0,0,1,.27-.27h19.17a.27.27,0,0,1,.26.27h0A.26.26,0,0,1,280.75,27.9Z" transform="translate(-5.12 -12.05)"/><line class="cls-24" x1="274.35" y1="25.45" x2="255.18" y2="25.45"/><line class="cls-24" x1="262.82" y1="28.85" x2="255.37" y2="28.85"/><line class="cls-24" x1="281.7" y1="28.85" x2="265.53" y2="28.85"/><line class="cls-24" x1="286.29" y1="28.85" x2="283.2" y2="28.85"/><line class="cls-24" x1="286.29" y1="25.45" x2="276.27" y2="25.45"/><line class="cls-24" x1="270.13" y1="31.89" x2="259.39" y2="31.89"/><line class="cls-24" x1="257.52" y1="31.89" x2="255.27" y2="31.89"/><line class="cls-24" x1="274.35" y1="39.14" x2="255.18" y2="39.14"/><line class="cls-24" x1="286.29" y1="39.14" x2="276.27" y2="39.14"/><line class="cls-24" x1="270.13" y1="45.59" x2="259.39" y2="45.59"/><line class="cls-24" x1="258.94" y1="42.74" x2="255.37" y2="42.74"/><line class="cls-24" x1="277.82" y1="42.74" x2="261.65" y2="42.74"/><line class="cls-24" x1="286.29" y1="42.74" x2="279.32" y2="42.74"/><line class="cls-24" x1="257.52" y1="45.59" x2="255.27" y2="45.59"/><line class="cls-24" x1="262.82" y1="53.04" x2="255.37" y2="53.04"/><line class="cls-24" x1="267.7" y1="53.04" x2="265.53" y2="53.04"/><text class="cls-25" transform="translate(245.12 30.91)">1<tspan x="0" y="14">2</tspan><tspan x="0" y="28">3</tspan><tspan x="0" y="42">4</tspan></text><path class="cls-16" d="M256.87,75.66a2.42,2.42,0,0,0-3.83-3L246.73,80a1.56,1.56,0,0,1-1.9.35l-3.12-1.67a6.43,6.43,0,0,1-2.18-1.9l-1.05-1.41-2.6,1.39a1.41,1.41,0,0,0-.73,1l-2.52,12.56a1.29,1.29,0,0,0,0,.48l1.66,9-.92,6,10.35-1.35c1.48-2.09,2-2.57,2.63-3.61a24,24,0,0,0,3-6.75l1.71-6.4a2.17,2.17,0,0,1,.15-.35l.63-4.46Z" transform="translate(-5.12 -12.05)"/><rect class="cls-22" x="236.42" y="97.56" width="4.05" height="14.48" transform="translate(378.05 -123.8) rotate(100.03)"/><path class="cls-26" d="M230.4,105.44,229.17,111a56.64,56.64,0,0,0,15.42,10.88l1.74-13.64Z" transform="translate(-5.12 -12.05)"/><line class="cls-27" x1="224.83" y1="95.45" x2="240.94" y2="98.33"/><line class="cls-27" x1="224.43" y1="97.24" x2="240.71" y2="100.16"/><line class="cls-27" x1="224.03" y1="99.03" x2="240.48" y2="101.98"/><path class="cls-28" d="M240.92,107.34l1.19.17.76-4,2.74-1.63-1.4,1.84,1.71.32-.7,4,1.11.19-1.74,13.64a54.83,54.83,0,0,1-5.74-3.17Z" transform="translate(-5.12 -12.05)"/><path class="cls-29" d="M278.83,79.81l-.63.84a.3.3,0,0,0,.08.44l3.13,1.85.06,0,1.65.59a.31.31,0,0,0,.28,0l1.43-1.07a.28.28,0,0,0,.12-.19l.46-2.47a.31.31,0,0,0-.32-.36h-.38l.13.62-.13-.62-5.65.25A.28.28,0,0,0,278.83,79.81Z" transform="translate(-5.12 -12.05)"/><rect class="cls-22" x="292.47" y="94.79" width="5.36" height="14.32" transform="translate(327.39 -220.12) rotate(77.81)"/><path class="cls-16" d="M297.54,70.56a.42.42,0,0,0-.29-.21l-15-2.53A1.09,1.09,0,0,0,281,69.16l.52,2.14a.68.68,0,0,1,0,.2l1.77-.08,10.49,4.16,1.93,3.84L294.3,82l-.89,1.59.3.24a.3.3,0,0,1,0,.47l-2,1.57a.33.33,0,0,1-.21.07l-.33,0c.93,3.82,4.29,7,8.11,8.41a.93.93,0,0,1,.12-.33l3.18-5.79,1-1.82a2.37,2.37,0,0,0,.24-1.65l-.75-3.52Z" transform="translate(-5.12 -12.05)"/><path class="cls-26" d="M306.44,114l-3-11.28-15.64,3.36,2.87,17.33C296.58,123,300.91,116.13,306.44,114Z" transform="translate(-5.12 -12.05)"/><path class="cls-19" d="M284.85,78.19l3,2.69c-.06-.19,6.38,3.19,6.38,3.19l2.53-4.53-2.07-4.13-11.29-4.47-1.9.09C281.47,71.33,284.85,78.19,284.85,78.19Z" transform="translate(-5.12 -12.05)"/><path class="cls-30" d="M301.11,84.18,276.92,65.77l-2.32,3,24.19,18.58a1.2,1.2,0,0,0,1.72-.27l.86-1.24A1.2,1.2,0,0,0,301.11,84.18Z" transform="translate(-5.12 -12.05)"/><polygon class="cls-16" points="269.49 56.71 267.39 53.02 271.8 53.72 269.49 56.71"/><polygon class="cls-30" points="267.39 53.02 268.2 54.45 269.03 53.28 267.39 53.02"/><line class="cls-27" x1="282.92" y1="95.85" x2="298.92" y2="92.39"/><line class="cls-27" x1="283.24" y1="97.67" x2="299.4" y2="94.17"/><line class="cls-27" x1="283.55" y1="99.47" x2="299.88" y2="95.94"/><path class="cls-16" d="M291.21,86l-1.46-.1a.31.31,0,0,1-.24-.16l-.86-1.53,0,0-.7-2.11-1.62-4.53-1.76-3.78a2.71,2.71,0,0,0-3-1.5l-.65.14a2.59,2.59,0,0,0-1,3.47l.76,1.45,1.16,4.22.75,7.12a2.57,2.57,0,0,0,.08.38l1.4,4.45a2.33,2.33,0,0,0,.55.92l2.6,2.65a1.23,1.23,0,0,1,.29.49l.92,3.18L300,98.17l-.71-3.33a1.11,1.11,0,0,1,0-.48C295.5,93,292.14,89.77,291.21,86Z" transform="translate(-5.12 -12.05)"/><path class="cls-28" d="M291.85,105.2l-.59.13-1-5.09-.56.12-.42-1.75-1.87-1.13.92,3.18-.77.19,1.09,5-.84.18,2.87,17.33c1.81-.1,3.61-.3,5.41-.58Z" transform="translate(-5.12 -12.05)"/><circle class="cls-17" cx="263.97" cy="58.69" r="56.69"/><circle class="cls-31" cx="58.69" cy="175.69" r="56.69"/><path class="cls-32" d="M67.52,156.59H47.24a6.36,6.36,0,0,0-6.34,6.34V211a6.37,6.37,0,0,0,6.34,6.34H80.52A6.36,6.36,0,0,0,86.86,211V175.85a7,7,0,0,0-2-4.92L72.58,158.68A7.15,7.15,0,0,0,67.52,156.59Z" transform="translate(-5.12 -12.05)"/><rect class="cls-33" x="41.27" y="170.19" width="35.06" height="26.99" rx="2.27" ry="2.27"/><line class="cls-34" x1="76.33" y1="188.04" x2="41.27" y2="188.04"/><line class="cls-34" x1="41.27" y1="179.32" x2="76.33" y2="179.32"/><line class="cls-34" x1="51.86" y1="179.75" x2="51.86" y2="170.06"/><line class="cls-34" x1="65.74" y1="170.11" x2="65.74" y2="179.75"/><line class="cls-34" x1="51.85" y1="197.35" x2="51.75" y2="188.04"/><line class="cls-34" x1="65.63" y1="188.09" x2="65.73" y2="197.35"/><circle class="cls-31" cx="469.24" cy="175.69" r="56.69"/><ellipse class="cls-35" cx="451.74" cy="168.4" rx="28.33" ry="18.71"/><ellipse class="cls-36" cx="491.74" cy="178.4" rx="29.75" ry="20.13"/><path class="cls-3" d="M496.86,171.74c15.65,0,28.33,8.38,28.33,18.71s-12.68,18.71-28.33,18.71-28.34-8.38-28.34-18.71,12.69-18.71,28.34-18.71m0-2.83c-8.12,0-15.79,2.11-21.6,5.94-6.17,4.08-9.57,9.62-9.57,15.6s3.4,11.52,9.57,15.59c5.81,3.84,13.48,6,21.6,6s15.79-2.11,21.59-6c6.18-4.07,9.58-9.61,9.58-15.59s-3.4-11.52-9.58-15.6c-5.8-3.83-13.47-5.94-21.59-5.94Z" transform="translate(-5.12 -12.05)"/><polygon class="cls-35" points="433.41 198.6 440.41 182.27 453.58 182.27 433.41 198.6"/><polygon class="cls-36" points="501.58 205.6 494.58 189.27 481.41 189.27 501.58 205.6"/></g><g id="Livello_3" data-name="Livello 3"><g class="cls-37"><polygon class="cls-38" points="282.68 198.25 284.91 196.96 284.98 174.48 282.74 175.78 282.68 198.25"/><polygon class="cls-39" points="282.74 175.78 284.98 174.48 282.55 173.08 280.31 174.38 282.74 175.78"/><polygon class="cls-40" points="280.31 174.38 280.25 196.85 282.68 198.25 282.74 175.78 280.31 174.38"/></g><g class="cls-37"><path class="cls-41" d="M281.1,171.79l1.65-1-.13.07-1.64,1,.12-.07Z" transform="translate(-5.12 -12.05)"/><path class="cls-42" d="M282.75,170.83a4.57,4.57,0,0,1,3.09-.3,8.72,8.72,0,0,1,2.54,1,15.42,15.42,0,0,1,4,3.54,17.45,17.45,0,0,1,2.43,3.9,10.65,10.65,0,0,1,1,3.52l.95,12c.14,1.79-.42,3-1.44,3.63l-1.64,1c1-.59,1.57-1.84,1.43-3.63l-.95-12a11,11,0,0,0-1-3.53,17.62,17.62,0,0,0-2.43-3.89,15.27,15.27,0,0,0-4-3.54,8.67,8.67,0,0,0-2.53-1,4.6,4.6,0,0,0-3.1.3Z" transform="translate(-5.12 -12.05)"/><path class="cls-3" d="M286.73,172.5c-3.79-2.19-7.16-1.14-7.48,2.34l-1,10.84c-.32,3.47,2.56,8.14,6.4,10.36l4,2.33c3.85,2.22,6.74.89,6.44-3l-.95-12C293.87,179.62,290.52,174.69,286.73,172.5Z" transform="translate(-5.12 -12.05)"/></g><g class="cls-37"><path class="cls-43" d="M265.83,206.12c-3.42,2-3.44,5.18,0,7.16l5.45,3.16a13.6,13.6,0,0,0,12.36,0l5.48-3.16c3.42-2,3.44-5.19,0-7.16L283.68,203a13.63,13.63,0,0,0-12.36,0Z" transform="translate(-5.12 -12.05)"/></g><g class="cls-37"><path class="cls-42" d="M263.5,209.11a5.14,5.14,0,0,0,2.29,2.36l5.45,3.17a13.64,13.64,0,0,0,12.36,0l5.48-3.17c1.72-1,2.59-2.3,2.58-3.6v2.19c0,1.3-.86,2.61-2.58,3.6l-5.49,3.17a13.62,13.62,0,0,1-12.35,0l-5.45-3.16a5.19,5.19,0,0,1-2.29-2.36,3,3,0,0,1-.25-1.2v-2.19A3.14,3.14,0,0,0,263.5,209.11Z" transform="translate(-5.12 -12.05)"/><path class="cls-3" d="M265.83,204.32c-3.42,2-3.44,5.18,0,7.15l5.45,3.17a13.63,13.63,0,0,0,12.36,0l5.48-3.17c3.42-2,3.44-5.18,0-7.15l-5.44-3.17a13.6,13.6,0,0,0-12.36,0Z" transform="translate(-5.12 -12.05)"/></g><path class="cls-38" d="M263.5,210.92a5.24,5.24,0,0,0,2.29,2.36l5.45,3.16a13.64,13.64,0,0,0,12.36,0l5.48-3.16c1.72-1,2.59-2.31,2.58-3.61v2.19c0,1.31-.86,2.61-2.58,3.61l-5.49,3.16a13.53,13.53,0,0,1-12.35,0l-5.45-3.16a5.19,5.19,0,0,1-2.29-2.36,3,3,0,0,1-.25-1.2v-2.19A3.23,3.23,0,0,0,263.5,210.92Z" transform="translate(-5.12 -12.05)"/><path class="cls-44" d="M278.64,178.57c-3,2.29-5.14,10.52-6.4,14.4l2.4,1.94c.1-.17.84-.27.95-.45,2.11-3.63,5.44-8.89,6.56-12.53.47-1.5.14-3.05-.89-3.55A2.82,2.82,0,0,0,278.64,178.57Z" transform="translate(-5.12 -12.05)"/><circle class="cls-45" cx="257.58" cy="187.39" r="2.83"/><path class="cls-44" d="M272.59,192.07c-3.16,1.65-5.79,3.18-9.12,5a24.41,24.41,0,0,0,1.68,2c3.12-1.09,6-1.92,9.15-3.34,1.69-.76,1.86-2,1.49-2.91S274.22,191.22,272.59,192.07Z" transform="translate(-5.12 -12.05)"/><path class="cls-46" d="M286.71,178.05c-1.88,1.11-3.61,1.59-5.44,2.81l0,2.42c2-1.75,3.55-2.17,5.8-3.6Z" transform="translate(-5.12 -12.05)"/><path class="cls-46" d="M281.45,177.37a12.9,12.9,0,0,0-.12,3.53c-.64.4-1.26,1-1.91,1.32a31.61,31.61,0,0,1,.84-4.46Z" transform="translate(-5.12 -12.05)"/><path class="cls-47" d="M277.33,172.65c0,.71.51,1.36.48,2.07-.06,1.31-.63,10.52.52,10.4s1,1.41,2.05,1.95c.82.44,1.34,1.33,2.16,1.77a3.08,3.08,0,0,0,2.71-.07c.07.08.12.17.19.25a3.36,3.36,0,0,0,3.2,1.18c.9-.24,1.6-1,2.5-1.23,1.12-.3,2.26.23,3.36.6s2.47.5,3.25-.36a2.9,2.9,0,0,0,.37-2.59,8.87,8.87,0,0,1-.5-2.67c.07-1,.67-2,.45-3-.29-1.28-1.9-2.18-1.66-3.47.12-.7.79-1.21.92-1.91.17-.9-.56-1.7-1.3-2.24-2.12-1.57-1.62-2.57-1.83-4.95a9.39,9.39,0,0,0-1.4-4.06c-.94-1.51-5.44-4.15-8.54-1.64a7.86,7.86,0,0,0-2.28,3.64c-.73,2.27-.47,3.36-2.88,4.41C278.26,171.12,277.36,171.74,277.33,172.65Z" transform="translate(-5.12 -12.05)"/><polygon class="cls-48" points="258.07 197.04 258.39 203.88 258.05 222.14 256.24 221.1 256.26 196 258.07 197.04"/><polygon class="cls-49" points="258.07 197.04 259.84 196.01 259.82 221.11 258.05 222.14 258.07 197.04"/><path class="cls-48" d="M280.24,198.45a4.67,4.67,0,0,0,0-.52l-1.44-.84a4.18,4.18,0,0,1-.05.61.3.3,0,0,1,0,.1,4,4,0,0,1-.13.58.14.14,0,0,1,0,.06,5.33,5.33,0,0,1-.23.63h0c-.1.21-.2.42-.32.62v0c-.12.2-.24.39-.37.57l0,.05a4.63,4.63,0,0,1-.39.47l-.09.1-.34.31-.15.14a4.1,4.1,0,0,1-.5.35l1.44.83a3.69,3.69,0,0,0,.5-.34l.15-.14c.08-.07.16-.13.24-.21a.94.94,0,0,1,.1-.1l.09-.1.1-.11.22-.26a.61.61,0,0,1,.07-.1l0-.05.06-.09c.06-.08.11-.16.16-.24l.14-.22v0c0-.06.07-.12.1-.19l.12-.23.09-.2v0h0l.09-.24a1.25,1.25,0,0,0,.09-.25.5.5,0,0,0,0-.13l0-.05,0-.09c0-.11,0-.21.07-.31a1.13,1.13,0,0,0,0-.18.44.44,0,0,0,0-.1S280.23,198.48,280.24,198.45Z" transform="translate(-5.12 -12.05)"/><polygon class="cls-48" points="275.15 185.88 273.72 185.04 273.67 170.06 275.11 170.89 275.15 185.88"/><polygon class="cls-50" points="275.11 170.89 273.67 170.06 274.64 169.5 276.08 170.34 275.11 170.89"/><polygon class="cls-50" points="271.05 189.66 257.16 197.68 258.6 198.51 272.49 190.49 271.05 189.66"/><path class="cls-49" d="M281.19,182.39l-1,.56,0,15a5.87,5.87,0,0,1-2.66,4.61l-13.9,8v1.11l13.89-8a8,8,0,0,0,3.63-6.28Z" transform="translate(-5.12 -12.05)"/><path class="cls-46" d="M287.43,179.83c3.35,1.94,5.18,4,4.1,4.65s-4.69-.43-8-2.36-5.21-3.6-4.12-4.23S284.08,177.9,287.43,179.83Z" transform="translate(-5.12 -12.05)"/><path class="cls-44" d="M287.43,172.31c-.27,1-1.47,3.32-.64,6.09l-6.16,3.16.51-2.58a11.73,11.73,0,0,0,.75-5.61Z" transform="translate(-5.12 -12.05)"/><path class="cls-46" d="M286.83,177.64c.2.56-.12,1.3.11,1.74.6,1.12,1.9,1.68,3,2.5,2.84,2.13.11,7.45-1.76,11a13,13,0,0,0-1.49,4.86,4.55,4.55,0,0,0,.13,2.4c4.73,12.37-10.12,19.94-12.58,11.16-.7-2.5-.31-6.07,2.06-11.46.82-1.85.31-3.23.33-4.15s-.66-2.25-1.16-4.3a7,7,0,0,1-.9-4.43c.24-1.77,1.51-3.8,2.58-5.95a11.78,11.78,0,0,1,1.72-3c.49-.49,1.64-.4,2.59-.63a9,9,0,0,0,.07,3.18C282.22,180.08,285.36,178.67,286.83,177.64Z" transform="translate(-5.12 -12.05)"/><path class="cls-46" d="M288.27,206.7c-.18,2.39-.86,5.18-2.77,6.72-3.37,2.7-9.83,1.86-14.81,5.58-4.5-2.05-9.88-4.94-12.14-6.72.61-1.47,1.11-2.93,2.61-3.82,2.54-1.52,12-7.11,14.43-7.36a8.73,8.73,0,0,0,.58-1l-.07-.06c1.18-2.67,0-5.89-.66-8.48a7.79,7.79,0,0,1-1-4.65,6.68,6.68,0,0,1,.84-2.2c.05-.12-.72-.38-.66-.51.4-.83,1.78-3.47,2.31-4.3.67-1,.76-1.35,1.6-1.86a5.82,5.82,0,0,1,2.15-.73c-.92.88-2.06,4.48-2.18,7.05,2.87-1.13,6.69-3.22,8-4.63.32-.34.41,0,.63-.23,1.37,1.05,1.61,1.49,2.79,2.37a3.2,3.2,0,0,1,.73.79,1.85,1.85,0,0,0-2.31-.4c-2.23.81-2.59,4.3-2.45,7.34.09,2.08.72,3.55,2.46,3.64-.85,2-1.52,3.83-1.32,5,.39,2.38,1.57,4.69,1.27,8.39Z" transform="translate(-5.12 -12.05)"/><circle class="cls-51" cx="280.49" cy="156.45" r="4.88"/><path class="cls-45" d="M277.64,169.48a6,6,0,1,0,7-4.77A6,6,0,0,0,277.64,169.48Z" transform="translate(-5.12 -12.05)"/><path class="cls-47" d="M279,168.66a1.19,1.19,0,0,1-.65-1,6,6,0,0,1,11.08,4.09,4.45,4.45,0,0,1-.2.76,1.9,1.9,0,0,1-.79-.17c-.55-.26-1.8-1-1.23-1.63-.28.31-.39.81-.41,2.2C285.25,169.17,281.05,169.93,279,168.66Z" transform="translate(-5.12 -12.05)"/><path class="cls-45" d="M286.86,171.43A1.82,1.82,0,1,0,289,170,1.82,1.82,0,0,0,286.86,171.43Z" transform="translate(-5.12 -12.05)"/><path class="cls-52" d="M265.93,233.43a11.55,11.55,0,0,1,.89,3.52c0,1.29-.51,1.65-.51,1.65a28.59,28.59,0,0,1-3.33.81c-.73,0-1.93,1.19-3.67,1.31s-4,.65-4.2-.72c-.15-.83,2-1.62,4.51-3.33a13.92,13.92,0,0,0,2.88-2.75Z" transform="translate(-5.12 -12.05)"/><path class="cls-52" d="M265.24,227.74l.67,6.23s.1,1.13-1.42,1.2a2,2,0,0,1-2-1.25s-.62-2.55-1.49-6.21Z" transform="translate(-5.12 -12.05)"/><path class="cls-52" d="M270.14,230c.38,3.53.77,6.27.77,6.27s0,1.09-1.52,1.16A1.74,1.74,0,0,1,267.6,236s-.82-2.37-1.69-6Z" transform="translate(-5.12 -12.05)"/><path class="cls-52" d="M270.89,236.05s-.14,1.23-1.23,1.16A3.56,3.56,0,0,1,267.6,236s.41,1-.54,4.2c-.53,1.79-1.57,6.76.35,7.44,1.37.49,3.28-1.11,3.51-2.13.09-.41.49-4.89.43-5.31C271.14,238.74,270.89,236.05,270.89,236.05Z" transform="translate(-5.12 -12.05)"/><path class="cls-53" d="M286.52,178.31c-1.88,1.11-3.09,1-4.92,2.18l-.58,3c2.09-1.43,4-2.44,6.13-4Z" transform="translate(-5.12 -12.05)"/><path class="cls-53" d="M281.26,177.63c-.12.61.19,1.15.34,2.86-.64.39-1.72,1.63-2.37,2a18.39,18.39,0,0,1,1.31-5.14Z" transform="translate(-5.12 -12.05)"/><path class="cls-46" d="M287,177.63c-1.89,1.12-3.62,1.59-5.45,2.81l-.05,2.43c2-1.75,3.55-2.17,5.8-3.6Z" transform="translate(-5.12 -12.05)"/><path class="cls-46" d="M281.72,177a12.87,12.87,0,0,0-.12,3.53c-.64.39-1.26,1-1.91,1.31a30.52,30.52,0,0,1,.85-4.46Z" transform="translate(-5.12 -12.05)"/><circle class="cls-54" cx="277.43" cy="168.96" r="0.68"/><ellipse class="cls-54" cx="280.62" cy="180.25" rx="0.68" ry="0.52" transform="translate(-45.82 257.58) rotate(-48.26)"/><path class="cls-55" d="M277.15,202l-1-.3s4.89-15.16,10.58-20.21c.67-.6,1.83-1.16,2.53-.59a7.68,7.68,0,0,1,.9.76s-1.49,0-4.14,2.8C282.42,188.19,277.15,202,277.15,202Z" transform="translate(-5.12 -12.05)"/><path class="cls-55" d="M288.15,202.21s-1.22-.34-2.25-.5c-2.65-.41-10.47-.59-10.47-.59l.88-3.23s7,1.05,9.39,1.05a6.85,6.85,0,0,0,1.63-.16Z" transform="translate(-5.12 -12.05)"/><path class="cls-44" d="M287.64,183.78c-1.59,3.4.27,11.7.95,15.72l3,.62c0-.2.62-.63.63-.83.2-4.2.74-10.41.06-14.15-.27-1.55-1.28-2.77-2.43-2.74A2.8,2.8,0,0,0,287.64,183.78Z" transform="translate(-5.12 -12.05)"/><circle class="cls-45" cx="273.9" cy="193.58" r="2.83"/><path class="cls-44" d="M288.62,197.9c-3.09,1.77-5.66,3.39-8.92,5.34a23.68,23.68,0,0,0,1.75,2c3.09-1.21,5.89-2.14,9-3.67,1.66-.82,1.79-2.08,1.39-3S290.22,197,288.62,197.9Z" transform="translate(-5.12 -12.05)"/><path class="cls-46" d="M287.43,183.69c-.76,1.64-.82,5.14-.52,8l6.11-.33a39.18,39.18,0,0,0-.57-6.15c-.28-1.59-1.39-3.14-2.57-3.11A3.32,3.32,0,0,0,287.43,183.69Z" transform="translate(-5.12 -12.05)"/><polygon class="cls-38" points="285.97 231.46 285.87 266.61 313.58 250.54 313.68 215.38 285.97 231.46"/><polygon class="cls-38" points="224.35 230.83 251.3 215.16 251.4 183.25 224.44 198.91 224.35 230.83"/><path class="cls-56" d="M276.59,164.49s0,0,0,0l0,0h0S276.62,164.5,276.59,164.49Z" transform="translate(-5.12 -12.05)"/><polygon class="cls-57" points="285.97 231.46 313.81 215.29 249.64 178.32 221.91 194.27 285.97 231.46"/><polygon class="cls-40" points="283.3 232.98 283.25 265.08 285.86 266.59 285.95 231.43 221.91 194.27 221.81 229.43 224.42 230.93 224.51 199.02 283.3 232.98"/><path class="cls-58" d="M272.36,221.28l10.32,6a3.58,3.58,0,0,0,3.28,0l19.81-11.43a1,1,0,0,0,0-1.91l-10.32-6Z" transform="translate(-5.12 -12.05)"/><path class="cls-59" d="M306.47,223.46a1.17,1.17,0,0,1-.69,1l-1.28.74-.7.4-12.58,7.27-5.24,3-.17.09-.07,0-.1.05h0l0,0-.14,0-.05,0h-.09l-.15,0h-.09l-.13,0h-.1l-.11,0h-.86l-.16,0h-.06l-.08,0-.12,0-.09,0-.13,0h0l-.14-.05h0l-.15-.06,0,0-.16-.09-9.13-5.3a2.42,2.42,0,0,1-1.19-2.08v-7.2l10.32,6,.16.09,0,0,.15.06h0l.16.06.12,0,.1,0,.12,0,.1,0h0l.21,0h.94l.1,0,.13,0,.09,0,.15,0,.09,0h.05l.14-.06h0l.13-.05.05,0a.91.91,0,0,0,.17-.09l19.81-11.43a1.17,1.17,0,0,0,.69-1Z" transform="translate(-5.12 -12.05)"/><path class="cls-60" d="M272.35,220l10.31,6a3.61,3.61,0,0,0,3.28,0l19.79-11.43c.91-.53.92-1.38,0-1.9l-10.31-6Z" transform="translate(-5.12 -12.05)"/><path class="cls-61" d="M282.66,226l.16.09,0,0,.15.06h0l.16.06.12,0,.1,0,.12,0,.1,0h0l.16,0h1l.1,0,.13,0,.09,0,.15,0,.09,0h.05l.14-.05,0,0,.12-.05.06,0,.17-.08,19.79-11.43a1.17,1.17,0,0,0,.69-1v2.55a1.17,1.17,0,0,1-.68,1L286,228.57l-.17.09-.06,0-.1,0h-.06l-.14.05h-.08l-.06,0-.15,0H285l-.13,0h-1.07l-.16,0h-.14l-.12,0-.09,0-.12,0h0l-.14,0h0l-.15-.06,0,0-.16-.08-10.31-6V220Z" transform="translate(-5.12 -12.05)"/><path class="cls-62" d="M305.74,214.59,285.94,226a3.58,3.58,0,0,1-3.28,0l-10.31-6L279,216.2l11.36-6.55,5.11-3,10.32,6C306.65,213.21,306.64,214.06,305.74,214.59Z" transform="translate(-5.12 -12.05)"/><path class="cls-26" d="M297.51,214l-12.26,7.07a2.21,2.21,0,0,1-2,0l-6.33-3.68,14.29-8.25,6.33,3.68A.62.62,0,0,1,297.51,214Z" transform="translate(-5.12 -12.05)"/><path class="cls-63" d="M291.36,212.71,282.14,218a1.72,1.72,0,0,1-1.53,0l-1.21-.77,10.75-6.21,1.21.77C291.79,212.07,291.78,212.47,291.36,212.71Z" transform="translate(-5.12 -12.05)"/><path class="cls-26" d="M282.66,226l.16.09,0,0,.15.06h0l.16.06.12,0,.1,0,.12,0,.1,0h0l.16,0h1l.1,0,.13,0,.09,0,.15,0,.09,0h.05l.14-.05,0,0,.12-.05.06,0,.17-.08,19.79-11.43a1.17,1.17,0,0,0,.69-1v2.55a1.17,1.17,0,0,1-.68,1L286,228.57l-.17.09-.06,0-.1,0h-.06l-.14.05h-.08l-.06,0-.15,0H285l-.13,0h-1.07l-.16,0h-.14l-.12,0-.09,0-.12,0h0l-.14,0h0l-.15-.06,0,0-.16-.08-10.31-6V220Z" transform="translate(-5.12 -12.05)"/><path class="cls-64" d="M304.5,225.16l-13.28,7.67v-4.1a2.25,2.25,0,0,1,1-1.78l11.21-6.47c.57-.33,1-.07,1,.59Z" transform="translate(-5.12 -12.05)"/><path class="cls-63" d="M304.5,225.16l-.7.4v-4.72a1.28,1.28,0,0,0-.08-.47c.44-.13.77.15.77.7Z" transform="translate(-5.12 -12.05)"/><path class="cls-58" d="M291.75,231.69l5.52,3.22a2,2,0,0,0,1.79,0l9.77-5.64c.49-.29.5-.75,0-1L303.32,225Z" transform="translate(-5.12 -12.05)"/><path class="cls-64" d="M309.2,228.75a.62.62,0,0,1-.37.52l-9.77,5.64-.19.09h0l-.18.05h0l-.21,0h-.53l-.15,0-.13,0-.12,0-.05,0-.17-.08-5.38-3.13v.77l5.38,3.12a.75.75,0,0,0,.18.08l0,0,.06,0,.06,0,.13,0h.05l.11,0h.57l.12,0h.07l.07,0,.11,0h0l.18-.09,9.77-5.64a.62.62,0,0,0,.37-.52Z" transform="translate(-5.12 -12.05)"/><polygon class="cls-14" points="304.97 217.99 295.5 223.49 287.77 219.03 297.24 213.53 304.97 217.99"/><polygon class="cls-32" points="293.65 208.62 297.34 206.51 297.34 205.03 293.65 207.14 293.65 208.62"/><path id="_Tracciato_" data-name="&lt;Tracciato&gt;" class="cls-65" d="M297.08,220.19a1,1,0,0,0-.06.93.29.29,0,0,0,.54,0,1.07,1.07,0,0,0,.06-.94A.28.28,0,0,0,297.08,220.19Z" transform="translate(-5.12 -12.05)"/><path id="_Tracciato_2" data-name="&lt;Tracciato&gt;" class="cls-66" d="M297.31,220.2a1,1,0,0,0-.07.94.29.29,0,0,0,.55,0,1.07,1.07,0,0,0,.06-.94C297.72,220,297.47,220,297.31,220.2Z" transform="translate(-5.12 -12.05)"/><path id="_Tracciato_3" data-name="&lt;Tracciato&gt;" class="cls-36" d="M294.68,221.54a1,1,0,0,0-.06.93.29.29,0,0,0,.54,0,1.07,1.07,0,0,0,.06-.94A.28.28,0,0,0,294.68,221.54Z" transform="translate(-5.12 -12.05)"/><path id="_Tracciato_4" data-name="&lt;Tracciato&gt;" class="cls-67" d="M294.91,221.55a1,1,0,0,0-.06.94c.13.27.37.28.54,0a1,1,0,0,0,.06-.93C295.32,221.32,295.07,221.3,294.91,221.55Z" transform="translate(-5.12 -12.05)"/><path id="_Tracciato_5" data-name="&lt;Tracciato&gt;" class="cls-68" d="M295.82,221.8c.13.26.37.28.54,0a1.07,1.07,0,0,0,.06-.94.28.28,0,0,0-.54,0A1,1,0,0,0,295.82,221.8Z" transform="translate(-5.12 -12.05)"/><ellipse id="_Tracciato_6" data-name="&lt;Tracciato&gt;" class="cls-69" cx="296.35" cy="221.36" rx="0.66" ry="0.38" transform="translate(51 490.58) rotate(-86.26)"/><ellipse id="_Tracciato_7" data-name="&lt;Tracciato&gt;" class="cls-70" cx="293.72" cy="222.68" rx="0.66" ry="0.38" transform="translate(47.23 489.19) rotate(-86.26)"/><ellipse id="_Tracciato_8" data-name="&lt;Tracciato&gt;" class="cls-51" cx="293.95" cy="222.69" rx="0.66" ry="0.38" transform="translate(47.43 489.43) rotate(-86.26)"/><polygon class="cls-28" points="286.64 219.64 288.14 220.51 299.7 213.82 298.2 212.96 286.64 219.64"/><polygon class="cls-71" points="295.26 221.66 301.86 217.82 301.47 217.58 294.87 221.42 295.26 221.66"/><polygon class="cls-71" points="294.43 221.18 301.04 217.34 300.65 217.1 294.04 220.94 294.43 221.18"/><polygon class="cls-71" points="293.6 220.71 300.21 216.87 299.82 216.63 293.21 220.47 293.6 220.71"/><polygon class="cls-71" points="292.78 220.21 299.38 216.37 298.99 216.13 292.39 219.97 292.78 220.21"/><path class="cls-72" d="M251.42,200.72c0,.19.12.37.37.52l.65.38v-.83l1.31-.76,1.28.74-.73.42-.55-.31-.57.33.55.32,1.3-.76v0l.63-.36a2.27,2.27,0,0,1,.22-.53l-.41-.23v-.85l1.31-.76.29.16v-.33l1.31-.76.29.16V197l1.31-.76,1.28.74v.2l.18-.1,1.28.74V198l.18-.11,1.28.74v.21l.18-.1,1.28.74v.2l.18-.1,1.29.74v.21l.18-.11,1.28.74v.21l.18-.1L270,202v.2l.18-.1,1.29.74v.21l.17-.11,1.29.74v.21l.19-.1,1.28.74v.2l.17-.1,1.29.74v.2l.18-.1,1.28.74v.21l.17-.1,1.29.74h0v.2l.18-.1,1.28.74v.76l.66-.38,1.28.74v.78l.61-.35a.65.65,0,0,0,.37-.52v.85a.64.64,0,0,1-.36.52l-7.46,4.33a2,2,0,0,1-1.79,0l-21.77-12.56a.64.64,0,0,1-.37-.52C251.41,201.28,251.41,201,251.42,200.72Z" transform="translate(-5.12 -12.05)"/><path class="cls-73" d="M251.78,200.2l7.46-4.33a2,2,0,0,1,1.8,0l21.75,12.56a.55.55,0,0,1,0,1l-7.46,4.33a2,2,0,0,1-1.79,0l-21.76-12.56A.55.55,0,0,1,251.78,200.2Z" transform="translate(-5.12 -12.05)"/><polygon class="cls-74" points="254.72 185.94 253.41 186.7 254.7 187.44 256 186.68 254.72 185.94"/><polygon class="cls-74" points="251.66 186.03 250.36 186.78 251.64 187.53 252.94 186.77 251.66 186.03"/><polygon class="cls-74" points="253.12 186.87 251.81 187.63 253.1 188.37 254.4 187.61 253.12 186.87"/><polygon class="cls-74" points="254.58 187.71 253.28 188.47 254.56 189.21 255.87 188.45 254.58 187.71"/><polygon class="cls-74" points="258.27 187.99 256.96 188.74 260.55 190.81 261.85 190.05 258.27 187.99"/><polygon class="cls-74" points="262.03 190.16 260.72 190.91 262 191.66 263.31 190.9 262.03 190.16"/><polygon class="cls-74" points="256.55 188.98 255.04 189.86 254.17 190.37 253.73 190.62 255.9 191.87 257.2 191.11 256.54 190.73 258.05 189.85 256.55 188.98"/><polygon class="cls-74" points="263.49 191 262.18 191.76 263.46 192.5 264.77 191.74 263.49 191"/><polygon class="cls-74" points="261.41 191.65 260.11 192.41 261.39 193.15 262.69 192.39 261.41 191.65"/><polygon class="cls-74" points="264.95 191.84 263.64 192.6 264.93 193.34 266.23 192.58 264.95 191.84"/><polygon class="cls-74" points="262.86 192.49 261.55 193.25 262.83 193.99 264.14 193.23 262.86 192.49"/><polygon class="cls-74" points="266.41 192.69 265.1 193.44 266.38 194.19 267.69 193.43 266.41 192.69"/><polygon class="cls-74" points="264.3 193.32 262.99 194.08 264.27 194.82 265.58 194.06 264.3 193.32"/><polygon class="cls-74" points="267.87 193.53 266.56 194.29 267.85 195.03 269.15 194.27 267.87 193.53"/><polygon class="cls-74" points="265.74 194.16 264.43 194.91 265.72 195.66 267.02 194.9 265.74 194.16"/><polygon class="cls-74" points="269.33 194.37 268.02 195.13 269.31 195.87 270.61 195.11 269.33 194.37"/><polygon class="cls-74" points="267.19 194.99 265.88 195.75 267.16 196.49 268.47 195.73 267.19 194.99"/><polygon class="cls-74" points="270.79 195.22 269.49 195.97 270.77 196.72 272.07 195.96 270.79 195.22"/><polygon class="cls-74" points="268.63 195.82 267.32 196.58 268.61 197.32 269.91 196.56 268.63 195.82"/><polygon class="cls-74" points="270.07 196.66 268.77 197.42 270.05 198.16 271.36 197.4 270.07 196.66"/><polygon class="cls-74" points="272.31 196.09 271.01 196.86 274.17 198.68 275.48 197.92 272.31 196.09"/><polygon class="cls-74" points="271.52 197.49 270.22 198.25 272.57 199.61 273.88 198.85 271.52 197.49"/><polygon class="cls-74" points="253.26 185.1 251.95 185.85 253.24 186.6 254.54 185.84 253.26 185.1"/><polygon class="cls-74" points="256.18 186.78 254.88 187.54 256.16 188.28 257.47 187.52 256.18 186.78"/><polygon class="cls-74" points="251.5 187.98 251.33 188.08 250.19 188.74 251.48 189.48 252.79 188.72 252.66 188.64 251.5 187.98"/><polygon class="cls-74" points="248.61 187.98 247.31 188.74 248.59 189.47 249.9 188.72 248.61 187.98"/><polygon class="cls-74" points="250.07 188.82 248.76 189.58 250.05 190.32 251.36 189.56 250.07 188.82"/><polygon class="cls-74" points="251.54 189.66 250.23 190.42 251.51 191.16 252.82 190.4 251.54 189.66"/><polygon class="cls-74" points="253 190.5 251.69 191.26 252.97 192.01 254.28 191.25 253 190.5"/><polygon class="cls-74" points="254.45 191.35 253.15 192.11 254.43 192.85 255.74 192.09 254.45 191.35"/><polygon class="cls-74" points="255.92 192.19 254.61 192.95 255.89 193.69 257.2 192.93 255.92 192.19"/><polygon class="cls-74" points="258.84 193.88 257.53 194.64 258.81 195.38 260.12 194.62 258.84 193.88"/><polygon class="cls-74" points="260.3 194.72 258.99 195.48 260.28 196.22 261.58 195.46 260.3 194.72"/><polygon class="cls-74" points="261.76 195.57 260.45 196.32 261.74 197.07 263.04 196.31 261.76 195.57"/><polygon class="cls-74" points="263.22 196.41 261.91 197.17 263.2 197.91 264.5 197.15 263.22 196.41"/><polygon class="cls-74" points="264.68 197.25 263.37 198.01 264.66 198.75 265.96 197.99 264.68 197.25"/><polygon class="cls-74" points="266.14 198.09 264.83 198.85 266.12 199.59 267.43 198.84 266.14 198.09"/><polygon class="cls-74" points="267.6 198.94 266.29 199.7 267.58 200.44 268.89 199.68 267.6 198.94"/><polygon class="cls-74" points="269.55 200.06 268.24 200.82 269.52 201.56 270.83 200.8 269.55 200.06"/><polygon class="cls-74" points="257.38 193.03 256.07 193.79 257.35 194.53 258.66 193.78 257.38 193.03"/><polygon class="cls-74" points="258.52 189.99 257.22 190.75 258.5 191.49 259.81 190.73 258.52 189.99"/><polygon class="cls-74" points="259.97 190.82 258.66 191.58 259.94 192.32 261.25 191.56 259.97 190.82"/><polygon class="cls-74" points="262.99 188.81 261.68 189.57 264.23 191.04 265.54 190.28 262.99 188.81"/><polygon class="cls-74" points="265.7 190.37 264.4 191.13 270.67 194.76 271.97 194 265.7 190.37"/><polygon class="cls-74" points="272.17 194.11 270.87 194.87 273.04 196.12 274.34 195.36 272.17 194.11"/><polygon class="cls-74" points="274.61 195.52 273.3 196.27 275.85 197.75 277.15 196.99 274.61 195.52"/><polygon class="cls-74" points="255.13 184.25 253.82 185.01 255.1 185.75 256.41 184.99 255.13 184.25"/><polygon class="cls-74" points="256.58 185.09 256.4 185.19 255.27 185.85 256.56 186.59 257.86 185.83 257.73 185.75 256.58 185.09"/><polygon class="cls-74" points="257.99 185.9 256.68 186.66 257.97 187.41 259.27 186.65 257.99 185.9"/><polygon class="cls-74" points="260.08 187.13 258.77 187.89 261.42 189.42 262.73 188.66 260.08 187.13"/><polygon class="cls-74" points="267.66 197.11 266.35 197.87 267.63 198.61 268.94 197.85 267.66 197.11 267.66 197.11"/><polygon class="cls-74" points="267.51 197.03 266.23 196.29 264.92 197.05 266.2 197.79 267.51 197.03 267.51 197.03"/><polygon class="cls-74" points="266.07 196.2 264.78 195.45 263.48 196.21 264.76 196.96 266.07 196.2 266.07 196.2"/><polygon class="cls-74" points="264.64 195.37 263.36 194.63 262.05 195.39 263.33 196.13 264.64 195.37 264.64 195.37"/><polygon class="cls-74" points="263.15 194.51 261.87 193.77 260.56 194.53 261.84 195.27 263.15 194.51 263.15 194.51"/><polygon class="cls-74" points="261.72 193.69 260.44 192.94 259.13 193.71 260.41 194.44 261.72 193.69 261.72 193.69"/><polygon class="cls-74" points="260.28 192.85 258.99 192.11 257.69 192.87 258.97 193.61 260.28 192.85 260.28 192.85"/><polygon class="cls-74" points="258.85 192.03 257.56 191.29 256.26 192.04 257.54 192.79 258.85 192.03 258.85 192.03"/><polygon class="cls-74" points="272.28 199.78 269.12 197.95 267.81 198.72 270.97 200.54 272.28 199.78 272.28 199.78"/><g class="cls-37"><path class="cls-73" d="M253,207l-4.26,2.48a.46.46,0,0,1,.46,0l4.27-2.47A.46.46,0,0,0,253,207Z" transform="translate(-5.12 -12.05)"/><polygon class="cls-75" points="258.31 205.61 262.57 203.13 248.39 194.94 244.13 197.42 258.31 205.61"/><path class="cls-72" d="M263.42,217.66l4.27-2.48a1.48,1.48,0,0,1,.65,1.13v.38a.45.45,0,0,1-.2.42l-4.26,2.48a.45.45,0,0,0,.19-.42v-.38A1.46,1.46,0,0,0,263.42,217.66Z" transform="translate(-5.12 -12.05)"/><path class="cls-72" d="M249.24,209.47c-.36-.2-.65,0-.65.38v.38a1.43,1.43,0,0,0,.65,1.13l14.18,8.19c.36.2.65,0,.65-.38v-.38a1.46,1.46,0,0,0-.66-1.13Z" transform="translate(-5.12 -12.05)"/></g><path class="cls-72" d="M271.61,214.36v-.7l-.24.15-27.64-15.95.77-.45.05-16.55a.91.91,0,0,1,0-.17h0l0-.09v0h0v0a.44.44,0,0,1,.18-.22l1-.57-.44-.25a1.92,1.92,0,0,0-.29-.14,2.66,2.66,0,0,0,0,.3l-1.22.71a1.08,1.08,0,0,1,.44-1l.87-.5-.29-.18a.9.9,0,0,0-.9-.08l.49-.28.06,0,.49-.28.18-.11a.89.89,0,0,1,.9.09l25.6,14.78a2.77,2.77,0,0,1,1.26,2.18l-.05,16.09v2.54a.87.87,0,0,1-.37.81l-1.22.71A.87.87,0,0,0,271.61,214.36Z" transform="translate(-5.12 -12.05)"/><path class="cls-72" d="M244.57,180.66s0,0,0,0a0,0,0,0,0,0,0Z" transform="translate(-5.12 -12.05)"/><path class="cls-72" d="M244.55,180.77v0h0Z" transform="translate(-5.12 -12.05)"/><path class="cls-76" d="M245.31,180.43c-.42-.25-.76-.05-.76.43l-.05,16.56,26.1,15.07,0-16.56a1.7,1.7,0,0,0-.76-1.31Z" transform="translate(-5.12 -12.05)"/><g class="cls-37"><polygon class="cls-77" points="258.67 204.52 259.89 203.81 259.9 198.55 258.68 199.25 258.67 204.52"/><polygon class="cls-78" points="258.68 199.25 259.9 198.55 247.39 191.32 246.17 192.03 258.68 199.25"/><polygon class="cls-78" points="246.17 192.03 246.15 197.29 258.67 204.52 258.68 199.25 246.17 192.03"/></g><path class="cls-76" d="M243.73,197.86l27.64,15.95,0-17.44a3.35,3.35,0,0,0-1.52-2.63l-24.58-14.19c-.84-.49-1.53-.1-1.53.87Zm26.87,14.63-26.1-15.07.05-16.56c0-.48.34-.68.76-.43l24.58,14.19a1.7,1.7,0,0,1,.76,1.31l0,16.56Z" transform="translate(-5.12 -12.05)"/><path class="cls-76" d="M243.48,198.12a2.8,2.8,0,0,0,1.26,2.18l6.54,3.78,12.52,7.23,6.54,3.77c.7.4,1.27.08,1.27-.72v-2.54l0-16.09a2.77,2.77,0,0,0-1.26-2.18l-25.6-14.79c-.69-.4-1.26-.07-1.26.73l0,16.09v2.54Zm.25-.26h0l0-8.72,0-8.72a1.49,1.49,0,0,1,.15-.68l0-.05a.86.86,0,0,1,.07-.1,1,1,0,0,1,1.27,0l24.58,14.19a2.85,2.85,0,0,1,.73.63l.12.16.12.17a3.19,3.19,0,0,1,.55,1.67l0,17.44-27.64-15.95Z" transform="translate(-5.12 -12.05)"/></g></svg>