<svg id="Livello_1" data-name="Livello 1" xmlns="http://www.w3.org/2000/svg" xmlns:xlink="http://www.w3.org/1999/xlink" viewBox="0 0 185.79 212.01"><defs><style>.cls-1{fill:url(#Sfumatura_senza_nome_15);}.cls-2{fill:#fff;}.cls-3{fill:url(#Sfumatura_senza_nome_4);}.cls-4{fill:#3aaa35;}.cls-10,.cls-11,.cls-12,.cls-13,.cls-4,.cls-5,.cls-6,.cls-7,.cls-8,.cls-9{stroke:#fff;}.cls-10,.cls-11,.cls-12,.cls-13,.cls-25,.cls-4,.cls-5,.cls-6,.cls-7,.cls-8,.cls-9{stroke-miterlimit:10;}.cls-5{fill:#95c11f;}.cls-6{fill:#dedc00;}.cls-7{fill:#fcea10;}.cls-8{fill:#f9b233;}.cls-9{fill:#f39200;}.cls-10{fill:#e94e1b;}.cls-11{fill:#e6332a;}.cls-12{fill:#e30613;}.cls-13{fill:#d8d8d8;}.cls-14,.cls-25{fill:none;}.cls-14{stroke:#183a45;stroke-linecap:round;stroke-linejoin:round;}.cls-15{fill:#183a45;}.cls-16{fill:#d29e08;}.cls-17{fill:#fdd875;}.cls-18{fill:#fdc20b;}.cls-19{fill:#f6bbc6;}.cls-20{fill:#5b5b5a;}.cls-21{fill:#303b45;}.cls-22{fill:#353430;}.cls-23{fill:#3b2d7c;}.cls-24{fill:#a6daf2;}.cls-25{stroke:#353430;}.cls-26{fill:#ebebeb;}.cls-27{fill:#a9b2bd;}</style><linearGradient id="Sfumatura_senza_nome_15" x1="109.22" y1="142.48" x2="109.22" y2="9.18" gradientTransform="matrix(-1, 0, 0, 1, 351.3, 0)" gradientUnits="userSpaceOnUse"><stop offset="0" stop-color="#5b5b5a"/><stop offset="0.19" stop-color="#5f605f"/><stop offset="0.43" stop-color="#6b6d6f"/><stop offset="0.69" stop-color="#7f8388"/><stop offset="0.96" stop-color="#9aa1ab"/><stop offset="1" stop-color="#9ea6b0"/></linearGradient><linearGradient id="Sfumatura_senza_nome_4" x1="190.58" y1="39.53" x2="283.26" y2="39.53" gradientTransform="translate(4.11)" gradientUnits="userSpaceOnUse"><stop offset="0" stop-color="#9ea6b0"/><stop offset="0.24" stop-color="#a8b1bb"/><stop offset="0.66" stop-color="#c3cdd9"/><stop offset="1" stop-color="#dce7f5"/></linearGradient></defs><title>G14_07_02</title><path class="cls-1" d="M195.39,10.92l2.72-1.57h0a1.64,1.64,0,0,1,1.73.16L288.1,60.59a4.6,4.6,0,0,1,2.21,3.49v75.64a2.14,2.14,0,0,1-.69,1.2l-2.72,1.56h-1.12L196.07,91.09a4.56,4.56,0,0,1-2.22-3.49V12Z" transform="translate(-104.52 -9.18)"/><path class="cls-2" d="M287.37,65.76v74a1.25,1.25,0,0,1-.51,1.12,1.62,1.62,0,0,1-1.7-.19L196.9,90.25a4.57,4.57,0,0,1-2.21-3.49V12.13c0-1.3,1.1-1.6,2.21-.94l69.42,39.88,18.84,11.2A4.6,4.6,0,0,1,287.37,65.76Z" transform="translate(-104.52 -9.18)"/><path class="cls-3" d="M287.37,65.76v2.46h0L194.69,14.59V12.13c0-1.32,1.12-1.6,2.21-.94l69.42,39.88,18.84,11.2A4.58,4.58,0,0,1,287.37,65.76Z" transform="translate(-104.52 -9.18)"/><polygon class="cls-4" points="120.72 50.71 106.74 42.98 106.74 33.24 120.72 40.96 120.72 50.71"/><polygon class="cls-5" points="134.71 58.43 120.72 50.71 120.72 40.96 134.71 48.68 134.71 58.43"/><polygon class="cls-6" points="148.69 66.15 134.71 58.43 134.71 48.68 148.69 56.4 148.69 66.15"/><polygon class="cls-7" points="162.68 73.87 148.69 66.15 148.69 56.4 162.68 64.12 162.68 73.87"/><polygon class="cls-8" points="176.66 81.59 162.68 73.87 162.68 64.12 176.66 71.84 176.66 81.59"/><polygon class="cls-5" points="120.72 60.46 106.74 52.73 106.74 42.98 120.72 50.71 120.72 60.46"/><polygon class="cls-6" points="134.71 68.18 120.72 60.46 120.72 50.71 134.71 58.43 134.71 68.18"/><polygon class="cls-7" points="148.69 75.9 134.71 68.18 134.71 58.43 148.69 66.15 148.69 75.9"/><polygon class="cls-8" points="162.68 83.62 148.69 75.9 148.69 66.15 162.68 73.87 162.68 83.62"/><polygon class="cls-9" points="176.66 91.34 162.68 83.62 162.68 73.87 176.66 81.59 176.66 91.34"/><polygon class="cls-6" points="120.72 70.2 106.74 62.48 106.74 52.73 120.72 60.46 120.72 70.2"/><polygon class="cls-7" points="134.71 77.93 120.72 70.2 120.72 60.46 134.71 68.18 134.71 77.93"/><polygon class="cls-8" points="148.69 85.65 134.71 77.93 134.71 68.18 148.69 75.9 148.69 85.65"/><polygon class="cls-9" points="162.68 93.37 148.69 85.65 148.69 75.9 162.68 83.62 162.68 93.37"/><polygon class="cls-10" points="176.66 101.09 162.68 93.37 162.68 83.62 176.66 91.34 176.66 101.09"/><polygon class="cls-7" points="120.72 79.95 106.74 72.23 106.74 62.48 120.72 70.2 120.72 79.95"/><polygon class="cls-8" points="134.71 87.67 120.72 79.95 120.72 70.2 134.71 77.93 134.71 87.67"/><polygon class="cls-9" points="148.69 95.4 134.71 87.67 134.71 77.93 148.69 85.65 148.69 95.4"/><polygon class="cls-10" points="162.68 103.12 148.69 95.4 148.69 85.65 162.68 93.37 162.68 103.12"/><polygon class="cls-11" points="176.66 110.84 162.68 103.12 162.68 93.37 176.66 101.09 176.66 110.84"/><polygon class="cls-8" points="120.72 89.7 106.74 81.98 106.74 72.23 120.72 79.95 120.72 89.7"/><polygon class="cls-9" points="134.71 97.42 120.72 89.7 120.72 79.95 134.71 87.67 134.71 97.42"/><polygon class="cls-10" points="148.69 105.14 134.71 97.42 134.71 87.67 148.69 95.4 148.69 105.14"/><polygon class="cls-11" points="162.68 112.87 148.69 105.14 148.69 95.4 162.68 103.12 162.68 112.87"/><polygon class="cls-12" points="176.66 120.59 162.68 112.87 162.68 103.12 176.66 110.84 176.66 120.59"/><polygon class="cls-13" points="148.69 56.4 99.91 29.47 99.91 22.37 148.69 49.3 148.69 56.4"/><polygon class="cls-13" points="106.74 81.98 99.91 78.21 99.91 29.47 106.74 33.24 106.74 81.98"/><polygon class="cls-13" points="176.66 71.84 148.69 56.4 148.69 49.3 176.66 64.75 176.66 71.84"/><line class="cls-14" x1="95.06" y1="19.01" x2="95.06" y2="80.17"/><polygon class="cls-15" points="92.63 19.5 95.06 15.37 97.48 22.09 92.63 19.5"/><line class="cls-14" x1="177.82" y1="124.67" x2="92.42" y2="76.91"/><polygon class="cls-15" points="177.13 121.69 181.26 126.56 177.11 126.89 177.13 121.69"/><polygon class="cls-16" points="185.79 154.48 185.79 159.23 96.32 212.01 96.32 207.26 185.79 154.48"/><polygon class="cls-17" points="96.32 207.26 96.32 212.01 0.22 156.28 0.22 151.53 96.32 207.26"/><polygon class="cls-18" points="96.1 207.28 0 151.54 0 151.28 90.31 99.37 185.79 154.5 96.25 207.37 96.1 207.28"/><path class="cls-19" d="M186.46,117.56a1.6,1.6,0,0,0-.23,0,2.32,2.32,0,0,1-.38-1c-.35-1.58-1.37-.63-1.37-.63l-2,.63s1,3.3,2.68,4.55a2,2,0,1,0,1.28-3.53Z" transform="translate(-104.52 -9.18)"/><path class="cls-20" d="M196.09,86.55s-5-2.38-6.9,0-7.32,13.47-7.95,16.81.63,11.09,1.26,13.18,3.35,0,3.35,0,.83-10.25,1-11.09,4.18-10.87,4.18-10.87a64.67,64.67,0,0,0,2.1,6.9c.83,1.88-1,7.32-1.47,8.78s3.35,2.93,6.49,3.14,9-2.3,9-2.3,2.1-17.15-1.66-19S196.09,86.55,196.09,86.55Z" transform="translate(-104.52 -9.18)"/><path class="cls-21" d="M212.28,166.26c-1.59-1-3.25-.26-3.68-.33a3.81,3.81,0,0,1-3.78-3.11c-.06-.33-.07-3.15-.07-3.15l-2.61.34s-1.34,8.75-1.41,9.92.3,1.35,1.7,1.91,5.11-1.81,7.13-2.16S213.87,167.31,212.28,166.26Z" transform="translate(-104.52 -9.18)"/><path class="cls-21" d="M196.83,162.32c-1.59-1.06-3.25-.27-3.68-.33s-1.84,0-2.41-.4c-.2-.9,1.57-5.17,1.57-5.17l-1.14-.16-2.34.87s-3.48,7.69-3.55,8.85.3,1.35,1.7,1.91,5.1-1.8,7.13-2.16S198.42,163.37,196.83,162.32Z" transform="translate(-104.52 -9.18)"/><path class="cls-19" d="M208.25,82.6A6.27,6.27,0,1,1,203.63,75,6.27,6.27,0,0,1,208.25,82.6Z" transform="translate(-104.52 -9.18)"/><path class="cls-22" d="M191.7,110.26a65.15,65.15,0,0,0-1.46,7.21c0,1.37,3.12,15.17,4.38,19.15s-6.89,20.28-6.89,21.33,1,2.51,2.3,2.3S200.9,142.05,202,138.5,204,118.42,204,118.42l3.13-7.32Z" transform="translate(-104.52 -9.18)"/><path class="cls-20" d="M190.52,115.48l6.93,5.66s4.08,14,4.5,17.36-1.25,19.68-.2,21.77,2.72,1.67,3.34,1.26,3.55-20.29,3.55-26.26-1.53-24.59-1.53-24.59l-15.41-.42Z" transform="translate(-104.52 -9.18)"/><path class="cls-19" d="M196.88,81.87l-.94,6.73h0A4,4,0,0,0,199.77,91l.77,0,1.51-7.08Z" transform="translate(-104.52 -9.18)"/><path class="cls-23" d="M205.74,83.87a1.3,1.3,0,0,0-1.69-1.46,1.68,1.68,0,0,0-.87,1.65,4.86,4.86,0,0,0,.62,1.87,28.77,28.77,0,0,1-7,1.63l-1.77-4.62a6.45,6.45,0,0,1-.56-2.15,7.79,7.79,0,0,1,2.64-5.34,8.25,8.25,0,0,1,6.49-1.33,7,7,0,0,1,4.5,3.72C209.22,80,206.93,82.07,205.74,83.87Z" transform="translate(-104.52 -9.18)"/><path class="cls-23" d="M200.56,70.89a8.65,8.65,0,0,0-4.33-1.78c-2-.38-4.3-.53-6,.67s-2.24,3.3-2.46,5.3a7.68,7.68,0,0,0,.35,3.84,6.4,6.4,0,0,0,5.3,3.41,8.17,8.17,0,0,0,5.77-1.44C201.81,78.94,203.26,73.32,200.56,70.89Z" transform="translate(-104.52 -9.18)"/><path class="cls-24" d="M202.05,75.25c-.12,3-2.23,6.54-5.21,7.06a2.36,2.36,0,0,0,.15.41,6.66,6.66,0,0,0,5.75-5.27C202.94,76.46,202.59,76.1,202.05,75.25Z" transform="translate(-104.52 -9.18)"/><path class="cls-25" d="M202.64,114.29a28.84,28.84,0,0,1,3.59,5.18" transform="translate(-104.52 -9.18)"/><path class="cls-19" d="M224.82,95.11a2.69,2.69,0,1,1-2.69-2.69A2.68,2.68,0,0,1,224.82,95.11Z" transform="translate(-104.52 -9.18)"/><path class="cls-22" d="M205.51,92.07c-1.49-.74-3.26-1.76-4.87-2.72,2.05,7.61,3.89,16.13,1.07,23.6a41.45,41.45,0,0,0,5.46-1.85S209.27,94,205.51,92.07Z" transform="translate(-104.52 -9.18)"/><path class="cls-20" d="M198.83,88.39l6.68,3.68s1.88.67,3.76,5.25,5.74,8,7,8.46c0,0,3.91-8.5,4.74-9.13s2.09,0,2.07.67c-.08,2.7-1.88,14.83-4.6,15.87s-20.58-13.09-20.79-16.85A25.58,25.58,0,0,1,198.83,88.39Z" transform="translate(-104.52 -9.18)"/><path class="cls-26" d="M193.24,108.92c-.35-.08-.71-.15-1.05-.26-.21.69-.39,1.26-.49,1.6-.42,1.47,3.35,2.93,6.49,3.14s9-2.3,9-2.3.12-1,.25-2.47C202.48,110.63,196.93,111.87,193.24,108.92Z" transform="translate(-104.52 -9.18)"/><path class="cls-27" d="M202.51,110.22a20.71,20.71,0,0,1-.8,2.73,41.45,41.45,0,0,0,5.46-1.85s.12-1,.25-2.47A33,33,0,0,1,202.51,110.22Z" transform="translate(-104.52 -9.18)"/></svg>