<svg xmlns="http://www.w3.org/2000/svg" xmlns:xlink="http://www.w3.org/1999/xlink" viewBox="0 0 148.8 148.8"><defs><style>.cls-1,.cls-9{fill:none;}.cls-2{clip-path:url(#clip-path);}.cls-3{fill:#d5d5d4;}.cls-4{fill:#5d5d5d;}.cls-5{fill:#9f9f9f;}.cls-6{fill:#a6ada0;}.cls-7{fill:#7d8278;}.cls-8{fill:#f5ad1f;opacity:0.8;}.cls-9{stroke:#eaeaea;stroke-miterlimit:10;stroke-width:4.37px;}.cls-10{clip-path:url(#clip-path-2);}.cls-11{fill:#3a3762;}.cls-12{fill:#49488c;}.cls-13{fill:#dc5a55;}.cls-14{fill:#e38868;}.cls-15{fill:#c74849;}.cls-16{fill:#bb745d;}.cls-17{fill:#474473;}</style><clipPath id="clip-path" transform="translate(-3.63 -3.76)"><circle class="cls-1" cx="77.69" cy="78.29" r="74.41"/></clipPath><clipPath id="clip-path-2" transform="translate(-3.63 -3.76)"><rect class="cls-1" x="60.05" y="51.94" width="30.77" height="46.94"/></clipPath></defs><title>G14_05_06_03</title><g id="Houses"><g class="cls-2"><path class="cls-3" d="M66.34,122.33H87.48v27.41a72.34,72.34,0,0,0,16.13-4V129.75h24.93a72.15,72.15,0,0,0,2.23-100.9H103.61V10.62a71.8,71.8,0,0,0-16.13-4v27.9h2.43V43.4h-26V34.48h2.43V6.9a71.91,71.91,0,0,0-17.87,5.37V144a71.91,71.91,0,0,0,17.87,5.37Zm37.27-52.62H144V90.89H103.61Z" transform="translate(-3.63 -3.76)"/><path class="cls-4" d="M105.68,11.75v13h21a72.11,72.11,0,0,0-20.23-13Z" transform="translate(-3.63 -3.76)"/><path class="cls-5" d="M130.77,28.85c-1.32-1.41-2.68-2.78-4.11-4.08h-21v-13h.75c-.93-.4-1.87-.77-2.82-1.13V28.85Z" transform="translate(-3.63 -3.76)"/><path class="cls-4" d="M76.91,34.48H87.48V6.58A71.76,71.76,0,0,0,78,5.94a72.7,72.7,0,0,0-11.69,1V34.48Z" transform="translate(-3.63 -3.76)"/><rect class="cls-6" x="60.28" y="30.72" width="2.43" height="8.92"/><rect class="cls-6" x="62.71" y="30.72" width="10.57" height="8.92"/><rect class="cls-7" x="83.85" y="30.72" width="2.43" height="8.92"/><rect class="cls-7" x="73.27" y="30.72" width="10.57" height="8.92"/><path class="cls-4" d="M66.34,122.33v27.08a72.7,72.7,0,0,0,11.69,1,73.52,73.52,0,0,0,9.45-.63V122.33Z" transform="translate(-3.63 -3.76)"/><rect class="cls-4" x="102.04" y="70.03" width="36.29" height="13.03"/><path class="cls-5" d="M144,69.71H103.61V90.89H144ZM142,86.81H105.68v-13H142Z" transform="translate(-3.63 -3.76)"/><path class="cls-4" d="M105.68,133.82v11.06A71.94,71.94,0,0,0,124,133.82Z" transform="translate(-3.63 -3.76)"/><path class="cls-5" d="M103.61,145.7l2.07-.82V133.82H124q2.34-1.94,4.51-4.07H103.61Z" transform="translate(-3.63 -3.76)"/><circle class="cls-8" cx="74.4" cy="74.4" r="72.21"/><circle class="cls-9" cx="74.4" cy="74.4" r="72.21"/><rect class="cls-4" x="56.41" y="48.18" width="30.77" height="59.9"/><rect class="cls-6" x="52.88" y="95.1" width="18.92" height="12.99"/><rect class="cls-7" x="71.8" y="95.1" width="18.93" height="12.99"/><g class="cls-10"><path class="cls-11" d="M63.37,115.3l2.05-9.89,1.29,0,.87,9.87h8c.12-4.38.14-12.67,0-16.76L56.62,98c-.19,3.26-.29,12.27-.64,17.26Z" transform="translate(-3.63 -3.76)"/><path class="cls-11" d="M56,115.3c-.75,14-1.46,31.75-1.46,31.75l-2.82,2.09h4.4l7.27-33.84-4.08-.64Z" transform="translate(-3.63 -3.76)"/><path class="cls-11" d="M75.56,115.3l-5.9-3.24-2.08,3.24,3.5,33.84h4.4L73,147.24A312.32,312.32,0,0,0,75.56,115.3Z" transform="translate(-3.63 -3.76)"/><path class="cls-12" d="M66.13,104.24a.17.17,0,0,1-.16-.12L64.87,100a.16.16,0,0,1,.12-.19.15.15,0,0,1,.2.11l1.1,4.1a.16.16,0,0,1-.12.2Z" transform="translate(-3.63 -3.76)"/><path class="cls-13" d="M75.88,76l-1.3,23.46L56.62,98l-2.41,1.54c-1-5.75-1.7-12.57-.75-18.51.3-1.89,1.22-6.4,1.6-8.29.2-1,8.46-5.43,10-5.34a18.09,18.09,0,0,1,4.52.41c2.62.6,7.23,3.15,8.2,4.34s2.49,16.9,2.16,18.4c-.81,3.67-2.85,10.12-2.85,10.12l-2.48-1.26" transform="translate(-3.63 -3.76)"/><path class="cls-14" d="M74.58,99.45s-2.4,2.69-1.21,4.36,3.69-3.1,3.69-3.1A20.14,20.14,0,0,0,74.58,99.45Z" transform="translate(-3.63 -3.76)"/><path class="cls-15" d="M57.14,96.69h0a.17.17,0,0,1-.15-.18c.22-2.89.48-5.66.73-8.33.19-2,.38-4.08.56-6.23.22-2.59.26-7.51-1-9.56a.15.15,0,0,1,.06-.22.16.16,0,0,1,.22.06c1.25,2.11,1.22,7.12,1,9.75-.18,2.15-.38,4.22-.57,6.23-.25,2.67-.51,5.44-.73,8.33A.16.16,0,0,1,57.14,96.69Z" transform="translate(-3.63 -3.76)"/><path class="cls-14" d="M63.68,64v3.78s3.06,3.24,5.87.08L69.3,64Z" transform="translate(-3.63 -3.76)"/><path class="cls-14" d="M71.16,61.33a1,1,0,0,0-.31-.09c.44-2.76.25-6.19-4.27-6.05-2.7.08-3.5,2.55-3.67,5.14a.78.78,0,0,0-.61,0c-.94.28-.29,2.63.68,3,.35,2.36,1.6,3.88,3.39,4s2.95-1.16,3.72-3.1C71.1,64,72.05,61.73,71.16,61.33Z" transform="translate(-3.63 -3.76)"/><path class="cls-16" d="M66.59,67.48h-.23A3.33,3.33,0,0,1,64,66.19.16.16,0,0,1,64,66a.17.17,0,0,1,.23,0,3.06,3.06,0,0,0,2.16,1.16,2.91,2.91,0,0,0,2.4-1.05.16.16,0,0,1,.23,0,.17.17,0,0,1,0,.23A3.3,3.3,0,0,1,66.59,67.48Z" transform="translate(-3.63 -3.76)"/><path class="cls-14" d="M54.21,99.58s2.46,4.79,3.31,2.61a4.36,4.36,0,0,0-.9-4.15h0Z" transform="translate(-3.63 -3.76)"/><path class="cls-17" d="M62.91,60.33l.57.92h.61V59.67A3.21,3.21,0,0,0,64.94,58l4.61.33s-.15,1.13.22,1.58v1.82h.56l.52-.49s1.12-4.05.67-5.06a1.09,1.09,0,0,0-1.39-.65,3.75,3.75,0,0,0-3.64-1.17c-2.12.6-3.82,1.9-4.14,2.79S62.91,60.33,62.91,60.33Z" transform="translate(-3.63 -3.76)"/><path class="cls-14" d="M74.58,99.45s-2.4,2.69-1.21,4.36,3.69-3.1,3.69-3.1A20.14,20.14,0,0,0,74.58,99.45Z" transform="translate(-3.63 -3.76)"/><path class="cls-15" d="M75.21,99.71a10.33,10.33,0,0,1-1.52-.46c0-.09,2.09-26.19,2.17-26.57a.17.17,0,0,1,.2-.13.17.17,0,0,1,.12.2C76.1,73.11,75.23,99.71,75.21,99.71Z" transform="translate(-3.63 -3.76)"/></g><path class="cls-15" d="M76.18,98.88H74.94s.84-25.82.92-26.2a.17.17,0,0,1,.2-.13.17.17,0,0,1,.12.2C76.1,73.11,76.18,98.88,76.18,98.88Z" transform="translate(-3.63 -3.76)"/></g></g></svg>