<svg xmlns="http://www.w3.org/2000/svg" xmlns:xlink="http://www.w3.org/1999/xlink" viewBox="0 0 577.18 311.47"><defs><style>.cls-1{fill:url(#Sfumatura_senza_nome_3);}.cls-2{fill:url(#Sfumatura_senza_nome_3-2);}.cls-18,.cls-3,.cls-36,.cls-4,.cls-5,.cls-7{fill:none;}.cls-4,.cls-5,.cls-7{stroke:#fdc20b;stroke-linejoin:round;stroke-width:5px;}.cls-36,.cls-4,.cls-5,.cls-7{stroke-linecap:round;}.cls-5{stroke-dasharray:9.3 9.3;}.cls-6{fill:#d29e08;}.cls-7{stroke-dasharray:12.54 12.54;}.cls-8{fill:#fdd875;}.cls-9{fill:#fdc20b;}.cls-10{clip-path:url(#clip-path);}.cls-11{fill:#c4cfdb;}.cls-12{fill:#eaeaea;}.cls-13{fill:#e6332a;}.cls-14{fill:#878787;}.cls-15{fill:#706f6f;}.cls-16{fill:#5b5b5a;}.cls-17{fill:#fff;}.cls-18{stroke:#5b5b5a;stroke-width:0.99px;}.cls-18,.cls-36{stroke-miterlimit:10;}.cls-19{fill:#f5ad1f;}.cls-20{opacity:0.3;}.cls-21{clip-path:url(#clip-path-2);}.cls-22{clip-path:url(#clip-path-3);}.cls-23{mask:url(#mask);}.cls-24{fill:url(#Sfumatura_senza_nome_2);}.cls-25{clip-path:url(#clip-path-4);}.cls-26{fill:#3aaa35;}.cls-27{fill:#36a9e1;}.cls-28{clip-path:url(#clip-path-6);}.cls-29{clip-path:url(#clip-path-7);}.cls-30{mask:url(#mask-2);}.cls-31{fill:url(#Sfumatura_senza_nome_2-2);}.cls-32{fill:#9ea6b0;}.cls-33{fill:#ebebeb;}.cls-34{fill:#d8d8d8;}.cls-35{fill:#2a3134;}.cls-36{stroke:#9ea6b0;stroke-width:8.5px;}.cls-37{fill:#323232;}</style><linearGradient id="Sfumatura_senza_nome_3" x1="-512.21" y1="1401.02" x2="-511.21" y2="1401.02" gradientTransform="translate(63696.11 23147.01) rotate(90) scale(45.12)" gradientUnits="userSpaceOnUse"><stop offset="0" stop-color="#fff"/><stop offset="0.12" stop-color="#fbfbfb"/><stop offset="0.25" stop-color="#eee"/><stop offset="0.37" stop-color="#dadada"/><stop offset="0.5" stop-color="#bcbcbc"/><stop offset="0.63" stop-color="#979797"/><stop offset="0.76" stop-color="#696969"/><stop offset="0.89" stop-color="#343434"/><stop offset="1"/></linearGradient><linearGradient id="Sfumatura_senza_nome_3-2" x1="-508.05" y1="1400.98" x2="-507.05" y2="1400.98" xlink:href="#Sfumatura_senza_nome_3"/><clipPath id="clip-path" transform="translate(-9.59 -4.5)"><rect class="cls-3" x="438.19" y="35.14" width="113.39" height="68.24"/></clipPath><clipPath id="clip-path-2" transform="translate(-9.59 -4.5)"><rect class="cls-3" x="443.45" y="35.82" width="87.4" height="39.79"/></clipPath><clipPath id="clip-path-3" transform="translate(-9.59 -4.5)"><path class="cls-3" d="M454.5,75.61l76.36-23.08L502.27,35.82,443.45,69.4c0,.28,11.05,6.21,11.05,6.21"/></clipPath><mask id="mask" x="433.86" y="31.32" width="87.4" height="39.79" maskUnits="userSpaceOnUse"><g transform="translate(-9.59 -4.5)"><rect class="cls-1" x="443.45" y="35.82" width="87.4" height="39.79"/></g></mask><linearGradient id="Sfumatura_senza_nome_2" x1="-512.21" y1="1401.02" x2="-511.21" y2="1401.02" gradientTransform="translate(63686.52 23142.51) rotate(90) scale(45.12)" gradientUnits="userSpaceOnUse"><stop offset="0" stop-color="#fff"/><stop offset="0.13" stop-color="#fbfbfb"/><stop offset="0.26" stop-color="#efefee"/><stop offset="0.39" stop-color="#dadada"/><stop offset="0.53" stop-color="#bdbdbd"/><stop offset="0.67" stop-color="#989897"/><stop offset="0.81" stop-color="#6a6a69"/><stop offset="0.94" stop-color="#363634"/><stop offset="1" stop-color="#1d1d1b"/></linearGradient><clipPath id="clip-path-4" transform="translate(-9.59 -4.5)"><rect class="cls-3" x="440.19" y="221.34" width="113.39" height="70.09"/></clipPath><clipPath id="clip-path-6" transform="translate(-9.59 -4.5)"><rect class="cls-3" x="445.45" y="223.87" width="87.4" height="39.79"/></clipPath><clipPath id="clip-path-7" transform="translate(-9.59 -4.5)"><path class="cls-3" d="M456.5,263.66l76.36-23.08-28.59-16.71-58.82,33.57c0,.29,11.05,6.22,11.05,6.22"/></clipPath><mask id="mask-2" x="435.86" y="219.37" width="87.4" height="39.79" maskUnits="userSpaceOnUse"><g transform="translate(-9.59 -4.5)"><rect class="cls-2" x="445.45" y="223.87" width="87.4" height="39.79"/></g></mask><linearGradient id="Sfumatura_senza_nome_2-2" x1="-508.05" y1="1400.98" x2="-507.05" y2="1400.98" xlink:href="#Sfumatura_senza_nome_2"/></defs><title>G14_06_06</title><g id="Livello_1" data-name="Livello 1"><line class="cls-4" x1="98.12" y1="112.69" x2="98.12" y2="118.69"/><line class="cls-5" x1="98.12" y1="127.99" x2="98.12" y2="160.55"/><line class="cls-4" x1="98.12" y1="165.2" x2="98.12" y2="171.2"/><path class="cls-6" d="M112.67,172.26H102.25a2.11,2.11,0,0,0-1.83,3.16l5.21,9a2.1,2.1,0,0,0,3.65,0l5.21-9A2.11,2.11,0,0,0,112.67,172.26Z" transform="translate(-9.59 -4.5)"/><line class="cls-4" x1="371.22" y1="252.29" x2="365.22" y2="252.29"/><line class="cls-7" x1="352.68" y1="252.29" x2="208.49" y2="252.29"/><line class="cls-4" x1="202.22" y1="252.29" x2="196.22" y2="252.29"/><path class="cls-6" d="M377.87,251.58V262a2.12,2.12,0,0,0,3.17,1.83l9-5.21a2.11,2.11,0,0,0,0-3.66l-9-5.21A2.12,2.12,0,0,0,377.87,251.58Z" transform="translate(-9.59 -4.5)"/><line class="cls-4" x1="206.71" y1="64.8" x2="212.71" y2="64.8"/><line class="cls-7" x1="225.25" y1="64.8" x2="369.43" y2="64.8"/><line class="cls-4" x1="375.7" y1="64.8" x2="381.7" y2="64.8"/><path class="cls-6" d="M219.23,74.51V64.09a2.11,2.11,0,0,0-3.17-1.82l-9,5.21a2.1,2.1,0,0,0,0,3.65l9,5.21A2.11,2.11,0,0,0,219.23,74.51Z" transform="translate(-9.59 -4.5)"/><polygon class="cls-6" points="185.79 63.79 185.79 68.54 96.32 121.31 96.32 116.56 185.79 63.79"/><polygon class="cls-8" points="96.32 116.56 96.32 121.31 0.22 65.58 0.22 60.83 96.32 116.56"/><polygon class="cls-9" points="96.1 116.58 0 60.85 0 60.58 90.31 8.68 185.79 63.8 96.25 116.67 96.1 116.58"/><polygon class="cls-6" points="577.18 63.79 577.18 68.54 487.72 121.31 487.72 116.56 577.18 63.79"/><polygon class="cls-8" points="487.72 116.56 487.72 121.31 391.62 65.58 391.62 60.83 487.72 116.56"/><polygon class="cls-9" points="487.5 116.58 391.4 60.85 391.4 60.58 481.7 8.68 577.18 63.8 487.64 116.67 487.5 116.58"/><polygon class="cls-6" points="185.79 253.95 185.79 258.7 96.32 311.47 96.32 306.72 185.79 253.95"/><polygon class="cls-8" points="96.32 306.72 96.32 311.47 0.22 255.74 0.22 250.99 96.32 306.72"/><polygon class="cls-9" points="96.1 306.74 0 251.01 0 250.74 90.31 198.84 185.79 253.96 96.25 306.83 96.1 306.74"/><polygon class="cls-6" points="577.18 253.95 577.18 258.7 487.72 311.47 487.72 306.72 577.18 253.95"/><polygon class="cls-8" points="487.72 306.72 487.72 311.47 391.62 255.74 391.62 250.99 487.72 306.72"/><polygon class="cls-9" points="487.5 306.74 391.4 251.01 391.4 250.74 481.7 198.84 577.18 253.96 487.64 306.83 487.5 306.74"/><g class="cls-10"><path class="cls-6" d="M549.87,60a1.36,1.36,0,0,0-.12-.12,1.8,1.8,0,0,0-.2-.19,2.34,2.34,0,0,0-1-.62L508.34,35.76a5.82,5.82,0,0,0-5.54.17L440,72.12a2.46,2.46,0,0,0-.51.45,2.17,2.17,0,0,0-.38.46c-1.76,2.87-.58,4.44.42,5.41a3.58,3.58,0,0,0,.91.7l.05,0,40.75,23.6a5.75,5.75,0,0,0,5.46-.17l62.58-36.09s4.76-2.3.61-6.5" transform="translate(-9.59 -4.5)"/></g><path class="cls-11" d="M547.8,57.36c-2.1-2.12-2.17-.22-1.76,2.08L507.62,37.17a5.65,5.65,0,0,0-5.37.17L445.88,69.82c-2.29-1-4.38-1.39-5.32.15-1.71,2.78-.56,4.29.4,5.23a3.55,3.55,0,0,0,.88.69l.05,0,39.45,22.85a5.53,5.53,0,0,0,5.28-.17L547.2,63.65s4.61-2.22.6-6.29" transform="translate(-9.59 -4.5)"/><path class="cls-12" d="M441.41,69.09l60.81-35a5.65,5.65,0,0,1,5.37-.17l39.46,22.88a2.25,2.25,0,0,1,.13,3.95L486.59,95.66a5.56,5.56,0,0,1-5.28.16L441.86,73c-1.94-1.16-1.83-3-.45-3.89" transform="translate(-9.59 -4.5)"/><path class="cls-13" d="M444.16,69.77,486,93.59a1,1,0,0,0,1,0l57.58-33a.34.34,0,0,0,0-.59l-41.79-24a.9.9,0,0,0-.87,0L444.14,69.23a.3.3,0,0,0,0,.54" transform="translate(-9.59 -4.5)"/><path class="cls-14" d="M460.79,81.74l0,0c-.14-.08-.12-.22,0-.31a.61.61,0,0,1,.54,0h0c.13.08.12.22,0,.31a.61.61,0,0,1-.54,0" transform="translate(-9.59 -4.5)"/><path class="cls-14" d="M466.34,84.91l-4.77-2.73c-.14-.08-.12-.22,0-.31a.61.61,0,0,1,.54,0l4.77,2.73c.13.08.12.22,0,.31a.61.61,0,0,1-.54,0" transform="translate(-9.59 -4.5)"/><path class="cls-14" d="M526,48.18,523,46.52c-.58-.34-.5-.93.17-1.31a2.52,2.52,0,0,1,2.28-.09l2.93,1.67c.58.34.51.93-.17,1.31a2.5,2.5,0,0,1-2.27.08" transform="translate(-9.59 -4.5)"/><path class="cls-15" d="M523.1,45.7a2.52,2.52,0,0,1,2.28-.09l2.93,1.67a.7.7,0,0,1,.37.44.61.61,0,0,0-.27-.93l-2.93-1.67a2.52,2.52,0,0,0-2.28.09c-.43.25-.62.58-.54.87a1.2,1.2,0,0,1,.44-.38" transform="translate(-9.59 -4.5)"/><path class="cls-15" d="M497.87,90.18a.36.36,0,0,0-.23,0l-2.47,1.44h0a.56.56,0,0,0-.26.35.47.47,0,0,0,.22.61.36.36,0,0,0,.23,0h0l0,0,2.43-1.41h0a.57.57,0,0,0,.3-.37.46.46,0,0,0-.23-.6" transform="translate(-9.59 -4.5)"/><path class="cls-16" d="M498,90.27a.34.34,0,0,0-.24,0l-2.47,1.44h0a.6.6,0,0,0-.26.35.47.47,0,0,0,.23.61.29.29,0,0,0,.22,0h0L498,91.25h0a.56.56,0,0,0,.29-.37.47.47,0,0,0-.22-.61" transform="translate(-9.59 -4.5)"/><path class="cls-15" d="M501.68,88a.37.37,0,0,0-.23,0L499,89.47h0a.59.59,0,0,0-.26.36.46.46,0,0,0,.23.6.34.34,0,0,0,.22,0h0l0,0L501.62,89a.54.54,0,0,0,.29-.37.46.46,0,0,0-.23-.6" transform="translate(-9.59 -4.5)"/><path class="cls-16" d="M501.85,88.11a.3.3,0,0,0-.23,0l-2.48,1.44h0a.64.64,0,0,0-.26.35.48.48,0,0,0,.23.61.37.37,0,0,0,.23,0h0l2.42-1.41h0a.6.6,0,0,0,.3-.37.48.48,0,0,0-.23-.6" transform="translate(-9.59 -4.5)"/><path class="cls-15" d="M494.05,92.4a.31.31,0,0,0-.23,0l-.6.33h0a.58.58,0,0,0-.26.36.46.46,0,0,0,.22.6.36.36,0,0,0,.23,0h0l.56-.31h0a.59.59,0,0,0,.29-.37.47.47,0,0,0-.23-.61" transform="translate(-9.59 -4.5)"/><path class="cls-16" d="M494.22,92.5a.34.34,0,0,0-.24,0l-.6.33h0a.64.64,0,0,0-.26.35.47.47,0,0,0,.23.61.34.34,0,0,0,.22,0h0l0,0,.55-.3h0a.58.58,0,0,0,.29-.38.46.46,0,0,0-.22-.6" transform="translate(-9.59 -4.5)"/><path class="cls-14" d="M444.09,69.67,501.81,36.4a.92.92,0,0,1,.88,0l41.79,24a.39.39,0,0,1,.1.08.34.34,0,0,0-.09-.53l-41.79-24a.92.92,0,0,0-.88,0L444.1,69.21a.31.31,0,0,0-.05.49l0,0" transform="translate(-9.59 -4.5)"/><path class="cls-17" d="M489.77,68.49,477.23,61.2c-1.29-.75-1-2.3.61-3.45l7.12-5c1.63-1.15,4-1.48,5.29-.73l12.53,7.29c1.3.75,1,2.3-.6,3.45l-7.12,5.05c-1.63,1.15-4,1.48-5.29.73" transform="translate(-9.59 -4.5)"/><polygon class="cls-17" points="465.1 59.41 471.31 57.29 475.1 59.5 465.1 59.41"/><line class="cls-18" x1="487.54" y1="55.6" x2="490.02" y2="57.04"/><line class="cls-18" x1="480.94" y1="51.76" x2="486.7" y2="55.11"/><line class="cls-18" x1="477.41" y1="49.71" x2="479.93" y2="51.18"/><line class="cls-18" x1="486.37" y1="57.79" x2="487.8" y2="58.62"/><line class="cls-18" x1="480.23" y1="54.22" x2="485.32" y2="57.18"/><line class="cls-18" x1="475.19" y1="51.29" x2="479.26" y2="53.66"/><line class="cls-18" x1="483.58" y1="58.62" x2="485.9" y2="59.97"/><line class="cls-18" x1="478.33" y1="55.57" x2="482.57" y2="58.04"/><line class="cls-18" x1="473.28" y1="52.64" x2="477.23" y2="54.93"/><line class="cls-18" x1="471.38" y1="53.99" x2="476.42" y2="56.92"/><path class="cls-12" d="M488.33,75.84l-7.42-4.31c-1.67-1-1.32-3,.79-4.48l6.64-4.7c2.11-1.5,5.19-1.92,6.86-1l12.15,7.07c1.67,1,1.32,3-.79,4.48l-6.64,4.7c-2.1,1.5-5.18,1.92-6.86.95l-1-.58-2.3,2.43Z" transform="translate(-9.59 -4.5)"/><path class="cls-13" d="M506.71,68.92c1.4.81,1.11,2.48-.65,3.73l-6.64,4.71c-1.76,1.25-4.32,1.6-5.72.79l-1.81-1.06-2,3.06-.82-4.67-7.56-4.4c-1.4-.81-1.11-2.48.65-3.73l6.64-4.71c1.76-1.25,4.33-1.6,5.72-.79l12.15,7.07M508,68,495.83,61c-1.95-1.13-5.54-.64-8,1.1l-6.65,4.71c-2.45,1.74-2.86,4.09-.91,5.22l7.27,4.23.77,4.39,3.08-.33.85-1.33.18.11c1.95,1.13,5.54.64,8-1.1l6.64-4.71c2.46-1.74,2.87-4.08.91-5.22" transform="translate(-9.59 -4.5)"/><line class="cls-18" x1="484.33" y1="60.7" x2="481.85" y2="59.26"/><line class="cls-18" x1="491.94" y1="65.12" x2="485.42" y2="61.33"/><line class="cls-18" x1="494.46" y1="66.59" x2="492.7" y2="65.56"/><line class="cls-18" x1="481.06" y1="61.66" x2="479.63" y2="60.83"/><line class="cls-18" x1="486.44" y1="64.79" x2="482.11" y2="62.27"/><line class="cls-18" x1="492.24" y1="68.16" x2="487.41" y2="65.35"/><line class="cls-18" x1="480.03" y1="63.53" x2="477.72" y2="62.18"/><line class="cls-18" x1="486.05" y1="67.02" x2="481.04" y2="64.11"/><line class="cls-18" x1="490.34" y1="69.51" x2="487.14" y2="67.66"/><line class="cls-18" x1="480.86" y1="66.46" x2="475.82" y2="63.53"/><polygon class="cls-19" points="482.23 68.78 469.36 61.3 483.07 51.58 495.94 59.07 482.23 68.78"/><path class="cls-11" d="M504.45,62.94l-2.68-1.56,5.58-4c1.4-1,1.87-2,1.84-2.58,0-.14,0-.56-.69-.95-1.72-1-5.24-.45-7.54,1.18l-4.54,3.21-2.69-1.56,5.59-4c3.25-2.31,7.91-2.88,10.6-1.32a4,4,0,0,1,2.1,3.28c.08,1.76-1,3.59-3,5Z" transform="translate(-9.59 -4.5)"/><path class="cls-16" d="M494.71,64.52a2.9,2.9,0,0,1-2.79.39c-.68-.4-.54-1.21.32-1.82a2.87,2.87,0,0,1,2.79-.38c.68.39.54,1.21-.32,1.81" transform="translate(-9.59 -4.5)"/><polygon class="cls-16" points="480.54 63.27 484.24 59.92 482.9 59.14 478.07 61.84 480.54 63.27"/><g class="cls-20"><g class="cls-21"><g class="cls-22"><g class="cls-23"><rect class="cls-24" x="433.86" y="31.32" width="87.4" height="39.79"/></g></g></g></g><g class="cls-25"><g class="cls-25"><path class="cls-6" d="M551.87,248.05a1.36,1.36,0,0,1-.12-.12l-.2-.19a2.45,2.45,0,0,0-1-.62l-40.22-23.31a5.82,5.82,0,0,0-5.54.17L442,260.17a2.74,2.74,0,0,0-.51.44,2.17,2.17,0,0,0-.38.46c-1.76,2.88-.58,4.44.42,5.41a3.39,3.39,0,0,0,.91.71l.05,0,40.76,23.6a5.73,5.73,0,0,0,5.45-.17l62.58-36.1s4.76-2.3.61-6.5" transform="translate(-9.59 -4.5)"/><path class="cls-11" d="M549.8,245.41c-2.1-2.12-2.17-.22-1.76,2.08l-38.42-22.27a5.65,5.65,0,0,0-5.37.16l-56.37,32.48c-2.29-1-4.38-1.38-5.32.15-1.71,2.79-.56,4.3.4,5.24a3.48,3.48,0,0,0,.88.68l.05,0,39.45,22.85a5.56,5.56,0,0,0,5.28-.17L549.2,251.7s4.61-2.23.6-6.29" transform="translate(-9.59 -4.5)"/><path class="cls-12" d="M443.41,257.14l60.81-35a5.65,5.65,0,0,1,5.37-.16l39.46,22.87a2.25,2.25,0,0,1,.13,4L488.59,283.7a5.53,5.53,0,0,1-5.28.17L443.86,261c-1.94-1.15-1.83-3-.45-3.88" transform="translate(-9.59 -4.5)"/><path class="cls-26" d="M446.16,257.82,488,281.64a1,1,0,0,0,1,0l57.58-33a.34.34,0,0,0,0-.59l-41.79-24a.9.9,0,0,0-.87,0l-57.72,33.27a.31.31,0,0,0,0,.54" transform="translate(-9.59 -4.5)"/><path class="cls-14" d="M462.79,269.78h0c-.14-.08-.12-.22,0-.31a.64.64,0,0,1,.54,0l0,0c.13.08.12.22,0,.31a.61.61,0,0,1-.54,0" transform="translate(-9.59 -4.5)"/><path class="cls-14" d="M468.34,273l-4.77-2.73c-.14-.08-.12-.22,0-.31a.61.61,0,0,1,.54,0l4.77,2.73c.13.08.12.22,0,.31a.61.61,0,0,1-.54,0" transform="translate(-9.59 -4.5)"/><path class="cls-14" d="M528,236.23,525,234.57c-.58-.34-.5-.93.17-1.32a2.55,2.55,0,0,1,2.28-.08l2.93,1.67c.58.34.51.92-.17,1.31a2.53,2.53,0,0,1-2.27.08" transform="translate(-9.59 -4.5)"/><path class="cls-15" d="M525.1,233.74a2.55,2.55,0,0,1,2.28-.08l2.93,1.67a.71.71,0,0,1,.37.43.6.6,0,0,0-.27-.92l-2.93-1.67a2.55,2.55,0,0,0-2.28.08c-.43.25-.62.58-.54.88a1.32,1.32,0,0,1,.44-.39" transform="translate(-9.59 -4.5)"/><path class="cls-15" d="M499.87,278.22a.31.31,0,0,0-.23,0l-2.47,1.44h0a.53.53,0,0,0-.26.35.47.47,0,0,0,.22.61.31.31,0,0,0,.23,0h0l2.43-1.41a.59.59,0,0,0,.29-.37.47.47,0,0,0-.23-.61" transform="translate(-9.59 -4.5)"/><path class="cls-16" d="M500,278.32a.34.34,0,0,0-.24,0l-2.47,1.43h0a.6.6,0,0,0-.26.35.46.46,0,0,0,.23.6.25.25,0,0,0,.22,0h0L500,279.3h0a.59.59,0,0,0,.29-.37.47.47,0,0,0-.22-.61" transform="translate(-9.59 -4.5)"/><path class="cls-15" d="M503.68,276.06a.31.31,0,0,0-.23,0L501,277.52h0a.56.56,0,0,0-.26.35.47.47,0,0,0,.23.61.29.29,0,0,0,.22,0h0l2.42-1.41a.56.56,0,0,0,.29-.37.46.46,0,0,0-.23-.6" transform="translate(-9.59 -4.5)"/><path class="cls-16" d="M503.85,276.15a.31.31,0,0,0-.23,0l-2.48,1.44h0a.6.6,0,0,0-.26.35.48.48,0,0,0,.23.61.31.31,0,0,0,.23,0h0l2.42-1.41h0a.6.6,0,0,0,.3-.37.49.49,0,0,0-.23-.61" transform="translate(-9.59 -4.5)"/><path class="cls-15" d="M496.05,280.45a.31.31,0,0,0-.23,0l-.6.33h0a.6.6,0,0,0-.27.36.48.48,0,0,0,.23.6.36.36,0,0,0,.23,0h0l0,0,.56-.3h0a.62.62,0,0,0,.29-.37.47.47,0,0,0-.23-.61" transform="translate(-9.59 -4.5)"/><path class="cls-16" d="M496.22,280.55a.36.36,0,0,0-.23,0l-.61.34h0a.6.6,0,0,0-.26.35.47.47,0,0,0,.23.61.29.29,0,0,0,.22,0h0l.55-.31h0a.56.56,0,0,0,.29-.37.46.46,0,0,0-.22-.6" transform="translate(-9.59 -4.5)"/><path class="cls-14" d="M446.09,257.71l57.72-33.27a.94.94,0,0,1,.88,0l41.79,24,.1.07a.34.34,0,0,0-.09-.53L504.7,224a.94.94,0,0,0-.88,0L446.1,257.26a.31.31,0,0,0-.05.49l0,0" transform="translate(-9.59 -4.5)"/><path class="cls-17" d="M491.77,256.53l-12.54-7.28c-1.29-.76-1-2.3.61-3.45l7.12-5.05c1.63-1.16,4-1.48,5.29-.73l12.53,7.29c1.3.75,1,2.29-.6,3.45l-7.13,5.05c-1.62,1.15-4,1.48-5.28.72" transform="translate(-9.59 -4.5)"/><polygon class="cls-17" points="467.1 247.46 473.31 245.34 477.1 247.54 467.1 247.46"/><line class="cls-18" x1="489.54" y1="243.65" x2="492.02" y2="245.09"/><line class="cls-18" x1="482.94" y1="239.81" x2="488.7" y2="243.16"/><line class="cls-18" x1="479.41" y1="237.76" x2="481.93" y2="239.22"/><line class="cls-18" x1="488.37" y1="245.83" x2="489.8" y2="246.67"/><line class="cls-18" x1="482.23" y1="242.27" x2="487.32" y2="245.22"/><line class="cls-18" x1="477.19" y1="239.33" x2="481.26" y2="241.7"/><line class="cls-18" x1="485.58" y1="246.67" x2="487.9" y2="248.02"/><line class="cls-18" x1="480.33" y1="243.62" x2="484.57" y2="246.09"/><line class="cls-18" x1="475.28" y1="240.68" x2="479.23" y2="242.98"/><line class="cls-18" x1="473.38" y1="242.03" x2="478.42" y2="244.97"/><path class="cls-12" d="M490.33,263.89l-7.42-4.31c-1.67-1-1.32-3,.79-4.48l6.64-4.7c2.11-1.5,5.18-1.92,6.86-1l12.15,7.07c1.67,1,1.32,3-.79,4.47l-6.64,4.71c-2.1,1.49-5.18,1.92-6.86.94l-1-.57-2.3,2.42Z" transform="translate(-9.59 -4.5)"/><path class="cls-27" d="M508.71,257c1.4.81,1.11,2.48-.65,3.73l-6.64,4.71c-1.76,1.24-4.32,1.6-5.72.78l-1.81-1.05-2,3.06-.82-4.67-7.56-4.4c-1.4-.82-1.11-2.49.65-3.73l6.64-4.71c1.76-1.25,4.33-1.6,5.72-.79L508.71,257m1.27-.9L497.83,249c-1.95-1.13-5.54-.64-8,1.1l-6.65,4.71c-2.45,1.74-2.86,4.08-.91,5.22l7.27,4.23.77,4.38,3.08-.32.85-1.33.18.1c1.95,1.14,5.54.64,8-1.1l6.64-4.7c2.46-1.75,2.87-4.09.91-5.22" transform="translate(-9.59 -4.5)"/><line class="cls-18" x1="486.33" y1="248.75" x2="483.85" y2="247.3"/><line class="cls-18" x1="493.94" y1="253.17" x2="487.42" y2="249.38"/><line class="cls-18" x1="496.46" y1="254.64" x2="494.7" y2="253.61"/><line class="cls-18" x1="483.06" y1="249.71" x2="481.63" y2="248.88"/><line class="cls-18" x1="488.44" y1="252.84" x2="484.11" y2="250.32"/><line class="cls-18" x1="494.24" y1="256.21" x2="489.41" y2="253.4"/><line class="cls-18" x1="482.04" y1="251.57" x2="479.72" y2="250.23"/><line class="cls-18" x1="488.05" y1="255.07" x2="483.04" y2="252.16"/><line class="cls-18" x1="492.33" y1="257.56" x2="489.14" y2="255.7"/><line class="cls-18" x1="482.86" y1="254.51" x2="477.82" y2="251.58"/><g class="cls-20"><g class="cls-28"><g class="cls-29"><g class="cls-30"><rect class="cls-31" x="435.86" y="219.37" width="87.4" height="39.79"/></g></g></g></g></g></g><polygon class="cls-32" points="83.64 46.28 83.74 81.44 73.13 75.7 73.02 40.54 83.64 46.28"/><polygon class="cls-33" points="83.64 46.28 72.89 40.45 110.18 18.82 120.63 24.38 83.64 46.28"/><polygon class="cls-34" points="120.64 59.43 83.65 81.35 83.64 46.3 120.63 24.38 120.64 59.43"/><polygon class="cls-35" points="-102.59 -20.39 -102.59 -20.39 -102.59 -20.39 -102.59 -20.39 -102.59 -20.39"/><path class="cls-36" d="M96.13,41.56v-20c0-5.22,3.88-10.78,8.7-12.36h0c4.81-1.57,8.77,1.42,8.79,6.65V30.69" transform="translate(-9.59 -4.5)"/><polygon class="cls-32" points="83.64 234.28 83.74 269.44 73.13 263.7 73.02 228.54 83.64 234.28"/><polygon class="cls-33" points="83.64 234.28 72.89 228.45 110.18 206.82 120.63 212.38 83.64 234.28"/><polygon class="cls-34" points="120.64 247.43 83.65 269.35 83.64 234.3 120.63 212.38 120.64 247.43"/><path class="cls-36" d="M113.62,220.39v-20c0-5.23,3.88-10.79,8.69-12.36h0c4.82-1.58,8.78,1.41,8.8,6.64v14.87" transform="translate(-9.59 -4.5)"/><ellipse class="cls-37" cx="86.54" cy="226.29" rx="3.98" ry="3.01"/></g></svg>