<svg xmlns="http://www.w3.org/2000/svg" xmlns:xlink="http://www.w3.org/1999/xlink" viewBox="0 0 145.65 145.65"><defs><style>.cls-1,.cls-26,.cls-8{fill:none;}.cls-2{clip-path:url(#clip-path);}.cls-3{fill:#d5d5d4;}.cls-4{fill:#9f9f9f;}.cls-5{fill:#b8b8b8;}.cls-6{fill:#66abd1;}.cls-7{fill:#fff;}.cls-26,.cls-8{stroke:#eaeaea;stroke-miterlimit:10;}.cls-8{stroke-width:3px;}.cls-9{fill:#e5b878;}.cls-10{fill:#71250d;}.cls-11{fill:#ac8a5a;}.cls-12{fill:#36170e;}.cls-13{fill:#124780;}.cls-14{fill:#17365d;}.cls-15{fill:#414142;}.cls-16{fill:#757575;}.cls-17{fill:#f5ad1f;opacity:0.8;}.cls-18{fill:#323232;opacity:0.3;}.cls-19{fill:#7899b6;}.cls-20{fill:#e52629;}.cls-21{fill:#f9ef83;}.cls-22{fill:#add2e1;}.cls-23{fill:#648098;}.cls-24{fill:#343434;}.cls-25{fill:#b4b4b4;}.cls-26{stroke-width:3.92px;}</style><clipPath id="clip-path" transform="translate(-5.36 -6.84)"><circle class="cls-1" cx="78.19" cy="79.67" r="72.28"/></clipPath></defs><title>G14_05_06_01</title><g id="Mobile"><g class="cls-2"><path class="cls-3" d="M7.23,83.43H148.76c.06-1.25.1-2.5.1-3.76A71.07,71.07,0,0,0,147,63.45H9A71.07,71.07,0,0,0,7.13,79.67C7.13,80.93,7.16,82.18,7.23,83.43Z" transform="translate(-5.36 -6.84)"/><path class="cls-4" d="M7.64,88.05H148.35c.18-1.53.33-3.06.41-4.62H7.23C7.31,85,7.46,86.52,7.64,88.05Z" transform="translate(-5.36 -6.84)"/><path class="cls-5" d="M30.83,132.54h94.33A70.7,70.7,0,0,0,148,90.74H8A70.71,70.71,0,0,0,30.83,132.54Z" transform="translate(-5.36 -6.84)"/><path class="cls-5" d="M8,90.74H148c.14-.89.25-1.79.36-2.69H7.64C7.74,89,7.85,89.85,8,90.74Z" transform="translate(-5.36 -6.84)"/><path class="cls-4" d="M47.05,143.44h61.88a71,71,0,0,0,16.23-10.9H30.83A70.94,70.94,0,0,0,47.05,143.44Z" transform="translate(-5.36 -6.84)"/><path class="cls-6" d="M78,150.54a70.63,70.63,0,0,0,30.94-7.1H47.05A70.66,70.66,0,0,0,78,150.54Z" transform="translate(-5.36 -6.84)"/><path class="cls-7" d="M93.63,10.56,91.25,8.18v1.88C92.05,10.21,92.84,10.38,93.63,10.56Z" transform="translate(-5.36 -6.84)"/><path class="cls-8" d="M131.4,64.7l-84.07,0H8.73a70.87,70.87,0,1,0,138.52,0H131.4Z" transform="translate(-5.36 -6.84)"/><rect class="cls-9" x="67.38" y="38.94" width="2.3"/><path class="cls-9" d="M30.89,26.74v9.5H22a71.43,71.43,0,0,0-6.27,9.55H43.13V18A71.35,71.35,0,0,0,30.89,26.74Z" transform="translate(-5.36 -6.84)"/><path class="cls-9" d="M111.86,17.41V28.79l17,17h2.54V33.11A71.32,71.32,0,0,0,111.86,17.41Z" transform="translate(-5.36 -6.84)"/><polygon class="cls-9" points="73.87 38.94 123.5 38.94 73.87 38.94 73.87 38.94"/><path class="cls-9" d="M47.33,15.77v30h2.29V14.73C48.85,15.07,48.08,15.4,47.33,15.77Z" transform="translate(-5.36 -6.84)"/><path class="cls-10" d="M43.13,45.79H15.74a70.52,70.52,0,0,0-7,18.88h34.4Z" transform="translate(-5.36 -6.84)"/><path class="cls-11" d="M102.88,36.24H91.25V10.06a71,71,0,0,0-12-1.22v37h49.63l-17-17v7.45Z" transform="translate(-5.36 -6.84)"/><path class="cls-11" d="M72.74,9V45.79H75V8.88C74.27,8.91,73.5,9,72.74,9Z" transform="translate(-5.36 -6.84)"/><polygon class="cls-12" points="69.68 57.83 67.38 57.83 44.27 57.83 41.97 57.83 126.04 57.85 126.04 57.83 73.87 57.83 69.68 57.83"/><rect class="cls-12" x="41.97" y="38.94" width="2.3" height="18.88"/><rect class="cls-12" x="67.38" y="38.94" width="2.3" height="18.88"/><polygon class="cls-12" points="73.87 38.94 73.87 57.83 126.04 57.83 126.04 38.94 123.5 38.94 73.87 38.94"/><path class="cls-13" d="M47.33,15.77c-1.43.68-2.82,1.43-4.2,2.21V45.79h4.2Z" transform="translate(-5.36 -6.84)"/><rect class="cls-13" x="37.77" y="38.94" width="4.2" height="18.88"/><rect class="cls-14" x="69.68" y="38.94" width="4.19"/><path class="cls-14" d="M75,8.88V45.79h4.19V8.84c-.41,0-.82,0-1.24,0C77,8.81,76,8.84,75,8.88Z" transform="translate(-5.36 -6.84)"/><rect class="cls-14" x="69.68" y="38.94" width="4.19" height="18.88"/><path class="cls-15" d="M72.74,45.79H52.05V13.73c-.82.32-1.63.65-2.43,1V45.79Z" transform="translate(-5.36 -6.84)"/><path class="cls-15" d="M52.05,13.73V45.79H72.74V9A70.12,70.12,0,0,0,52.05,13.73Z" transform="translate(-5.36 -6.84)"/><rect class="cls-15" x="44.26" y="38.94" width="23.12" height="18.88"/><path class="cls-11" d="M140.25,45.79a71.43,71.43,0,0,0-8.85-12.68V45.79Z" transform="translate(-5.36 -6.84)"/><path class="cls-12" d="M131.4,45.79V64.67h15.85a70.49,70.49,0,0,0-7-18.88Z" transform="translate(-5.36 -6.84)"/><path class="cls-16" d="M24.17,33.6h4.08V29.21Q26.12,31.33,24.17,33.6Z" transform="translate(-5.36 -6.84)"/><path class="cls-7" d="M30.89,26.74c-.9.8-1.78,1.63-2.64,2.47V33.6H24.17c-.74.86-1.46,1.75-2.16,2.64h8.88Z" transform="translate(-5.36 -6.84)"/><path class="cls-16" d="M102.88,19.8l6.34,6.35V16.05c-2.06-1-4.18-1.93-6.34-2.74Z" transform="translate(-5.36 -6.84)"/><path class="cls-16" d="M100.24,17.16V12.39c-2.08-.69-4.19-1.28-6.35-1.77v.2Z" transform="translate(-5.36 -6.84)"/><polygon class="cls-16" points="88.53 3.97 88.53 26.76 94.88 26.76 94.88 10.32 88.53 3.97"/><polygon class="cls-16" points="97.52 26.76 103.86 26.76 103.86 19.3 97.52 12.96 97.52 26.76"/><path class="cls-7" d="M109.22,26.15l2.64,2.64V17.41c-.87-.47-1.75-.92-2.64-1.36Z" transform="translate(-5.36 -6.84)"/><path class="cls-7" d="M93.89,10.62l-.26-.06.26.26Z" transform="translate(-5.36 -6.84)"/><path class="cls-7" d="M109.22,33.6H93.89V10.82l-.26-.26c-.79-.18-1.58-.35-2.38-.5V36.24h20.61V28.79l-2.64-2.64Z" transform="translate(-5.36 -6.84)"/><path class="cls-7" d="M102.88,13.31c-.87-.33-1.76-.63-2.64-.92v4.77l2.64,2.64Z" transform="translate(-5.36 -6.84)"/><polygon class="cls-7" points="94.88 10.32 94.88 26.76 97.52 26.76 97.52 12.96 94.88 10.32"/><circle class="cls-17" cx="72.63" cy="72.83" r="70.87"/><rect class="cls-18" x="16.03" y="88.83" width="112.49" height="8.29" rx="3.55" ry="3.55"/><path class="cls-19" d="M42,57.13H92.12c7.74,0,13.23,15.63,17.51,15.63h10.86A10.22,10.22,0,0,1,130.71,83V89.7a3.39,3.39,0,0,1-3.54,3.39H28.3a3.38,3.38,0,0,1-3.53-3.39V74.28C24.77,65.75,35.89,57.13,42,57.13Z" transform="translate(-5.36 -6.84)"/><path class="cls-20" d="M24.77,80.23s2.74-.21,2.74,2.24v1.37c0,1.57-1.56,1.86-2.74,1.86h0V80.23Z" transform="translate(-5.36 -6.84)"/><path class="cls-21" d="M126.8,79.73V75.62a3.8,3.8,0,0,1,0-.75A10.18,10.18,0,0,1,130.71,83v.37a1,1,0,0,1-.31,0A3.62,3.62,0,0,1,126.8,79.73Z" transform="translate(-5.36 -6.84)"/><rect class="cls-22" x="46.78" y="52.63" width="22.28" height="14.07" rx="2.47" ry="2.47"/><path class="cls-22" d="M28,71c-.31,1.33,1.1,2.51,2.46,2.51H46.91A2.16,2.16,0,0,0,49,71.1v-9c0-1.36-.74-2.58-2.1-2.58H40.33C35.19,59.47,28.87,67.2,28,71Z" transform="translate(-5.36 -6.84)"/><path class="cls-22" d="M78.33,71.1a2.29,2.29,0,0,0,2.28,2.44H99.52A2.43,2.43,0,0,0,102,71c0-4.16-6.3-11.56-10.69-11.56H80.61a2.42,2.42,0,0,0-2.28,2.58Z" transform="translate(-5.36 -6.84)"/><path class="cls-23" d="M127.17,93.09H28.3a3.38,3.38,0,0,1-3.53-3.39V88.4H130.71v1.3A3.39,3.39,0,0,1,127.17,93.09Z" transform="translate(-5.36 -6.84)"/><path class="cls-23" d="M123.9,93.09a10.44,10.44,0,1,0-20.87,0Z" transform="translate(-5.36 -6.84)"/><path class="cls-24" d="M105.35,93.82a8.18,8.18,0,1,0,8.18-8.18A8.17,8.17,0,0,0,105.35,93.82Z" transform="translate(-5.36 -6.84)"/><path class="cls-25" d="M108,93.82a5.5,5.5,0,1,0,5.49-5.5A5.49,5.49,0,0,0,108,93.82Z" transform="translate(-5.36 -6.84)"/><path class="cls-23" d="M55.67,93.09A10.15,10.15,0,0,0,45.23,82.65,10.14,10.14,0,0,0,34.79,93.09Z" transform="translate(-5.36 -6.84)"/><path class="cls-24" d="M37.12,93.82a8.18,8.18,0,1,0,8.17-8.18A8.17,8.17,0,0,0,37.12,93.82Z" transform="translate(-5.36 -6.84)"/><path class="cls-25" d="M39.8,93.82a5.5,5.5,0,1,0,5.49-5.5A5.49,5.49,0,0,0,39.8,93.82Z" transform="translate(-5.36 -6.84)"/><path class="cls-24" d="M78.26,78.43a.94.94,0,0,0,.82,1h5.78a1,1,0,0,0,.82-1h0a1,1,0,0,0-.82-1H79.08a.94.94,0,0,0-.82,1Z" transform="translate(-5.36 -6.84)"/><rect class="cls-24" x="47.56" y="70.61" width="7.43" height="1.95" rx="0.82" ry="0.82"/><path class="cls-23" d="M103,71.14a1.87,1.87,0,0,0-1.91-1.68l-6.73,0a1.54,1.54,0,0,0-1.53,1.68v2.35A1.35,1.35,0,0,0,94.25,75l6.83,0A1.7,1.7,0,0,0,103,73.49Z" transform="translate(-5.36 -6.84)"/><circle class="cls-8" cx="72.63" cy="72.83" r="70.87"/></g><circle class="cls-26" cx="72.83" cy="72.83" r="70.87"/></g></svg>